<svg width="489" height="375" viewBox="0 0 489 375" fill="none" xmlns="http://www.w3.org/2000/svg">
<path d="M333.516 230.046C333.225 230.046 332.947 229.931 332.741 229.726C332.536 229.52 332.42 229.242 332.42 228.952C332.42 228.662 332.536 228.383 332.741 228.178C332.947 227.973 333.225 227.858 333.516 227.858C335.874 227.733 338.215 227.384 340.508 226.817C340.792 226.752 341.09 226.802 341.337 226.956C341.584 227.11 341.759 227.357 341.824 227.64C341.89 227.924 341.839 228.222 341.685 228.468C341.53 228.715 341.284 228.89 341 228.955C338.557 229.563 336.059 229.931 333.544 230.053L333.516 230.046ZM353.115 224.657C352.866 224.658 352.623 224.575 352.428 224.419C352.232 224.264 352.096 224.046 352.042 223.803C351.988 223.56 352.019 223.305 352.13 223.081C352.241 222.858 352.425 222.679 352.652 222.575C354.818 221.559 356.931 220.431 358.98 219.196C359.229 219.047 359.527 219.002 359.809 219.072C360.09 219.142 360.333 219.322 360.482 219.57C360.632 219.819 360.676 220.117 360.606 220.398C360.536 220.679 360.356 220.921 360.108 221.071C357.993 222.345 355.814 223.508 353.579 224.557C353.434 224.624 353.275 224.658 353.115 224.657ZM370.132 213.514C369.909 213.514 369.691 213.447 369.508 213.319C369.325 213.192 369.185 213.012 369.107 212.803C369.029 212.595 369.018 212.367 369.073 212.151C369.129 211.935 369.25 211.742 369.419 211.596C371.202 210.057 372.986 208.395 374.641 206.663C374.742 206.56 374.861 206.478 374.993 206.421C375.125 206.364 375.267 206.334 375.411 206.332C375.555 206.33 375.698 206.356 375.831 206.41C375.965 206.463 376.087 206.542 376.19 206.642C376.293 206.742 376.375 206.861 376.432 206.993C376.489 207.125 376.519 207.267 376.521 207.411C376.523 207.554 376.497 207.697 376.443 207.831C376.39 207.964 376.311 208.086 376.211 208.189C374.484 209.964 372.644 211.668 370.846 213.25C370.649 213.42 370.399 213.513 370.139 213.514H370.132ZM383.867 198.5C383.664 198.502 383.465 198.447 383.292 198.341C383.119 198.236 382.978 198.084 382.886 197.904C382.795 197.723 382.755 197.521 382.772 197.319C382.789 197.117 382.862 196.924 382.982 196.761C384.409 194.858 385.743 192.854 387.035 190.808C387.19 190.563 387.436 190.39 387.719 190.327C388.002 190.263 388.299 190.315 388.544 190.47C388.789 190.625 388.962 190.871 389.026 191.153C389.089 191.436 389.038 191.733 388.883 191.977C387.556 194.066 386.164 196.112 384.744 198.051C384.644 198.19 384.512 198.303 384.359 198.381C384.207 198.459 384.038 198.5 383.867 198.5ZM394.341 181.049C394.155 181.049 393.972 181.001 393.81 180.911C393.648 180.821 393.511 180.69 393.414 180.533C393.316 180.375 393.26 180.195 393.251 180.009C393.242 179.824 393.281 179.639 393.363 179.473C394.405 177.335 395.418 175.146 396.374 172.907C396.489 172.641 396.705 172.431 396.974 172.323C397.244 172.215 397.545 172.219 397.812 172.334C398.079 172.448 398.289 172.664 398.397 172.933C398.505 173.202 398.501 173.503 398.386 173.77C397.409 176.044 396.382 178.29 395.326 180.436C395.236 180.62 395.096 180.775 394.922 180.884C394.747 180.992 394.546 181.049 394.341 181.049ZM401.982 162.164C401.869 162.165 401.756 162.148 401.647 162.114C401.509 162.071 401.382 162.001 401.271 161.909C401.161 161.816 401.07 161.703 401.003 161.575C400.937 161.447 400.897 161.307 400.885 161.163C400.873 161.02 400.889 160.875 400.934 160.738C401.647 158.443 402.361 156.112 402.96 153.802C403.034 153.518 403.217 153.275 403.47 153.127C403.723 152.979 404.025 152.937 404.308 153.01C404.592 153.084 404.835 153.268 404.984 153.52C405.132 153.773 405.174 154.074 405.1 154.358C404.487 156.703 403.795 159.077 403.046 161.408C402.974 161.63 402.834 161.822 402.645 161.958C402.457 162.094 402.229 162.166 401.997 162.164H401.982ZM406.699 142.345H406.527C406.385 142.324 406.249 142.274 406.126 142.2C406.003 142.125 405.896 142.027 405.811 141.911C405.727 141.795 405.665 141.664 405.632 141.524C405.598 141.385 405.592 141.24 405.614 141.098C405.985 138.738 406.292 136.329 406.527 133.969C406.541 133.826 406.584 133.688 406.651 133.561C406.719 133.434 406.811 133.322 406.922 133.231C407.033 133.14 407.161 133.072 407.298 133.031C407.435 132.989 407.58 132.975 407.722 132.989C407.865 133.003 408.004 133.045 408.131 133.112C408.257 133.18 408.369 133.272 408.461 133.383C408.552 133.494 408.62 133.621 408.662 133.759C408.703 133.896 408.718 134.04 408.704 134.183C408.461 136.614 408.154 139.066 407.776 141.469C407.727 141.715 407.594 141.936 407.4 142.096C407.207 142.256 406.964 142.344 406.713 142.345H406.699ZM408.261 122.028C407.972 122.028 407.694 121.913 407.489 121.708C407.285 121.504 407.17 121.226 407.17 120.937V120.68C407.17 118.399 407.112 116.054 406.998 113.708C406.992 113.565 407.013 113.422 407.062 113.287C407.111 113.152 407.186 113.028 407.282 112.922C407.379 112.816 407.496 112.73 407.626 112.67C407.756 112.609 407.897 112.574 408.04 112.568C408.329 112.558 408.61 112.661 408.823 112.856C409.036 113.05 409.165 113.32 409.182 113.609C409.296 115.982 409.353 118.364 409.353 120.68V120.937C409.353 121.223 409.241 121.497 409.041 121.701C408.841 121.905 408.568 122.022 408.283 122.028H408.261ZM406.948 101.689C406.682 101.689 406.425 101.592 406.225 101.416C406.025 101.24 405.897 100.998 405.864 100.734C405.571 98.4238 405.229 96.0142 404.836 93.5618C404.794 93.4139 404.784 93.2587 404.806 93.1065C404.828 92.9543 404.882 92.8085 404.965 92.6787C405.048 92.5488 405.157 92.4379 405.285 92.3532C405.414 92.2685 405.559 92.2119 405.71 92.1871C405.862 92.1623 406.018 92.1699 406.167 92.2093C406.315 92.2488 406.454 92.3193 406.574 92.4161C406.693 92.513 406.791 92.634 406.861 92.7712C406.93 92.9085 406.97 93.0589 406.977 93.2125C407.376 95.6863 407.69 98.1315 408.019 100.463C408.037 100.605 408.026 100.749 407.988 100.888C407.95 101.026 407.885 101.156 407.797 101.269C407.709 101.382 407.599 101.477 407.475 101.548C407.35 101.619 407.212 101.664 407.07 101.682L406.948 101.689ZM403.516 81.5851C403.265 81.5854 403.021 81.499 402.826 81.3406C402.631 81.1821 402.497 80.9613 402.446 80.7154C401.971 78.3105 401.462 75.9342 400.919 73.5864C400.857 73.3028 400.91 73.006 401.066 72.7614C401.223 72.5167 401.47 72.3442 401.754 72.2818C402.038 72.2194 402.335 72.2722 402.58 72.4287C402.825 72.5851 402.997 72.8323 403.06 73.1159C403.578 75.459 404.087 77.8353 404.587 80.2449C404.616 80.3853 404.617 80.5301 404.59 80.671C404.563 80.812 404.509 80.9462 404.43 81.066C404.351 81.1859 404.249 81.289 404.131 81.3695C404.012 81.4501 403.878 81.5064 403.738 81.5352C403.673 81.5606 403.606 81.5797 403.538 81.5923L403.516 81.5851ZM399.15 61.624C398.9 61.6246 398.657 61.5392 398.462 61.3822C398.267 61.2252 398.132 61.006 398.08 60.7614C397.495 58.0595 397.017 55.7212 396.603 53.6324C396.567 53.4886 396.56 53.339 396.584 53.1928C396.608 53.0465 396.661 52.9066 396.741 52.7817C396.821 52.6567 396.925 52.5493 397.048 52.466C397.171 52.3826 397.309 52.3252 397.455 52.297C397.6 52.2689 397.75 52.2707 397.895 52.3024C398.04 52.334 398.177 52.3948 398.297 52.4811C398.418 52.5673 398.52 52.6773 398.596 52.8041C398.673 52.931 398.723 53.0721 398.743 53.2189C399.15 55.322 399.628 57.646 400.213 60.3479C400.243 60.4883 400.246 60.6334 400.22 60.7747C400.194 60.9161 400.14 61.0509 400.062 61.1715C399.984 61.292 399.882 61.3959 399.764 61.4773C399.645 61.5586 399.512 61.6157 399.371 61.6454C399.305 61.6563 399.238 61.6611 399.171 61.6596L399.15 61.624ZM395.682 41.5345C395.412 41.534 395.151 41.4331 394.95 41.2513C394.75 41.0695 394.624 40.8198 394.598 40.5507C394.341 38.0413 394.198 35.7315 394.155 33.493V33.1936C394.154 33.0498 394.182 32.9072 394.236 32.774C394.291 32.6408 394.371 32.5198 394.473 32.4177C394.574 32.3157 394.695 32.2347 394.828 32.1794C394.961 32.1242 395.103 32.0957 395.247 32.0957C395.391 32.0919 395.534 32.1169 395.668 32.1693C395.802 32.2217 395.924 32.3004 396.027 32.4008C396.13 32.5011 396.212 32.6211 396.268 32.7536C396.324 32.8861 396.353 33.0284 396.353 33.1722V33.4574C396.396 35.646 396.538 37.8987 396.788 40.344C396.803 40.4868 396.789 40.6311 396.748 40.7687C396.707 40.9062 396.639 41.0343 396.548 41.1456C396.458 41.2569 396.346 41.3491 396.219 41.4171C396.092 41.4851 395.954 41.5274 395.811 41.5416L395.682 41.5345ZM396.396 21.2383C396.231 21.2392 396.069 21.2029 395.92 21.1322C395.772 21.0615 395.641 20.9582 395.538 20.8301C395.435 20.7019 395.363 20.5521 395.326 20.3919C395.289 20.2318 395.289 20.0654 395.326 19.9052C395.856 17.4307 396.702 15.0347 397.844 12.7762C397.91 12.6489 398.001 12.5358 398.111 12.4434C398.22 12.351 398.347 12.2812 398.484 12.2378C398.621 12.1945 398.765 12.1784 398.908 12.1907C399.051 12.203 399.19 12.2432 399.318 12.3092C399.445 12.3752 399.558 12.4657 399.651 12.5754C399.743 12.6851 399.813 12.8119 399.856 12.9486C399.9 13.0853 399.916 13.2292 399.904 13.3721C399.891 13.515 399.851 13.654 399.785 13.7814C398.732 15.8665 397.95 18.0778 397.459 20.3614C397.419 20.6129 397.292 20.8426 397.101 21.0105C396.909 21.1785 396.665 21.2742 396.41 21.2811L396.396 21.2383ZM434.924 11.8708C434.745 11.8708 434.569 11.8267 434.411 11.7425C432.185 10.5519 430.008 9.51111 427.932 8.6485C427.664 8.53695 427.452 8.32368 427.342 8.05563C427.231 7.78757 427.232 7.48667 427.344 7.21914C427.455 6.9516 427.669 6.73934 427.937 6.62904C428.205 6.51874 428.506 6.51944 428.774 6.631C430.915 7.52212 433.155 8.59147 435.445 9.81765C435.661 9.9324 435.831 10.116 435.93 10.339C436.029 10.562 436.05 10.8117 435.99 11.0481C435.93 11.2845 435.792 11.494 435.599 11.6431C435.406 11.7922 435.169 11.8724 434.924 11.8708ZM408.525 6.11058C408.262 6.11157 408.007 6.01738 407.808 5.84537C407.608 5.67335 407.478 5.43512 407.44 5.17461C407.403 4.91409 407.461 4.64887 407.604 4.42783C407.747 4.20679 407.965 4.04486 408.218 3.97188C410.688 3.28225 413.262 3.0408 415.817 3.25899C416.107 3.27978 416.376 3.41465 416.566 3.63391C416.756 3.85316 416.851 4.13886 416.83 4.42814C416.809 4.71742 416.674 4.98659 416.455 5.17644C416.236 5.36628 415.95 5.46125 415.66 5.44046C413.364 5.24422 411.052 5.45909 408.832 6.07494C408.725 6.11631 408.612 6.14038 408.497 6.14622L408.525 6.11058Z" fill="#5468FF"/>
<path d="M343.246 57.1936C348.719 42.8707 341.536 26.826 327.202 21.3567C312.867 15.8873 296.809 23.0645 291.335 37.3873C285.861 51.7101 293.044 67.7548 307.379 73.2242C321.714 78.6935 337.772 71.5164 343.246 57.1936Z" fill="white"/>
<path opacity="0.1" d="M343.246 57.1936C348.719 42.8707 341.536 26.826 327.202 21.3567C312.867 15.8873 296.809 23.0645 291.335 37.3873C285.861 51.7101 293.044 67.7548 307.379 73.2242C321.714 78.6935 337.772 71.5164 343.246 57.1936Z" fill="#5468FF"/>
<path d="M325.296 42.7894C325.296 42.7894 321.137 42.7894 321.265 39.6883C321.393 36.5872 328.557 31.5185 330.662 32.8089C332.766 34.0992 333.573 41.5633 332.474 44.4434C331.261 47.6229 320.516 60.7188 312.582 62.3799C304.648 64.0409 297.598 59.2717 300.081 55.5289C302.564 51.7862 307.651 48.0007 308.843 48.9703C310.035 49.9398 311.94 55.8783 311.94 55.8783C311.94 55.8783 323.084 51.3086 325.296 42.7894Z" fill="#5468FF"/>
<path d="M489 66.3578V95.6294C489 96.0144 488.925 96.3958 488.778 96.7517C488.631 97.1077 488.415 97.431 488.143 97.7033C487.87 97.9756 487.547 98.1913 487.19 98.3383C486.834 98.4852 486.452 98.5603 486.067 98.5594H437.25C436.865 98.5603 436.483 98.4852 436.127 98.3383C435.77 98.1913 435.447 97.9756 435.174 97.7033C434.902 97.431 434.686 97.1077 434.539 96.7517C434.392 96.3958 434.316 96.0144 434.317 95.6294V66.3578C434.315 65.8855 434.43 65.4201 434.653 65.0033C434.899 64.5277 435.272 64.1291 435.73 63.8512C436.188 63.5732 436.714 63.4267 437.25 63.4278H486.074C486.624 63.4259 487.163 63.5795 487.629 63.871C488.095 64.1624 488.469 64.5797 488.707 65.0745C488.903 65.4736 489.004 65.9131 489 66.3578Z" fill="white"/>
<path opacity="0.5" d="M489 66.3578V95.6294C489 96.0144 488.925 96.3958 488.778 96.7517C488.631 97.1077 488.415 97.431 488.143 97.7033C487.87 97.9756 487.547 98.1913 487.19 98.3383C486.834 98.4852 486.452 98.5603 486.067 98.5594H437.25C436.865 98.5603 436.483 98.4852 436.127 98.3383C435.77 98.1913 435.447 97.9756 435.174 97.7033C434.902 97.431 434.686 97.1077 434.539 96.7517C434.392 96.3958 434.316 96.0144 434.317 95.6294V66.3578C434.315 65.8855 434.43 65.4201 434.653 65.0033C434.899 64.5277 435.272 64.1291 435.73 63.8512C436.188 63.5732 436.714 63.4267 437.25 63.4278H486.074C486.624 63.4259 487.163 63.5795 487.629 63.871C488.095 64.1624 488.469 64.5797 488.707 65.0745C488.903 65.4736 489.004 65.9131 489 66.3578Z" fill="#5468FF"/>
<path d="M488.7 65.0745L461.659 83.6099L434.653 65.0032C434.899 64.5277 435.272 64.1291 435.73 63.8511C436.188 63.5732 436.714 63.4267 437.25 63.4277H486.074C486.623 63.4272 487.16 63.5815 487.625 63.8729C488.089 64.1642 488.462 64.5808 488.7 65.0745Z" fill="white"/>
<path opacity="0.6" d="M488.7 65.0745L461.659 83.6099L434.653 65.0032C434.899 64.5277 435.272 64.1291 435.73 63.8511C436.188 63.5732 436.714 63.4267 437.25 63.4277H486.074C486.623 63.4272 487.16 63.5815 487.625 63.8729C488.089 64.1642 488.462 64.5808 488.7 65.0745Z" fill="#5468FF"/>
<path d="M35.91 124.573C35.6208 124.572 35.3436 124.457 35.1394 124.252C33.5055 122.627 32.6137 121.593 32.5709 121.55C32.4772 121.441 32.4059 121.315 32.3611 121.178C32.3163 121.042 32.2989 120.898 32.3098 120.754C32.3207 120.611 32.3598 120.471 32.4248 120.343C32.4898 120.215 32.5794 120.101 32.6886 120.007C32.7977 119.913 32.9243 119.842 33.061 119.797C33.1977 119.753 33.3419 119.735 33.4853 119.746C33.6288 119.757 33.7687 119.796 33.897 119.861C34.0253 119.926 34.1396 120.015 34.2333 120.125C34.2333 120.125 35.1109 121.144 36.6806 122.698C36.8352 122.85 36.9409 123.045 36.9842 123.257C37.0275 123.47 37.0065 123.69 36.9238 123.891C36.8411 124.091 36.7005 124.263 36.5199 124.383C36.3393 124.503 36.127 124.567 35.91 124.566V124.573Z" fill="#5577E0"/>
<path d="M200.691 307.196C200.536 307.196 200.382 307.163 200.241 307.099C200.099 307.035 199.973 306.942 199.871 306.825C198.258 305.006 196.743 303.102 195.333 301.122C195.164 300.886 195.097 300.592 195.145 300.306C195.193 300.02 195.353 299.765 195.59 299.597C195.826 299.428 196.12 299.361 196.406 299.409C196.693 299.457 196.948 299.617 197.117 299.853C198.483 301.766 199.95 303.606 201.512 305.364C201.653 305.521 201.745 305.716 201.777 305.925C201.809 306.134 201.78 306.347 201.693 306.54C201.606 306.732 201.465 306.895 201.287 307.009C201.11 307.123 200.902 307.183 200.691 307.182V307.196ZM189.839 290.422C189.627 290.422 189.42 290.361 189.243 290.245C189.066 290.13 188.926 289.966 188.84 289.773C187.857 287.552 186.997 285.28 186.264 282.965C186.176 282.689 186.202 282.389 186.335 282.132C186.468 281.874 186.698 281.68 186.974 281.592C187.25 281.504 187.55 281.53 187.808 281.663C188.066 281.796 188.26 282.026 188.348 282.302C189.056 284.539 189.887 286.736 190.838 288.882C190.911 289.048 190.942 289.23 190.928 289.411C190.913 289.592 190.854 289.767 190.755 289.919C190.655 290.071 190.52 290.196 190.36 290.283C190.2 290.369 190.021 290.415 189.839 290.414V290.422ZM184.58 271.173C184.314 271.174 184.057 271.077 183.857 270.901C183.657 270.725 183.529 270.482 183.496 270.218C183.203 267.873 183.011 265.435 182.925 262.982C182.915 262.693 183.02 262.411 183.217 262.199C183.415 261.988 183.688 261.863 183.978 261.852C184.267 261.842 184.549 261.947 184.761 262.144C184.973 262.341 185.098 262.614 185.108 262.904C185.194 265.292 185.38 267.659 185.665 269.947C185.683 270.09 185.673 270.234 185.635 270.372C185.597 270.511 185.532 270.64 185.444 270.753C185.355 270.867 185.246 270.961 185.121 271.032C184.996 271.103 184.859 271.149 184.716 271.166L184.58 271.173ZM184.459 251.155H184.352C184.209 251.141 184.07 251.099 183.944 251.031C183.817 250.963 183.705 250.87 183.614 250.759C183.524 250.648 183.456 250.52 183.415 250.382C183.373 250.245 183.36 250.1 183.375 249.958C183.603 247.626 183.924 245.21 184.316 242.786C184.324 242.632 184.363 242.482 184.433 242.344C184.502 242.207 184.6 242.086 184.72 241.989C184.839 241.893 184.978 241.822 185.127 241.783C185.275 241.743 185.431 241.736 185.583 241.76C185.735 241.785 185.88 241.842 186.008 241.926C186.137 242.011 186.246 242.122 186.328 242.252C186.411 242.382 186.465 242.528 186.487 242.68C186.509 242.832 186.499 242.987 186.457 243.135C186.072 245.516 185.743 247.883 185.529 250.171C185.497 250.433 185.37 250.674 185.173 250.849C184.977 251.025 184.723 251.124 184.459 251.127V251.155ZM188.069 231.444C187.977 231.455 187.884 231.455 187.791 231.444C187.652 231.408 187.521 231.345 187.406 231.259C187.291 231.172 187.194 231.064 187.121 230.94C187.048 230.816 187.001 230.679 186.981 230.537C186.961 230.394 186.97 230.249 187.006 230.11C187.599 227.836 188.255 225.505 188.968 223.167C189.01 223.03 189.078 222.902 189.169 222.791C189.261 222.681 189.373 222.589 189.499 222.521C189.626 222.454 189.764 222.412 189.907 222.398C190.05 222.384 190.194 222.398 190.331 222.44C190.468 222.481 190.596 222.55 190.707 222.641C190.818 222.732 190.91 222.843 190.977 222.97C191.045 223.096 191.087 223.235 191.101 223.377C191.115 223.52 191.101 223.664 191.059 223.801C190.345 226.104 189.703 228.414 189.125 230.652C189.055 230.877 188.913 231.073 188.721 231.21C188.529 231.348 188.298 231.42 188.062 231.415L188.069 231.444ZM194.191 212.345C194.015 212.345 193.841 212.302 193.685 212.22C193.528 212.138 193.394 212.019 193.294 211.874C193.194 211.729 193.13 211.562 193.109 211.387C193.087 211.212 193.109 211.034 193.171 210.869C193.999 208.681 194.883 206.428 195.811 204.168C195.922 203.9 196.134 203.686 196.403 203.574C196.671 203.463 196.973 203.462 197.241 203.573C197.51 203.683 197.724 203.896 197.836 204.164C197.947 204.432 197.948 204.734 197.837 205.002C196.917 207.241 196.039 209.472 195.219 211.639C195.134 211.842 194.99 212.015 194.805 212.134C194.62 212.254 194.404 212.315 194.184 212.309L194.191 212.345ZM202.004 193.86C201.82 193.86 201.639 193.814 201.477 193.726C201.316 193.638 201.179 193.51 201.08 193.355C200.981 193.2 200.923 193.023 200.911 192.839C200.899 192.655 200.934 192.472 201.012 192.305C201.997 190.167 203.039 188.028 204.109 185.818C204.236 185.558 204.462 185.359 204.737 185.266C205.011 185.172 205.311 185.191 205.571 185.319C205.832 185.447 206.03 185.672 206.124 185.946C206.218 186.22 206.199 186.521 206.071 186.78C205.008 188.919 203.973 191.115 202.989 193.197C202.9 193.385 202.76 193.544 202.584 193.655C202.409 193.766 202.205 193.825 201.997 193.824L202.004 193.86ZM210.973 175.873C210.784 175.873 210.599 175.824 210.435 175.732C210.271 175.639 210.133 175.505 210.036 175.344C209.94 175.182 209.886 174.998 209.881 174.81C209.877 174.622 209.921 174.435 210.009 174.269C211.101 172.216 212.243 170.084 213.42 167.946C213.489 167.82 213.582 167.709 213.694 167.619C213.805 167.529 213.934 167.462 214.072 167.421C214.21 167.381 214.354 167.368 214.497 167.383C214.64 167.399 214.778 167.442 214.904 167.511C215.03 167.58 215.141 167.673 215.231 167.784C215.321 167.896 215.388 168.024 215.429 168.162C215.469 168.3 215.482 168.444 215.467 168.587C215.451 168.73 215.408 168.868 215.339 168.994C214.169 171.132 213.027 173.271 211.943 175.289C211.85 175.465 211.711 175.613 211.54 175.716C211.368 175.82 211.172 175.874 210.973 175.873ZM220.662 158.279C220.47 158.279 220.282 158.229 220.116 158.134C219.95 158.038 219.812 157.901 219.716 157.736C219.62 157.57 219.569 157.383 219.569 157.192C219.568 157 219.618 156.812 219.713 156.646C220.921 154.536 222.11 152.464 223.28 150.43C223.426 150.179 223.665 149.997 223.946 149.923C224.226 149.848 224.524 149.889 224.775 150.034C225.026 150.18 225.208 150.419 225.283 150.699C225.357 150.979 225.317 151.277 225.171 151.528C223.991 153.552 222.802 155.62 221.604 157.73C221.509 157.896 221.372 158.034 221.206 158.13C221.041 158.227 220.853 158.278 220.662 158.279ZM70.6712 143.187H70.5499C68.1145 142.913 65.7064 142.437 63.3508 141.761C63.0717 141.682 62.8356 141.495 62.6944 141.241C62.5532 140.988 62.5186 140.689 62.598 140.41C62.6775 140.131 62.8646 139.895 63.1182 139.754C63.3717 139.613 63.671 139.578 63.9501 139.658C66.1885 140.303 68.4775 140.759 70.7925 141.02C71.082 141.036 71.3533 141.166 71.5467 141.382C71.74 141.598 71.8396 141.882 71.8235 142.171C71.8074 142.46 71.677 142.731 71.4609 142.924C71.2448 143.118 70.9607 143.217 70.6712 143.201V143.187ZM83.5141 142.381C83.2542 142.372 83.0059 142.271 82.8139 142.096C82.622 141.921 82.4991 141.682 82.4672 141.425C82.4354 141.167 82.4968 140.906 82.6403 140.689C82.7838 140.472 83.0001 140.314 83.2501 140.242C85.5045 139.683 87.7001 138.91 89.8071 137.933C90.0701 137.811 90.3709 137.798 90.6432 137.898C90.9155 137.997 91.137 138.201 91.2591 138.464C91.3811 138.727 91.3937 139.027 91.294 139.299C91.1943 139.571 90.9905 139.793 90.7275 139.915C88.4944 140.949 86.1673 141.768 83.7781 142.36C83.6817 142.378 83.5833 142.383 83.4856 142.374L83.5141 142.381ZM230.765 140.955C230.583 140.955 230.403 140.908 230.244 140.82C230.117 140.752 230.005 140.66 229.914 140.548C229.823 140.437 229.755 140.308 229.714 140.17C229.673 140.033 229.66 139.888 229.675 139.745C229.69 139.602 229.733 139.463 229.802 139.337C230.943 137.241 231.942 135.102 232.884 132.985C232.998 132.719 233.214 132.508 233.484 132.401C233.753 132.293 234.055 132.297 234.322 132.411C234.588 132.526 234.799 132.741 234.907 133.011C235.014 133.28 235.01 133.581 234.896 133.848C233.961 136.029 232.898 138.225 231.728 140.378C231.63 140.555 231.485 140.702 231.309 140.801C231.132 140.901 230.932 140.949 230.729 140.941L230.765 140.955ZM51.8493 136.735C51.6615 136.735 51.4772 136.685 51.3141 136.592C49.2037 135.393 47.1558 134.086 45.1781 132.679C44.9416 132.51 44.7816 132.255 44.7334 131.969C44.6853 131.683 44.7528 131.389 44.9212 131.153C45.0896 130.917 45.3451 130.757 45.6315 130.709C45.9178 130.661 46.2116 130.728 46.4481 130.896C48.3635 132.263 50.3472 133.531 52.3915 134.696C52.6048 134.814 52.7727 134.999 52.8685 135.223C52.9643 135.446 52.9825 135.696 52.9201 135.931C52.8578 136.166 52.7185 136.374 52.5245 136.521C52.3304 136.668 52.0928 136.746 51.8493 136.742V136.735ZM101.023 132.964C100.8 132.964 100.582 132.896 100.399 132.769C100.216 132.642 100.076 132.462 99.9983 132.253C99.9206 132.044 99.9088 131.817 99.9645 131.601C100.02 131.385 100.141 131.191 100.31 131.046C100.785 130.647 101.249 130.233 101.701 129.806C102.978 128.629 104.262 127.425 105.518 126.241C105.727 126.041 106.008 125.932 106.297 125.938C106.587 125.944 106.862 126.064 107.063 126.273C107.264 126.482 107.373 126.762 107.367 127.052C107.361 127.341 107.24 127.616 107.031 127.817C105.761 129.036 104.462 130.248 103.185 131.438C102.709 131.885 102.234 132.315 101.758 132.729C101.54 132.9 101.264 132.981 100.988 132.957L101.023 132.964ZM237.857 122.27C237.779 122.279 237.7 122.279 237.622 122.27C237.481 122.24 237.347 122.182 237.229 122.1C237.111 122.018 237.01 121.913 236.932 121.792C236.855 121.67 236.802 121.535 236.777 121.393C236.752 121.251 236.755 121.106 236.787 120.966C237.292 118.675 237.664 116.356 237.9 114.022C237.928 113.734 238.07 113.468 238.294 113.285C238.518 113.101 238.806 113.013 239.095 113.042C239.383 113.07 239.649 113.212 239.833 113.436C240.017 113.66 240.104 113.948 240.076 114.236C239.833 116.654 239.45 119.056 238.927 121.429C238.865 121.671 238.723 121.884 238.523 122.033C238.323 122.182 238.078 122.258 237.828 122.249L237.857 122.27ZM115.364 118.962C115.15 118.963 114.94 118.901 114.761 118.784C114.581 118.666 114.441 118.498 114.356 118.301C114.272 118.104 114.247 117.887 114.286 117.676C114.324 117.465 114.424 117.271 114.572 117.116C116.178 115.448 117.776 113.744 119.467 111.912C119.669 111.738 119.927 111.644 120.194 111.647C120.46 111.65 120.716 111.751 120.913 111.93C121.111 112.108 121.236 112.353 121.265 112.618C121.295 112.882 121.226 113.149 121.072 113.366C119.374 115.205 117.762 116.931 116.149 118.599C116.05 118.71 115.929 118.799 115.794 118.862C115.659 118.924 115.513 118.958 115.364 118.962ZM128.921 104.177C128.71 104.177 128.504 104.116 128.327 104.001C128.15 103.887 128.011 103.724 127.925 103.531C127.839 103.339 127.81 103.126 127.842 102.918C127.875 102.71 127.967 102.516 128.107 102.359L129.206 101.126L132.881 97.0123C132.967 96.8829 133.08 96.7733 133.212 96.691C133.344 96.6087 133.492 96.5555 133.646 96.535C133.8 96.5146 133.957 96.5273 134.106 96.5724C134.255 96.6175 134.393 96.6938 134.51 96.7963C134.627 96.8989 134.72 97.0252 134.784 97.1669C134.848 97.3085 134.882 97.4622 134.881 97.6177C134.881 97.7732 134.848 97.9268 134.783 98.0683C134.719 98.2098 134.625 98.3359 134.507 98.4381L130.84 102.544L129.741 103.778C129.641 103.899 129.516 103.998 129.375 104.067C129.233 104.136 129.078 104.174 128.921 104.177ZM238.799 102.309C238.533 102.309 238.275 102.213 238.076 102.037C237.876 101.861 237.747 101.618 237.714 101.354C237.414 99.0352 236.959 96.7393 236.352 94.4815C236.314 94.3411 236.305 94.1947 236.324 94.0506C236.343 93.9065 236.39 93.7676 236.463 93.6419C236.536 93.5161 236.633 93.4059 236.749 93.3176C236.864 93.2292 236.996 93.1645 237.136 93.127C237.277 93.0896 237.423 93.0802 237.568 93.0993C237.712 93.1184 237.851 93.1658 237.977 93.2386C238.103 93.3114 238.213 93.4083 238.301 93.5237C238.39 93.6391 238.455 93.7708 238.492 93.9112C239.126 96.2532 239.603 98.6348 239.919 101.04C239.938 101.183 239.929 101.327 239.892 101.466C239.855 101.605 239.79 101.735 239.703 101.849C239.615 101.963 239.506 102.058 239.382 102.13C239.257 102.202 239.12 102.248 238.977 102.266L238.799 102.309ZM142.477 89.3772C142.262 89.3781 142.051 89.3154 141.871 89.1969C141.692 89.0784 141.551 88.9096 141.467 88.7115C141.383 88.5133 141.36 88.2949 141.4 88.0835C141.44 87.8722 141.542 87.6774 141.692 87.5236C143.483 85.6772 145.167 84.0233 146.822 82.4549C146.927 82.3566 147.05 82.2799 147.184 82.229C147.318 82.1781 147.461 82.1542 147.604 82.1585C147.748 82.1628 147.889 82.1952 148.02 82.2541C148.151 82.3129 148.269 82.3969 148.367 82.5013C148.465 82.6057 148.542 82.7284 148.593 82.8624C148.644 82.9965 148.668 83.1393 148.664 83.2826C148.66 83.4259 148.627 83.567 148.568 83.6977C148.509 83.8285 148.425 83.9464 148.321 84.0447C146.68 85.5846 145.024 87.2242 143.255 89.035C143.15 89.1464 143.022 89.2344 142.881 89.2933C142.74 89.3523 142.588 89.3809 142.434 89.3772H142.477ZM232.513 83.4245C232.32 83.424 232.13 83.3723 231.963 83.2746C231.796 83.1769 231.659 83.0367 231.564 82.8684C230.41 80.8227 229.108 78.8642 227.668 77.0084C227.489 76.7796 227.409 76.4892 227.444 76.2011C227.48 75.913 227.628 75.6508 227.857 75.4721C228.086 75.2934 228.377 75.213 228.665 75.2484C228.954 75.2838 229.216 75.4322 229.395 75.661C230.896 77.5868 232.256 79.6192 233.462 81.742C233.557 81.908 233.607 82.0961 233.606 82.2873C233.605 82.4785 233.555 82.6663 233.458 82.8316C233.362 82.997 233.224 83.1342 233.058 83.2295C232.892 83.3248 232.704 83.3748 232.513 83.3746V83.4245ZM157.382 76.0674C157.152 76.0689 156.927 75.9976 156.739 75.8636C156.552 75.7296 156.412 75.5399 156.339 75.3216C156.266 75.1032 156.265 74.8675 156.334 74.648C156.403 74.4285 156.54 74.2366 156.726 74.0998C158.674 72.674 160.686 71.2482 162.698 70.0006C162.943 69.8456 163.239 69.7941 163.522 69.8576C163.805 69.9211 164.051 70.0944 164.207 70.3392C164.362 70.5841 164.413 70.8805 164.35 71.1632C164.286 71.446 164.113 71.692 163.868 71.847C161.898 73.0874 159.936 74.4348 158.038 75.8535C157.845 75.9838 157.615 76.0487 157.382 76.0389V76.0674ZM219.313 68.5106C219.082 68.5091 218.857 68.4342 218.671 68.2968C216.791 66.9237 214.801 65.7076 212.721 64.661C212.461 64.5305 212.265 64.3025 212.174 64.0271C212.083 63.7517 212.105 63.4514 212.235 63.1924C212.366 62.9334 212.594 62.7368 212.87 62.6459C213.146 62.555 213.446 62.5772 213.705 62.7077C215.893 63.8099 217.986 65.0903 219.963 66.5359C220.15 66.6715 220.29 66.8632 220.362 67.0833C220.433 67.3034 220.433 67.5405 220.36 67.7604C220.288 67.9802 220.148 68.1714 219.959 68.3063C219.771 68.4412 219.545 68.5127 219.313 68.5106ZM174.627 65.9228C174.376 65.9249 174.132 65.8404 173.936 65.6835C173.739 65.5266 173.604 65.3068 173.551 65.0614C173.498 64.816 173.531 64.5599 173.646 64.3363C173.76 64.1127 173.948 63.9353 174.178 63.834C176.318 62.8645 178.573 61.9448 180.87 61.0965C181.142 60.9953 181.442 61.0061 181.706 61.1264C181.97 61.2468 182.175 61.4668 182.276 61.7381C182.377 62.0094 182.366 62.3098 182.246 62.5732C182.125 62.8366 181.905 63.0414 181.634 63.1425C179.379 63.9766 177.174 64.882 175.077 65.823C174.934 65.8807 174.781 65.9074 174.627 65.9014V65.9228ZM200.984 60.8613H200.827C198.529 60.5271 196.204 60.4102 193.884 60.5119C193.595 60.5242 193.312 60.4211 193.099 60.2252C192.885 60.0294 192.759 59.7568 192.746 59.4675C192.734 59.1783 192.837 58.8959 193.033 58.6827C193.229 58.4694 193.502 58.3427 193.792 58.3305C196.25 58.2233 198.713 58.3474 201.148 58.7012C201.394 58.7661 201.61 58.915 201.758 59.1222C201.906 59.3294 201.977 59.5818 201.958 59.8356C201.94 60.0895 201.833 60.3289 201.656 60.5123C201.479 60.6957 201.244 60.8116 200.991 60.8399L200.984 60.8613Z" fill="#5468FF"/>
<path d="M66.7335 154.002V183.273C66.7344 183.658 66.6592 184.04 66.5121 184.396C66.3651 184.751 66.1491 185.075 65.8767 185.347C65.6042 185.619 65.2805 185.835 64.9243 185.982C64.5681 186.129 64.1864 186.204 63.801 186.203H14.9838C14.5984 186.204 14.2167 186.129 13.8604 185.982C13.5042 185.835 13.1806 185.619 12.9081 185.347C12.6356 185.075 12.4196 184.751 12.2726 184.396C12.1256 184.04 12.0504 183.658 12.0513 183.273V154.002C12.0491 153.529 12.1643 153.064 12.3866 152.647C12.633 152.171 13.0057 151.773 13.4638 151.495C13.9219 151.217 14.4478 151.071 14.9838 151.072H63.8081C64.3578 151.07 64.8968 151.223 65.3627 151.515C65.8286 151.806 66.2024 152.223 66.4409 152.718C66.6372 153.117 66.7374 153.557 66.7335 154.002Z" fill="white"/>
<path opacity="0.5" d="M66.7335 154.002V183.273C66.7344 183.658 66.6592 184.04 66.5121 184.396C66.3651 184.751 66.1491 185.075 65.8767 185.347C65.6042 185.619 65.2805 185.835 64.9243 185.982C64.5681 186.129 64.1864 186.204 63.801 186.203H14.9838C14.5984 186.204 14.2167 186.129 13.8604 185.982C13.5042 185.835 13.1806 185.619 12.9081 185.347C12.6356 185.075 12.4196 184.751 12.2726 184.396C12.1256 184.04 12.0504 183.658 12.0513 183.273V154.002C12.0491 153.529 12.1643 153.064 12.3866 152.647C12.633 152.171 13.0057 151.773 13.4638 151.495C13.9219 151.217 14.4478 151.071 14.9838 151.072H63.8081C64.3578 151.07 64.8968 151.223 65.3627 151.515C65.8286 151.806 66.2024 152.223 66.4409 152.718C66.6372 153.117 66.7374 153.557 66.7335 154.002Z" fill="#5468FF"/>
<path d="M66.4333 152.747L39.392 171.282L12.3862 152.676C12.6326 152.2 13.0053 151.801 13.4634 151.524C13.9215 151.246 14.4474 151.099 14.9833 151.1H63.8077C64.3562 151.1 64.8936 151.254 65.3582 151.545C65.8227 151.837 66.1954 152.253 66.4333 152.747Z" fill="white"/>
<path opacity="0.6" d="M66.4333 152.747L39.392 171.282L12.3862 152.676C12.6326 152.2 13.0053 151.801 13.4634 151.524C13.9215 151.246 14.4474 151.099 14.9833 151.1H63.8077C64.3562 151.1 64.8936 151.254 65.3582 151.545C65.8227 151.837 66.1954 152.253 66.4333 152.747Z" fill="#5468FF"/>
<path d="M28.2189 112.539L21.2837 108.69C21.1713 108.627 21.042 108.6 20.9138 108.614C20.7856 108.628 20.6649 108.681 20.5684 108.766C20.472 108.852 20.4045 108.965 20.3754 109.091C20.3463 109.216 20.357 109.348 20.4061 109.467L23.5098 117.045C23.5633 117.164 23.5776 117.297 23.5507 117.426C23.5238 117.554 23.457 117.67 23.36 117.758L14.5911 126.02C14.5152 126.091 14.4225 126.142 14.3217 126.168C14.2209 126.194 14.1152 126.194 14.0143 126.169C13.9134 126.143 13.8206 126.093 13.7444 126.022C13.6681 125.951 13.6109 125.862 13.578 125.764L0.0216093 84.6008C-0.00991278 84.4846 -0.00689203 84.3617 0.0303026 84.2472C0.0674972 84.1326 0.137256 84.0314 0.231068 83.9558C0.324879 83.8802 0.438685 83.8335 0.558596 83.8215C0.678508 83.8094 0.79934 83.8325 0.906342 83.8879L37.1875 103.55C37.2739 103.596 37.348 103.663 37.4037 103.744C37.4593 103.825 37.4948 103.918 37.5074 104.016C37.5199 104.113 37.5091 104.212 37.4758 104.305C37.4425 104.397 37.3877 104.481 37.3159 104.548L28.9181 112.482C28.8209 112.561 28.7021 112.609 28.5773 112.619C28.4525 112.629 28.3276 112.601 28.2189 112.539Z" fill="white"/>
<path opacity="0.6" d="M28.2189 112.539L21.2837 108.69C21.1713 108.627 21.042 108.6 20.9138 108.614C20.7856 108.628 20.6649 108.681 20.5684 108.766C20.472 108.852 20.4045 108.965 20.3754 109.091C20.3463 109.216 20.357 109.348 20.4061 109.467L23.5098 117.045C23.5633 117.164 23.5776 117.297 23.5507 117.426C23.5238 117.554 23.457 117.67 23.36 117.758L14.5911 126.02C14.5152 126.091 14.4225 126.142 14.3217 126.168C14.2209 126.194 14.1152 126.194 14.0143 126.169C13.9134 126.143 13.8206 126.093 13.7444 126.022C13.6681 125.951 13.6109 125.862 13.578 125.764L0.0216093 84.6008C-0.00991278 84.4846 -0.00689203 84.3617 0.0303026 84.2472C0.0674972 84.1326 0.137256 84.0314 0.231068 83.9558C0.324879 83.8802 0.438685 83.8335 0.558596 83.8215C0.678508 83.8094 0.79934 83.8325 0.906342 83.8879L37.1875 103.55C37.2739 103.596 37.348 103.663 37.4037 103.744C37.4593 103.825 37.4948 103.918 37.5074 104.016C37.5199 104.113 37.5091 104.212 37.4758 104.305C37.4425 104.397 37.3877 104.481 37.3159 104.548L28.9181 112.482C28.8209 112.561 28.7021 112.609 28.5773 112.619C28.4525 112.629 28.3276 112.601 28.2189 112.539Z" fill="#5468FF"/>
<path d="M435.945 15.1717L443.273 18.2157C443.391 18.2656 443.523 18.2773 443.648 18.2492C443.774 18.2212 443.888 18.1548 443.974 18.0593C444.06 17.9637 444.115 17.8437 444.13 17.7159C444.144 17.5881 444.119 17.4589 444.057 17.346L440.119 10.1671C440.056 10.0555 440.028 9.92703 440.041 9.79935C440.054 9.67166 440.106 9.55109 440.19 9.45423L447.967 0.222196C448.035 0.141686 448.122 0.0795947 448.22 0.0417364C448.318 0.0038781 448.424 -0.00850911 448.528 0.00573851C448.632 0.0199861 448.731 0.0604005 448.815 0.123196C448.899 0.185992 448.966 0.269115 449.009 0.364777L467.118 39.7453C467.17 39.8584 467.187 39.9847 467.166 40.1076C467.146 40.2305 467.089 40.3444 467.003 40.4345C466.916 40.5245 466.805 40.5865 466.683 40.6123C466.561 40.6382 466.434 40.6267 466.318 40.5794L428.032 25.1523C427.941 25.1157 427.86 25.058 427.795 24.9838C427.731 24.9097 427.685 24.8213 427.661 24.726C427.637 24.6306 427.636 24.5309 427.659 24.4352C427.681 24.3396 427.726 24.2506 427.79 24.1756L435.232 15.3428C435.317 15.2422 435.432 15.1714 435.56 15.1406C435.689 15.1098 435.823 15.1207 435.945 15.1717Z" fill="white"/>
<path opacity="0.6" d="M435.945 15.1717L443.273 18.2157C443.391 18.2656 443.523 18.2773 443.648 18.2492C443.774 18.2212 443.888 18.1548 443.974 18.0593C444.06 17.9637 444.115 17.8437 444.13 17.7159C444.144 17.5881 444.119 17.4589 444.057 17.346L440.119 10.1671C440.056 10.0555 440.028 9.92703 440.041 9.79935C440.054 9.67166 440.106 9.55109 440.19 9.45423L447.967 0.222196C448.035 0.141686 448.122 0.0795947 448.22 0.0417364C448.318 0.0038781 448.424 -0.00850911 448.528 0.00573851C448.632 0.0199861 448.731 0.0604005 448.815 0.123196C448.899 0.185992 448.966 0.269115 449.009 0.364777L467.118 39.7453C467.17 39.8584 467.187 39.9847 467.166 40.1076C467.146 40.2305 467.089 40.3444 467.003 40.4345C466.916 40.5245 466.805 40.5865 466.683 40.6123C466.561 40.6382 466.434 40.6267 466.318 40.5794L428.032 25.1523C427.941 25.1157 427.86 25.058 427.795 24.9838C427.731 24.9097 427.685 24.8213 427.661 24.726C427.637 24.6306 427.636 24.5309 427.659 24.4352C427.681 24.3396 427.726 24.2506 427.79 24.1756L435.232 15.3428C435.317 15.2422 435.432 15.1714 435.56 15.1406C435.689 15.1098 435.823 15.1207 435.945 15.1717Z" fill="#5468FF"/>
<path d="M350.817 110.943C350.817 110.943 347.728 97.3261 360.849 85.6275C373.97 73.9288 394.233 74.9982 405.35 81.1006C419.755 88.9995 433.889 109.916 420.968 139.786C408.047 169.657 467.259 157.324 447.367 197.795C427.475 238.266 393.142 210.321 380.82 227.088C368.498 243.855 325.738 199.898 362.269 169.165C398.8 138.432 353.578 138.567 350.817 110.943Z" fill="#000D44"/>
<path d="M399.664 151.934C399.664 151.934 397.431 180.051 404.18 187.394C412.863 196.84 398.115 221.142 375.227 236.584C375.227 236.584 365.131 221.32 365.587 196.12C365.886 183.519 368.144 171.042 372.28 159.134L399.664 151.934Z" fill="#EFAB89"/>
<path d="M404.18 139.794C404.18 159.042 390.624 174.661 379.122 174.661C367.621 174.661 353.308 161.829 351.374 138.14C349.812 118.934 360.165 104.904 375.826 104.904C391.487 104.904 404.18 120.495 404.18 139.794Z" fill="#F5B58F"/>
<path d="M356.354 100.399C354.742 101.325 351.246 103.592 347.179 106.294C342.748 109.246 338.018 114.35 336.391 119.939C333.601 129.535 340.672 141.697 354.728 137.405C368.783 133.114 375.505 110.579 386.913 123.604C401.09 139.793 406.235 130.768 406.235 130.768C406.235 130.768 403.381 110.615 389.025 101.539C381.334 96.6774 369.732 92.6923 356.354 100.399Z" fill="#000D44"/>
<path d="M405.586 121.493C403.995 108.761 393.563 97.6898 379.186 94.9237C366.415 92.4642 354.093 97.2905 347.158 106.33C351.224 103.613 355.788 101.726 360.586 100.778C365.385 99.8294 370.324 99.8388 375.12 100.805C387.962 103.272 397.951 111.741 402.232 122.335C399.179 124.017 397.024 128.102 397.024 132.886C397.024 137.969 399.457 142.274 402.817 143.736C401.726 151.335 397.552 162.506 382.64 164.289C382.472 163.895 382.191 163.559 381.833 163.323C381.476 163.087 381.056 162.962 380.628 162.963H376.896C376.316 162.963 375.76 163.193 375.35 163.603C374.94 164.012 374.709 164.568 374.709 165.148C374.709 165.727 374.94 166.283 375.35 166.693C375.76 167.103 376.316 167.333 376.896 167.333H380.628C381.207 167.333 381.762 167.103 382.171 166.694C382.581 166.285 382.811 165.73 382.811 165.151C382.811 165.151 382.811 165.151 382.811 165.101C397.894 163.262 402.304 151.82 403.502 144C404.085 144.178 404.691 144.269 405.3 144.271C409.888 144.271 413.605 139.173 413.605 132.864C413.648 126.676 410.038 121.665 405.586 121.493Z" fill="#5468FF"/>
<path d="M337.639 260.936C338.048 262.058 338.189 263.258 338.053 264.444C336.94 284.854 322.171 302.149 305.382 313.826C288.594 325.504 269.301 333.153 252.355 344.559C249.263 346.514 246.419 348.836 243.886 351.474C240.811 354.854 238.649 358.967 235.645 362.417C232.642 365.868 228.382 368.734 223.83 368.285C219.656 367.871 219.934 368.755 217.409 365.433C212.821 367.493 215.19 370.48 210.181 370.045C208.897 369.938 209.225 366.688 209.71 364.036C210.017 362.353 209.931 359.844 210.538 358.24C211.743 355.039 212.157 352.351 215.468 349.956C223.188 344.36 230.858 338.699 238.407 332.846C253.133 321.483 267.41 309.506 280.581 296.353C289 287.941 297.141 278.78 301.322 267.638C301.9 266.098 302.436 264.472 303.599 263.31C304.613 262.424 305.794 261.748 307.073 261.321C315.935 257.757 326.095 254.592 334.814 258.527C335.77 258.893 336.614 259.502 337.261 260.295C337.409 260.495 337.535 260.71 337.639 260.936Z" fill="#F5B58F"/>
<path d="M274.952 302.07L341.307 201.552L359.087 232.206L360.2 253.643C360.2 253.643 319.21 313.826 294.259 320.371C294.23 320.378 285.554 318.446 274.952 302.07Z" fill="#5468FF"/>
<path opacity="0.1" d="M274.952 302.07L341.307 201.552L359.087 232.206L360.2 253.643C360.2 253.643 319.21 313.826 294.259 320.371C294.23 320.378 285.554 318.446 274.952 302.07Z" fill="#000D44"/>
<path d="M401.597 181.092L401.74 180.999C402.627 180.571 403.61 180.379 404.594 180.443C422.053 180.208 445.527 187.857 458.106 199.919C460.246 201.937 463.814 205.737 464.463 208.581C464.984 210.998 457.642 208.966 457.257 211.433C456.286 217.656 456.286 223.987 456.286 230.282V359.416H349.305C351.481 346.833 353.672 334.023 352.045 321.354C350.511 309.442 345.68 298.242 342.163 286.758C335.863 266.109 333.76 244.411 335.977 222.939C336.947 213.521 337.404 204.902 343.683 197.424C349.42 190.565 357.53 186.114 366.4 184.956C369.487 201.319 372.941 217.609 376.76 233.825C386.35 218.013 391.03 199.684 399.77 183.409C400.179 182.498 400.806 181.702 401.597 181.092Z" fill="#5468FF"/>
<path d="M410.752 337.609C410.752 337.609 360.921 326.081 319.895 326.081C278.869 326.081 273.946 344.666 273.946 344.666C273.946 344.666 324.269 338.657 351.075 356.964H415.032C415.032 356.964 419.549 343.668 410.752 337.609Z" fill="#F5B58F"/>
<path d="M405.208 336.396C405.208 336.396 412.342 311.602 419.435 264.059C419.435 264.059 423.537 179.616 456.358 198.75C489.179 217.884 458.548 318.987 453.076 328.825C447.603 338.663 438.307 356.464 438.307 356.464H415.332C415.332 356.464 414.783 339.398 405.208 336.396Z" fill="#5468FF"/>
<path opacity="0.1" d="M405.208 336.396C405.208 336.396 412.342 311.602 419.435 264.059C419.435 264.059 423.537 179.616 456.358 198.75C489.179 217.884 458.548 318.987 453.076 328.825C447.603 338.663 438.307 356.464 438.307 356.464H415.332C415.332 356.464 414.783 339.398 405.208 336.396Z" fill="#000D44"/>
<path d="M473.317 356.415H64.8353C60.1658 356.415 56.3804 360.197 56.3804 364.863V366.552C56.3804 371.218 60.1658 375 64.8353 375H473.317C477.987 375 481.772 371.218 481.772 366.552V364.863C481.772 360.197 477.987 356.415 473.317 356.415Z" fill="#5468FF"/>
<path d="M243.729 340.845H336.548C338.578 340.845 340.526 341.651 341.961 343.086C343.397 344.52 344.204 346.466 344.204 348.495C344.204 350.523 343.397 352.469 341.961 353.904C340.526 355.338 338.578 356.144 336.548 356.144H243.729V340.845Z" fill="#5468FF"/>
<path opacity="0.2" d="M243.729 340.845H336.548C338.578 340.845 340.526 341.651 341.961 343.086C343.397 344.52 344.204 346.466 344.204 348.495C344.204 350.523 343.397 352.469 341.961 353.904C340.526 355.338 338.578 356.144 336.548 356.144H243.729V340.845Z" fill="#000D44"/>
<path d="M78.4199 353.05L39.4203 238.673C39.1854 237.985 39.1181 237.25 39.2241 236.531C39.3301 235.812 39.6063 235.128 40.0299 234.537C40.4534 233.946 41.0119 233.464 41.6592 233.132C42.3064 232.8 43.0236 232.627 43.7512 232.627H208.261C209.162 232.627 210.043 232.893 210.793 233.392C211.543 233.89 212.13 234.599 212.478 235.429L263.265 356.144H82.7508C81.796 356.144 80.865 355.846 80.0883 355.292C79.3116 354.737 78.7282 353.953 78.4199 353.05Z" fill="#5468FF"/>
<path opacity="0.1" d="M78.4199 353.05L39.4203 238.673C39.1854 237.985 39.1181 237.25 39.2241 236.531C39.3301 235.812 39.6063 235.128 40.0299 234.537C40.4534 233.946 41.0119 233.464 41.6592 233.132C42.3064 232.8 43.0236 232.627 43.7512 232.627H208.261C209.162 232.627 210.043 232.893 210.793 233.392C211.543 233.89 212.13 234.599 212.478 235.429L263.265 356.144H82.7508C81.796 356.144 80.865 355.846 80.0883 355.292C79.3116 354.737 78.7282 353.953 78.4199 353.05Z" fill="#000D44"/>
<path d="M141.286 308.864C148.686 308.864 154.685 302.87 154.685 295.476C154.685 288.082 148.686 282.088 141.286 282.088C133.886 282.088 127.887 288.082 127.887 295.476C127.887 302.87 133.886 308.864 141.286 308.864Z" fill="white"/>
<path opacity="0.5" d="M141.286 308.864C148.686 308.864 154.685 302.87 154.685 295.476C154.685 288.082 148.686 282.088 141.286 282.088C133.886 282.088 127.887 288.082 127.887 295.476C127.887 302.87 133.886 308.864 141.286 308.864Z" fill="#5468FF"/>
</svg>
