<svg width="188" height="130" viewBox="0 0 188 130" fill="none" xmlns="http://www.w3.org/2000/svg">
<path d="M28.4387 127.187C44.0979 127.187 56.7921 126.335 56.7921 125.283C56.7921 124.231 44.0979 123.378 28.4387 123.378C12.7795 123.378 0.0852051 124.231 0.0852051 125.283C0.0852051 126.335 12.7795 127.187 28.4387 127.187Z" fill="white"/>
<path opacity="0.2" d="M28.4387 127.187C44.0979 127.187 56.7921 126.335 56.7921 125.283C56.7921 124.231 44.0979 123.378 28.4387 123.378C12.7795 123.378 0.0852051 124.231 0.0852051 125.283C0.0852051 126.335 12.7795 127.187 28.4387 127.187Z" fill="#5468FF"/>
<path d="M35.7039 29.5219C38.0256 27.3584 41.6442 27.3838 44.1362 29.3492C48.2252 32.5715 55.8464 38.5363 58.3079 40.1868C61.7281 42.4721 76.9398 51.1691 76.9398 51.1691L75.2793 54.7825C75.2793 54.7825 56.2609 48.0788 53.5552 46.2176C50.8495 44.3563 35.3149 36.3398 34.4833 32.7594C34.1833 31.4974 34.7631 30.4005 35.7039 29.5219Z" fill="#5468FF"/>
<path d="M72.1564 49.9935C72.4666 50.0544 73.7864 50.5191 73.9008 49.9605C74.0356 49.3003 72.6649 48.9803 72.2555 49.0311C71.6681 49.1047 71.0782 48.9524 70.3356 49.1428C69.7508 49.2926 69.1989 49.4399 68.609 49.5821C68.286 49.6583 68.0343 49.9148 67.7241 50.0417C67.4698 50.1433 66.9815 50.4658 66.5645 50.4633C66.4109 50.4508 66.2586 50.4253 66.1093 50.3871C66.0864 50.4582 66.0864 50.5318 66.061 50.6004C65.7496 51.4144 65.3947 52.2111 64.998 52.9873C65.4892 53.0384 65.9843 53.0384 66.4755 52.9873C66.7801 52.9456 67.0904 52.9904 67.3706 53.1168C67.6452 53.2133 67.9224 53.3174 68.1996 53.4164C68.4189 53.5187 68.6459 53.6036 68.8785 53.6704C69.0896 53.711 69.4736 53.7008 69.5143 53.4367C69.5133 53.3091 69.484 53.1833 69.4286 53.0683C69.3732 52.9533 69.2931 52.8519 69.1939 52.7715C68.8989 52.5175 67.8995 52.581 68.0877 52.0097C68.2111 51.7548 68.384 51.5269 68.5963 51.3393C68.7924 51.1434 69.0417 51.0092 69.3134 50.9533C69.8586 50.7685 70.4403 50.7171 71.0095 50.8035C71.3681 50.8619 71.6935 50.9178 72.0267 50.7096C72.281 50.5496 72.3928 50.3769 72.0648 50.1585C71.952 50.0825 71.8319 50.0179 71.7063 49.9656C71.8569 49.9589 72.0077 49.9683 72.1564 49.9935V49.9935Z" fill="white"/>
<path d="M103.31 89.1211C146.939 89.1211 182.308 86.3983 182.308 83.0396C182.308 79.6808 146.939 76.958 103.31 76.958C59.6802 76.958 24.3115 79.6808 24.3115 83.0396C24.3115 86.3983 59.6802 89.1211 103.31 89.1211Z" fill="white"/>
<path opacity="0.1" d="M103.31 89.1211C146.939 89.1211 182.308 86.3983 182.308 83.0396C182.308 79.6808 146.939 76.958 103.31 76.958C59.6802 76.958 24.3115 79.6808 24.3115 83.0396C24.3115 86.3983 59.6802 89.1211 103.31 89.1211Z" fill="#5468FF"/>
<path d="M143.251 2.35938L138.773 1.03896C138.609 0.987913 138.437 0.970012 138.266 0.986306C138.095 1.0026 137.929 1.05276 137.778 1.13386C137.626 1.21495 137.493 1.32535 137.385 1.45861C137.277 1.59186 137.196 1.74529 137.148 1.90993L136.574 3.85247C134.834 3.75036 133.09 3.9348 131.411 4.39842L130.443 2.62093C130.277 2.32193 130 2.10055 129.672 2.00535C129.343 1.91015 128.99 1.94889 128.691 2.11307L124.589 4.34255C124.289 4.50755 124.068 4.78438 123.972 5.11235C123.877 5.44032 123.916 5.79266 124.08 6.09211L125.049 7.8696C123.749 9.02171 122.647 10.3798 121.789 11.8893L119.856 11.3154C119.528 11.2185 119.174 11.2558 118.874 11.4192C118.573 11.5825 118.349 11.8584 118.252 12.1864L116.93 16.658C116.882 16.8202 116.866 16.9903 116.884 17.1585C116.902 17.3268 116.953 17.4898 117.034 17.6384C117.115 17.7869 117.224 17.9181 117.356 18.0244C117.488 18.1307 117.639 18.21 117.802 18.2577L119.747 18.8316C119.645 20.5682 119.829 22.3097 120.294 23.9863L118.514 24.9538C118.214 25.1188 117.993 25.3956 117.897 25.7236C117.802 26.0516 117.841 26.4039 118.005 26.7034L120.235 30.7992C120.401 31.0982 120.678 31.3196 121.006 31.4148C121.335 31.51 121.688 31.4712 121.987 31.3071L123.767 30.3396C124.924 31.6401 126.287 32.7409 127.803 33.5975L127.228 35.54C127.131 35.868 127.169 36.221 127.332 36.5215C127.496 36.8219 127.772 37.0452 128.101 37.1423L132.579 38.4627C132.741 38.5106 132.911 38.5261 133.08 38.5083C133.248 38.4905 133.412 38.4396 133.56 38.3588C133.709 38.2779 133.841 38.1685 133.947 38.0369C134.053 37.9053 134.133 37.754 134.181 37.5917L134.755 35.6492C136.494 35.7516 138.237 35.5671 139.915 35.1033L140.884 36.8808C141.049 37.1798 141.326 37.4011 141.655 37.4963C141.983 37.5915 142.336 37.5528 142.636 37.3886L146.738 35.1591C147.037 34.9941 147.259 34.7173 147.354 34.3893C147.449 34.0614 147.411 33.709 147.246 33.4096L146.277 31.6321C147.579 30.4771 148.682 29.1156 149.54 27.6023L151.485 28.1761C151.814 28.273 152.167 28.2357 152.468 28.0724C152.769 27.909 152.993 27.6331 153.09 27.3052L154.412 22.8335C154.509 22.5055 154.472 22.1525 154.308 21.8521C154.145 21.5516 153.868 21.3283 153.54 21.2312L151.595 20.6574C151.697 18.9216 151.512 17.1809 151.048 15.5052L152.828 14.5377C153.127 14.3727 153.349 14.0959 153.444 13.7679C153.54 13.44 153.501 13.0876 153.336 12.7882L151.106 8.69232C150.941 8.39332 150.664 8.17195 150.335 8.07675C150.007 7.98154 149.654 8.02028 149.354 8.18447L147.574 9.15193C146.418 7.85151 145.054 6.75074 143.539 5.89405L144.113 3.9515C144.208 3.62625 144.17 3.277 144.009 2.97913C143.848 2.68126 143.575 2.45867 143.251 2.35938ZM137.509 13.5042C138.747 13.8694 139.848 14.5928 140.674 15.583C141.5 16.5732 142.013 17.7857 142.149 19.0672C142.285 20.3488 142.037 21.6417 141.437 22.7826C140.837 23.9235 139.912 24.8611 138.778 25.4768C137.644 26.0926 136.353 26.3588 135.068 26.2418C133.783 26.1249 132.561 25.63 131.558 24.8198C130.554 24.0096 129.814 22.9204 129.43 21.69C129.047 20.4596 129.037 19.1432 129.403 17.9073C129.645 17.0867 130.048 16.3218 130.586 15.6563C131.125 14.9909 131.79 14.438 132.543 14.0291C133.295 13.6202 134.122 13.3634 134.974 13.2734C135.826 13.1833 136.688 13.2618 137.509 13.5042V13.5042Z" fill="#5468FF"/>
<path d="M138.331 10.726C136.542 10.1977 134.637 10.2111 132.856 10.7644C131.075 11.3177 129.499 12.3861 128.326 13.8344C127.153 15.2828 126.437 17.0459 126.269 18.9007C126.1 20.7555 126.486 22.6186 127.378 24.2542C128.27 25.8899 129.628 27.2245 131.28 28.0893C132.931 28.954 134.803 29.3101 136.658 29.1123C138.512 28.9145 140.266 28.1717 141.698 26.9781C143.13 25.7845 144.175 24.1935 144.701 22.4067C145.405 20.0142 145.13 17.4403 143.936 15.2501C142.742 13.06 140.726 11.4328 138.331 10.726ZM137.509 13.504C138.747 13.8691 139.848 14.5926 140.674 15.5828C141.5 16.573 142.013 17.7855 142.149 19.067C142.285 20.3485 142.037 21.6415 141.437 22.7824C140.837 23.9232 139.912 24.8608 138.778 25.4766C137.644 26.0923 136.353 26.3585 135.068 26.2416C133.783 26.1246 132.561 25.6298 131.558 24.8196C130.554 24.0093 129.814 22.9202 129.43 21.6898C129.047 20.4594 129.037 19.143 129.402 17.9071C129.645 17.0864 130.047 16.3215 130.586 15.6561C131.125 14.9907 131.79 14.4377 132.543 14.0288C133.295 13.62 134.121 13.3632 134.974 13.2731C135.826 13.1831 136.687 13.2615 137.509 13.504V13.504Z" fill="white"/>
<path d="M106.14 3.27071L103.513 2.50893C103.321 2.45349 103.115 2.47565 102.939 2.57064C102.763 2.66563 102.631 2.82585 102.572 3.01679L102.237 4.15692C101.215 4.09674 100.191 4.20484 99.2054 4.47687L98.6358 3.43323C98.5391 3.26043 98.3788 3.132 98.189 3.07513C97.9991 3.01825 97.7946 3.0374 97.6186 3.12851L95.1901 4.4337C95.0175 4.53066 94.8894 4.69085 94.833 4.8804C94.7765 5.06995 94.796 5.274 94.8875 5.44941L95.4571 6.49305C94.6928 7.17139 94.0459 7.971 93.5423 8.85965L92.4005 8.52192C92.2083 8.46648 92.002 8.48864 91.826 8.58363C91.6501 8.67862 91.5185 8.83884 91.4597 9.02978L90.6892 11.6706C90.6336 11.8625 90.6558 12.0685 90.751 12.2443C90.8461 12.42 91.0065 12.5514 91.1977 12.6101L92.3395 12.9479C92.2816 13.9653 92.3916 14.9853 92.665 15.9671L91.63 16.5409C91.4574 16.6379 91.3294 16.7981 91.2729 16.9876C91.2164 17.1772 91.236 17.3812 91.3274 17.5566L92.637 19.9613C92.7341 20.1337 92.8945 20.2616 93.0844 20.318C93.2742 20.3744 93.4785 20.3548 93.6542 20.2635L94.6993 19.6947C95.3785 20.458 96.1793 21.1041 97.0693 21.6068L96.7311 22.7469C96.6756 22.9388 96.6978 23.1448 96.7929 23.3206C96.888 23.4963 97.0485 23.6277 97.2397 23.6864L99.8691 24.4609C100.061 24.5164 100.268 24.4942 100.444 24.3992C100.62 24.3042 100.751 24.144 100.81 23.9531L101.148 22.8129C102.168 22.8732 103.192 22.7651 104.177 22.493L104.746 23.5366C104.843 23.709 105.004 23.8369 105.194 23.8933C105.384 23.9496 105.588 23.9301 105.764 23.8388L108.172 22.5311C108.344 22.4341 108.472 22.2739 108.529 22.0844C108.585 21.8948 108.566 21.6908 108.474 21.5154L107.905 20.4717C108.669 19.7933 109.316 18.9937 109.819 18.1051L110.961 18.4428C111.154 18.4991 111.361 18.4773 111.537 18.3822C111.714 18.2872 111.846 18.1265 111.905 17.935L112.68 15.3094C112.736 15.1175 112.714 14.9115 112.618 14.7357C112.523 14.56 112.363 14.4286 112.172 14.3699L111.03 14.0321C111.09 13.0133 110.982 11.9915 110.709 11.0079L111.755 10.4391C111.927 10.3421 112.055 10.1819 112.112 9.99237C112.168 9.80282 112.149 9.59877 112.057 9.42336L110.748 7.01868C110.651 6.84632 110.49 6.71843 110.3 6.66204C110.11 6.60565 109.906 6.62518 109.73 6.7165L108.685 7.2853C108.006 6.522 107.205 5.87595 106.315 5.37323L106.654 4.2331C106.684 4.13626 106.696 4.03424 106.686 3.93303C106.677 3.83183 106.648 3.73349 106.6 3.64381C106.552 3.55413 106.487 3.47493 106.408 3.41085C106.329 3.34677 106.238 3.29913 106.14 3.27071V3.27071ZM102.776 9.81949C103.503 10.033 104.15 10.457 104.636 11.0379C105.122 11.6187 105.424 12.3304 105.505 13.0829C105.586 13.8354 105.441 14.5949 105.09 15.2654C104.738 15.9359 104.196 16.4873 103.53 16.8498C102.865 17.2124 102.107 17.3698 101.352 17.3021C100.597 17.2345 99.8794 16.9449 99.2894 16.4699C98.6994 15.9949 98.2636 15.3558 98.0373 14.6336C97.811 13.9113 97.8042 13.1382 98.0178 12.4121C98.1597 11.9299 98.3953 11.4803 98.7112 11.089C99.0271 10.6977 99.4171 10.3724 99.8589 10.1317C100.301 9.89093 100.786 9.73944 101.286 9.68588C101.787 9.63231 102.293 9.67771 102.776 9.81949Z" fill="#5468FF"/>
<path d="M103.259 8.18707C102.209 7.87719 101.091 7.88527 100.045 8.21029C99 8.53531 98.0747 9.16266 97.3866 10.013C96.6985 10.8633 96.2784 11.8983 96.1796 12.987C96.0807 14.0758 96.3076 15.1694 96.8313 16.1294C97.3551 17.0894 98.1523 17.8727 99.122 18.3801C100.092 18.8875 101.19 19.0963 102.279 18.98C103.368 18.8637 104.397 18.4276 105.237 17.7268C106.078 17.026 106.691 16.092 106.999 15.0431C107.413 13.6386 107.251 12.1278 106.549 10.8424C105.848 9.557 104.665 8.602 103.259 8.18707V8.18707ZM102.776 9.81728C103.503 10.0306 104.15 10.4544 104.636 11.0351C105.122 11.6158 105.425 12.3274 105.506 13.0798C105.587 13.8322 105.442 14.5917 105.091 15.2622C104.74 15.9328 104.197 16.4843 103.532 16.8471C102.867 17.2098 102.109 17.3676 101.355 17.3003C100.6 17.233 99.8819 16.9438 99.2917 16.4691C98.7015 15.9945 98.2654 15.3557 98.0387 14.6337C97.812 13.9116 97.8047 13.1386 98.0179 12.4124C98.1598 11.9302 98.3954 11.4806 98.7113 11.0893C99.0272 10.6981 99.4172 10.3728 99.859 10.132C100.301 9.89126 100.786 9.73977 101.286 9.68621C101.787 9.63264 102.293 9.67805 102.776 9.81982V9.81728Z" fill="white"/>
<path opacity="0.2" d="M138.331 10.726C136.542 10.1977 134.637 10.2111 132.856 10.7644C131.075 11.3177 129.499 12.3861 128.326 13.8344C127.153 15.2828 126.437 17.0459 126.269 18.9007C126.1 20.7555 126.486 22.6186 127.378 24.2542C128.27 25.8899 129.628 27.2245 131.28 28.0893C132.931 28.954 134.803 29.3101 136.658 29.1123C138.512 28.9145 140.266 28.1717 141.698 26.9781C143.13 25.7845 144.175 24.1935 144.701 22.4067C145.405 20.0142 145.13 17.4403 143.936 15.2501C142.742 13.06 140.726 11.4328 138.331 10.726ZM137.509 13.504C138.747 13.8691 139.848 14.5926 140.674 15.5828C141.5 16.573 142.013 17.7855 142.149 19.067C142.285 20.3485 142.037 21.6415 141.437 22.7824C140.837 23.9232 139.912 24.8608 138.778 25.4766C137.644 26.0923 136.353 26.3585 135.068 26.2416C133.783 26.1246 132.561 25.6298 131.558 24.8196C130.554 24.0093 129.814 22.9202 129.43 21.6898C129.047 20.4594 129.037 19.143 129.402 17.9071C129.645 17.0864 130.047 16.3215 130.586 15.6561C131.125 14.9907 131.79 14.4377 132.543 14.0288C133.295 13.62 134.121 13.3632 134.974 13.2731C135.826 13.1831 136.687 13.2615 137.509 13.504V13.504Z" fill="#5468FF"/>
<path opacity="0.2" d="M103.259 8.18707C102.209 7.87719 101.091 7.88527 100.045 8.21029C99 8.53531 98.0747 9.16266 97.3866 10.013C96.6985 10.8633 96.2784 11.8983 96.1796 12.987C96.0807 14.0758 96.3076 15.1694 96.8313 16.1294C97.3551 17.0894 98.1523 17.8727 99.122 18.3801C100.092 18.8875 101.19 19.0963 102.279 18.98C103.368 18.8637 104.397 18.4276 105.237 17.7268C106.078 17.026 106.691 16.092 106.999 15.0431C107.413 13.6386 107.251 12.1278 106.549 10.8424C105.848 9.557 104.665 8.602 103.259 8.18707V8.18707ZM102.776 9.81728C103.503 10.0306 104.15 10.4544 104.636 11.0351C105.122 11.6158 105.425 12.3274 105.506 13.0798C105.587 13.8322 105.442 14.5917 105.091 15.2622C104.74 15.9328 104.197 16.4843 103.532 16.8471C102.867 17.2098 102.109 17.3676 101.355 17.3003C100.6 17.233 99.8819 16.9438 99.2917 16.4691C98.7015 15.9945 98.2654 15.3557 98.0387 14.6337C97.812 13.9116 97.8047 13.1386 98.0179 12.4124C98.1598 11.9302 98.3954 11.4806 98.7113 11.0893C99.0272 10.6981 99.4172 10.3728 99.859 10.132C100.301 9.89126 100.786 9.73977 101.286 9.68621C101.787 9.63264 102.293 9.67805 102.776 9.81982V9.81728Z" fill="#5468FF"/>
<path d="M133.842 25.3196V64.8814H63.1799V25.3196C63.1799 24.5485 63.4867 23.8089 64.0327 23.2637C64.5788 22.7184 65.3194 22.4121 66.0916 22.4121H130.936C131.707 22.4135 132.446 22.7204 132.991 23.2655C133.536 23.8106 133.842 24.5493 133.842 25.3196V25.3196Z" fill="#5468FF"/>
<path opacity="0.2" d="M133.842 25.3196V64.8814H63.1799V25.3196C63.1799 24.5485 63.4867 23.8089 64.0327 23.2637C64.5788 22.7184 65.3194 22.4121 66.0916 22.4121H130.936C131.707 22.4135 132.446 22.7204 132.991 23.2655C133.536 23.8106 133.842 24.5493 133.842 25.3196V25.3196Z" fill="#000D44"/>
<path d="M130.748 25.7358H66.2747V64.8838H130.748V25.7358Z" fill="white"/>
<path opacity="0.2" d="M130.748 25.7358H66.2747V64.8838H130.748V25.7358Z" fill="#5468FF"/>
<path d="M107.752 78.9008H89.2676L91.2968 72.1006H105.931L107.752 78.9008Z" fill="#5468FF"/>
<path opacity="0.2" d="M107.752 78.9008H89.2676L91.2968 72.1006H105.931L107.752 78.9008Z" fill="#000D44"/>
<path d="M133.842 64.8813V69.1981C133.842 69.5799 133.767 69.958 133.621 70.3107C133.474 70.6635 133.26 70.984 132.99 71.254C132.719 71.524 132.398 71.7381 132.045 71.8843C131.692 72.0304 131.313 72.1056 130.931 72.1056H66.0864C65.3142 72.1056 64.5736 71.7992 64.0276 71.254C63.4816 70.7087 63.1748 69.9692 63.1748 69.1981V64.8813H133.842Z" fill="#5468FF"/>
<path d="M91.2968 72.1006L90.6382 74.3021H106.521L105.931 72.1006H91.2968Z" fill="#5468FF"/>
<path d="M110.259 82.3006H86.7604C86.3085 82.3006 85.8752 82.1213 85.5557 81.8023C85.2361 81.4832 85.0566 81.0505 85.0566 80.5993C85.0566 80.148 85.2361 79.7153 85.5557 79.3963C85.8752 79.0772 86.3085 78.8979 86.7604 78.8979H110.262C110.714 78.8979 111.147 79.0772 111.467 79.3963C111.786 79.7153 111.966 80.148 111.966 80.5993V80.5993C111.966 80.8229 111.922 81.0443 111.836 81.2509C111.75 81.4575 111.624 81.6452 111.466 81.8032C111.307 81.9612 111.119 82.0865 110.912 82.1718C110.705 82.2572 110.483 82.3009 110.259 82.3006V82.3006Z" fill="#5468FF"/>
<path d="M111.383 53.5484C110.892 53.0625 110.275 52.7233 109.601 52.569C108.927 52.4147 108.223 52.4513 107.569 52.6748L92.0317 37.2361C92.2499 36.5787 92.2793 35.8735 92.1166 35.2003C91.9539 34.5271 91.6056 33.9128 91.1112 33.4272C90.2822 32.6121 89.4303 32.6045 88.0114 32.4927C87.9407 32.4861 87.8697 32.5014 87.8081 32.5368C87.7466 32.5721 87.6975 32.6256 87.6676 32.6899C87.6378 32.7543 87.6286 32.8263 87.6415 32.896C87.6543 32.9657 87.6885 33.0298 87.7393 33.0793L89.1557 34.4734C89.1876 34.5052 89.2129 34.543 89.2302 34.5846C89.2475 34.6262 89.2564 34.6708 89.2564 34.7159C89.2564 34.7609 89.2475 34.8055 89.2302 34.8471C89.2129 34.8887 89.1876 34.9265 89.1557 34.9584L87.3757 36.7638C87.3438 36.7956 87.3059 36.8209 87.2643 36.8382C87.2226 36.8554 87.1779 36.8643 87.1328 36.8643C87.0877 36.8643 87.0431 36.8554 87.0014 36.8382C86.9597 36.8209 86.9219 36.7956 86.89 36.7638L85.2498 35.1488C85.1992 35.0988 85.1342 35.0657 85.0639 35.0542C84.9936 35.0427 84.9215 35.0533 84.8575 35.0845C84.7935 35.1158 84.7409 35.1661 84.7068 35.2286C84.6728 35.2911 84.659 35.3626 84.6675 35.4332C84.815 36.845 84.9879 37.8074 85.8957 38.7038C86.3949 39.1938 87.0225 39.5331 87.7063 39.6827C88.3901 39.8323 89.1023 39.7861 89.7609 39.5494L105.273 54.9703C105.04 55.6329 105.001 56.3477 105.159 57.0317C105.317 57.7158 105.666 58.3411 106.165 58.8351C107.076 59.7315 108.039 59.8914 109.456 60.0184C109.527 60.0263 109.599 60.0118 109.661 59.977C109.724 59.9421 109.774 59.8886 109.804 59.824C109.835 59.7594 109.844 59.6868 109.832 59.6165C109.819 59.5462 109.784 59.4816 109.733 59.4318L108.093 57.8169C108.061 57.785 108.036 57.7472 108.018 57.7056C108.001 57.664 107.992 57.6194 107.992 57.5744C107.992 57.5293 108.001 57.4847 108.018 57.4431C108.036 57.4015 108.061 57.3637 108.093 57.3319L109.873 55.5264C109.905 55.4946 109.943 55.4693 109.984 55.4521C110.026 55.4348 110.071 55.4259 110.116 55.4259C110.161 55.4259 110.205 55.4348 110.247 55.4521C110.289 55.4693 110.327 55.4946 110.359 55.5264L111.775 56.9205C111.825 56.97 111.89 57.0028 111.959 57.0144C112.029 57.0259 112.101 57.0158 112.164 56.9852C112.228 56.9547 112.281 56.9052 112.315 56.8437C112.35 56.7821 112.364 56.7114 112.357 56.6412C112.228 55.209 112.212 54.3558 111.383 53.5484Z" fill="#5468FF"/>
<path d="M105.079 43.4828C103.045 44.3716 100.22 45.5726 98.9231 48.7543L95.7673 45.5955C98.9587 44.3081 100.169 41.4971 101.062 39.4606C101.954 37.4241 107.673 33.3283 108.8 32.7265C108.864 32.6923 108.931 32.6634 109.001 32.6401C110.074 32.2618 111.241 33.3308 111.241 33.3308C111.241 33.3308 112.309 34.4989 111.928 35.5705C111.904 35.6396 111.875 35.7067 111.841 35.7711C111.236 36.8909 107.121 42.5966 105.079 43.4828Z" fill="#5468FF"/>
<path opacity="0.2" d="M105.079 43.4828C103.045 44.3716 100.22 45.5726 98.9231 48.7543L95.7673 45.5955C98.9587 44.3081 100.169 41.4971 101.062 39.4606C101.954 37.4241 107.673 33.3283 108.8 32.7265C108.864 32.6923 108.931 32.6634 109.001 32.6401C110.074 32.2618 111.241 33.3308 111.241 33.3308C111.241 33.3308 112.309 34.4989 111.928 35.5705C111.904 35.6396 111.875 35.7067 111.841 35.7711C111.236 36.8909 107.121 42.5966 105.079 43.4828Z" fill="#000D44"/>
<path d="M111.927 35.573C111.632 35.4436 111.306 35.3988 110.986 35.4437C110.666 35.4885 110.366 35.6212 110.117 35.8269C109.227 36.543 108.68 35.8828 108.68 35.8828C108.68 35.8828 108.022 35.3368 108.739 34.4481C108.945 34.1999 109.078 33.8994 109.122 33.5801C109.167 33.2609 109.123 32.9354 108.993 32.6401C110.066 32.2618 111.233 33.3308 111.233 33.3308C111.233 33.3308 112.309 34.504 111.927 35.573Z" fill="white"/>
<path d="M111.927 35.573C111.632 35.4436 111.306 35.3988 110.986 35.4437C110.666 35.4885 110.366 35.6212 110.117 35.8269C109.227 36.543 108.68 35.8828 108.68 35.8828C108.68 35.8828 108.022 35.3368 108.739 34.4481C108.945 34.1999 109.078 33.8994 109.122 33.5801C109.167 33.2609 109.123 32.9354 108.993 32.6401C110.066 32.2618 111.233 33.3308 111.233 33.3308C111.233 33.3308 112.309 34.504 111.927 35.573Z" fill="#5468FF"/>
<path d="M98.9233 48.7571L97.1814 50.1918C97.0166 50.328 96.8069 50.3978 96.5933 50.3875C96.3796 50.3771 96.1776 50.2874 96.0269 50.1359L94.3765 48.4829C94.2252 48.332 94.1358 48.1301 94.1259 47.9168C94.116 47.7035 94.1864 47.4942 94.3231 47.33L95.765 45.5957L98.9233 48.7571Z" fill="#5468FF"/>
<path d="M103.231 43.1021C102.948 43.3027 101.934 42.5943 101.934 42.5943C101.934 42.5943 101.24 41.5786 101.438 41.2992C103.317 38.6685 106.481 35.8296 107.098 35.7128C107.716 35.596 108.413 36.1547 108.413 36.1547C108.413 36.1547 108.985 36.8454 108.858 37.4624C108.731 38.0794 105.87 41.2332 103.231 43.1021Z" fill="white"/>
<path opacity="0.2" d="M103.231 43.1021C102.948 43.3027 101.934 42.5943 101.934 42.5943C101.934 42.5943 101.24 41.5786 101.438 41.2992C103.317 38.6685 106.481 35.8296 107.098 35.7128C107.716 35.596 108.413 36.1547 108.413 36.1547C108.413 36.1547 108.985 36.8454 108.858 37.4624C108.731 38.0794 105.87 41.2332 103.231 43.1021Z" fill="#5468FF"/>
<path d="M105.833 39.9265C107.351 38.4151 108.31 36.9194 107.977 36.5858C107.644 36.2522 106.144 37.207 104.626 38.7184C103.109 40.2298 102.149 41.7255 102.483 42.0591C102.816 42.3927 104.316 41.4379 105.833 39.9265Z" fill="white"/>
<path d="M105.833 39.9265C107.351 38.4151 108.31 36.9194 107.977 36.5858C107.644 36.2522 106.144 37.207 104.626 38.7184C103.109 40.2298 102.149 41.7255 102.483 42.0591C102.816 42.3927 104.316 41.4379 105.833 39.9265Z" fill="#5468FF"/>
<path d="M94.6891 48.7949L87.5765 55.8693L86.8976 56.2832L86.4907 56.7378L87.7011 57.949L88.1563 57.5452L88.5886 56.8825L95.6961 49.803L94.6891 48.7949Z" fill="#5468FF"/>
<path opacity="0.2" d="M94.6891 48.7949L87.5765 55.8693L86.8976 56.2832L86.4907 56.7378L87.7011 57.949L88.1563 57.5452L88.5886 56.8825L95.6961 49.803L94.6891 48.7949Z" fill="#000D44"/>
<path d="M86.4984 58.9647L85.4863 57.9516L86.4908 56.7378L87.7012 57.949L86.4984 58.9647Z" fill="#5468FF"/>
<path d="M109.808 35.5374C110.022 35.3244 110.022 34.9787 109.809 34.7653C109.596 34.5518 109.25 34.5514 109.036 34.7643C108.822 34.9773 108.822 35.3229 109.035 35.5364C109.248 35.7499 109.594 35.7503 109.808 35.5374Z" fill="white"/>
<path d="M160.253 61.2959H124.708V86.907H160.253V61.2959Z" fill="#5468FF"/>
<path opacity="0.3" d="M160.253 61.2959H124.708V86.907H160.253V61.2959Z" fill="#000D44"/>
<path d="M143.335 66.1714H126.132V67.0855H143.335V66.1714Z" fill="white"/>
<path d="M142.407 65.7041H127.058V67.5552H142.407V65.7041Z" fill="white"/>
<path d="M142.028 66.2373H141.334V67.0219H142.028V66.2373Z" fill="#5468FF"/>
<path d="M139.712 66.2373H139.017V67.0219H139.712V66.2373Z" fill="#5468FF"/>
<path d="M137.397 66.2373H136.703V67.0219H137.397V66.2373Z" fill="#5468FF"/>
<path d="M135.081 66.2373H134.386V67.0219H135.081V66.2373Z" fill="#5468FF"/>
<path d="M132.764 66.2373H132.07V67.0219H132.764V66.2373Z" fill="#5468FF"/>
<path d="M130.448 66.2373H129.753V67.0219H130.448V66.2373Z" fill="#5468FF"/>
<path d="M128.131 66.2373H127.437V67.0219H128.131V66.2373Z" fill="#5468FF"/>
<path d="M143.335 63.2915H126.132V64.2056H143.335V63.2915Z" fill="white"/>
<path d="M142.407 62.8247H127.058V64.6758H142.407V62.8247Z" fill="white"/>
<path d="M142.028 63.3574H141.334V64.1421H142.028V63.3574Z" fill="#5468FF"/>
<path d="M139.712 63.3574H139.017V64.1421H139.712V63.3574Z" fill="#5468FF"/>
<path d="M137.397 63.3574H136.703V64.1421H137.397V63.3574Z" fill="#5468FF"/>
<path d="M135.081 63.3574H134.386V64.1421H135.081V63.3574Z" fill="#5468FF"/>
<path d="M132.764 63.3574H132.07V64.1421H132.764V63.3574Z" fill="#5468FF"/>
<path d="M130.448 63.3574H129.753V64.1421H130.448V63.3574Z" fill="#5468FF"/>
<path d="M128.131 63.3574H127.437V64.1421H128.131V63.3574Z" fill="#5468FF"/>
<path d="M151.678 62.5225H145.517V64.6453H151.678V62.5225Z" fill="white"/>
<path d="M146.486 63.2231H145.924V63.9392H146.486V63.2231Z" fill="#5468FF"/>
<path d="M147.284 63.2231H146.722V63.9392H147.284V63.2231Z" fill="#5468FF"/>
<path d="M148.083 63.2231H147.521V63.9392H148.083V63.2231Z" fill="#5468FF"/>
<path d="M148.881 63.2231H148.319V63.9392H148.881V63.2231Z" fill="#5468FF"/>
<path d="M149.68 63.2231H149.118V63.9392H149.68V63.2231Z" fill="#5468FF"/>
<path d="M150.478 63.2231H149.916V63.9392H150.478V63.2231Z" fill="#5468FF"/>
<path d="M151.274 63.2231H150.712V63.9392H151.274V63.2231Z" fill="#5468FF"/>
<path d="M151.678 65.7241H145.517V67.8469H151.678V65.7241Z" fill="white"/>
<path d="M146.486 66.4253H145.924V67.1414H146.486V66.4253Z" fill="#5468FF"/>
<path d="M147.284 66.4253H146.722V67.1414H147.284V66.4253Z" fill="#5468FF"/>
<path d="M148.083 66.4253H147.521V67.1414H148.083V66.4253Z" fill="#5468FF"/>
<path d="M148.881 66.4253H148.319V67.1414H148.881V66.4253Z" fill="#5468FF"/>
<path d="M149.68 66.4253H149.118V67.1414H149.68V66.4253Z" fill="#5468FF"/>
<path d="M150.478 66.4253H149.916V67.1414H150.478V66.4253Z" fill="#5468FF"/>
<path d="M151.274 66.4253H150.712V67.1414H151.274V66.4253Z" fill="#5468FF"/>
<path d="M142.018 71.1128H129.115V83.997H142.018V71.1128Z" fill="white"/>
<path d="M131.216 72.8672H130.758V73.3243H131.216V72.8672Z" fill="#5468FF"/>
<path d="M132.131 72.8672H131.673V73.3243H132.131V72.8672Z" fill="#5468FF"/>
<path d="M133.047 72.8672H132.589V73.3243H133.047V72.8672Z" fill="#5468FF"/>
<path d="M133.962 72.8672H133.504V73.3243H133.962V72.8672Z" fill="#5468FF"/>
<path d="M134.88 72.8672H134.422V73.3243H134.88V72.8672Z" fill="#5468FF"/>
<path d="M135.795 72.8672H135.337V73.3243H135.795V72.8672Z" fill="#5468FF"/>
<path d="M136.711 72.8672H136.253V73.3243H136.711V72.8672Z" fill="#5468FF"/>
<path d="M137.626 72.8672H137.169V73.3243H137.626V72.8672Z" fill="#5468FF"/>
<path d="M138.542 72.8672H138.084V73.3243H138.542V72.8672Z" fill="#5468FF"/>
<path d="M139.46 72.8672H139.002V73.3243H139.46V72.8672Z" fill="#5468FF"/>
<path d="M140.375 72.8672H139.917V73.3243H140.375V72.8672Z" fill="#5468FF"/>
<path d="M131.216 73.5527H130.758V74.0098H131.216V73.5527Z" fill="#5468FF"/>
<path d="M132.131 73.5527H131.673V74.0098H132.131V73.5527Z" fill="#5468FF"/>
<path d="M133.047 73.5527H132.589V74.0098H133.047V73.5527Z" fill="#5468FF"/>
<path d="M133.962 73.5527H133.504V74.0098H133.962V73.5527Z" fill="#5468FF"/>
<path d="M134.88 73.5527H134.422V74.0098H134.88V73.5527Z" fill="#5468FF"/>
<path d="M135.795 73.5527H135.337V74.0098H135.795V73.5527Z" fill="#5468FF"/>
<path d="M136.711 73.5527H136.253V74.0098H136.711V73.5527Z" fill="#5468FF"/>
<path d="M137.626 73.5527H137.169V74.0098H137.626V73.5527Z" fill="#5468FF"/>
<path d="M138.542 73.5527H138.084V74.0098H138.542V73.5527Z" fill="#5468FF"/>
<path d="M139.46 73.5527H139.002V74.0098H139.46V73.5527Z" fill="#5468FF"/>
<path d="M140.375 73.5527H139.917V74.0098H140.375V73.5527Z" fill="#5468FF"/>
<path d="M131.216 74.2383H130.758V74.6953H131.216V74.2383Z" fill="#5468FF"/>
<path d="M132.131 74.2383H131.673V74.6953H132.131V74.2383Z" fill="#5468FF"/>
<path d="M133.047 74.2383H132.589V74.6953H133.047V74.2383Z" fill="#5468FF"/>
<path d="M133.962 74.2383H133.504V74.6953H133.962V74.2383Z" fill="#5468FF"/>
<path d="M134.88 74.2383H134.422V74.6953H134.88V74.2383Z" fill="#5468FF"/>
<path d="M135.795 74.2383H135.337V74.6953H135.795V74.2383Z" fill="#5468FF"/>
<path d="M136.711 74.2383H136.253V74.6953H136.711V74.2383Z" fill="#5468FF"/>
<path d="M137.626 74.2383H137.169V74.6953H137.626V74.2383Z" fill="#5468FF"/>
<path d="M138.542 74.2383H138.084V74.6953H138.542V74.2383Z" fill="#5468FF"/>
<path d="M139.46 74.2383H139.002V74.6953H139.46V74.2383Z" fill="#5468FF"/>
<path d="M140.375 74.2383H139.917V74.6953H140.375V74.2383Z" fill="#5468FF"/>
<path d="M131.216 74.9238H130.758V75.3809H131.216V74.9238Z" fill="#5468FF"/>
<path d="M132.131 74.9238H131.673V75.3809H132.131V74.9238Z" fill="#5468FF"/>
<path d="M133.047 74.9238H132.589V75.3809H133.047V74.9238Z" fill="#5468FF"/>
<path d="M133.962 74.9238H133.504V75.3809H133.962V74.9238Z" fill="#5468FF"/>
<path d="M134.88 74.9238H134.422V75.3809H134.88V74.9238Z" fill="#5468FF"/>
<path d="M135.795 74.9238H135.337V75.3809H135.795V74.9238Z" fill="#5468FF"/>
<path d="M136.711 74.9238H136.253V75.3809H136.711V74.9238Z" fill="#5468FF"/>
<path d="M137.626 74.9238H137.169V75.3809H137.626V74.9238Z" fill="#5468FF"/>
<path d="M138.542 74.9238H138.084V75.3809H138.542V74.9238Z" fill="#5468FF"/>
<path d="M139.46 74.9238H139.002V75.3809H139.46V74.9238Z" fill="#5468FF"/>
<path d="M140.375 74.9238H139.917V75.3809H140.375V74.9238Z" fill="#5468FF"/>
<path d="M131.216 75.6094H130.758V76.0664H131.216V75.6094Z" fill="#5468FF"/>
<path d="M132.131 75.6094H131.673V76.0664H132.131V75.6094Z" fill="#5468FF"/>
<path d="M133.047 75.6094H132.589V76.0664H133.047V75.6094Z" fill="#5468FF"/>
<path d="M133.962 75.6094H133.504V76.0664H133.962V75.6094Z" fill="#5468FF"/>
<path d="M134.88 75.6094H134.422V76.0664H134.88V75.6094Z" fill="#5468FF"/>
<path d="M135.795 75.6094H135.337V76.0664H135.795V75.6094Z" fill="#5468FF"/>
<path d="M136.711 75.6094H136.253V76.0664H136.711V75.6094Z" fill="#5468FF"/>
<path d="M137.626 75.6094H137.169V76.0664H137.626V75.6094Z" fill="#5468FF"/>
<path d="M138.542 75.6094H138.084V76.0664H138.542V75.6094Z" fill="#5468FF"/>
<path d="M139.46 75.6094H139.002V76.0664H139.46V75.6094Z" fill="#5468FF"/>
<path d="M140.375 75.6094H139.917V76.0664H140.375V75.6094Z" fill="#5468FF"/>
<path d="M131.216 76.2954H130.758V76.7525H131.216V76.2954Z" fill="#5468FF"/>
<path d="M132.131 76.2954H131.673V76.7525H132.131V76.2954Z" fill="#5468FF"/>
<path d="M133.047 76.2954H132.589V76.7525H133.047V76.2954Z" fill="#5468FF"/>
<path d="M133.962 76.2954H133.504V76.7525H133.962V76.2954Z" fill="#5468FF"/>
<path d="M134.88 76.2954H134.422V76.7525H134.88V76.2954Z" fill="#5468FF"/>
<path d="M135.795 76.2954H135.337V76.7525H135.795V76.2954Z" fill="#5468FF"/>
<path d="M136.711 76.2954H136.253V76.7525H136.711V76.2954Z" fill="#5468FF"/>
<path d="M137.626 76.2954H137.169V76.7525H137.626V76.2954Z" fill="#5468FF"/>
<path d="M138.542 76.2954H138.084V76.7525H138.542V76.2954Z" fill="#5468FF"/>
<path d="M139.46 76.2954H139.002V76.7525H139.46V76.2954Z" fill="#5468FF"/>
<path d="M140.375 76.2954H139.917V76.7525H140.375V76.2954Z" fill="#5468FF"/>
<path d="M131.216 76.981H130.758V77.438H131.216V76.981Z" fill="#5468FF"/>
<path d="M132.131 76.981H131.673V77.438H132.131V76.981Z" fill="#5468FF"/>
<path d="M133.047 76.981H132.589V77.438H133.047V76.981Z" fill="#5468FF"/>
<path d="M133.962 76.981H133.504V77.438H133.962V76.981Z" fill="#5468FF"/>
<path d="M134.88 76.981H134.422V77.438H134.88V76.981Z" fill="#5468FF"/>
<path d="M135.795 76.981H135.337V77.438H135.795V76.981Z" fill="#5468FF"/>
<path d="M136.711 76.981H136.253V77.438H136.711V76.981Z" fill="#5468FF"/>
<path d="M137.626 76.981H137.169V77.438H137.626V76.981Z" fill="#5468FF"/>
<path d="M138.542 76.981H138.084V77.438H138.542V76.981Z" fill="#5468FF"/>
<path d="M139.46 76.981H139.002V77.438H139.46V76.981Z" fill="#5468FF"/>
<path d="M140.375 76.981H139.917V77.438H140.375V76.981Z" fill="#5468FF"/>
<path d="M131.216 77.6689H130.758V78.126H131.216V77.6689Z" fill="#5468FF"/>
<path d="M132.131 77.6689H131.673V78.126H132.131V77.6689Z" fill="#5468FF"/>
<path d="M133.047 77.6689H132.589V78.126H133.047V77.6689Z" fill="#5468FF"/>
<path d="M133.962 77.6689H133.504V78.126H133.962V77.6689Z" fill="#5468FF"/>
<path d="M134.88 77.6689H134.422V78.126H134.88V77.6689Z" fill="#5468FF"/>
<path d="M135.795 77.6689H135.337V78.126H135.795V77.6689Z" fill="#5468FF"/>
<path d="M136.711 77.6689H136.253V78.126H136.711V77.6689Z" fill="#5468FF"/>
<path d="M137.626 77.6689H137.169V78.126H137.626V77.6689Z" fill="#5468FF"/>
<path d="M138.542 77.6689H138.084V78.126H138.542V77.6689Z" fill="#5468FF"/>
<path d="M139.46 77.6689H139.002V78.126H139.46V77.6689Z" fill="#5468FF"/>
<path d="M140.375 77.6689H139.917V78.126H140.375V77.6689Z" fill="#5468FF"/>
<path d="M131.216 78.3545H130.758V78.8116H131.216V78.3545Z" fill="#5468FF"/>
<path d="M132.131 78.3545H131.673V78.8116H132.131V78.3545Z" fill="#5468FF"/>
<path d="M133.047 78.3545H132.589V78.8116H133.047V78.3545Z" fill="#5468FF"/>
<path d="M133.962 78.3545H133.504V78.8116H133.962V78.3545Z" fill="#5468FF"/>
<path d="M134.88 78.3545H134.422V78.8116H134.88V78.3545Z" fill="#5468FF"/>
<path d="M135.795 78.3545H135.337V78.8116H135.795V78.3545Z" fill="#5468FF"/>
<path d="M136.711 78.3545H136.253V78.8116H136.711V78.3545Z" fill="#5468FF"/>
<path d="M137.626 78.3545H137.169V78.8116H137.626V78.3545Z" fill="#5468FF"/>
<path d="M138.542 78.3545H138.084V78.8116H138.542V78.3545Z" fill="#5468FF"/>
<path d="M139.46 78.3545H139.002V78.8116H139.46V78.3545Z" fill="#5468FF"/>
<path d="M140.375 78.3545H139.917V78.8116H140.375V78.3545Z" fill="#5468FF"/>
<path d="M131.216 79.0405H130.758V79.4976H131.216V79.0405Z" fill="#5468FF"/>
<path d="M132.131 79.0405H131.673V79.4976H132.131V79.0405Z" fill="#5468FF"/>
<path d="M133.047 79.0405H132.589V79.4976H133.047V79.0405Z" fill="#5468FF"/>
<path d="M133.962 79.0405H133.504V79.4976H133.962V79.0405Z" fill="#5468FF"/>
<path d="M134.88 79.0405H134.422V79.4976H134.88V79.0405Z" fill="#5468FF"/>
<path d="M135.795 79.0405H135.337V79.4976H135.795V79.0405Z" fill="#5468FF"/>
<path d="M136.711 79.0405H136.253V79.4976H136.711V79.0405Z" fill="#5468FF"/>
<path d="M137.626 79.0405H137.169V79.4976H137.626V79.0405Z" fill="#5468FF"/>
<path d="M138.542 79.0405H138.084V79.4976H138.542V79.0405Z" fill="#5468FF"/>
<path d="M139.46 79.0405H139.002V79.4976H139.46V79.0405Z" fill="#5468FF"/>
<path d="M140.375 79.0405H139.917V79.4976H140.375V79.0405Z" fill="#5468FF"/>
<path d="M131.216 79.7256H130.758V80.1827H131.216V79.7256Z" fill="#5468FF"/>
<path d="M132.131 79.7256H131.673V80.1827H132.131V79.7256Z" fill="#5468FF"/>
<path d="M133.047 79.7256H132.589V80.1827H133.047V79.7256Z" fill="#5468FF"/>
<path d="M133.962 79.7256H133.504V80.1827H133.962V79.7256Z" fill="#5468FF"/>
<path d="M134.88 79.7256H134.422V80.1827H134.88V79.7256Z" fill="#5468FF"/>
<path d="M135.795 79.7256H135.337V80.1827H135.795V79.7256Z" fill="#5468FF"/>
<path d="M136.711 79.7256H136.253V80.1827H136.711V79.7256Z" fill="#5468FF"/>
<path d="M137.626 79.7256H137.169V80.1827H137.626V79.7256Z" fill="#5468FF"/>
<path d="M138.542 79.7256H138.084V80.1827H138.542V79.7256Z" fill="#5468FF"/>
<path d="M139.46 79.7256H139.002V80.1827H139.46V79.7256Z" fill="#5468FF"/>
<path d="M140.375 79.7256H139.917V80.1827H140.375V79.7256Z" fill="#5468FF"/>
<path d="M131.216 80.4116H130.758V80.8687H131.216V80.4116Z" fill="#5468FF"/>
<path d="M132.131 80.4116H131.673V80.8687H132.131V80.4116Z" fill="#5468FF"/>
<path d="M133.047 80.4116H132.589V80.8687H133.047V80.4116Z" fill="#5468FF"/>
<path d="M133.962 80.4116H133.504V80.8687H133.962V80.4116Z" fill="#5468FF"/>
<path d="M134.88 80.4116H134.422V80.8687H134.88V80.4116Z" fill="#5468FF"/>
<path d="M135.795 80.4116H135.337V80.8687H135.795V80.4116Z" fill="#5468FF"/>
<path d="M136.711 80.4116H136.253V80.8687H136.711V80.4116Z" fill="#5468FF"/>
<path d="M137.626 80.4116H137.169V80.8687H137.626V80.4116Z" fill="#5468FF"/>
<path d="M138.542 80.4116H138.084V80.8687H138.542V80.4116Z" fill="#5468FF"/>
<path d="M139.46 80.4116H139.002V80.8687H139.46V80.4116Z" fill="#5468FF"/>
<path d="M140.375 80.4116H139.917V80.8687H140.375V80.4116Z" fill="#5468FF"/>
<path d="M131.216 81.0972H130.758V81.5542H131.216V81.0972Z" fill="#5468FF"/>
<path d="M132.131 81.0972H131.673V81.5542H132.131V81.0972Z" fill="#5468FF"/>
<path d="M133.047 81.0972H132.589V81.5542H133.047V81.0972Z" fill="#5468FF"/>
<path d="M133.962 81.0972H133.504V81.5542H133.962V81.0972Z" fill="#5468FF"/>
<path d="M134.88 81.0972H134.422V81.5542H134.88V81.0972Z" fill="#5468FF"/>
<path d="M135.795 81.0972H135.337V81.5542H135.795V81.0972Z" fill="#5468FF"/>
<path d="M136.711 81.0972H136.253V81.5542H136.711V81.0972Z" fill="#5468FF"/>
<path d="M137.626 81.0972H137.169V81.5542H137.626V81.0972Z" fill="#5468FF"/>
<path d="M138.542 81.0972H138.084V81.5542H138.542V81.0972Z" fill="#5468FF"/>
<path d="M139.46 81.0972H139.002V81.5542H139.46V81.0972Z" fill="#5468FF"/>
<path d="M140.375 81.0972H139.917V81.5542H140.375V81.0972Z" fill="#5468FF"/>
<path d="M131.216 81.7827H130.758V82.2398H131.216V81.7827Z" fill="#5468FF"/>
<path d="M132.131 81.7827H131.673V82.2398H132.131V81.7827Z" fill="#5468FF"/>
<path d="M133.047 81.7827H132.589V82.2398H133.047V81.7827Z" fill="#5468FF"/>
<path d="M133.962 81.7827H133.504V82.2398H133.962V81.7827Z" fill="#5468FF"/>
<path d="M134.88 81.7827H134.422V82.2398H134.88V81.7827Z" fill="#5468FF"/>
<path d="M135.795 81.7827H135.337V82.2398H135.795V81.7827Z" fill="#5468FF"/>
<path d="M136.711 81.7827H136.253V82.2398H136.711V81.7827Z" fill="#5468FF"/>
<path d="M137.626 81.7827H137.169V82.2398H137.626V81.7827Z" fill="#5468FF"/>
<path d="M138.542 81.7827H138.084V82.2398H138.542V81.7827Z" fill="#5468FF"/>
<path d="M139.46 81.7827H139.002V82.2398H139.46V81.7827Z" fill="#5468FF"/>
<path d="M140.375 81.7827H139.917V82.2398H140.375V81.7827Z" fill="#5468FF"/>
<path d="M137.626 75.4956H133.504V79.6118H137.626V75.4956Z" fill="#5468FF"/>
<path d="M129.601 73.1161H127.531L126.682 71.4046H124.708V71.0796H126.882L127.732 72.7885H129.601V73.1161Z" fill="white"/>
<path d="M129.601 76.3636H127.531L126.682 74.6522H124.708V74.3271H126.882L127.732 76.0386H129.601V76.3636Z" fill="white"/>
<path d="M129.601 79.6116H127.531L126.682 77.9027H124.708V77.5776H126.882L127.732 79.2866H129.601V79.6116Z" fill="white"/>
<path d="M129.601 82.8617H127.531L126.682 81.1502H124.708V80.8252H126.882L127.732 82.5367H129.601V82.8617Z" fill="white"/>
<path d="M144.528 74.4134H146.598V74.0884H144.729L143.879 72.377H141.705V72.702H143.678L144.528 74.4134Z" fill="white"/>
<path d="M144.528 77.6614H146.598V77.3389H144.729L143.879 75.6274H141.705V75.9525H143.678L144.528 77.6614Z" fill="white"/>
<path d="M144.528 80.9115H146.598V80.5865H144.729L143.879 78.875H141.705V79.2H143.678L144.528 80.9115Z" fill="white"/>
<path d="M144.528 84.1594H146.598V83.8344H144.729L143.879 82.1255H141.705V82.4505H143.678L144.528 84.1594Z" fill="white"/>
<path d="M146.804 72.5649H146.117V85.6396H146.804V72.5649Z" fill="white"/>
<path d="M149.718 72.5649H149.031V85.6396H149.718V72.5649Z" fill="white"/>
<path d="M149.374 73.7002H146.557V84.5073H149.374V73.7002Z" fill="white"/>
<path d="M149.128 82.9404H146.801V83.6387H149.128V82.9404Z" fill="#5468FF"/>
<path d="M149.128 81.5464H146.801V82.2421H149.128V81.5464Z" fill="#5468FF"/>
<path d="M149.128 80.1499H146.801V80.8482H149.128V80.1499Z" fill="#5468FF"/>
<path d="M149.128 78.7559H146.801V79.4516H149.128V78.7559Z" fill="#5468FF"/>
<path d="M149.128 77.3618H146.801V78.0601H149.128V77.3618Z" fill="#5468FF"/>
<path d="M149.128 75.9653H146.801V76.6636H149.128V75.9653Z" fill="#5468FF"/>
<path d="M149.128 74.5713H146.801V75.2671H149.128V74.5713Z" fill="#5468FF"/>
<path d="M151.778 74.4134H149.708V74.0884H151.577L152.426 72.377H154.6V72.702H152.627L151.778 74.4134Z" fill="white"/>
<path d="M151.778 77.6614H149.708V77.3389H151.577L152.426 75.6274H154.6V75.9525H152.627L151.778 77.6614Z" fill="white"/>
<path d="M151.778 80.9115H149.708V80.5865H151.577L152.426 78.875H154.6V79.2H152.627L151.778 80.9115Z" fill="white"/>
<path d="M151.778 84.1594H149.708V83.8344H151.577L152.426 82.1255H154.6V82.4505H152.627L151.778 84.1594Z" fill="white"/>
<path d="M86.6841 82.1968H53.2778V86.2444H86.6841V82.1968Z" fill="#5468FF"/>
<path d="M86.6841 34.9766H53.2778V82.1968H86.6841V34.9766Z" fill="#5468FF"/>
<path opacity="0.3" d="M86.6841 34.9766H53.2778V82.1968H86.6841V34.9766Z" fill="#000D44"/>
<path opacity="0.2" d="M84.4107 37.2466H55.5537V79.9241H84.4107V37.2466Z" fill="#000D44"/>
<path d="M67.9301 41.6953H59.1672V42.871H67.9301V41.6953Z" fill="white"/>
<path d="M72.3497 41.6953H70.0662V42.871H72.3497V41.6953Z" fill="white"/>
<path d="M76.5736 41.6953H74.29V42.871H76.5736V41.6953Z" fill="white"/>
<path d="M80.7945 41.6953H78.511V42.871H80.7945V41.6953Z" fill="white"/>
<path d="M58.0282 41.6953H56.8508V42.871H58.0282V41.6953Z" fill="white"/>
<path d="M83.1088 41.6953H81.9314V42.871H83.1088V41.6953Z" fill="white"/>
<path d="M67.9301 61.1128H59.1672V62.2885H67.9301V61.1128Z" fill="white"/>
<path d="M72.3497 61.1128H70.0662V62.2885H72.3497V61.1128Z" fill="white"/>
<path d="M76.5736 61.1128H74.29V62.2885H76.5736V61.1128Z" fill="white"/>
<path d="M80.7945 61.1128H78.511V62.2885H80.7945V61.1128Z" fill="white"/>
<path d="M58.0282 61.1128H56.8508V62.2885H58.0282V61.1128Z" fill="white"/>
<path d="M83.1088 61.1128H81.9314V62.2885H83.1088V61.1128Z" fill="white"/>
<path d="M63.5487 46.6772H59.1672V47.8529H63.5487V46.6772Z" fill="white"/>
<path d="M72.3499 46.6772H64.9551V47.8529H72.3499V46.6772Z" fill="white"/>
<path d="M76.5736 46.6772H74.29V47.8529H76.5736V46.6772Z" fill="white"/>
<path d="M80.7945 46.6772H78.511V47.8529H80.7945V46.6772Z" fill="white"/>
<path d="M58.0282 46.6772H56.8508V47.8529H58.0282V46.6772Z" fill="white"/>
<path d="M83.1088 46.6772H81.9314V47.8529H83.1088V46.6772Z" fill="white"/>
<path d="M63.5487 74.8047H59.1672V75.9804H63.5487V74.8047Z" fill="white"/>
<path d="M72.3499 74.8047H64.9551V75.9804H72.3499V74.8047Z" fill="white"/>
<path d="M76.5736 74.8047H74.29V75.9804H76.5736V74.8047Z" fill="white"/>
<path d="M80.7945 74.8047H78.511V75.9804H80.7945V74.8047Z" fill="white"/>
<path d="M58.0282 74.8047H56.8508V75.9804H58.0282V74.8047Z" fill="white"/>
<path d="M83.1088 74.8047H81.9314V75.9804H83.1088V74.8047Z" fill="white"/>
<path d="M63.5487 65.5391H59.1672V66.7147H63.5487V65.5391Z" fill="white"/>
<path d="M72.3499 65.5391H64.9551V66.7147H72.3499V65.5391Z" fill="white"/>
<path d="M76.5736 65.5391H74.29V66.7147H76.5736V65.5391Z" fill="white"/>
<path d="M80.7945 65.5391H78.511V66.7147H80.7945V65.5391Z" fill="white"/>
<path d="M58.0282 65.5391H56.8508V66.7147H58.0282V65.5391Z" fill="white"/>
<path d="M83.1088 65.5391H81.9314V66.7147H83.1088V65.5391Z" fill="white"/>
<path d="M72.0318 57.2227H80.7947V56.047H72.0318V57.2227Z" fill="white"/>
<path d="M67.6122 57.2227H69.8958V56.047H67.6122V57.2227Z" fill="white"/>
<path d="M63.3883 57.2227H65.6719V56.047H63.3883V57.2227Z" fill="white"/>
<path d="M59.1674 57.2227H61.4509V56.047H59.1674V57.2227Z" fill="white"/>
<path d="M81.934 57.2227H83.1113V56.047H81.934V57.2227Z" fill="white"/>
<path d="M56.8531 57.2227H58.0305V56.047H56.8531V57.2227Z" fill="white"/>
<path d="M76.4132 52.2407H80.7947V51.065H76.4132V52.2407Z" fill="white"/>
<path d="M67.6123 52.2407H75.0071V51.065H67.6123V52.2407Z" fill="white"/>
<path d="M63.3883 52.2407H65.6719V51.065H63.3883V52.2407Z" fill="white"/>
<path d="M59.1674 52.2407H61.4509V51.065H59.1674V52.2407Z" fill="white"/>
<path d="M81.934 52.2407H83.1113V51.065H81.934V52.2407Z" fill="white"/>
<path d="M56.8531 52.2407H58.0305V51.065H56.8531V52.2407Z" fill="white"/>
<path d="M76.4132 71.7476H80.7947V70.5719H76.4132V71.7476Z" fill="white"/>
<path d="M67.6123 71.7476H75.0071V70.5719H67.6123V71.7476Z" fill="white"/>
<path d="M63.3883 71.7476H65.6719V70.5719H63.3883V71.7476Z" fill="white"/>
<path d="M59.1674 71.7476H61.4509V70.5719H59.1674V71.7476Z" fill="white"/>
<path d="M81.934 71.7476H83.1113V70.5719H81.934V71.7476Z" fill="white"/>
<path d="M56.8531 71.7476H58.0305V70.5719H56.8531V71.7476Z" fill="white"/>
<path d="M48.9244 16.8232C48.9676 16.9553 49.0032 17.0772 49.0515 17.2194C49.4699 18.4555 50.0117 19.6465 50.6688 20.7743C51.0858 21.4396 51.8945 22.1176 52.2174 22.7651C52.3465 23.0225 52.4926 23.2711 52.6548 23.5091C51.5995 25.0327 48.8608 29.0955 48.1971 30.8578C48.1971 30.8578 43.0273 28.0646 42.061 25.0175C42.0585 25.0022 46.979 20.0684 48.9244 16.8232Z" fill="#EFAB89"/>
<path d="M33.3694 117.858C33.3694 117.858 33.5296 123.698 34.445 124.498C35.3605 125.298 46.9994 125.646 48.0013 124.579C49.0032 123.513 48.4158 121.718 45.9161 121.024C43.2384 120.283 41.9237 121.009 40.248 120.311C38.5722 119.613 39.0146 116.972 39.0146 116.972L33.3694 117.858Z" fill="#000D44"/>
<path d="M4.5048 117.66C4.5048 117.66 3.60715 123.35 4.49209 124.183C5.37702 125.016 17.2321 125.946 18.2721 124.92C19.3122 123.894 18.796 122.078 16.3268 121.289C13.6796 120.443 12.398 120.979 10.6892 120.359C9.3465 119.872 10.2518 117.16 10.2518 117.16L4.5048 117.66Z" fill="#000D44"/>
<path d="M13.1074 84.9058C12.9001 74.0254 13.714 63.1496 15.5385 52.4209C17.4736 52.492 19.4164 52.6748 21.349 53.5433C24.9091 55.1582 28.4692 56.7072 32.0445 58.2612C29.1456 64.2488 22.801 83.7936 22.0382 87.8843C21.0871 92.9629 10.4374 118.924 10.4374 118.924L3.99365 118.114C4.09537 113.932 13.1303 86.3049 13.1074 84.9058Z" fill="#1B255E"/>
<path d="M21.5117 54.9681C24.0241 55.8137 28.5911 57.0275 32.0444 58.2692C34.4475 64.3329 41.5473 78.6468 41.916 85.1194C42.3229 92.2598 39.8486 119.316 39.8486 119.316H32.4742C32.4742 119.316 31.7901 88.8217 30.7577 86.8613C27.3528 80.4014 23.5892 75.2797 21.4507 71.2601C17.8626 64.5158 16.6445 60.1863 16.0139 57.0402C15.7342 55.6461 14.5161 50.9738 16.8836 49.5112C18.8391 50.0419 19.4112 54.2597 21.5117 54.9681Z" fill="#1B255E"/>
<path d="M33.8753 61.0012C33.8753 61.0012 28.1716 57.921 22.6026 56.4051C18.506 55.2903 17.6414 54.9323 13.8092 54.8815C13.726 54.8808 13.6444 54.8582 13.5726 54.8161C13.5008 54.774 13.4414 54.7139 13.4002 54.6416C13.359 54.5694 13.3375 54.4876 13.3379 54.4045C13.3383 54.3214 13.3605 54.2398 13.4023 54.168C15.6503 50.3819 26.3559 32.5842 31.5664 28.1684C37.4151 23.2067 42.8264 24.2071 42.8264 24.2071C42.8264 24.2071 45.6516 28.176 48.8099 29.5396C48.8099 29.5396 46.8493 41.4742 44.375 46.2734C41.9008 51.0726 33.8753 61.0012 33.8753 61.0012Z" fill="#5468FF"/>
<path d="M56.6675 24.4026C55.4952 25.3878 54.0686 26.1141 52.6853 26.8047C52.5746 26.8792 52.4499 26.9306 52.3189 26.9559C52.1878 26.9812 52.053 26.9799 51.9224 26.952C51.758 26.8741 51.6195 26.7507 51.5232 26.5965C50.647 25.3945 49.9251 24.0876 49.3744 22.7064C48.9545 21.7787 48.6801 20.7921 48.5607 19.7811C48.5213 19.0866 48.5418 18.39 48.6217 17.6989C48.7298 16.0855 48.937 14.4802 49.2422 12.8921C49.5168 11.6021 49.8601 9.80179 51.0985 9.07048C51.5662 8.82135 52.0672 8.64008 52.5861 8.53216C54.2441 8.11064 56.0547 7.77038 57.616 8.45852C58.9943 9.07302 59.9046 10.3858 60.815 11.5869C61.377 12.3284 62 13.1562 61.9059 14.083C61.8407 14.4914 61.7039 14.8851 61.5016 15.246C60.9574 16.3607 60.3878 17.4678 59.9326 18.6232C59.3706 20.0477 58.9739 21.5611 58.1144 22.8282C57.7066 23.4168 57.2198 23.9465 56.6675 24.4026V24.4026Z" fill="#F5B58F"/>
<path d="M55.6988 14.0352C55.9102 14.2112 56.0944 14.4174 56.2455 14.6471C56.9981 15.7024 57.913 16.6322 58.9562 17.4022C59.3682 17.7069 59.8412 17.9964 60.3523 17.9532C60.9575 17.9025 61.4152 17.4048 61.9671 17.1483C62.7833 16.7674 63.7649 16.9325 64.5964 16.5922C65.0862 16.3763 65.4886 16.0016 65.7384 15.5286C65.9881 15.0557 66.0705 14.5124 65.9721 13.9869C65.7738 13.0652 65.0262 12.3262 64.8736 11.3969C64.721 10.4675 65.2169 9.36544 64.7897 8.49193C64.4362 7.76316 63.5767 7.44575 62.7833 7.28578C61.9899 7.1258 61.133 7.03185 60.4947 6.524C59.8564 6.01614 59.5106 5.069 58.7528 4.68049C58.0993 4.34531 57.3186 4.50782 56.5837 4.53575C54.969 4.59923 53.3695 3.96949 51.7522 4.13962C50.4657 4.28273 49.2856 4.92023 48.4616 5.91711C48.0421 6.42497 47.9734 7.1512 47.7293 7.7657C47.4546 8.45748 47.1068 9.11804 46.6918 9.73617C46.2264 10.4269 45.6746 11.0998 45.5271 11.9225C45.4643 12.5613 45.546 13.2061 45.7662 13.8092C46.1632 15.1579 46.65 16.4788 47.2232 17.7628C47.4013 18.1615 47.6428 18.6033 48.07 18.6998C48.2438 18.7226 48.4205 18.7041 48.5857 18.6459C48.751 18.5876 48.9001 18.4913 49.0211 18.3646C49.2603 18.144 49.4495 17.8749 49.5763 17.5754C49.703 17.2759 49.7643 16.9528 49.756 16.6277C49.7306 15.866 49.3313 15.0915 49.639 14.4008C49.7321 14.2288 49.8644 14.0812 50.0253 13.9698C50.1862 13.8584 50.371 13.7865 50.565 13.7598C50.7589 13.7331 50.9564 13.7524 51.1414 13.8161C51.3265 13.8798 51.4939 13.9862 51.6301 14.1266C51.9133 14.5325 52.0298 15.0315 51.9556 15.5206C51.8796 16.0043 51.8464 16.4937 51.8564 16.9832C51.8869 17.2753 52.0141 17.6079 52.2989 17.6841C52.4219 17.7049 52.5483 17.6878 52.6614 17.6352C52.7745 17.5826 52.8689 17.4969 52.9321 17.3895C53.0548 17.1733 53.1408 16.9381 53.1864 16.6938C53.4236 15.8099 53.8583 14.9913 54.4578 14.2992C54.6158 14.0777 54.8474 13.9193 55.1114 13.8523C55.2166 13.8404 55.3232 13.8505 55.4243 13.882C55.5255 13.9135 55.6189 13.9656 55.6988 14.0352Z" fill="#000D44"/>
<path d="M61.8222 67.3469C62.1078 67.2984 62.3971 67.2755 62.6868 67.2783C63.2488 67.4637 64.1871 67.1945 64.5813 67.0447C65.4764 66.707 66.8445 66.1128 67.765 66.2829C68.3015 66.3769 71.5082 67.1234 70.7199 68.4388C70.6156 68.614 70.2113 68.8908 70.1096 68.8476C69.7815 68.7232 68.8584 68.388 68.8584 68.388C69.1508 68.4906 69.4362 68.6119 69.7129 68.7511C69.8375 68.84 70.074 68.9466 70.1553 69.0736C70.3308 69.3453 70.0638 69.9319 69.7841 70.0283C69.5043 70.1248 69.2958 69.8455 69.0619 69.7186H69.0771C69.2984 69.8938 69.7815 70.0182 69.484 70.6936C69.1509 71.4554 68.9195 70.973 68.5991 70.8917C68.48 70.8563 68.3642 70.8104 68.2532 70.7546C68.4804 70.8644 68.7019 70.9856 68.9169 71.1177C69.217 71.3716 68.5533 72.2756 67.9583 72.1994C67.5946 72.1537 66.7275 71.6281 66.5215 71.6916C65.5392 71.8804 64.5223 71.7588 63.6124 71.3437C63.3124 71.2091 62.7148 70.973 62.4172 70.813C61.7906 70.4593 61.1951 70.0533 60.6372 69.5992C61.1305 68.6597 61.9214 68.4184 61.8222 67.3469Z" fill="white"/>
<path d="M61.5575 70.8462L64.3979 66.5929C64.3979 66.5929 56.698 54.9554 53.6795 49.0136C50.6611 43.0717 48.7819 32.3585 45.56 30.6953C42.3382 29.032 38.3 29.7964 38.7476 35.1669C39.1951 40.5375 47.1671 50.0318 48.5301 52.7717C49.8931 55.5115 59.9198 69.0839 61.5575 70.8462Z" fill="#5468FF"/>
<path opacity="0.15" d="M161.357 129.98C176.024 129.98 187.915 129.352 187.915 128.576C187.915 127.801 176.024 127.172 161.357 127.172C146.689 127.172 134.799 127.801 134.799 128.576C134.799 129.352 146.689 129.98 161.357 129.98Z" fill="#5468FF"/>
<path d="M171.943 120.702C171.943 120.702 172.245 122.921 172.284 123.241C172.322 123.561 175.656 123.046 175.656 123.046L175.925 120.405C175.925 120.405 172.36 120.39 171.943 120.702Z" fill="#F5B58F"/>
<path d="M172.24 122.972C172.24 122.972 171.185 124.308 170.163 124.892C169.141 125.476 167.536 125.704 166.933 126.309C166.499 126.743 165.347 128.617 169.588 128.581C173.83 128.546 175.874 128.835 176.329 128.127C176.785 127.418 175.671 122.822 175.671 122.822C175.671 122.822 174.641 123.124 172.24 122.972Z" fill="#000D44"/>
<path d="M148.868 120.702C148.868 120.702 149.171 122.921 149.209 123.241C149.247 123.561 152.581 123.046 152.581 123.046L152.851 120.405C152.851 120.405 149.283 120.39 148.868 120.702Z" fill="#F5B58F"/>
<path d="M149.174 122.972C149.174 122.972 148.118 124.308 147.096 124.892C146.074 125.476 142.316 125.953 141.713 126.555C141.278 126.989 140.553 128.744 146.522 128.586C150.763 128.469 152.808 128.84 153.263 128.132C153.718 127.423 152.604 122.827 152.604 122.827C151.468 122.987 150.319 123.035 149.174 122.972V122.972Z" fill="#000D44"/>
<path d="M170.821 66.9482C171.901 69.6105 172.406 72.4701 172.304 75.3405C172.08 79.9112 173.189 84.911 173.641 89.6849C174.15 95.0173 176.215 107.604 176.289 110.451C176.362 113.298 175.968 122.386 175.968 122.386L171.828 122.485C171.828 122.485 168.352 100.459 167.452 98.2117C166.552 95.9645 162.086 82.161 161.936 80.3632C161.786 78.5654 170.821 66.9482 170.821 66.9482Z" fill="#1B255E"/>
<path d="M153.662 66.3974C153.662 66.3974 151.149 78.9414 150.849 81.7346C150.549 84.5278 150.341 95.2689 150.198 97.0185C150.056 98.768 149.199 119.892 148.398 122.49H153.013C153.013 122.49 157.746 107.127 157.746 99.865C157.746 92.6027 160.884 86.2875 162.91 81.4934C164.937 76.6992 169.573 75.846 170.819 66.951C170.821 66.9484 155.348 63.5737 153.662 66.3974Z" fill="#1B255E"/>
<path d="M167.795 32.7518C169.293 30.2126 169.723 26.8556 170.102 23.9431C170.28 22.5719 170.592 20.6192 169.629 19.7635C168.594 18.8442 168.494 17.4273 167.307 16.7163C166.119 16.0053 164.51 15.9546 163.386 16.7595" fill="#000D44"/>
<path d="M163.645 41.7053C163.101 41.7467 162.554 41.6783 162.037 41.5043C161.52 41.3303 161.043 41.0542 160.635 40.6924C160.227 40.3307 159.896 39.8906 159.662 39.3985C159.428 38.9064 159.295 38.3722 159.272 37.8278C159.18 35.6212 159.099 33.3892 159.099 33.3892C159.099 33.3892 155.747 33.0845 155.495 29.7758C155.244 26.4671 155.33 18.8214 155.33 18.8214C157.164 17.8918 159.214 17.4681 161.267 17.594C163.321 17.7198 165.303 18.3908 167.01 19.5375L166.837 31.1927L166.854 37.4622C166.832 39.5622 165.743 41.5377 163.645 41.7053Z" fill="#F5B58F"/>
<path d="M158.781 25.7231C159.35 25.0147 160.281 24.7303 161.047 25.2153C161.422 25.4744 161.694 25.8584 161.813 26.2988C161.931 26.7392 161.89 27.2074 161.695 27.6199C161.525 27.9263 161.292 28.1941 161.013 28.4065C160.734 28.6189 160.414 28.7713 160.073 28.854C159.767 28.9205 159.497 29.097 159.313 29.35C159.13 29.603 159.046 29.9146 159.078 30.2252C159.175 31.0556 160.561 31.3654 161.189 32.051C162.163 33.1175 164.299 33.5745 165.736 33.7294C167.172 33.8843 166.979 33.9072 167.795 32.7442C168.346 31.9566 168.626 31.0123 168.594 30.0526L168.724 22.7268C168.776 21.8468 168.717 20.9638 168.548 20.0986C168.374 19.2263 167.876 18.4518 167.155 17.9301C166.346 17.4019 165.324 17.3613 164.406 17.0667C163.256 16.6985 162.277 15.9418 161.202 15.3959C160.126 14.85 158.806 14.5249 157.731 15.0709C156.968 15.4619 156.441 16.2339 155.696 16.6655C154.626 17.2775 153.166 17.1429 152.645 18.7198C152.47 19.2687 152.478 19.8593 152.668 20.4033C153.4 22.5439 156.06 23.3997 157.972 22.4678C158.01 22.8309 157.654 23.6384 158.041 24.7836C158.163 25.1492 158.209 25.7079 158.783 25.7155" fill="#000D44"/>
<path d="M159.378 27.7877C159.366 27.7877 159.366 27.8512 159.424 27.9299C159.47 27.9847 159.526 28.0293 159.59 28.0608C159.654 28.0923 159.724 28.11 159.795 28.1128C160.167 28.1458 160.637 27.7471 160.652 27.1961C160.659 27.0682 160.64 26.9403 160.596 26.8199C160.553 26.6996 160.485 26.5892 160.398 26.4953C160.263 26.3471 160.085 26.2434 159.889 26.1982C159.549 26.1271 159.35 26.254 159.366 26.2769C159.381 26.2997 159.569 26.2616 159.844 26.3607C160.017 26.4166 160.166 26.5276 160.27 26.6766C160.374 26.8256 160.426 27.0046 160.418 27.1859C160.421 27.3656 160.361 27.5406 160.247 27.68C160.134 27.8194 159.975 27.9142 159.798 27.9477C159.526 27.9655 159.404 27.7674 159.378 27.7877Z" fill="#EFAB89"/>
<path d="M158.277 36.482L159.139 34.7096L166.86 34.4277L167.808 36.7283H158.399" fill="#5468FF"/>
<path opacity="0.2" d="M158.277 36.482L159.139 34.7096L166.86 34.4277L167.808 36.7283H158.399" fill="#000D44"/>
<path d="M138.382 52.4795H143.976L148.97 53.2413L145.893 60.2725L137.214 53.998L137.537 53.4723C137.765 53.0994 138.05 52.7644 138.382 52.4795V52.4795Z" fill="#F5B58F"/>
<path d="M132.53 52.4822C132.584 52.2131 130.549 41.6523 129.987 38.7499C129.97 38.6608 129.973 38.5691 129.995 38.4812C130.018 38.3933 130.059 38.3115 130.117 38.2416C130.175 38.1717 130.248 38.1154 130.33 38.0769C130.412 38.0383 130.502 38.0184 130.592 38.0186H145.596C145.734 38.0188 145.868 38.0655 145.977 38.1512C146.085 38.2369 146.161 38.3565 146.193 38.4909L149.265 51.4208L156.835 51.9845L156.581 52.4924L132.53 52.4822Z" fill="#5468FF"/>
<path opacity="0.2" d="M132.53 52.4822C132.584 52.2131 130.549 41.6523 129.987 38.7499C129.97 38.6608 129.973 38.5691 129.995 38.4812C130.018 38.3933 130.059 38.3115 130.117 38.2416C130.175 38.1717 130.248 38.1154 130.33 38.0769C130.412 38.0383 130.502 38.0184 130.592 38.0186H145.596C145.734 38.0188 145.868 38.0655 145.977 38.1512C146.085 38.2369 146.161 38.3565 146.193 38.4909L149.265 51.4208L156.835 51.9845L156.581 52.4924L132.53 52.4822Z" fill="#000D44"/>
<path d="M133.189 51.5448L130.76 38.7393L145.507 38.8281L148.744 51.5626L133.189 51.5448Z" fill="white"/>
<path opacity="0.05" d="M130.773 38.7495L133.196 51.5373L148.734 51.555L145.499 38.8384L130.773 38.7495Z" fill="#5468FF"/>
<path opacity="0.25" d="M134.219 48.3987C134.282 48.4137 134.347 48.4205 134.412 48.419L134.964 48.4368L136.998 48.4673C138.715 48.4851 141.085 48.4952 143.701 48.4952H145.972L145.942 48.3809L144.629 43.3024L144.228 41.8246C144.186 41.6445 144.131 41.4679 144.062 41.2964C144.083 41.4799 144.118 41.6616 144.167 41.8398L144.515 43.3329L145.764 48.4114L145.853 48.2972H143.701C141.085 48.2972 138.712 48.2972 136.998 48.3251L134.964 48.3556L134.412 48.3733C134.347 48.3733 134.282 48.3819 134.219 48.3987V48.3987Z" fill="#5468FF"/>
<path opacity="0.25" d="M144.899 47.9138L144.624 46.6797H142.727L142.969 47.9138H144.899Z" fill="#5468FF"/>
<path opacity="0.25" d="M142.32 47.914L141.746 45.4839H139.849L140.388 47.914H142.32Z" fill="#5468FF"/>
<path opacity="0.25" d="M139.739 47.9138L139.465 46.6797H137.565L137.809 47.9138H139.739Z" fill="#5468FF"/>
<path opacity="0.25" d="M137.158 47.914L136.073 43.1909H134.176L135.228 47.914H137.158Z" fill="#5468FF"/>
<path opacity="0.25" d="M143.411 49.2954C143.411 49.3487 143.757 49.3868 144.174 49.3817C144.591 49.3766 144.937 49.3309 144.937 49.2801C144.937 49.2293 144.596 49.1887 144.174 49.1938C143.752 49.1989 143.409 49.2319 143.411 49.2954Z" fill="#5468FF"/>
<path opacity="0.25" d="M140.909 49.29C140.909 49.3433 141.255 49.3814 141.672 49.3763C142.089 49.3712 142.435 49.3255 142.435 49.2748C142.435 49.224 142.094 49.1833 141.672 49.1884C141.25 49.1935 140.907 49.2316 140.909 49.29Z" fill="#5468FF"/>
<path opacity="0.25" d="M138.42 49.2851C138.42 49.3384 138.766 49.3765 139.183 49.3714C139.6 49.3664 139.946 49.3207 139.946 49.2699C139.946 49.2191 139.605 49.1785 139.183 49.1835C138.761 49.1886 138.407 49.2318 138.42 49.2851Z" fill="#5468FF"/>
<path opacity="0.25" d="M135.907 49.2827C135.907 49.336 136.253 49.3741 136.67 49.369C137.087 49.3639 137.433 49.3182 137.433 49.2674C137.433 49.2166 137.092 49.176 136.67 49.1811C136.248 49.1862 135.905 49.2319 135.907 49.2827Z" fill="#5468FF"/>
<path opacity="0.25" d="M141.71 40.8393C142.883 40.8393 143.834 40.7972 143.834 40.7453C143.834 40.6934 142.883 40.6514 141.71 40.6514C140.538 40.6514 139.587 40.6934 139.587 40.7453C139.587 40.7972 140.538 40.8393 141.71 40.8393Z" fill="#5468FF"/>
<path opacity="0.25" d="M142.76 40.3139C143.28 40.3139 143.701 40.2718 143.701 40.2199C143.701 40.168 143.28 40.126 142.76 40.126C142.241 40.126 141.82 40.168 141.82 40.2199C141.82 40.2718 142.241 40.3139 142.76 40.3139Z" fill="#5468FF"/>
<path d="M176.744 58.8275L169.532 55.9657L171.142 50.001L177.019 51.9943L176.744 58.8275Z" fill="#5468FF"/>
<path d="M146.186 60.4377C144.388 59.5464 143.928 57.4058 144.805 55.6131L152.276 39.6665C152.45 39.271 152.711 38.9195 153.039 38.6381C153.877 37.8938 154.856 37.3237 155.917 36.961C156.978 36.5982 158.101 36.4502 159.221 36.5254L167.012 36.3223C167.012 36.3223 173.133 36.3223 175.429 41.1469C175.597 41.4998 179.155 48.5463 181.502 53.1906C181.758 53.6967 181.905 54.2513 181.931 54.8179C181.958 55.3846 181.864 55.9504 181.655 56.4781C181.447 57.0058 181.129 57.4836 180.723 57.8798C180.316 58.276 179.83 58.5818 179.297 58.777V58.777C178.341 59.1277 177.287 59.1031 176.348 58.7081C175.409 58.3132 174.656 57.5773 174.239 56.6491L171.696 50.9764L171.294 53.0078C170.572 56.6694 170.196 62.4031 171.16 66.0622C171.351 66.7591 171.451 67.4777 171.457 68.2003V68.2866L153.013 67.5146L154.539 57.0859L155.01 50.6971L151.091 58.7669C150.88 59.2009 150.586 59.5889 150.224 59.9085C149.862 60.2281 149.44 60.4729 148.983 60.6287C148.526 60.7846 148.043 60.8484 147.561 60.8165C147.079 60.7846 146.608 60.6575 146.175 60.4428L146.186 60.4377Z" fill="#5468FF"/>
<path d="M157.491 46.3647C157.036 50.034 157.237 49.7547 156.474 53.3731C156.098 55.1506 155.64 57.0094 154.409 58.3526L155.017 50.6891L157.491 46.3647Z" fill="#5468FF"/>
<path d="M174.549 56.7276C174.725 57.0078 174.928 57.269 175.157 57.5072C175.018 57.2085 174.852 56.9229 174.661 56.654C174.338 56.1461 173.898 55.4275 173.42 54.6226C172.942 53.8176 172.538 52.3372 172.241 51.8294C172.097 51.5337 171.926 51.2516 171.732 50.9863C171.832 51.3013 171.964 51.6051 172.126 51.8928C172.396 52.4388 172.787 53.9243 173.263 54.7317" fill="#5468FF"/>
<path d="M154.326 38.7393C154.326 38.7697 154.651 38.8891 155.132 39.1887C155.759 39.5736 156.294 40.0915 156.699 40.7059C157.104 41.3202 157.368 42.0159 157.474 42.7437C157.558 43.3049 157.532 43.6604 157.565 43.6604C157.641 43.3546 157.655 43.037 157.606 42.7259C157.533 41.9679 157.277 41.2391 156.858 40.6028C156.439 39.9664 155.871 39.4418 155.203 39.0744C154.936 38.9057 154.637 38.7917 154.326 38.7393Z" fill="#5468FF"/>
<path d="M172.035 50.8963C173.056 46.3246 173.842 42.6093 173.791 42.598C173.741 42.5867 172.872 46.2837 171.851 50.8554C170.83 55.4272 170.044 59.1425 170.095 59.1537C170.145 59.165 171.014 55.4681 172.035 50.8963Z" fill="#5468FF"/>
<path d="M137.207 53.9953L133.682 52.4819H138.376L137.352 53.8074" fill="#F5B58F"/>
<path d="M150.938 59.0559C151.051 58.9015 151.151 58.7375 151.236 58.5659C151.416 58.2459 151.668 57.7761 151.973 57.1946C152.586 56.0317 153.397 54.4014 154.287 52.6113C155.177 50.8211 155.994 49.1934 156.599 48.0279L157.316 46.6465C157.415 46.4848 157.5 46.3149 157.57 46.1387C157.453 46.2894 157.349 46.45 157.26 46.6186C157.069 46.9335 156.807 47.3956 156.497 47.972C155.861 49.1223 155.025 50.7373 154.135 52.5427L151.869 57.1515L151.185 58.5481C151.088 58.71 151.006 58.8799 150.938 59.0559Z" fill="#5468FF"/>
<path opacity="0.1" d="M174.549 56.7276C174.725 57.0078 174.928 57.269 175.157 57.5072C175.018 57.2085 174.852 56.9229 174.661 56.654C174.338 56.1461 173.898 55.4275 173.42 54.6226C172.942 53.8176 172.538 52.3372 172.241 51.8294C172.097 51.5337 171.926 51.2516 171.732 50.9863C171.832 51.3013 171.964 51.6051 172.126 51.8928C172.396 52.4388 172.787 53.9243 173.263 54.7317" fill="#000D44"/>
<path opacity="0.1" d="M154.326 38.7393C154.326 38.7697 154.651 38.8891 155.132 39.1887C155.759 39.5736 156.294 40.0915 156.699 40.7059C157.104 41.3202 157.368 42.0159 157.474 42.7437C157.558 43.3049 157.532 43.6604 157.565 43.6604C157.641 43.3546 157.655 43.037 157.606 42.7259C157.533 41.9679 157.277 41.2391 156.858 40.6028C156.439 39.9664 155.871 39.4418 155.203 39.0744C154.936 38.9057 154.637 38.7917 154.326 38.7393Z" fill="#000D44"/>
<path opacity="0.1" d="M172.035 50.8963C173.056 46.3246 173.842 42.6093 173.791 42.598C173.741 42.5867 172.872 46.2837 171.851 50.8554C170.83 55.4272 170.044 59.1425 170.095 59.1537C170.145 59.165 171.014 55.4681 172.035 50.8963Z" fill="#000D44"/>
<path opacity="0.1" d="M150.938 59.0559C151.051 58.9015 151.151 58.7375 151.236 58.5659C151.416 58.2459 151.668 57.7761 151.973 57.1946C152.586 56.0317 153.397 54.4014 154.287 52.6113C155.177 50.8211 155.994 49.1934 156.599 48.0279L157.316 46.6465C157.415 46.4848 157.5 46.3149 157.57 46.1387C157.453 46.2894 157.349 46.45 157.26 46.6186C157.069 46.9335 156.807 47.3956 156.497 47.972C155.861 49.1223 155.025 50.7373 154.135 52.5427L151.869 57.1515L151.185 58.5481C151.088 58.71 151.006 58.8799 150.938 59.0559Z" fill="#000D44"/>
</svg>
