<svg width="168" height="130" viewBox="0 0 168 130" fill="none" xmlns="http://www.w3.org/2000/svg">
<path d="M27.6423 0.694824H165.143C165.751 0.694824 166.335 0.936681 166.766 1.36719C167.196 1.7977 167.438 2.3816 167.438 2.99043V97.6744H25.3467V2.99043C25.3467 2.3816 25.5885 1.7977 26.019 1.36719C26.4496 0.936681 27.0335 0.694824 27.6423 0.694824Z" fill="#5468FF"/>
<path d="M27.6423 0.694824H165.143C165.751 0.694824 166.335 0.936681 166.766 1.36719C167.196 1.7977 167.438 2.3816 167.438 2.99043V5.31227H25.3467V2.99043C25.3467 2.3816 25.5885 1.7977 26.019 1.36719C26.4496 0.936681 27.0335 0.694824 27.6423 0.694824Z" fill="#5468FF"/>
<path d="M104.072 92.8732V83.4127C104.072 83.3017 104.093 83.1919 104.136 83.0894C104.178 82.9869 104.241 82.8937 104.319 82.8153C104.397 82.7369 104.491 82.6746 104.593 82.6322C104.696 82.5897 104.805 82.5679 104.916 82.5679H117.583V93.5868L104.072 92.8732Z" fill="#5468FF"/>
<path opacity="0.3" d="M104.072 92.8732V83.4127C104.072 83.3017 104.093 83.1919 104.136 83.0894C104.178 82.9869 104.241 82.8937 104.319 82.8153C104.397 82.7369 104.491 82.6746 104.593 82.6322C104.696 82.5897 104.805 82.5679 104.916 82.5679H117.583V93.5868L104.072 92.8732Z" fill="#000D44"/>
<path opacity="0.2" d="M27.6423 0.694824H165.143C165.751 0.694824 166.335 0.936681 166.766 1.36719C167.196 1.7977 167.438 2.3816 167.438 2.99043V5.31227H25.3467V2.99043C25.3467 2.3816 25.5885 1.7977 26.019 1.36719C26.4496 0.936681 27.0335 0.694824 27.6423 0.694824Z" fill="#000D44"/>
<path d="M30.8536 3.53635C31.1478 3.53635 31.3862 3.29791 31.3862 3.00377C31.3862 2.70964 31.1478 2.47119 30.8536 2.47119C30.5595 2.47119 30.321 2.70964 30.321 3.00377C30.321 3.29791 30.5595 3.53635 30.8536 3.53635Z" fill="white"/>
<path d="M33.6949 3.53635C33.9891 3.53635 34.2275 3.29791 34.2275 3.00377C34.2275 2.70964 33.9891 2.47119 33.6949 2.47119C33.4008 2.47119 33.1624 2.70964 33.1624 3.00377C33.1624 3.29791 33.4008 3.53635 33.6949 3.53635Z" fill="white"/>
<path d="M36.5362 3.53635C36.8304 3.53635 37.0688 3.29791 37.0688 3.00377C37.0688 2.70964 36.8304 2.47119 36.5362 2.47119C36.2421 2.47119 36.0037 2.70964 36.0037 3.00377C36.0037 3.29791 36.2421 3.53635 36.5362 3.53635Z" fill="white"/>
<path d="M158.224 14.5498H156.094V97.6744H158.224V14.5498Z" fill="white"/>
<path d="M89.6447 22.7197H79.342V31.2463H89.6447V22.7197Z" fill="white"/>
<path d="M89.6447 32.6655H79.342V41.1921H89.6447V32.6655Z" fill="white"/>
<path d="M89.6447 42.6138H79.342V51.1403H89.6447V42.6138Z" fill="white"/>
<path d="M127.3 23.7847H96.395V26.2718H127.3V23.7847Z" fill="white"/>
<path d="M127.3 28.7588H96.395V31.2459H127.3V28.7588Z" fill="white"/>
<path d="M89.6447 9.01953H79.342V17.5461H89.6447V9.01953Z" fill="white"/>
<path d="M127.3 10.0845H96.395V12.5716H127.3V10.0845Z" fill="white"/>
<path d="M127.3 15.0562H96.395V17.5433H127.3V15.0562Z" fill="white"/>
<path d="M89.6447 55.1938H79.342V63.7204H89.6447V55.1938Z" fill="white"/>
<path d="M127.3 56.2588H96.395V58.7459H127.3V56.2588Z" fill="white"/>
<path d="M127.3 61.2305H96.395V63.7176H127.3V61.2305Z" fill="white"/>
<path d="M145.062 35.8633H96.395V38.3504H145.062V35.8633Z" fill="white"/>
<path d="M119.435 91.8057H100.102C99.3589 91.8057 98.7563 92.4082 98.7563 93.1515V113.904C98.7563 114.647 99.3589 115.25 100.102 115.25H119.435C120.178 115.25 120.781 114.647 120.781 113.904V93.1515C120.781 92.4082 120.178 91.8057 119.435 91.8057Z" fill="#5468FF"/>
<path opacity="0.2" d="M119.435 91.8057H100.102C99.3589 91.8057 98.7563 92.4082 98.7563 93.1515V113.904C98.7563 114.647 99.3589 115.25 100.102 115.25H119.435C120.178 115.25 120.781 114.647 120.781 113.904V93.1515C120.781 92.4082 120.178 91.8057 119.435 91.8057Z" fill="#000D44"/>
<path d="M123.292 44.0332H100.044C98.8129 44.0332 97.8145 45.0316 97.8145 46.2632V47.8426C97.8145 49.0742 98.8129 50.0726 100.044 50.0726H123.292C124.523 50.0726 125.522 49.0742 125.522 47.8426V46.2632C125.522 45.0316 124.523 44.0332 123.292 44.0332Z" fill="white"/>
<path d="M49.1502 71.6304H31.7429V81.9331H49.1502V71.6304Z" fill="white"/>
<path d="M66.9116 72.6953H51.2805V74.1173H66.9116V72.6953Z" fill="white"/>
<path d="M61.9374 74.8286H51.2805V76.2506H61.9374V74.8286Z" fill="white"/>
<path d="M94.619 79.4458H51.2805V80.8678H94.619V79.4458Z" fill="white"/>
<path d="M137.947 95.0034H122.085C121.168 95.0034 120.424 95.7469 120.424 96.6641V112.526C120.424 113.443 121.168 114.187 122.085 114.187H137.947C138.864 114.187 139.608 113.443 139.608 112.526V96.6641C139.608 95.7469 138.864 95.0034 137.947 95.0034Z" fill="#5468FF"/>
<path opacity="0.4" d="M137.947 95.0034H122.085C121.168 95.0034 120.424 95.7469 120.424 96.6641V112.526C120.424 113.443 121.168 114.187 122.085 114.187H137.947C138.864 114.187 139.608 113.443 139.608 112.526V96.6641C139.608 95.7469 138.864 95.0034 137.947 95.0034Z" fill="#000D44"/>
<path d="M111.347 86.131L119.91 74.3958C120.048 74.2066 120.255 74.0784 120.486 74.0383C120.717 73.9981 120.954 74.0492 121.148 74.1807L131.435 81.1488L127.883 95.0038H121.125L111.515 87.364C111.334 87.2189 111.216 87.0103 111.185 86.7809C111.154 86.5516 111.212 86.319 111.347 86.131Z" fill="#5468FF"/>
<path opacity="0.5" d="M111.347 86.131L119.91 74.3958C120.048 74.2066 120.255 74.0784 120.486 74.0383C120.717 73.9981 120.954 74.0492 121.148 74.1807L131.435 81.1488L127.883 95.0038H121.125L111.515 87.364C111.334 87.2189 111.216 87.0103 111.185 86.7809C111.154 86.5516 111.212 86.319 111.347 86.131Z" fill="#000D44"/>
<path d="M122.904 92.0497L131.094 74.1361C131.278 73.735 131.613 73.4232 132.026 73.2692C132.439 73.1152 132.897 73.1317 133.298 73.3149L151.222 81.5188C151.422 81.61 151.601 81.7398 151.75 81.9007C151.899 82.0616 152.015 82.2504 152.091 82.4562C152.167 82.662 152.201 82.8807 152.192 83.0999C152.183 83.319 152.131 83.5342 152.038 83.7331L143.842 101.342C143.659 101.737 143.328 102.044 142.921 102.197C142.514 102.351 142.063 102.339 141.665 102.163L123.748 94.2614C123.547 94.1728 123.365 94.045 123.213 93.8855C123.061 93.7259 122.942 93.5379 122.864 93.3321C122.785 93.1264 122.748 92.907 122.755 92.6869C122.762 92.4668 122.812 92.2502 122.904 92.0497Z" fill="#5468FF"/>
<path opacity="0.2" d="M122.904 92.0497L131.094 74.1361C131.278 73.735 131.613 73.4232 132.026 73.2692C132.439 73.1152 132.897 73.1317 133.298 73.3149L151.222 81.5188C151.422 81.61 151.601 81.7398 151.75 81.9007C151.899 82.0616 152.015 82.2504 152.091 82.4562C152.167 82.662 152.201 82.8807 152.192 83.0999C152.183 83.319 152.131 83.5342 152.038 83.7331L143.842 101.342C143.659 101.737 143.328 102.044 142.921 102.197C142.514 102.351 142.063 102.339 141.665 102.163L123.748 94.2614C123.547 94.1728 123.365 94.045 123.213 93.8855C123.061 93.7259 122.942 93.5379 122.864 93.3321C122.785 93.1264 122.748 92.907 122.755 92.6869C122.762 92.4668 122.812 92.2502 122.904 92.0497Z" fill="#000D44"/>
<path d="M125.776 103.501H126.503V103.934C126.599 103.785 126.731 103.661 126.886 103.575C127.046 103.483 127.227 103.435 127.411 103.436C127.577 103.434 127.741 103.469 127.891 103.539C128.042 103.608 128.175 103.71 128.282 103.837C128.536 104.153 128.664 104.552 128.639 104.957C128.665 105.371 128.537 105.779 128.279 106.104C128.175 106.231 128.044 106.334 127.896 106.405C127.748 106.476 127.586 106.514 127.421 106.516C127.269 106.518 127.118 106.484 126.981 106.419C126.823 106.334 126.681 106.221 126.563 106.085V107.565H125.776V103.501ZM126.548 104.923C126.527 105.182 126.597 105.441 126.744 105.655C126.801 105.729 126.874 105.788 126.957 105.829C127.04 105.87 127.132 105.891 127.225 105.891C127.311 105.892 127.397 105.873 127.476 105.835C127.554 105.797 127.622 105.742 127.676 105.673C127.815 105.463 127.878 105.211 127.857 104.96C127.875 104.716 127.809 104.474 127.671 104.273C127.617 104.202 127.547 104.145 127.468 104.106C127.388 104.067 127.3 104.046 127.211 104.047C127.121 104.045 127.031 104.064 126.949 104.102C126.866 104.141 126.794 104.197 126.737 104.267C126.597 104.456 126.53 104.689 126.548 104.923Z" fill="white"/>
<path d="M130.045 102.381V103.874C130.205 103.672 130.428 103.529 130.679 103.467C130.93 103.405 131.194 103.428 131.43 103.533C131.56 103.589 131.672 103.68 131.755 103.795C131.828 103.898 131.879 104.015 131.905 104.139C131.937 104.332 131.95 104.528 131.944 104.724V106.45H131.157V104.889C131.168 104.692 131.153 104.494 131.112 104.301C131.084 104.219 131.029 104.149 130.955 104.102C130.871 104.05 130.773 104.025 130.674 104.028C130.552 104.027 130.432 104.059 130.328 104.123C130.224 104.189 130.145 104.289 130.105 104.406C130.05 104.588 130.026 104.778 130.034 104.968V106.442H129.247V102.381H130.045Z" fill="white"/>
<path d="M132.71 103.501H133.437V103.934C133.533 103.785 133.665 103.661 133.82 103.575C133.98 103.483 134.161 103.435 134.345 103.436C134.511 103.434 134.675 103.469 134.825 103.539C134.976 103.608 135.109 103.71 135.216 103.837C135.47 104.153 135.598 104.552 135.573 104.957C135.599 105.371 135.471 105.779 135.213 106.104C135.107 106.233 134.974 106.336 134.823 106.407C134.671 106.478 134.506 106.514 134.34 106.513C134.187 106.515 134.036 106.482 133.899 106.416C133.741 106.331 133.599 106.218 133.482 106.083V107.565H132.695L132.71 103.501ZM133.482 104.923C133.461 105.182 133.531 105.441 133.678 105.655C133.735 105.729 133.808 105.788 133.891 105.829C133.974 105.87 134.066 105.891 134.159 105.891C134.245 105.892 134.331 105.873 134.41 105.835C134.488 105.797 134.556 105.742 134.61 105.673C134.749 105.463 134.812 105.211 134.791 104.96C134.809 104.716 134.744 104.473 134.605 104.273C134.551 104.202 134.481 104.145 134.401 104.106C134.322 104.067 134.234 104.046 134.145 104.047C134.055 104.045 133.965 104.064 133.883 104.102C133.8 104.141 133.728 104.197 133.671 104.267C133.531 104.456 133.464 104.689 133.482 104.923Z" fill="white"/>
<path d="M131.503 83.9951C131.675 83.6489 131.929 83.3506 132.243 83.1267C132.555 82.8944 132.93 82.7618 133.319 82.7462C133.721 82.7338 134.119 82.8241 134.476 83.0086C134.748 83.1305 134.992 83.3075 135.192 83.5282C135.393 83.749 135.546 84.0089 135.641 84.2915C135.734 84.5739 135.769 84.8722 135.744 85.1684C135.718 85.4646 135.633 85.7527 135.494 86.0152C135.37 86.2888 135.193 86.5346 134.972 86.7379C134.751 86.9413 134.491 87.0979 134.208 87.1984C133.929 87.2975 133.633 87.3377 133.337 87.3164C133.042 87.2952 132.754 87.213 132.493 87.0751C132.139 86.9015 131.83 86.6472 131.593 86.3326C131.353 86.026 131.217 85.6512 131.204 85.2622C131.196 84.8214 131.299 84.3856 131.503 83.9951ZM132.529 84.567C132.351 84.8754 132.294 85.2393 132.369 85.5876C132.406 85.7253 132.472 85.8535 132.562 85.9637C132.653 86.0739 132.766 86.1634 132.894 86.2262C133.022 86.2891 133.162 86.3239 133.304 86.3282C133.447 86.3325 133.589 86.3063 133.72 86.2513C134.043 86.0949 134.296 85.8248 134.431 85.4931C134.608 85.187 134.665 84.8262 134.591 84.4804C134.554 84.3427 134.489 84.2144 134.398 84.1043C134.308 83.9941 134.194 83.9046 134.067 83.8417C133.939 83.7789 133.799 83.7441 133.656 83.7398C133.514 83.7354 133.372 83.7617 133.24 83.8167C132.918 83.9696 132.665 84.2371 132.529 84.567Z" fill="white"/>
<path d="M136.079 86.2412C136.25 85.8951 136.504 85.5968 136.819 85.3728C137.13 85.141 137.504 85.0084 137.892 84.9923C138.293 84.9799 138.692 85.0702 139.049 85.2547C139.321 85.3766 139.565 85.5536 139.765 85.7743C139.966 85.9951 140.118 86.255 140.214 86.5376C140.307 86.82 140.342 87.1182 140.316 87.4145C140.291 87.7107 140.206 87.9988 140.067 88.2613C139.943 88.5344 139.765 88.7797 139.544 88.9826C139.323 89.1854 139.064 89.3417 138.781 89.4419C138.502 89.5411 138.206 89.5814 137.91 89.5602C137.615 89.5389 137.327 89.4567 137.065 89.3186C136.711 89.1449 136.403 88.8906 136.165 88.5761C135.926 88.2695 135.79 87.8946 135.777 87.5057C135.77 87.0656 135.874 86.6307 136.079 86.2412ZM137.105 86.8131C136.926 87.1215 136.869 87.4854 136.945 87.8337C136.982 87.9714 137.047 88.0996 137.138 88.2098C137.229 88.32 137.342 88.4095 137.47 88.4723C137.597 88.5352 137.737 88.57 137.88 88.5743C138.022 88.5786 138.164 88.5524 138.296 88.4974C138.618 88.341 138.871 88.0709 139.007 87.7392C139.183 87.4329 139.239 87.0719 139.164 86.7265C139.127 86.5888 139.061 86.4605 138.971 86.3504C138.88 86.2402 138.767 86.1507 138.639 86.0878C138.511 86.0249 138.371 85.9902 138.229 85.9859C138.086 85.9815 137.945 86.0078 137.813 86.0628C137.492 86.2162 137.239 86.4837 137.105 86.8131Z" fill="white"/>
<path d="M141.79 86.7026L142.748 87.1722L142.467 87.7442C142.691 87.609 142.944 87.5306 143.205 87.5159C143.477 87.5002 143.748 87.5563 143.992 87.6786C144.211 87.7842 144.404 87.9371 144.558 88.1263C144.711 88.3154 144.82 88.5361 144.878 88.7726C145.007 89.3556 144.914 89.9657 144.616 90.4832C144.382 91.0456 143.949 91.5017 143.399 91.7635C143.175 91.8646 142.932 91.9147 142.687 91.9101C142.442 91.9056 142.201 91.8465 141.982 91.7372C141.777 91.6416 141.598 91.4997 141.457 91.3227C141.303 91.1088 141.19 90.8688 141.121 90.6144L140.161 92.5715L139.133 92.0678L141.79 86.7026ZM141.885 89.0796C141.69 89.4087 141.614 89.795 141.67 90.1736C141.696 90.3078 141.753 90.434 141.836 90.5424C141.92 90.6508 142.027 90.7383 142.15 90.798C142.264 90.8551 142.391 90.8848 142.519 90.8848C142.646 90.8848 142.773 90.8551 142.887 90.798C143.207 90.6094 143.454 90.3181 143.588 89.9716C143.77 89.6616 143.84 89.2987 143.787 88.9431C143.761 88.8149 143.706 88.6944 143.626 88.591C143.546 88.4877 143.443 88.4044 143.325 88.3476C143.207 88.2869 143.076 88.2539 142.943 88.2512C142.81 88.2485 142.677 88.2761 142.557 88.3319C142.25 88.4924 142.012 88.7578 141.885 89.0796Z" fill="white"/>
<path d="M118.005 86.5766L118.53 85.8813L120.718 87.5525C120.947 87.7147 121.15 87.9101 121.322 88.1324C121.47 88.3484 121.542 88.6079 121.526 88.8696C121.496 89.1797 121.373 89.4735 121.172 89.7117C121.072 89.8628 120.941 89.9914 120.788 90.0893C120.636 90.1873 120.464 90.2526 120.285 90.281C119.901 90.3007 119.525 90.1699 119.236 89.9164L119.663 89.2001C119.805 89.315 119.971 89.395 120.149 89.4336C120.235 89.4444 120.322 89.4313 120.402 89.3957C120.481 89.36 120.548 89.3033 120.597 89.2316C120.651 89.1745 120.69 89.1053 120.71 89.0298C120.731 88.9544 120.733 88.8751 120.716 88.7987C120.607 88.583 120.441 88.4014 120.235 88.274L118.005 86.5766Z" fill="white"/>
<path d="M121.3 87.0855L121.754 86.3562C121.963 86.4794 122.208 86.5267 122.447 86.49C122.669 86.4327 122.863 86.2966 122.993 86.107C123.143 85.9361 123.23 85.7181 123.237 85.4904C123.238 85.4087 123.221 85.3278 123.186 85.254C123.151 85.1802 123.099 85.1156 123.035 85.0654C122.96 85.006 122.867 84.9753 122.772 84.9788C122.649 84.9941 122.531 85.0411 122.431 85.1153C122.34 85.1747 122.148 85.3225 121.854 85.5586C121.583 85.8034 121.26 85.9829 120.91 86.0833C120.747 86.1192 120.579 86.1188 120.416 86.0821C120.254 86.0453 120.102 85.9732 119.97 85.8708C119.794 85.7376 119.662 85.5549 119.59 85.3461C119.513 85.1209 119.505 84.8777 119.569 84.6483C119.649 84.367 119.784 84.1047 119.968 83.8769C120.21 83.5073 120.577 83.2371 121.001 83.1161C121.179 83.0797 121.363 83.0819 121.54 83.1226C121.717 83.1634 121.883 83.2417 122.027 83.3522L121.526 84.0737C121.37 83.9768 121.183 83.9413 121.001 83.974C120.815 84.0383 120.655 84.1629 120.548 84.3282C120.409 84.4888 120.326 84.689 120.309 84.9001C120.308 84.9512 120.319 85.0017 120.342 85.0474C120.365 85.093 120.399 85.1325 120.44 85.1625C120.481 85.1931 120.528 85.214 120.578 85.2236C120.628 85.2331 120.679 85.2311 120.729 85.2176C120.996 85.1093 121.241 84.9518 121.45 84.7532C121.702 84.5335 121.978 84.3442 122.274 84.1891C122.474 84.094 122.696 84.055 122.917 84.0763C123.159 84.1114 123.388 84.211 123.579 84.3646C123.77 84.5183 123.916 84.7205 124.003 84.95C124.092 85.1943 124.102 85.4604 124.032 85.7108C123.939 86.0198 123.786 86.3077 123.583 86.5582C123.334 86.9419 122.953 87.2216 122.513 87.3453C122.09 87.4187 121.656 87.3256 121.3 87.0855Z" fill="white"/>
<path d="M125.021 84.5463L121.563 81.907L122.418 80.7867C122.619 80.5018 122.848 80.238 123.103 79.9997C123.308 79.8404 123.562 79.7561 123.822 79.7609C124.125 79.7702 124.416 79.8811 124.648 80.0758C124.839 80.211 124.993 80.3913 125.097 80.6005C125.179 80.7731 125.218 80.9629 125.212 81.154C125.207 81.3226 125.169 81.4885 125.099 81.642C124.955 81.9105 124.786 82.1652 124.596 82.4029L124.249 82.8594L125.561 83.8537L125.021 84.5463ZM122.68 81.6604L123.662 82.4081L123.953 82.0251C124.105 81.8474 124.229 81.6474 124.32 81.4321C124.356 81.3186 124.356 81.1968 124.32 81.0832C124.281 80.9694 124.208 80.8705 124.11 80.7999C123.999 80.7088 123.857 80.6637 123.714 80.6739C123.577 80.685 123.447 80.7424 123.347 80.8366C123.199 80.988 123.063 81.1503 122.94 81.322L122.68 81.6604Z" fill="white"/>
<path d="M108.967 88.7204L108.676 89.1034L108.151 88.9538L107.627 89.6517L107.913 90.0977L107.627 90.4703L106.401 88.458L106.685 88.0854L108.967 88.7204ZM107.781 88.841L106.95 88.5787L107.417 89.308L107.781 88.841Z" fill="white"/>
<path d="M109.111 88.5311L107.367 87.1983L107.797 86.6343C107.898 86.4899 108.015 86.3563 108.143 86.2355C108.247 86.1554 108.374 86.1128 108.505 86.1148C108.658 86.1191 108.805 86.1745 108.922 86.2722C109.018 86.3399 109.095 86.43 109.148 86.5346C109.19 86.6221 109.21 86.7184 109.206 86.8153C109.203 86.9005 109.183 86.9844 109.148 87.0619C109.073 87.1974 108.985 87.3256 108.886 87.445L108.71 87.6758L109.368 88.1795L109.111 88.5311ZM107.931 87.0724L108.427 87.4502L108.574 87.2587C108.651 87.1692 108.713 87.0683 108.76 86.9596C108.778 86.9024 108.778 86.841 108.76 86.7838C108.74 86.7261 108.704 86.6757 108.655 86.6395C108.599 86.5939 108.528 86.5714 108.455 86.5766C108.386 86.5822 108.32 86.6119 108.269 86.6605C108.195 86.7366 108.127 86.8181 108.065 86.9045L107.931 87.0724Z" fill="white"/>
<path d="M110.355 86.902L108.61 85.5692L108.873 85.2176L109.66 85.8079L109.429 84.4962L109.791 84.0239L109.969 85.1993L111.564 85.32L111.208 85.7896L110.022 85.6453L110.095 86.1543L110.62 86.5557L110.355 86.902Z" fill="white"/>
<path d="M45.1388 9.29736H36.8274V9.88241H45.1388V9.29736Z" fill="white"/>
<path d="M38.8894 10.6274H37.5146V11.2125H38.8894V10.6274Z" fill="white"/>
<path d="M38.8894 11.9575H37.5146V12.5426H38.8894V11.9575Z" fill="white"/>
<path d="M38.8894 13.2852H37.5146V13.8702H38.8894V13.2852Z" fill="white"/>
<path d="M45.7973 10.6274H41.5786V11.2125H45.7973V10.6274Z" fill="white"/>
<path d="M45.7973 11.9575H41.5786V12.5426H45.7973V11.9575Z" fill="white"/>
<path d="M45.7973 13.2852H41.5786V13.8702H45.7973V13.2852Z" fill="white"/>
<path d="M40.4532 10.6274H39.4851V11.2125H40.4532V10.6274Z" fill="white"/>
<path d="M40.4532 11.9575H39.4851V12.5426H40.4532V11.9575Z" fill="white"/>
<path d="M40.4532 13.2852H39.4851V13.8702H40.4532V13.2852Z" fill="white"/>
<path d="M41.1275 10.6274H40.8704V11.2125H41.1275V10.6274Z" fill="white"/>
<path d="M41.1275 11.9575H40.8704V12.5426H41.1275V11.9575Z" fill="white"/>
<path d="M41.1275 13.2852H40.8704V13.8702H41.1275V13.2852Z" fill="white"/>
<path d="M37.116 10.6274H36.8589V11.2125H37.116V10.6274Z" fill="white"/>
<path d="M37.116 11.9575H36.8589V12.5426H37.116V11.9575Z" fill="white"/>
<path d="M37.116 13.2852H36.8589V13.8702H37.116V13.2852Z" fill="white"/>
<path d="M39.6397 15.9453H37.5146V16.5304H39.6397V15.9453Z" fill="white"/>
<path d="M45.7972 15.9453H42.5781V16.5304H45.7972V15.9453Z" fill="white"/>
<path d="M41.4526 15.9453H40.2327V16.5304H41.4526V15.9453Z" fill="white"/>
<path d="M42.127 15.9453H41.8699V16.5304H42.127V15.9453Z" fill="white"/>
<path d="M55.8902 18.603H45.9207V19.1881H55.8902V18.603Z" fill="white"/>
<path d="M45.1388 18.603H40.3586V19.1881H45.1388V18.603Z" fill="white"/>
<path d="M52.7655 15.9453H49.5464V16.5304H52.7655V15.9453Z" fill="white"/>
<path d="M48.4208 15.9453H46.7024V16.5304H48.4208V15.9453Z" fill="white"/>
<path d="M49.095 15.9453H48.8379V16.5304H49.095V15.9453Z" fill="white"/>
<path d="M53.3452 15.9453H53.0881V16.5304H53.3452V15.9453Z" fill="white"/>
<path d="M37.116 15.9453H36.8589V16.5304H37.116V15.9453Z" fill="white"/>
<path d="M39.6397 21.2607H37.5146V21.8458H39.6397V21.2607Z" fill="white"/>
<path d="M37.116 21.2607H36.8589V21.8458H37.116V21.2607Z" fill="white"/>
<path d="M40.3035 21.2607H40.0464V21.8458H40.3035V21.2607Z" fill="white"/>
<path d="M38.0159 26.5762H35.8909V27.1612H38.0159V26.5762Z" fill="white"/>
<path d="M35.4946 26.5762H35.2349V27.1612H35.4946V26.5762Z" fill="white"/>
<path d="M38.6797 26.5762H38.4226V27.1612H38.6797V26.5762Z" fill="white"/>
<path d="M38.8975 19.9307H38.6404V20.5157H38.8975V19.9307Z" fill="white"/>
<path d="M39.8892 17.2729H38.6404V17.858H39.8892V17.2729Z" fill="white"/>
<path d="M45.2332 17.2729H40.3586V17.858H45.2332V17.2729Z" fill="white"/>
<path d="M52.9831 10.6274H48.7644V11.2125H52.9831V10.6274Z" fill="white"/>
<path d="M52.9831 11.9575H48.7644V12.5426H52.9831V11.9575Z" fill="white"/>
<path d="M52.9831 13.2852H48.7644V13.8702H52.9831V13.2852Z" fill="white"/>
<path d="M60.5784 10.6274H53.2036V11.2125H60.5784V10.6274Z" fill="white"/>
<path d="M63.2964 11.9575H53.2036V12.5426H63.2964V11.9575Z" fill="white"/>
<path d="M65.1093 13.2852H53.2036V13.8702H65.1093V13.2852Z" fill="white"/>
<path d="M47.639 10.6274H46.6709V11.2125H47.639V10.6274Z" fill="white"/>
<path d="M47.639 11.9575H46.6709V12.5426H47.639V11.9575Z" fill="white"/>
<path d="M47.639 13.2852H46.6709V13.8702H47.639V13.2852Z" fill="white"/>
<path d="M48.3159 10.6274H48.0588V11.2125H48.3159V10.6274Z" fill="white"/>
<path d="M48.3159 11.9575H48.0588V12.5426H48.3159V11.9575Z" fill="white"/>
<path d="M48.3159 13.2852H48.0588V13.8702H48.3159V13.2852Z" fill="white"/>
<path d="M61.8035 10.6274H61.5464V11.2125H61.8035V10.6274Z" fill="white"/>
<path d="M64.2827 11.9575H64.0256V12.5426H64.2827V11.9575Z" fill="white"/>
<path d="M65.9697 13.2852H65.7126V13.8702H65.9697V13.2852Z" fill="white"/>
<path d="M45.1388 14.6152H36.8274V15.2003H45.1388V14.6152Z" fill="white"/>
<path d="M37.2026 29.4019H35.8279V29.9869H37.2026V29.4019Z" fill="white"/>
<path d="M40.4216 32.062H39.0469V32.6471H40.4216V32.062Z" fill="white"/>
<path d="M52.2329 32.062H43.1082V32.6471H52.2329V32.062Z" fill="white"/>
<path d="M50.2967 30.7319H36.9219V31.317H50.2967V30.7319Z" fill="white"/>
<path d="M41.9827 32.062H41.0146V32.6471H41.9827V32.062Z" fill="white"/>
<path d="M42.6595 32.062H42.4023V32.6471H42.6595V32.062Z" fill="white"/>
<path d="M35.429 29.4019H35.1719V29.9869H35.429V29.4019Z" fill="white"/>
<path d="M37.7718 29.4019H37.5146V29.9869H37.7718V29.4019Z" fill="white"/>
<path d="M41.5155 33.3896H40.8911V33.9747H41.5155V33.3896Z" fill="white"/>
<path d="M40.4898 33.3896H40.2327V33.9747H40.4898V33.3896Z" fill="white"/>
<path d="M42.085 33.3896H41.8279V33.9747H42.085V33.3896Z" fill="white"/>
<path d="M43.2655 36.0474H42.6411V36.6324H43.2655V36.0474Z" fill="white"/>
<path d="M42.2398 36.0474H41.9827V36.6324H42.2398V36.0474Z" fill="white"/>
<path d="M43.8347 36.0474H43.5776V36.6324H43.8347V36.0474Z" fill="white"/>
<path d="M38.648 32.062H38.3909V32.6471H38.648V32.062Z" fill="white"/>
<path d="M55.2054 34.7197H42.0142V35.3048H55.2054V34.7197Z" fill="white"/>
<path d="M52.8023 32.062H52.5452V32.6471H52.8023V32.062Z" fill="white"/>
<path d="M48.2635 22.5884H36.8274V23.1734H48.2635V22.5884Z" fill="white"/>
<path d="M53.765 23.9185H36.8274V24.5035H53.765V23.9185Z" fill="white"/>
<path d="M42.5782 25.2461H36.8274V25.8311H42.5782V25.2461Z" fill="white"/>
<path d="M32.8895 9.29736H32.2651V9.88241H32.8895V9.29736Z" fill="white"/>
<path d="M32.8895 10.6274H32.2651V11.2125H32.8895V10.6274Z" fill="white"/>
<path d="M32.8895 11.9575H32.2651V12.5426H32.8895V11.9575Z" fill="white"/>
<path d="M32.8895 13.2852H32.2651V13.8702H32.8895V13.2852Z" fill="white"/>
<path d="M32.8895 14.6152H32.2651V15.2003H32.8895V14.6152Z" fill="white"/>
<path d="M32.8895 15.9453H32.2651V16.5304H32.8895V15.9453Z" fill="white"/>
<path d="M32.8895 17.2729H32.2651V17.858H32.8895V17.2729Z" fill="white"/>
<path d="M32.8895 18.603H32.2651V19.1881H32.8895V18.603Z" fill="white"/>
<path d="M32.8895 19.9307H32.2651V20.5157H32.8895V19.9307Z" fill="white"/>
<path d="M32.8895 21.2607H32.2651V21.8458H32.8895V21.2607Z" fill="white"/>
<path d="M32.8895 22.5884H32.2651V23.1734H32.8895V22.5884Z" fill="white"/>
<path d="M32.8895 23.9185H32.2651V24.5035H32.8895V23.9185Z" fill="white"/>
<path d="M32.8895 25.2461H32.2651V25.8311H32.8895V25.2461Z" fill="white"/>
<path d="M32.8895 26.5762H32.2651V27.1612H32.8895V26.5762Z" fill="white"/>
<path d="M32.8895 27.9062H32.2651V28.4913H32.8895V27.9062Z" fill="white"/>
<path d="M32.8895 29.2339H32.2651V29.8189H32.8895V29.2339Z" fill="white"/>
<path d="M32.8895 30.564H32.2651V31.149H32.8895V30.564Z" fill="white"/>
<path d="M102.707 106.445V105.658H103.494V106.445H102.707Z" fill="white"/>
<path d="M106.892 104.942L107.679 105.204C107.592 105.592 107.378 105.941 107.07 106.193C106.703 106.438 106.263 106.549 105.824 106.507C105.384 106.465 104.973 106.273 104.659 105.962C104.293 105.547 104.105 105.004 104.134 104.451C104.1 103.878 104.288 103.314 104.659 102.877C104.835 102.69 105.049 102.544 105.287 102.447C105.525 102.35 105.78 102.305 106.037 102.316C106.483 102.296 106.919 102.455 107.249 102.756C107.452 102.963 107.595 103.222 107.663 103.504L106.852 103.698C106.815 103.501 106.708 103.324 106.551 103.199C106.394 103.074 106.198 103.009 105.997 103.016C105.859 103.012 105.721 103.039 105.594 103.095C105.468 103.152 105.355 103.236 105.265 103.341C105.051 103.647 104.952 104.019 104.985 104.391C104.95 104.777 105.048 105.164 105.263 105.487C105.35 105.593 105.46 105.678 105.585 105.735C105.71 105.792 105.847 105.819 105.984 105.815C106.191 105.819 106.391 105.745 106.546 105.608C106.729 105.428 106.85 105.195 106.892 104.942Z" fill="white"/>
<path d="M108.183 105.123L108.97 105.044C108.995 105.269 109.098 105.477 109.261 105.634C109.43 105.768 109.642 105.835 109.856 105.823C110.069 105.839 110.281 105.779 110.455 105.655C110.516 105.61 110.567 105.55 110.602 105.482C110.637 105.414 110.656 105.339 110.657 105.262C110.659 105.173 110.629 105.086 110.573 105.018C110.491 104.935 110.39 104.874 110.279 104.842C110.183 104.809 109.964 104.749 109.623 104.664C109.288 104.603 108.971 104.465 108.697 104.262C108.577 104.162 108.482 104.037 108.417 103.895C108.352 103.754 108.32 103.599 108.322 103.444C108.322 103.237 108.383 103.036 108.497 102.864C108.621 102.679 108.797 102.535 109.004 102.452C109.254 102.353 109.522 102.305 109.791 102.31C110.203 102.28 110.612 102.399 110.943 102.646C111.071 102.757 111.173 102.895 111.243 103.049C111.313 103.204 111.35 103.371 111.349 103.541L110.528 103.577C110.512 103.404 110.432 103.243 110.302 103.126C110.148 103.023 109.963 102.975 109.778 102.99C109.581 102.979 109.385 103.03 109.219 103.137C109.176 103.165 109.142 103.205 109.119 103.251C109.096 103.297 109.085 103.348 109.088 103.399C109.088 103.447 109.099 103.494 109.12 103.536C109.14 103.579 109.171 103.616 109.208 103.646C109.441 103.779 109.696 103.868 109.961 103.908C110.267 103.97 110.565 104.068 110.848 104.199C111.032 104.293 111.187 104.436 111.297 104.611C111.41 104.812 111.467 105.04 111.462 105.271C111.456 105.502 111.388 105.727 111.265 105.923C111.134 106.128 110.943 106.287 110.717 106.377C110.435 106.483 110.134 106.533 109.833 106.524C109.408 106.552 108.988 106.425 108.65 106.167C108.367 105.891 108.2 105.518 108.183 105.123Z" fill="white"/>
<path d="M111.969 105.123L112.756 105.044C112.781 105.269 112.884 105.477 113.047 105.634C113.216 105.768 113.427 105.835 113.642 105.823C113.855 105.839 114.067 105.779 114.241 105.655C114.302 105.61 114.353 105.55 114.388 105.482C114.423 105.414 114.441 105.339 114.443 105.262C114.445 105.173 114.415 105.086 114.359 105.018C114.277 104.935 114.176 104.874 114.065 104.842C113.969 104.809 113.75 104.749 113.409 104.664C113.073 104.603 112.757 104.465 112.483 104.262C112.363 104.162 112.268 104.037 112.203 103.895C112.138 103.754 112.105 103.599 112.108 103.444C112.108 103.237 112.169 103.036 112.283 102.864C112.407 102.679 112.583 102.535 112.79 102.452C113.04 102.353 113.308 102.305 113.577 102.31C113.989 102.28 114.397 102.399 114.728 102.646C114.856 102.757 114.959 102.895 115.029 103.049C115.099 103.204 115.135 103.371 115.135 103.541L114.314 103.577C114.298 103.404 114.217 103.243 114.088 103.126C113.934 103.023 113.749 102.975 113.564 102.99C113.367 102.979 113.171 103.03 113.005 103.137C112.962 103.165 112.928 103.205 112.905 103.251C112.882 103.297 112.871 103.348 112.874 103.399C112.874 103.447 112.884 103.494 112.905 103.536C112.926 103.579 112.957 103.616 112.994 103.646C113.227 103.779 113.482 103.868 113.747 103.908C114.053 103.97 114.351 104.068 114.634 104.199C114.818 104.293 114.973 104.436 115.083 104.611C115.196 104.812 115.253 105.04 115.248 105.271C115.242 105.502 115.174 105.727 115.051 105.923C114.92 106.128 114.729 106.287 114.503 106.377C114.221 106.483 113.92 106.533 113.619 106.524C113.194 106.552 112.774 106.425 112.435 106.167C112.152 105.891 111.985 105.518 111.969 105.123Z" fill="white"/>
<path opacity="0.15" d="M50.9577 129.695C56.1681 129.695 60.392 129.25 60.392 128.7C60.392 128.151 56.1681 127.706 50.9577 127.706C45.7473 127.706 41.5234 128.151 41.5234 128.7C41.5234 129.25 45.7473 129.695 50.9577 129.695Z" fill="#5468FF"/>
<path opacity="0.15" d="M102.844 118.274H0.562012V120.26H102.844V118.274Z" fill="#5468FF"/>
<path d="M28.6995 63.3555H75.1364C77.1605 63.3555 79.1017 64.1595 80.533 65.5908C81.9642 67.0221 82.7683 68.9633 82.7683 70.9874V96.9999H21.0676V70.9874C21.0676 68.9633 21.8717 67.0221 23.303 65.5908C24.7342 64.1595 26.6754 63.3555 28.6995 63.3555Z" fill="white"/>
<path d="M85.6491 79.1968H91.8616C92.8121 79.1968 93.7236 79.5744 94.3957 80.2464C95.0678 80.9185 95.4454 81.8301 95.4454 82.7805V109.09H82.3276V82.5261C82.3276 81.6444 82.6773 80.7988 83.3 80.1747C83.9226 79.5505 84.7674 79.1989 85.6491 79.1968Z" fill="#5468FF"/>
<path d="M12.1922 79.1968H17.9641C18.8637 79.1968 19.7266 79.5542 20.3627 80.1903C20.9989 80.8265 21.3563 81.6893 21.3563 82.589V109.087H9.14893V82.2401C9.14893 81.433 9.46956 80.6589 10.0403 80.0881C10.611 79.5174 11.3851 79.1968 12.1922 79.1968Z" fill="#5468FF"/>
<path d="M22.4793 93.2276H81.3832C81.9224 93.2276 82.4563 93.3338 82.9545 93.5401C83.4526 93.7464 83.9052 94.0489 84.2865 94.4301C84.6678 94.8114 84.9702 95.264 85.1766 95.7622C85.3829 96.2603 85.4891 96.7942 85.4891 97.3334V98.6635H18.502V97.1944C18.502 96.6725 18.6049 96.1559 18.8049 95.6739C19.0049 95.1919 19.2981 94.7542 19.6675 94.3857C20.037 94.0172 20.4755 93.7252 20.958 93.5265C21.4405 93.3278 21.9574 93.2262 22.4793 93.2276Z" fill="#5468FF"/>
<path d="M93.1445 79.1968H89.1357C88.1685 79.1968 87.241 79.581 86.5571 80.2649C85.8732 80.9488 85.489 81.8763 85.489 82.8435V98.2018H18.5019V83.1662C18.5019 82.1155 18.0845 81.1079 17.3415 80.365C16.5986 79.622 15.591 79.2046 14.5403 79.2046H10.5315C9.56433 79.2046 8.63677 79.5889 7.95287 80.2728C7.26898 80.9567 6.88477 81.8842 6.88477 82.8514V115.331C6.88477 115.47 6.94005 115.604 7.03845 115.702C7.13685 115.8 7.27031 115.856 7.40948 115.856H18.4992V109.069H85.489V115.858H96.5787C96.7179 115.858 96.8514 115.803 96.9498 115.705C97.0482 115.606 97.1034 115.473 97.1034 115.334V83.1662C97.1045 82.6455 97.0029 82.1298 96.8044 81.6484C96.6059 81.167 96.3145 80.7295 95.9468 80.3608C95.5792 79.9921 95.1424 79.6996 94.6615 79.4998C94.1807 79.3001 93.6652 79.1971 93.1445 79.1968Z" fill="white"/>
<path opacity="0.3" d="M93.1445 79.1968H89.1357C88.1685 79.1968 87.241 79.581 86.5571 80.2649C85.8732 80.9488 85.489 81.8763 85.489 82.8435V98.2018H18.5019V83.1662C18.5019 82.1155 18.0845 81.1079 17.3415 80.365C16.5986 79.622 15.591 79.2046 14.5403 79.2046H10.5315C9.56433 79.2046 8.63677 79.5889 7.95287 80.2728C7.26898 80.9567 6.88477 81.8842 6.88477 82.8514V115.331C6.88477 115.47 6.94005 115.604 7.03845 115.702C7.13685 115.8 7.27031 115.856 7.40948 115.856H18.4992V109.069H85.489V115.858H96.5787C96.7179 115.858 96.8514 115.803 96.9498 115.705C97.0482 115.606 97.1034 115.473 97.1034 115.334V83.1662C97.1045 82.6455 97.0029 82.1298 96.8044 81.6484C96.6059 81.167 96.3145 80.7295 95.9468 80.3608C95.5792 79.9921 95.1424 79.6996 94.6615 79.4998C94.1807 79.3001 93.6652 79.1971 93.1445 79.1968Z" fill="#5468FF"/>
<path opacity="0.3" d="M28.6995 63.3555H75.1364C77.1605 63.3555 79.1017 64.1595 80.533 65.5908C81.9642 67.0221 82.7683 68.9633 82.7683 70.9874V96.9999H21.0676V70.9874C21.0676 68.9633 21.8717 67.0221 23.303 65.5908C24.7342 64.1595 26.6754 63.3555 28.6995 63.3555Z" fill="#5468FF"/>
<path d="M95.2932 116.514V115.911H86.8454V116.514H85.7881V118.324H96.3505V116.514H95.2932Z" fill="#5468FF"/>
<path d="M16.8438 116.514V115.911H8.39329V116.514H7.33862V118.324H17.8984V116.514H16.8438Z" fill="#5468FF"/>
<path d="M73.313 77.1318C71.5114 73.4807 69.4711 69.9522 67.2054 66.5694C66.5101 65.52 65.7598 64.4706 64.6868 63.8435C63.7239 63.2769 62.5879 63.1037 61.4729 62.9909C58.7365 62.7285 55.9792 62.76 53.2271 62.802C48.9796 62.865 44.7032 62.9305 40.5448 63.7989C40.087 63.8739 39.6441 64.0218 39.2331 64.2371C38.7486 64.5626 38.3324 64.9797 38.0079 65.4649C35.8077 68.3744 33.8958 71.491 32.299 74.7706C31.4975 76.3854 30.8017 78.0505 30.2159 79.7554C29.6729 81.3767 28.7966 82.9036 28.7074 84.6588C28.6261 86.3405 29.3764 88.1796 30.9112 88.8565C32.8447 89.717 35.059 88.4971 37.1736 88.5941C37.1736 88.3869 37.1736 88.1822 37.1736 87.975L40.8649 87.668L40.5606 93.209L43.7928 88.9378C43.9653 88.6132 44.2248 88.343 44.5422 88.1577C44.8597 87.9723 45.2225 87.8791 45.5899 87.8884L58.6473 86.7235C59.9887 86.5613 61.3425 86.5279 62.6902 86.6238C64.6395 86.8285 66.4839 87.5709 68.3781 88.0668C70.2723 88.5626 72.3423 88.804 74.1499 88.0301C74.4415 87.9211 74.7044 87.747 74.9186 87.5211C75.1309 87.244 75.2739 86.9202 75.3358 86.5766C76.094 83.3785 74.7691 80.0807 73.313 77.1318ZM63.9312 83.9793V78.134L66.3921 82.4419L63.9312 83.9793Z" fill="#5468FF"/>
<path d="M40.865 77.5176L38.0972 82.442L40.865 84.2863V77.5176Z" fill="white"/>
<path d="M41.7886 84.2865C41.7886 84.2865 42.3762 80.4693 48.4262 81.154C48.5461 81.1669 48.657 81.2235 48.7379 81.3131C48.8187 81.4026 48.8637 81.5187 48.8643 81.6394C48.8646 81.7031 48.8524 81.7663 48.8284 81.8253C48.8043 81.8843 48.7688 81.938 48.724 81.9833C48.6792 82.0286 48.6258 82.0647 48.5671 82.0894C48.5083 82.1141 48.4453 82.127 48.3816 82.1273C47.3584 82.1273 45.0864 82.2533 45.3251 83.2109H49.5228C49.6355 83.2109 49.7436 83.2556 49.8233 83.3354C49.903 83.4151 49.9478 83.5232 49.9478 83.6359V84.6145C49.9478 84.713 49.9284 84.8106 49.8907 84.9016C49.853 84.9926 49.7977 85.0754 49.7281 85.145C49.6584 85.2147 49.5757 85.27 49.4846 85.3077C49.3936 85.3454 49.296 85.3648 49.1975 85.3648C49.1516 85.3648 49.1075 85.383 49.075 85.4155C49.0426 85.448 49.0243 85.492 49.0243 85.538V85.9997C49.0247 86.0735 49.0096 86.1465 48.9798 86.2141C48.9501 86.2816 48.9064 86.3421 48.8517 86.3916C48.797 86.4412 48.7324 86.4786 48.6623 86.5015C48.5921 86.5243 48.5179 86.5322 48.4445 86.5244C47.3243 86.4221 44.9499 86.3434 44.7165 87.5161H42.5625C42.5625 87.5161 42.2503 84.1344 41.7886 84.2865Z" fill="#F5B58F"/>
<path d="M62.5565 86.2882L62.2496 84.4517C62.2496 84.4517 61.389 82.1534 56.3335 82.8303C56.1884 82.8517 56.0554 82.9233 55.9576 83.0325C55.8598 83.1418 55.8034 83.2819 55.7982 83.4285V83.8141H55.326C55.2036 83.8141 55.0861 83.8628 54.9995 83.9494C54.9129 84.036 54.8643 84.1534 54.8643 84.2759C54.8639 84.3368 54.8756 84.3971 54.8987 84.4534C54.9217 84.5097 54.9557 84.5609 54.9986 84.6041C55.0415 84.6472 55.0925 84.6815 55.1487 84.7049C55.2049 84.7282 55.2652 84.7403 55.326 84.7403H57.9496V85.3568H55.4755C55.3155 85.3568 55.162 85.4204 55.0489 85.5335C54.9357 85.6467 54.8721 85.8002 54.8721 85.9602C54.8721 86.0415 54.8884 86.1219 54.9202 86.1967C54.952 86.2715 54.9986 86.3391 55.0571 86.3955C55.1157 86.4518 55.185 86.4958 55.261 86.5247C55.3369 86.5536 55.418 86.5668 55.4992 86.5636L62.5565 86.2882Z" fill="#F5B58F"/>
<path d="M37.6329 91.5955L35.9433 75.4371C35.9111 75.254 35.9189 75.0662 35.966 74.8864C36.0131 74.7066 36.0985 74.5391 36.2164 74.3954C36.3342 74.2517 36.4817 74.1351 36.6487 74.0536C36.8158 73.9721 36.9984 73.9277 37.1842 73.9233L62.6983 73.333C62.8867 73.3279 63.0739 73.3641 63.2468 73.4391C63.4197 73.5141 63.5741 73.626 63.6991 73.767C63.8241 73.9081 63.9168 74.0747 63.9705 74.2554C64.0242 74.436 64.0377 74.6263 64.01 74.8127L64.3616 90.15C64.3616 90.15 54.4892 90.8714 50.1944 90.937C50.1892 90.937 42.1139 92.805 37.6329 91.5955Z" fill="white"/>
<path opacity="0.2" d="M37.6329 91.5955L35.9433 75.4371C35.9111 75.254 35.9189 75.0662 35.966 74.8864C36.0131 74.7066 36.0985 74.5391 36.2164 74.3954C36.3342 74.2517 36.4817 74.1351 36.6487 74.0536C36.8158 73.9721 36.9984 73.9277 37.1842 73.9233L62.6983 73.333C62.8867 73.3279 63.0739 73.3641 63.2468 73.4391C63.4197 73.5141 63.5741 73.626 63.6991 73.767C63.8241 73.9081 63.9168 74.0747 63.9705 74.2554C64.0242 74.436 64.0377 74.6263 64.01 74.8127L64.3616 90.15C64.3616 90.15 54.4892 90.8714 50.1944 90.937C50.1892 90.937 42.1139 92.805 37.6329 91.5955Z" fill="#5468FF"/>
<path opacity="0.2" d="M50.273 80.2803C51.2699 80.2803 52.078 79.7952 52.078 79.1968C52.078 78.5984 51.2699 78.1133 50.273 78.1133C49.2761 78.1133 48.468 78.5984 48.468 79.1968C48.468 79.7952 49.2761 80.2803 50.273 80.2803Z" fill="#5468FF"/>
<path d="M37.4807 88.5942C37.4807 88.5942 28.865 89.2108 27.3276 91.0551C25.7902 92.8995 27.6346 95.67 32.559 94.1326C37.4834 92.5951 38.7112 91.6717 38.7112 91.6717L37.4807 88.5942Z" fill="#000D44"/>
<path d="M49.1712 59.3654L48.8643 63.6733C49.182 64.3305 49.6572 64.899 50.2477 65.3284C50.8381 65.7577 51.5255 66.0345 52.2486 66.1341L52.6684 67.0629C52.7192 67.1769 52.8009 67.2745 52.9042 67.3445C53.0076 67.4145 53.1285 67.4543 53.2532 67.4592C53.378 67.4641 53.5016 67.434 53.6101 67.3723C53.7187 67.3106 53.8078 67.2198 53.8674 67.1101L54.3921 66.1341C54.3921 66.1341 56.9081 64.9693 57.1888 62.7812L56.853 58.4419L49.1712 59.3654Z" fill="#F5B58F"/>
<path d="M74.3834 87.9803H74.0948C72.9016 86.9864 71.3976 86.4424 69.8447 86.4429H62.2206L40.8649 87.6917V87.6733L37.171 87.9803L36.864 94.1325H40.5553C40.5553 94.1325 68.5539 97.5169 70.0913 97.5169C71.6287 97.5169 77.7862 95.6699 74.3834 87.9803Z" fill="#1B255E"/>
<path d="M46.8781 128.234L52.9123 127.129C51.8629 121.848 51.3775 116.472 50.8869 111.11L49.6564 97.6272C49.4623 95.4969 49.2026 93.2091 47.7806 91.6114C47.33 91.1098 46.7846 90.7023 46.1758 90.4123C45.5671 90.1224 44.907 89.9556 44.2336 89.9218C42.7985 89.8562 41.4342 90.4072 40.2169 91.1234C38.9996 91.8396 38.5851 92.6267 38.3096 94.0093C38.0761 95.1794 38.3384 96.3889 38.6061 97.5511C40.9882 107.875 43.9109 118.065 46.8545 128.247L46.8781 128.234Z" fill="#1B255E"/>
<path d="M58.4009 53.5199C58.4009 53.5199 60.2741 55.1387 57.1705 55.6739L56.8635 58.4417L48.518 58.2869L48.7803 56.4294C48.7803 56.4294 45.7737 58.1321 46.6972 54.1338L47.0042 51.366L49.772 48.5981L54.3869 49.5216L58.4009 51.6834V53.5199Z" fill="#F5B58F"/>
<path d="M48.5547 55.3567C48.6544 55.106 48.7086 54.8394 48.7147 54.5697C48.7177 54.4314 48.6835 54.2949 48.6156 54.1745C48.5478 54.054 48.4488 53.954 48.329 53.8849C48.193 53.8285 48.0456 53.8051 47.8988 53.8167C47.4813 53.8296 47.0729 53.9421 46.7077 54.1446C46.524 54.247 45.8157 52.7148 45.7632 52.5548C45.528 51.9363 45.4548 51.268 45.5507 50.6133C45.7999 49.4747 46.9202 48.4489 47.9407 47.9898C48.0378 47.1266 47.7728 46.2163 48.0667 45.3977C48.1637 45.1293 48.3175 44.8849 48.5176 44.6813C48.7176 44.4777 48.9592 44.3195 49.2258 44.2177C49.4925 44.1159 49.778 44.0727 50.0628 44.0912C50.3477 44.1096 50.6252 44.1893 50.8765 44.3247C51.3199 44.5634 51.6636 44.9675 52.1358 45.1511C52.6213 45.3118 53.1477 45.2969 53.6234 45.1091C54.0938 44.922 54.5544 44.7109 55.0033 44.4769C55.5439 44.2101 56.133 44.0557 56.7349 44.023C57.341 43.9931 57.9366 44.1895 58.4061 44.5739C59.1932 45.2639 59.3086 46.434 59.2955 47.4808C59.2824 48.5276 59.2142 49.6557 59.7861 50.5346C59.9348 50.72 60.0542 50.927 60.1403 51.1485C60.1928 51.4923 60.1301 51.8438 59.9619 52.1481C59.6339 52.9352 59.2168 53.7747 58.4218 54.0449C58.1212 54.1319 57.8083 54.1683 57.4957 54.1525C57.1912 54.1871 56.8853 54.1015 56.6431 53.9138C56.4437 53.7118 56.4122 53.4048 56.281 53.1529C56.1793 52.9736 56.027 52.8282 55.8432 52.7349C55.6594 52.6416 55.4521 52.6045 55.2473 52.6282C55.3838 53.1818 54.7777 53.6777 54.1979 53.6777C53.6181 53.6777 53.1328 53.3077 52.6868 52.9562C51.5691 52.0694 50.5171 51.1039 49.4677 50.1385C49.5831 51.4975 49.6959 52.8827 49.389 54.2129C49.2919 54.6982 49.0453 55.2492 48.5547 55.3567Z" fill="#000D44"/>
<path d="M48.8642 56.2904C48.8642 56.2904 49.1711 59.6747 51.0181 57.5208C51.0181 57.5208 53.479 56.9043 54.7094 57.8278C55.9399 58.7513 57.1703 55.6738 57.1703 55.6738C57.1703 55.6738 57.4773 61.5191 55.3338 62.1356C53.1904 62.7522 50.2966 62.5108 49.1239 60.1706C47.9512 57.8304 48.8642 56.2904 48.8642 56.2904Z" fill="#000D44"/>
<path d="M46.6763 128.7H53.3952C53.5571 128.383 53.6415 128.032 53.6415 127.676C53.6415 127.32 53.5571 126.969 53.3952 126.651C52.8495 125.502 49.6697 124.064 47.9041 125.73C47.2561 126.342 46.448 127.567 46.448 127.981C46.4544 128.238 46.5336 128.487 46.6763 128.7Z" fill="#000D44"/>
<path d="M40.1802 45.3477H13.5381C11.9396 45.3539 10.4084 45.9916 9.27814 47.1219C8.14786 48.2522 7.51012 49.7834 7.50391 51.3818C7.51012 52.9803 8.14786 54.5115 9.27814 55.6418C10.4084 56.772 11.9396 57.4098 13.5381 57.416H31.5829L36.9821 61.6793V57.4265H40.1802C41.7787 57.4203 43.3099 56.7825 44.4402 55.6522C45.5704 54.522 46.2082 52.9908 46.2144 51.3923C46.211 49.7921 45.5744 48.2582 44.4439 47.1256C43.3133 45.9931 41.7805 45.3539 40.1802 45.3477Z" fill="#5468FF"/>
<path opacity="0.5" d="M40.1802 45.3477H13.5381C11.9396 45.3539 10.4084 45.9916 9.27814 47.1219C8.14786 48.2522 7.51012 49.7834 7.50391 51.3818C7.51012 52.9803 8.14786 54.5115 9.27814 55.6418C10.4084 56.772 11.9396 57.4098 13.5381 57.416H31.5829L36.9821 61.6793V57.4265H40.1802C41.7787 57.4203 43.3099 56.7825 44.4402 55.6522C45.5704 54.522 46.2082 52.9908 46.2144 51.3923C46.211 49.7921 45.5744 48.2582 44.4439 47.1256C43.3133 45.9931 41.7805 45.3539 40.1802 45.3477Z" fill="#000D44"/>
<path d="M16.0644 51.7412H40.4976C40.7149 51.7412 40.8911 51.565 40.8911 51.3477V51.0696C40.8911 50.8522 40.7149 50.676 40.4976 50.676H16.0644C15.8471 50.676 15.6709 50.8522 15.6709 51.0696V51.3477C15.6709 51.565 15.8471 51.7412 16.0644 51.7412Z" fill="white"/>
<path d="M22.458 54.585H40.4976C40.7149 54.585 40.8911 54.4088 40.8911 54.1914V53.9133C40.8911 53.696 40.7149 53.5198 40.4976 53.5198H22.458C22.2407 53.5198 22.0645 53.696 22.0645 53.9133V54.1914C22.0645 54.4088 22.2407 54.585 22.458 54.585Z" fill="white"/>
</svg>
