<svg width="129" height="129" viewBox="0 0 129 129" fill="none" xmlns="http://www.w3.org/2000/svg">
<path d="M2.27316 0H91.0829C91.6858 0 92.264 0.240817 92.6904 0.669474C93.1167 1.09813 93.3562 1.67951 93.3562 2.28573V62.7326C93.3562 63.3388 93.1167 63.9202 92.6904 64.3488C92.264 64.7775 91.6858 65.0183 91.0829 65.0183H2.27316C1.67024 65.0183 1.09203 64.7775 0.665703 64.3488C0.239372 63.9202 -0.000137329 63.3388 -0.000137329 62.7326V2.28573C-0.000137329 1.67951 0.239372 1.09813 0.665703 0.669474C1.09203 0.240817 1.67024 0 2.27316 0Z" fill="#5468FF"/>
<path opacity="0.2" d="M2.27316 0H91.0829C91.6858 0 92.264 0.240817 92.6904 0.669474C93.1167 1.09813 93.3562 1.67951 93.3562 2.28573V62.7326C93.3562 63.3388 93.1167 63.9202 92.6904 64.3488C92.264 64.7775 91.6858 65.0183 91.0829 65.0183H2.27316C1.67024 65.0183 1.09203 64.7775 0.665703 64.3488C0.239372 63.9202 -0.000137329 63.3388 -0.000137329 62.7326V2.28573C-0.000137329 1.67951 0.239372 1.09813 0.665703 0.669474C1.09203 0.240817 1.67024 0 2.27316 0Z" fill="#000D44"/>
<path d="M2.99773 2.23926H90.3655V60.5265H2.99773V2.23926Z" fill="#5468FF"/>
<path opacity="0.1" d="M2.99773 2.29297H90.3655V10.9806H2.99773V2.29297Z" fill="#000D44"/>
<path opacity="0.4" d="M52.9268 11.083H90.3655V60.5238H52.9268V11.083Z" fill="white"/>
<path d="M8.07363 38.5935H8.77026V38.36H8.30584V37.8931H8.07363V38.5935Z" fill="white"/>
<path d="M9.95468 38.5841H11.1389V38.3506H9.95468V38.5841ZM12.3209 38.5841H13.5051V38.3506H12.3209V38.5841ZM14.6894 38.5841H15.8736V38.3506H14.6894V38.5841ZM17.0555 38.5841H18.2398V38.3506H17.0555V38.5841ZM19.4241 38.5841H20.6176V38.3506H19.4334L19.4241 38.5841ZM21.7902 38.5841H22.9745V38.3506H21.7902V38.5841ZM24.1587 38.5841H25.343V38.3506H24.1587V38.5841ZM26.5249 38.5841H27.7092V38.3506H26.5249V38.5841ZM28.8934 38.5841H30.0777V38.3506H28.8934V38.5841ZM31.2596 38.5841H32.4439V38.3506H31.2596V38.5841ZM33.6212 38.5841H34.8054V38.3506H33.6212V38.5841ZM35.9873 38.5841H37.1716V38.3506H35.9873V38.5841ZM38.3559 38.5841H39.5401V38.3506H38.3559V38.5841ZM40.722 38.5841H41.9063V38.3506H40.722V38.5841ZM43.0905 38.5841H44.2748V38.3506H43.0905V38.5841ZM45.4637 38.5841H46.6479V38.3506H45.4637V38.5841Z" fill="white"/>
<path d="M47.8322 38.5935H48.5288V37.8931H48.2966V38.36H47.8322V38.5935Z" fill="white"/>
<path d="M48.2966 36.7165H48.5288V35.5492H48.2966V36.7165ZM48.2966 34.3818H48.5288V33.2144H48.2966V34.3818ZM48.2966 32.047H48.5288V30.8796H48.2966V32.047ZM48.2966 29.7123H48.5288V28.5449H48.2966V29.7123ZM48.2966 27.3775H48.5288V26.2101H48.2966V27.3775ZM48.2966 25.0427H48.5288V23.8754H48.2966V25.0427ZM48.2966 22.708H48.5288V21.5406H48.2966V22.708ZM48.2966 20.3732H48.5288V19.2059H48.2966V20.3732ZM48.2966 18.0385H48.5288V16.8711H48.2966V18.0385Z" fill="white"/>
<path d="M48.2966 15.678H48.5288V14.9775H47.8322V15.211H48.2966V15.678Z" fill="white"/>
<path d="M9.95468 15.211H11.1389V14.9775H9.95468V15.211ZM12.3209 15.211H13.5051V14.9775H12.3209V15.211ZM14.6894 15.211H15.8736V14.9775H14.6894V15.211ZM17.0555 15.211H18.2398V14.9775H17.0555V15.211ZM19.4241 15.211H20.6176V14.9775H19.4334L19.4241 15.211ZM21.7902 15.211H22.9745V14.9775H21.7902V15.211ZM24.1587 15.211H25.343V14.9775H24.1587V15.211ZM26.5249 15.211H27.7092V14.9775H26.5249V15.211ZM28.8934 15.211H30.0777V14.9775H28.8934V15.211ZM31.2596 15.211H32.4439V14.9775H31.2596V15.211ZM33.6281 15.211H34.8124V14.9775H33.6212L33.6281 15.211ZM35.9943 15.211H37.1786V14.9775H35.9943V15.211ZM38.3628 15.211H39.5471V14.9775H38.3628V15.211ZM40.729 15.211H41.9133V14.9775H40.729V15.211ZM43.0975 15.211H44.2818V14.9775H43.0975V15.211ZM45.4637 15.211H46.6479V14.9775H45.4637V15.211Z" fill="white"/>
<path d="M8.07363 15.678H8.30584V15.211H8.77026V14.9775H8.07363V15.678Z" fill="white"/>
<path d="M8.07835 36.7165H8.31055V35.5492H8.07835V36.7165ZM8.07835 34.3818H8.31055V33.2144H8.07835V34.3818ZM8.07835 32.047H8.31055V30.8796H8.07835V32.047ZM8.07835 29.7123H8.31055V28.5449H8.07835V29.7123ZM8.07835 27.3775H8.31055V26.2101H8.07835V27.3775ZM8.07835 25.0427H8.31055V23.8754H8.07835V25.0427ZM8.07835 22.708H8.31055V21.5406H8.07835V22.708ZM8.07835 20.3732H8.31055V19.2059H8.07835V20.3732ZM8.07835 18.0385H8.31055V16.8711H8.07835V18.0385Z" fill="white"/>
<path d="M7.5188 14.417H8.86328V15.7688H7.5188V14.417Z" fill="#5468FF" stroke="white" stroke-miterlimit="10"/>
<path d="M7.5188 37.7998H8.86328V39.1516H7.5188V37.7998Z" fill="#5468FF" stroke="white" stroke-miterlimit="10"/>
<path d="M47.7393 14.417H49.0837V15.7688H47.7393V14.417Z" fill="#5468FF" stroke="white" stroke-miterlimit="10"/>
<path d="M47.7393 37.7998H49.0837V39.1516H47.7393V37.7998Z" fill="#5468FF" stroke="white" stroke-miterlimit="10"/>
<path d="M27.628 14.417H28.9724V15.7688H27.628V14.417Z" fill="#5468FF" stroke="white" stroke-miterlimit="10"/>
<path d="M27.628 37.7998H28.9724V39.1516H27.628V37.7998Z" fill="#5468FF" stroke="white" stroke-miterlimit="10"/>
<path d="M47.7393 26.1094H49.0837V27.4612H47.7393V26.1094Z" fill="#5468FF" stroke="white" stroke-miterlimit="10"/>
<path d="M11.4779 22.9482H22.0479C22.2903 22.9482 22.4868 23.1458 22.4868 23.3895V26.7656C22.4868 27.0093 22.2903 27.2068 22.0479 27.2068H11.4779C11.2355 27.2068 11.039 27.0093 11.039 26.7656V23.3895C11.039 23.1458 11.2355 22.9482 11.4779 22.9482Z" fill="white"/>
<path d="M28.4452 22.9482H39.0152C39.2576 22.9482 39.4541 23.1458 39.4541 23.3895V26.7656C39.4541 27.0093 39.2576 27.2068 39.0152 27.2068H28.4452C28.2028 27.2068 28.0063 27.0093 28.0063 26.7656V23.3895C28.0063 23.1458 28.2028 22.9482 28.4452 22.9482Z" fill="white"/>
<path d="M8.76343 5.38184H5.85621" stroke="white" stroke-width="1.5" stroke-linecap="round" stroke-linejoin="round"/>
<path d="M8.76343 6.76855H5.85621" stroke="white" stroke-width="1.5" stroke-linecap="round" stroke-linejoin="round"/>
<path d="M8.76343 8.15527H5.85621" stroke="white" stroke-width="1.5" stroke-linecap="round" stroke-linejoin="round"/>
<path d="M55.1399 18.748H84.4443V48.2127H55.1399V18.748Z" fill="white"/>
<path d="M72.0608 21.1577H72.293V46.5715H72.0608V21.1577Z" fill="#5468FF"/>
<path d="M59.5376 46.688C61.227 46.7109 62.904 46.3962 64.4714 45.762C66.0388 45.1278 67.4652 44.1869 68.6679 42.9939C69.8706 41.8008 70.8256 40.3794 71.4774 38.8122C72.1292 37.2449 72.4648 35.5631 72.4648 33.8644C72.4648 32.1656 72.1292 30.4838 71.4774 28.9166C70.8256 27.3494 69.8706 25.9279 68.6679 24.7349C67.4652 23.5418 66.0388 22.6009 64.4714 21.9667C62.904 21.3326 61.227 21.0178 59.5376 21.0407V21.2742C61.1964 21.2515 62.843 21.5604 64.3821 22.1829C65.9211 22.8054 67.3217 23.7292 68.5027 24.9005C69.6837 26.0719 70.6214 27.4675 71.2614 29.0063C71.9015 30.5451 72.2311 32.1964 72.2311 33.8644C72.2311 35.5323 71.9015 37.1836 71.2614 38.7224C70.6214 40.2612 69.6837 41.6568 68.5027 42.8282C67.3217 43.9996 65.9211 44.9233 64.3821 45.5459C62.843 46.1684 61.1964 46.4773 59.5376 46.4545V46.688Z" fill="#5468FF"/>
<path d="M58.9921 20.6089H60.0835V21.7062H58.9921V20.6089Z" fill="#5468FF"/>
<path d="M58.9921 46.0229H60.0835V47.1203H58.9921V46.0229Z" fill="#5468FF"/>
<path d="M71.631 33.3169H72.7224V34.4142H71.631V33.3169Z" fill="white"/>
<path d="M71.5126 34.531H72.8362V33.2002H71.5126V34.531ZM72.604 34.2975H71.7448V33.4337H72.604V34.2975Z" fill="#5468FF"/>
<path d="M72.1767 21.4422C72.0202 21.4422 71.8934 21.3147 71.8934 21.1574C71.8934 21.0001 72.0202 20.8726 72.1767 20.8726C72.3331 20.8726 72.46 21.0001 72.46 21.1574C72.46 21.3147 72.3331 21.4422 72.1767 21.4422Z" fill="#5468FF"/>
<path d="M72.1767 46.8563C72.0202 46.8563 71.8934 46.7288 71.8934 46.5715C71.8934 46.4141 72.0202 46.2866 72.1767 46.2866C72.3331 46.2866 72.46 46.4141 72.46 46.5715C72.46 46.7288 72.3331 46.8563 72.1767 46.8563Z" fill="#5468FF"/>
<path d="M8.28043 44.4209H42.0177C42.2025 44.4209 42.3797 44.3471 42.5103 44.2157C42.641 44.0844 42.7144 43.9062 42.7144 43.7204C42.7144 43.5347 42.641 43.3565 42.5103 43.2252C42.3797 43.0938 42.2025 43.02 42.0177 43.02H8.2781C8.09335 43.02 7.91617 43.0938 7.78553 43.2252C7.65488 43.3565 7.58148 43.5347 7.58148 43.7204C7.58148 43.8126 7.59958 43.9039 7.63473 43.989C7.66988 44.0742 7.7214 44.1515 7.78633 44.2166C7.85127 44.2816 7.92834 44.3332 8.01313 44.3682C8.09791 44.4033 8.18875 44.4212 8.28043 44.4209Z" fill="white"/>
<path d="M8.28043 49.4853H42.0177C42.2025 49.4853 42.3797 49.4115 42.5103 49.2802C42.641 49.1488 42.7144 48.9707 42.7144 48.7849C42.7144 48.5991 42.641 48.421 42.5103 48.2896C42.3797 48.1583 42.2025 48.0845 42.0177 48.0845H8.2781C8.09335 48.0845 7.91617 48.1583 7.78553 48.2896C7.65488 48.421 7.58148 48.5991 7.58148 48.7849C7.58148 48.8771 7.59958 48.9683 7.63473 49.0535C7.66988 49.1386 7.7214 49.2159 7.78633 49.281C7.85127 49.3461 7.92834 49.3976 8.01313 49.4327C8.09791 49.4677 8.18875 49.4856 8.28043 49.4853Z" fill="white"/>
<path d="M8.28051 54.5517H29.2929C29.4776 54.5517 29.6548 54.4779 29.7855 54.3466C29.9161 54.2152 29.9895 54.0371 29.9895 53.8513C29.9895 53.6655 29.9161 53.4874 29.7855 53.356C29.6548 53.2247 29.4776 53.1509 29.2929 53.1509H8.28051C8.09576 53.1509 7.91857 53.2247 7.78792 53.356C7.65728 53.4874 7.58389 53.6655 7.58389 53.8513C7.58389 54.0371 7.65728 54.2152 7.78792 54.3466C7.91857 54.4779 8.09576 54.5517 8.28051 54.5517Z" fill="white"/>
<path d="M85.6703 4.70215H87.6069V6.64933H85.6703V4.70215Z" fill="white"/>
<path d="M82.2406 4.70215H83.5084C83.6931 4.70215 83.8428 4.85267 83.8428 5.03835V6.31313C83.8428 6.49881 83.6931 6.64933 83.5084 6.64933H82.2406C82.0559 6.64933 81.9062 6.49881 81.9062 6.31313V5.03835C81.9062 4.85267 82.0559 4.70215 82.2406 4.70215Z" fill="white"/>
<path d="M78.739 4.70215H79.4821C79.8117 4.70215 80.0789 4.97079 80.0789 5.30218V6.0493C80.0789 6.38069 79.8117 6.64933 79.4821 6.64933H78.739C78.4094 6.64933 78.1423 6.38069 78.1423 6.0493V5.30218C78.1423 4.97079 78.4094 4.70215 78.739 4.70215Z" fill="white"/>
<path d="M70.0962 31.2672L68.5334 25.5891L71.1458 28.7247C71.0752 28.8254 71.0394 28.9467 71.0441 29.0699C71.0487 29.193 71.0934 29.3113 71.1713 29.4064C71.2174 29.4692 71.2759 29.5218 71.343 29.561C71.4101 29.6002 71.4844 29.6252 71.5615 29.6344C71.6386 29.6436 71.7167 29.6369 71.7911 29.6146C71.8655 29.5924 71.9345 29.5551 71.994 29.505C72.0535 29.4549 72.1022 29.3931 72.1371 29.3233C72.1719 29.2536 72.1922 29.1775 72.1967 29.0996C72.2012 29.0217 72.1899 28.9437 72.1633 28.8704C72.1367 28.797 72.0954 28.73 72.0421 28.6733C71.9628 28.5789 71.8548 28.5133 71.7348 28.4867C71.6148 28.4601 71.4894 28.474 71.378 28.5262L68.7657 25.3906L74.053 27.9332L73.4911 29.7123L74.1389 29.8407L74.4524 30.2166L72.2673 32.0564L71.9538 31.6805L71.9399 31.0174L70.0962 31.2672Z" fill="#000D44"/>
<path d="M44.0404 113.731C44.0404 113.731 42.2617 106.671 39.452 109.682C39.452 109.682 41.0426 105.447 44.2262 110.149C47.4097 114.852 47.7859 115.615 47.7859 115.615L43.6665 115.239L44.0404 113.731Z" fill="white"/>
<path opacity="0.4" d="M44.0404 113.731C44.0404 113.731 42.2617 106.671 39.452 109.682C39.452 109.682 41.0426 105.447 44.2262 110.149C47.4097 114.852 47.7859 115.615 47.7859 115.615L43.6665 115.239L44.0404 113.731Z" fill="#5468FF"/>
<path d="M48.7146 113.92C50.1244 110.469 51.1297 106.865 51.71 103.18C52.6389 97.1539 57.3271 92.0711 59.9487 91.3193C59.9487 91.3193 57.8891 91.3193 56.3913 99.7922C54.8936 108.265 50.3981 114.102 50.3981 114.102L48.7146 113.92Z" fill="white"/>
<path opacity="0.4" d="M48.7146 113.92C50.1244 110.469 51.1297 106.865 51.71 103.18C52.6389 97.1539 57.3271 92.0711 59.9487 91.3193C59.9487 91.3193 57.8891 91.3193 56.3913 99.7922C54.8936 108.265 50.3981 114.102 50.3981 114.102L48.7146 113.92Z" fill="#5468FF"/>
<path d="M49.6434 114.464C49.6434 114.464 54.7148 108.085 59.208 107.331C59.208 107.331 58.458 110.343 52.474 114.102L50.6024 114.291L49.6434 114.464Z" fill="white"/>
<path opacity="0.3" d="M49.6434 114.464C49.6434 114.464 54.7148 108.085 59.208 107.331C59.208 107.331 58.458 110.343 52.474 114.102L50.6024 114.291L49.6434 114.464Z" fill="#5468FF"/>
<path d="M46.4739 113.92C46.4739 113.92 43.8523 110.719 43.2904 106.577C42.7284 102.435 42.9096 97.1631 42.9096 97.1631C42.9096 97.1631 45.7193 104.882 46.655 109.213C47.5908 113.544 47.7859 114.861 47.7859 114.861L46.4739 113.92Z" fill="white"/>
<path opacity="0.3" d="M46.4739 113.92C46.4739 113.92 43.8523 110.719 43.2904 106.577C42.7284 102.435 42.9096 97.1631 42.9096 97.1631C42.9096 97.1631 45.7193 104.882 46.655 109.213C47.5908 113.544 47.7859 114.861 47.7859 114.861L46.4739 113.92Z" fill="#5468FF"/>
<path opacity="0.4" d="M46.4739 109.778C46.4739 109.778 45.7239 98.6691 46.2858 90.7612C46.2858 90.7612 48.9074 95.0922 49.6574 103C50.4075 110.908 48.9074 114.109 48.9074 114.109L47.2448 114.723L46.4739 109.778Z" fill="white"/>
<path opacity="0.5" d="M46.4739 109.778C46.4739 109.778 45.7239 98.6691 46.2858 90.7612C46.2858 90.7612 48.9074 95.0922 49.6574 103C50.4075 110.908 48.9074 114.109 48.9074 114.109L47.2448 114.723L46.4739 109.778Z" fill="#5468FF"/>
<path d="M40.6685 113.733H57.334L56.3982 116.745H55.3695L53.9647 128.04H44.2282L42.8234 116.745H41.6043L40.6685 113.733Z" fill="#5468FF"/>
<path d="M77.5291 34.3394C77.5291 34.3394 76.1196 32.3549 76.0383 30.2466C75.9709 28.4838 72.3764 28.1967 71.2061 28.1453C71.1746 28.1434 71.1434 28.151 71.1163 28.1672C71.0892 28.1833 71.0675 28.2072 71.054 28.2358C71.0405 28.2644 71.0359 28.2964 71.0406 28.3277C71.0454 28.359 71.0593 28.3882 71.0807 28.4115L71.7262 29.1492L70.7022 29.0068C70.6686 29.0011 70.6341 29.0061 70.6034 29.0209C70.5726 29.0358 70.5473 29.0598 70.5307 29.0898C70.5142 29.1197 70.5073 29.1541 70.5109 29.1882C70.5146 29.2222 70.5287 29.2543 70.5512 29.28L71.3222 30.2139L70.9367 30.2583C70.9024 30.2622 70.8696 30.2744 70.841 30.2938C70.8124 30.3131 70.7888 30.3391 70.7722 30.3695C70.7556 30.3999 70.7464 30.4338 70.7456 30.4685C70.7447 30.5032 70.7521 30.5376 70.7672 30.5688C71.0969 31.2435 71.9932 32.9876 72.8919 33.8584C74.0251 34.9464 75.8827 36.6088 75.8827 36.6088L77.5291 34.3394Z" fill="#F5B58F"/>
<path d="M118.086 116.551L121.802 122.071L118.551 125.05L114.197 126.838C114.197 126.838 118.04 123.429 117.448 121.657L115.711 118.937L118.086 116.551Z" fill="#F5B58F"/>
<path d="M120.392 119.878C120.392 119.878 121.381 120.266 122.208 122.35C122.252 122.459 122.271 122.576 122.263 122.693C122.256 122.81 122.222 122.923 122.164 123.025C121.95 123.394 121.421 124.003 120.12 124.804C118.435 125.843 116.837 126.906 116.152 127.361C115.892 127.535 115.607 127.666 115.307 127.751C114.657 127.935 113.544 128.173 113.103 127.809L115.263 125.652C115.263 125.652 117.434 125.325 119.057 122.827C120.68 120.329 120.39 119.878 120.39 119.878" fill="#000D44"/>
<path d="M97.0903 120.411V126.371L92.7481 127.109L88.1341 126.245C88.1341 126.245 93.1985 125.465 93.6514 123.651V120.411H97.0903Z" fill="#F5B58F"/>
<path d="M97.0902 123.756C97.0902 123.756 97.7148 124.62 97.2899 126.822C97.2687 126.937 97.2217 127.046 97.1525 127.14C97.0833 127.234 96.9937 127.312 96.8905 127.366C96.512 127.56 95.7295 127.786 94.2155 127.753C92.2371 127.711 90.3237 127.735 89.504 127.753C89.1895 127.76 88.876 127.715 88.5752 127.623C87.9273 127.424 86.8638 127.02 86.6897 126.474L89.6665 125.832C89.6665 125.832 91.6705 126.736 94.378 125.517C97.0855 124.298 97.0856 123.759 97.0856 123.759" fill="#000D44"/>
<path d="M97.8797 19.7031C97.8797 19.7031 97.0902 24.41 101.595 25.9416C101.595 25.9416 103.081 28.7059 100.871 32.068C100.088 33.2335 99.3667 34.4391 98.7087 35.6799L97.8193 37.3959L107.686 35.7616L107.454 24.7602L99.05 19.7125L97.8797 19.7031Z" fill="#EFAB89"/>
<path d="M104.76 33.8213C104.76 33.8213 94.775 28.888 95.7921 22.5375L97.8819 17.6602L105.271 21.7436L104.76 33.8213Z" fill="#F5B58F"/>
<path d="M79.0616 34.9047L78.2768 33.3194C78.249 33.2633 78.2084 33.2147 78.1582 33.1775C78.1081 33.1403 78.0498 33.1157 77.9883 33.1057C77.9268 33.0956 77.8638 33.1005 77.8046 33.1198C77.7453 33.1391 77.6915 33.1723 77.6475 33.2166L74.6543 36.2518C74.5957 36.3128 74.5582 36.3911 74.5473 36.4752C74.5364 36.5594 74.5528 36.6447 74.594 36.7188L76.0336 39.1983C76.0683 39.2573 76.1178 39.3063 76.177 39.3403C76.2362 39.3743 76.3033 39.3921 76.3715 39.3921C76.4397 39.3921 76.5068 39.3743 76.566 39.3403C76.6253 39.3063 76.6747 39.2573 76.7094 39.1983L79.05 35.2782C79.0825 35.2218 79.1006 35.1581 79.1026 35.0929C79.1046 35.0277 79.0905 34.963 79.0616 34.9047Z" fill="#5468FF"/>
<path opacity="0.07" d="M79.0616 34.9047L78.2768 33.3194C78.249 33.2633 78.2084 33.2147 78.1582 33.1775C78.1081 33.1403 78.0498 33.1157 77.9883 33.1057C77.9268 33.0956 77.8638 33.1005 77.8046 33.1198C77.7453 33.1391 77.6915 33.1723 77.6475 33.2166L74.6543 36.2518C74.5957 36.3128 74.5582 36.3911 74.5473 36.4752C74.5364 36.5594 74.5528 36.6447 74.594 36.7188L76.0336 39.1983C76.0683 39.2573 76.1178 39.3063 76.177 39.3403C76.2362 39.3743 76.3033 39.3921 76.3715 39.3921C76.4397 39.3921 76.5068 39.3743 76.566 39.3403C76.6253 39.3063 76.6747 39.2573 76.7094 39.1983L79.05 35.2782C79.0825 35.2218 79.1006 35.1581 79.1026 35.0929C79.1046 35.0277 79.0905 34.963 79.0616 34.9047Z" fill="#000D44"/>
<path d="M111.41 77.4834L96.1613 85.1881C101.407 102.199 115.525 120.676 115.525 120.676L116.723 119.42L119.417 116.595C119.417 116.595 116.194 111.692 111.963 99.2643C108.35 88.6552 110.147 80.2081 111.134 78.0531" fill="#1B255E"/>
<path d="M108.51 65.5508L94.7172 67.7992L92.3533 76.1739C89.6458 87.0609 90.6605 98.9705 90.6605 98.9705C92.69 114.613 92.5182 121.085 92.5182 121.085H98.4348L98.9526 105.095C98.5625 93.9835 102.568 89.8042 104.444 88.4618C105.433 87.7614 106.327 86.9333 107.101 85.9986C110.76 81.5415 111.84 77.36 111.935 74.0586C111.991 71.8979 111.369 69.7744 110.159 67.9883L108.51 65.5508Z" fill="#1B255E"/>
<path d="M92.0816 72.2046C92.0579 72.1064 92.0415 72.0065 92.0328 71.9058C91.36 65.4765 91.1977 59.0035 91.5475 52.5483C91.5616 52.3792 91.52 52.2102 91.4291 52.0673C91.1342 51.6354 90.5606 51.8735 90.1287 52.0673C89.3597 52.4233 88.5232 52.6076 87.6766 52.6076C86.83 52.6076 85.9935 52.4233 85.2245 52.0673C83.8313 51.4183 82.7724 50.2532 81.7809 49.0858C79.2266 46.067 77.16 42.5789 75.1189 39.1818C74.9791 38.9952 74.8982 38.7707 74.8867 38.5374C74.9444 38.2437 75.1103 37.9827 75.3511 37.8066C76.6259 36.5926 77.3852 35.9015 78.66 34.6874C78.8528 34.503 79.085 34.3068 79.3567 34.3372C79.6655 34.3722 79.8466 34.6921 79.979 34.9746C80.7476 36.6089 81.7739 37.9864 82.5332 39.6207C83.1556 40.9469 83.7964 42.2987 84.997 43.2139C85.487 43.5996 86.0691 43.8492 86.6851 43.9377C88.9003 44.2155 90.2959 42.1843 91.6264 40.571C93.5371 38.2592 95.9725 36.443 98.7273 35.2758C99.7096 34.8602 100.748 34.5193 101.546 33.7979C101.671 33.6709 101.835 33.5889 102.011 33.5644C102.519 33.5154 102.656 34.015 102.707 34.4189L103.385 38.8549C103.407 39.3339 103.541 39.8009 103.777 40.2177C104.013 40.6345 104.343 40.9892 104.741 41.2527L106.697 42.9408C106.881 43.1316 107.114 43.2673 107.37 43.333C108.048 43.4381 108.454 42.6326 108.689 41.9765C108.847 41.5399 109.374 40.6153 109.98 40.8091C110.521 40.9889 110.433 42.294 110.493 42.7633C110.725 44.5564 110.958 46.3464 111.19 48.1333C111.654 51.7132 112.107 55.2994 112.548 58.8918C113.081 63.1598 113.606 67.4293 114.123 71.7003C114.174 72.1159 114.206 72.6085 113.426 72.6949C106.753 70.9159 99.7414 70.8589 93.0406 72.5291C92.7921 72.5922 92.5019 72.6505 92.2975 72.4941C92.1975 72.4224 92.1221 72.3212 92.0816 72.2046Z" fill="#5468FF"/>
<path d="M96.5817 22.1523C96.5354 22.2801 96.4583 22.3944 96.3572 22.485C96.2562 22.5755 96.1343 22.6393 96.0027 22.6708C95.871 22.7023 95.7336 22.7004 95.6029 22.6653C95.4721 22.6302 95.3521 22.563 95.2535 22.4698C94.7902 22.0089 94.4497 21.4382 94.2634 20.8103C94.0772 20.1823 94.0511 19.5173 94.1877 18.8766C94.5847 17.1839 96.1777 15.8811 97.903 15.7223C98.2617 15.7142 98.619 15.6752 98.9711 15.6056C99.2838 15.5016 99.5849 15.3655 99.8698 15.1993C101.049 14.5963 102.359 14.298 103.682 14.3311C105.005 14.3643 106.298 14.7279 107.446 15.3892C108.594 16.0506 109.56 16.9888 110.258 18.1193C110.955 19.2499 111.362 20.5371 111.441 21.8651C111.441 21.8487 113.728 22.7033 113.941 22.8223C114.803 23.2993 115.587 23.9072 116.264 24.6248C117.681 26.1582 118.527 28.1385 118.655 30.2282C118.725 31.6407 118.404 33.0299 118.3 34.4517C118.195 35.8736 118.344 37.3842 119.229 38.4932C119.514 38.8574 119.87 39.161 120.158 39.5322C120.475 39.9867 120.694 40.5031 120.8 41.0481C120.907 41.593 120.898 42.1544 120.775 42.6958C120.509 43.7758 119.977 44.7708 119.226 45.5885C117.998 47.0338 116.28 48.1358 114.394 48.2852C113.001 48.3949 111.427 47.1692 110.361 45.8314C110.028 45.4185 109.583 45.1121 109.08 44.9495C108.577 44.787 108.038 44.7754 107.528 44.9161C106.051 45.313 104.649 45.5068 103.669 44.3394C102.754 43.2491 102.468 41.7479 102.475 40.3213C102.511 39.6569 102.504 38.9909 102.454 38.3274C102.352 37.5033 102.034 36.7258 101.813 35.9273C101.358 34.2161 101.332 32.418 101.737 30.694C102.142 28.9701 102.966 27.3741 104.135 26.049C102.664 25.6688 101.336 24.8614 100.317 23.7276C99.2982 22.5938 98.6339 21.1835 98.4069 19.6727C97.581 20.3125 96.9489 21.1712 96.5817 22.1523Z" fill="#000D44"/>
<path d="M129 129H15.4509V126.665L129 126.665V129Z" fill="white"/>
<path opacity="0.3" d="M129 129H15.4509V126.665L129 126.665V129Z" fill="#5468FF"/>
</svg>
