<svg width="146" height="130" viewBox="0 0 146 130" fill="none" xmlns="http://www.w3.org/2000/svg">
<path d="M38.4243 21.9941C38.4243 21.9941 41.1191 29.1795 43.0576 31.3456C46.009 27.6514 46.9771 22.708 46.9771 22.708L51.0305 23.5378C51.0305 23.5378 50.0891 35.7358 42.2813 39.3542C36.3987 37.1947 34.6743 29.7127 34.6743 29.7127L38.4243 21.9941Z" fill="#5468FF"/>
<path opacity="0.3" d="M38.4243 21.9941C38.4243 21.9941 41.1191 29.1795 43.0576 31.3456C46.009 27.6514 46.9771 22.708 46.9771 22.708L51.0305 23.5378C51.0305 23.5378 50.0891 35.7358 42.2813 39.3542C36.3987 37.1947 34.6743 29.7127 34.6743 29.7127L38.4243 21.9941Z" fill="#000D44"/>
<path d="M26.6901 3.46094C27.3036 0.456066 30.9286 0.0522924 33.1259 0.0879851C33.2804 0.540034 33.4683 0.979969 33.6881 1.40415C34.1947 2.96224 35.0962 4.36254 36.3048 5.46865C36.5145 5.69173 36.751 5.89696 36.974 6.09773L32.9274 11.7149L29.86 14.2557L27.7341 13.0846C22.7193 6.77143 26.6901 3.46094 26.6901 3.46094Z" fill="#000D44"/>
<path d="M38.027 12L37.804 13.836C37.804 13.836 35.4438 14.474 35.127 13.1154L34.8147 11.7546L35.5732 11.2192" fill="white"/>
<path d="M37.8105 13.8359V13.856C37.6691 14.4557 37.3284 14.9896 36.8442 15.3705C36.3599 15.7514 35.7608 15.9568 35.1447 15.9529H33.5831V18.554L31.5464 19.4776L29.7908 20.0331L28.2962 19.3504L27.7429 17.4453V13.0841C27.7429 13.0841 28.3318 13.7802 29.2465 13.0841C29.2465 13.0841 30.4868 12.3324 30.808 10.4964C30.808 10.4964 28.5594 10.0324 28.9386 8.3928C29.2554 7.02978 30.9686 7.48933 31.513 8.66049V10.222C31.513 10.222 32.3941 10.1997 32.548 7.19932L33.5787 5.87646H37.1479C37.1479 5.87646 38.4596 8.87019 38.0536 11.9955L37.8105 13.8359Z" fill="#F5B58F"/>
<path d="M25.9562 46.3833C24.0309 46.4067 22.1432 46.9195 20.4707 47.8735L22.271 19.9574L23.7031 19.3506C24.26 19.1148 24.8585 18.9935 25.4632 18.9937H34.1633C35.3134 18.9916 36.4208 19.4295 37.2586 20.2175C38.0964 21.0055 38.6012 22.084 38.6695 23.2322L40.2779 50.0017C35.707 47.8869 31.0826 46.2918 25.9562 46.3833Z" fill="#5468FF"/>
<path opacity="0.2" d="M25.9562 46.3833C24.0309 46.4067 22.1432 46.9195 20.4707 47.8735L22.271 19.9574L23.7031 19.3506C24.26 19.1148 24.8585 18.9935 25.4632 18.9937H34.1633C35.3134 18.9916 36.4208 19.4295 37.2586 20.2175C38.0964 21.0055 38.6012 22.084 38.6695 23.2322L40.2779 50.0017C35.707 47.8869 31.0826 46.2918 25.9562 46.3833Z" fill="#000D44"/>
<path d="M33.822 27.105H37.9824V25.6817H33.822V27.105Z" fill="white"/>
<path d="M32.296 21.334C32.0944 21.5352 31.8212 21.6482 31.5364 21.6482C31.2516 21.6482 30.9784 21.5352 30.7768 21.334L28.8472 19.4043L31.3903 19.005C31.4871 18.9899 31.5857 18.9899 31.6825 19.005L34.2256 19.4043L32.296 21.334Z" fill="#5468FF"/>
<path d="M32.296 21.334C32.0944 21.5352 31.8212 21.6482 31.5364 21.6482C31.2516 21.6482 30.9784 21.5352 30.7768 21.334L28.8472 19.4043L31.3903 19.005C31.4871 18.9899 31.5857 18.9899 31.6825 19.005L34.2256 19.4043L32.296 21.334Z" fill="#5468FF"/>
<path d="M46.7048 21.9941L51.588 23.1341L51.1195 25.724L46.1873 24.6912" fill="white"/>
<path opacity="0.5" d="M33.822 27.105H37.9824V25.6817H33.822V27.105Z" fill="#5468FF"/>
<path opacity="0.5" d="M46.7048 21.9941L51.588 23.1341L51.1195 25.724L46.1873 24.6912" fill="#5468FF"/>
<path d="M31.5378 18.9938L34.7613 21.5101C34.7613 21.5101 35.1227 19.7523 33.5746 18.0747C33.5723 18.0747 33.0191 18.9938 31.5378 18.9938Z" fill="white"/>
<path d="M31.5377 18.9937C31.5377 18.9937 29.0839 19.1833 27.7454 17.4321C27.0176 17.7347 26.423 18.289 26.0701 18.9937C26.0701 18.9937 26.6947 21.1598 28.66 21.8736L31.5377 18.9937Z" fill="white"/>
<path opacity="0.5" d="M31.5378 18.9938L34.7613 21.5101C34.7613 21.5101 35.1227 19.7523 33.5746 18.0747C33.5723 18.0747 33.0191 18.9938 31.5378 18.9938Z" fill="#5468FF"/>
<path opacity="0.5" d="M31.5377 18.9937C31.5377 18.9937 29.0839 19.1833 27.7454 17.4321C27.0176 17.7347 26.423 18.289 26.0701 18.9937C26.0701 18.9937 26.6947 21.1598 28.66 21.8736L31.5377 18.9937Z" fill="#5468FF"/>
<path d="M41.4602 14.8043C41.5636 15.2606 41.8433 15.6575 42.2383 15.9083C42.6332 16.159 43.1114 16.2434 43.5683 16.1428L46.4683 15.4981C46.4233 14.3116 46.1632 13.143 45.7009 12.0493L42.8009 12.694C42.3437 12.7969 41.9459 13.0767 41.6947 13.4723C41.4434 13.8678 41.3591 14.3468 41.4602 14.8043Z" fill="#5468FF"/>
<path d="M43.2806 11.6745L48.2776 9.48389L50.1381 12.8836L49.8927 16.7496L44.4406 16.8723C43.7335 17.0284 42.9014 15.9956 42.5824 14.5612C42.2634 13.1268 42.5801 11.8307 43.2806 11.6745Z" fill="white"/>
<path opacity="0.5" d="M43.2806 11.6745L48.2776 9.48389L50.1381 12.8836L49.8927 16.7496L44.4406 16.8723C43.7335 17.0284 42.9014 15.9956 42.5824 14.5612C42.2634 13.1268 42.5801 11.8307 43.2806 11.6745Z" fill="#5468FF"/>
<path d="M47.0997 17.0439C47.0997 17.0439 46.6892 17.9965 47.3852 19.4621C47.3852 19.4621 46.4238 23.1206 48.9803 23.7385C49.0335 22.0562 48.9409 20.3723 48.7036 18.7059L48.4114 17.3942" fill="#FFCDA9"/>
<path d="M49.1529 24.4036L50.7534 24.0479C50.8893 24.0176 50.975 23.883 50.9448 23.7471L48.4228 12.3993C48.3926 12.2634 48.258 12.1777 48.1221 12.2079L46.5215 12.5636C46.3856 12.5938 46.2999 12.7285 46.3301 12.8644L48.8521 24.2122C48.8823 24.3481 49.017 24.4338 49.1529 24.4036Z" fill="#5468FF"/>
<path opacity="0.2" d="M49.1529 24.4036L50.7534 24.0479C50.8893 24.0176 50.975 23.883 50.9448 23.7471L48.4228 12.3993C48.3926 12.2634 48.258 12.1777 48.1221 12.2079L46.5215 12.5636C46.3856 12.5938 46.2999 12.7285 46.3301 12.8644L48.8521 24.2122C48.8823 24.3481 49.017 24.4338 49.1529 24.4036Z" fill="#000D44"/>
<path d="M49.9059 19.1121C49.9059 19.0697 48.0432 19.527 48.0432 19.527C48.0432 19.527 48.9021 23.1097 50.6956 23.6495L51.5076 23.4688C51.6225 22.3425 51.6142 21.207 51.4831 20.0825L51.6281 18.7083C51.0591 18.3333 50.3829 18.1547 49.7029 18.1997L49.9059 19.1121Z" fill="#FFCDA9"/>
<path d="M46.2562 9.14696L54.6574 5.44385L57.7805 11.1725L57.3678 17.6887L48.1814 17.8961C46.9901 18.1616 45.587 16.4171 45.0583 14.0034C44.5296 11.5897 45.065 9.41242 46.2562 9.14696Z" fill="#5468FF"/>
<path d="M58.758 19.0845C60.8675 18.6157 61.8077 14.7716 60.858 10.4984C59.9084 6.22528 57.4284 3.14127 55.3189 3.6101C53.2094 4.07892 52.2691 7.92306 53.2188 12.1962C54.1685 16.4694 56.6485 19.5534 58.758 19.0845Z" fill="white"/>
<path opacity="0.6" d="M58.758 19.0845C60.8675 18.6157 61.8077 14.7716 60.858 10.4984C59.9084 6.22528 57.4284 3.14127 55.3189 3.6101C53.2094 4.07892 52.2691 7.92306 53.2188 12.1962C54.1685 16.4694 56.6485 19.5534 58.758 19.0845Z" fill="#5468FF"/>
<path d="M59.2177 18.9786C61.3272 18.5098 62.2674 14.6656 61.3178 10.3925C60.3681 6.11933 57.8881 3.03531 55.7786 3.50414C53.6691 3.97297 52.7289 7.8171 53.6785 12.0902C54.6282 16.3634 57.1082 19.4474 59.2177 18.9786Z" fill="white"/>
<path opacity="0.5" d="M59.2177 18.9786C61.3272 18.5098 62.2674 14.6656 61.3178 10.3925C60.3681 6.11933 57.8881 3.03531 55.7786 3.50414C53.6691 3.97297 52.7289 7.8171 53.6785 12.0902C54.6282 16.3634 57.1082 19.4474 59.2177 18.9786Z" fill="#5468FF"/>
<path d="M59.0109 18.0506C60.8667 17.6381 61.6937 14.256 60.8582 10.4964C60.0226 6.73684 57.8409 4.02342 55.9851 4.43585C54.1294 4.84828 53.3023 8.23038 54.1379 11.99C54.9734 15.7496 57.1552 18.463 59.0109 18.0506Z" fill="#5468FF"/>
<path d="M54.3027 9.53049C54.8994 9.40984 55.5196 9.5281 56.0301 9.85984C56.5405 10.1916 56.9004 10.7103 57.0325 11.3046C57.1645 11.8989 57.0582 12.5213 56.7363 13.038C56.4144 13.5547 55.9026 13.9245 55.311 14.0679L54.8202 14.1772C54.5303 13.4677 54.3012 12.7349 54.1354 11.9866C53.9657 11.2133 53.8649 10.4264 53.8342 9.63533L54.3027 9.53049Z" fill="white"/>
<path opacity="0.5" d="M54.3027 9.53049C54.8994 9.40984 55.5196 9.5281 56.0301 9.85984C56.5405 10.1916 56.9004 10.7103 57.0325 11.3046C57.1645 11.8989 57.0582 12.5213 56.7363 13.038C56.4144 13.5547 55.9026 13.9245 55.311 14.0679L54.8202 14.1772C54.5303 13.4677 54.3012 12.7349 54.1354 11.9866C53.9657 11.2133 53.8649 10.4264 53.8342 9.63533L54.3027 9.53049Z" fill="#5468FF"/>
<path d="M53.8367 9.67112L54.7825 9.46143C54.1133 10.4341 53.6024 12.1205 55.6949 14.0189L54.845 14.2085C54.5438 13.4871 54.3065 12.7406 54.1356 11.9778C54.0441 11.5695 53.9817 11.1702 53.9304 10.7731C53.8791 10.376 53.8523 10.0347 53.8367 9.67112Z" fill="#5468FF"/>
<path opacity="0.2" d="M53.8367 9.67112L54.7825 9.46143C54.1133 10.4341 53.6024 12.1205 55.6949 14.0189L54.845 14.2085C54.5438 13.4871 54.3065 12.7406 54.1356 11.9778C54.0441 11.5695 53.9817 11.1702 53.9304 10.7731C53.8791 10.376 53.8523 10.0347 53.8367 9.67112Z" fill="#000D44"/>
<path d="M23.0205 30.7967C23.0205 30.7967 19.0899 40.7929 22.1952 47.927L18.7419 48.6765C18.7419 48.6765 13.5665 40.8888 15.9668 30.9953C18.1463 22.0052 22.2688 19.9551 22.2688 19.9551C23.0764 20.4089 23.7636 21.0496 24.2728 21.8235C24.782 22.5974 25.0984 23.482 25.1956 24.4033C25.6283 28.2826 23.0205 30.7967 23.0205 30.7967Z" fill="#5468FF"/>
<path opacity="0.3" d="M23.0205 30.7967C23.0205 30.7967 19.0899 40.7929 22.1952 47.927L18.7419 48.6765C18.7419 48.6765 13.5665 40.8888 15.9668 30.9953C18.1463 22.0052 22.2688 19.9551 22.2688 19.9551C23.0764 20.4089 23.7636 21.0496 24.2728 21.8235C24.782 22.5974 25.0984 23.482 25.1956 24.4033C25.6283 28.2826 23.0205 30.7967 23.0205 30.7967Z" fill="#000D44"/>
<path d="M33.5634 5.88335C33.5634 5.88335 37.1817 7.3289 39.1649 4.78803C38.469 4.55246 37.8906 4.05795 37.5498 3.40717C36.8805 2.14008 35.3859 0.0966794 32.6733 0.0855254C28.7426 0.0676791 28.7984 3.19079 28.7984 3.19079L33.5634 5.88335Z" fill="#000D44"/>
<path d="M0.20166 104.672H131.843V106.209C131.843 106.519 131.72 106.816 131.5 107.035C131.281 107.255 130.984 107.378 130.674 107.378H1.37283C1.0628 107.378 0.765482 107.255 0.546264 107.035C0.327046 106.816 0.203891 106.519 0.203891 106.209V104.672H0.20166Z" fill="#5468FF"/>
<path d="M18.2087 32.7622H114.61C115.643 32.7622 116.634 33.1726 117.364 33.903C118.095 34.6335 118.505 35.6242 118.505 36.6572V101.772H14.3137V36.6572C14.3137 35.6242 14.7241 34.6335 15.4545 33.903C16.185 33.1726 17.1757 32.7622 18.2087 32.7622Z" fill="#5468FF"/>
<path d="M114.155 37.498H18.6638V97.8097H114.155V37.498Z" fill="white"/>
<path opacity="0.05" d="M114.155 37.498H18.6638V97.8097H114.155V37.498Z" fill="#5468FF"/>
<path d="M0.20166 101H131.843V104.672H0.513971C0.431733 104.672 0.352863 104.639 0.294711 104.581C0.23656 104.523 0.203891 104.444 0.203891 104.362V101H0.20166Z" fill="#5468FF"/>
<path opacity="0.2" d="M0.20166 101H131.843V104.672H0.513971C0.431733 104.672 0.352863 104.639 0.294711 104.581C0.23656 104.523 0.203891 104.444 0.203891 104.362V101H0.20166Z" fill="#000D44"/>
<path d="M80.8114 101C80.8114 101.665 80.5474 102.304 80.0773 102.775C79.6072 103.246 78.9694 103.511 78.304 103.512H58.0038C57.3376 103.512 56.6987 103.247 56.2277 102.776C55.7566 102.305 55.4919 101.666 55.4919 101" fill="#5468FF"/>
<path opacity="0.5" d="M80.8114 101C80.8114 101.665 80.5474 102.304 80.0773 102.775C79.6072 103.246 78.9694 103.511 78.304 103.512H58.0038C57.3376 103.512 56.6987 103.247 56.2277 102.776C55.7566 102.305 55.4919 101.666 55.4919 101" fill="#000D44"/>
<path d="M49.4106 68.9189H24.1715C23.6479 68.9189 23.2234 69.3434 23.2234 69.867V79.8431C23.2234 80.3667 23.6479 80.7912 24.1715 80.7912H49.4106C49.9343 80.7912 50.3587 80.3667 50.3587 79.8431V69.867C50.3587 69.3434 49.9343 68.9189 49.4106 68.9189Z" fill="#5468FF"/>
<path d="M50.2361 67.0272H48.8575V66.6882H50.225L50.2384 67.0272H50.2361ZM47.5034 67.0272H46.1359V66.6882H47.5034V67.0272ZM44.7707 67.0272H43.4032V66.6882H44.7707V67.0272ZM42.038 67.0272H40.6705V66.6882H42.038V67.0272ZM39.3053 67.0272H37.9266V66.6882H39.2941L39.3053 67.0272ZM36.5725 67.0272H35.2051V66.6882H36.5725V67.0272ZM33.8398 67.0272H32.4724V66.6882H33.8398V67.0272ZM31.1071 67.0272H29.7396V66.6882H31.1071V67.0272ZM28.3744 67.0272H26.9958V66.6882H28.3632L28.3744 67.0272ZM25.6417 67.0272H24.2742V66.6882H25.6417V67.0272ZM23.4109 66.4762H23.0718V65.1088H23.4109V66.4762ZM50.5462 65.5572H50.196V64.1897H50.5351L50.5462 65.5572ZM23.4109 63.7435H23.0718V62.3761H23.4109V63.7435ZM50.5306 62.8222H50.196V61.4614H50.5351L50.5306 62.8222ZM23.393 61.0153H23.054V59.6478H23.393V61.0153ZM50.5284 60.0962H50.196V58.7287H50.5351L50.5284 60.0962ZM23.393 58.2825H23.054V56.9151H23.393V58.2825ZM50.5284 57.3635H50.196V55.996H50.5351L50.5284 57.3635ZM23.393 55.5498H23.054V54.1824H23.393V55.5498ZM50.5284 54.6307H50.196V53.2633H50.5351L50.5284 54.6307ZM23.393 52.8171H23.054V51.4496H23.393V52.8171ZM50.5284 51.898H50.196V50.5306H50.5351L50.5284 51.898ZM23.393 50.0844H23.054V48.7169H23.393V50.0844ZM50.5284 49.1653H50.196V47.7867H50.5351L50.5284 49.1653ZM23.393 47.3405H23.054V45.9731H23.393V47.3405ZM50.5284 46.4214H50.196V45.054H50.5351L50.5284 46.4214ZM23.393 44.6078H23.054V43.2403H23.393V44.6078ZM50.5284 43.6887H50.196V42.3212H50.5351L50.5284 43.6887ZM23.393 41.8751H23.054V40.7017C23.0545 40.6249 23.0848 40.5513 23.1385 40.4964C23.1921 40.4415 23.265 40.4095 23.3417 40.4072V40.7463C23.3532 40.7457 23.364 40.7408 23.3718 40.7325C23.3797 40.7242 23.3841 40.7131 23.3841 40.7017L23.393 41.8751ZM50.5284 40.956H50.196V40.7485H49.3237V40.4095H50.2406C50.3187 40.4095 50.3936 40.4405 50.4488 40.4957C50.504 40.5509 50.5351 40.6258 50.5351 40.7039L50.5284 40.956ZM47.9496 40.7485H46.5821V40.4095H47.9496V40.7485ZM45.2169 40.7485H43.8494V40.4095H45.2169V40.7485ZM42.4841 40.7485H41.1167V40.4095H42.4841V40.7485ZM39.7514 40.7485H38.3728V40.4095H39.7403L39.7514 40.7485ZM37.0187 40.7485H35.6512V40.4095H37.0187V40.7485ZM34.286 40.7485H32.9185V40.4095H34.286V40.7485ZM31.5533 40.7485H30.1858V40.4095H31.5533V40.7485ZM28.8205 40.7485H27.4419V40.4095H28.8094L28.8205 40.7485ZM26.0878 40.7485H24.7204V40.4095H26.0878V40.7485Z" fill="#5468FF"/>
<path d="M108.277 68.9189H83.0374C82.5138 68.9189 82.0894 69.3434 82.0894 69.867V94.089C82.0894 94.6126 82.5138 95.037 83.0374 95.037H108.277C108.8 95.037 109.225 94.6126 109.225 94.089V69.867C109.225 69.3434 108.8 68.9189 108.277 68.9189Z" fill="#5468FF"/>
<path d="M78.7593 68.9189H53.5201C52.9965 68.9189 52.572 69.3434 52.572 69.867V94.0667C52.572 94.5903 52.9965 95.0147 53.5201 95.0147H78.7593C79.2829 95.0147 79.7074 94.5903 79.7074 94.0667V69.867C79.7074 69.3434 79.2829 68.9189 78.7593 68.9189Z" fill="#5468FF"/>
<path d="M108.09 40.4897H53.4017C52.8781 40.4897 52.4536 40.9142 52.4536 41.4378V65.6374C52.4536 66.1611 52.8781 66.5855 53.4017 66.5855H108.09C108.613 66.5855 109.038 66.1611 109.038 65.6374V41.4378C109.038 40.9142 108.613 40.4897 108.09 40.4897Z" fill="#5468FF"/>
<path d="M49.4106 83.1802H24.1715C23.6479 83.1802 23.2234 83.6046 23.2234 84.1283V94.1044C23.2234 94.628 23.6479 95.0524 24.1715 95.0524H49.4106C49.9343 95.0524 50.3587 94.628 50.3587 94.1044V84.1283C50.3587 83.6046 49.9343 83.1802 49.4106 83.1802Z" fill="#5468FF"/>
<path d="M103.744 72.6979C104.218 72.6979 104.603 72.3104 104.603 71.8323C104.603 71.3543 104.218 70.9668 103.744 70.9668C103.27 70.9668 102.885 71.3543 102.885 71.8323C102.885 72.3104 103.27 72.6979 103.744 72.6979Z" fill="white"/>
<path d="M91.5237 72.5774H84.7265C84.5862 72.5774 84.4518 72.5217 84.3526 72.4226C84.2535 72.3234 84.1978 72.1889 84.1978 72.0487C84.1978 71.9085 84.2535 71.774 84.3526 71.6749C84.4518 71.5757 84.5862 71.52 84.7265 71.52H91.5259C91.6661 71.52 91.8006 71.5757 91.8997 71.6749C91.9989 71.774 92.0546 71.9085 92.0546 72.0487C92.0546 72.1183 92.0408 72.1873 92.0141 72.2515C91.9874 72.3158 91.9483 72.3742 91.899 72.4233C91.8496 72.4725 91.7911 72.5114 91.7267 72.5378C91.6623 72.5642 91.5933 72.5777 91.5237 72.5774Z" fill="white"/>
<path d="M100.514 72.5774H93.7142C93.574 72.5774 93.4395 72.5217 93.3404 72.4226C93.2412 72.3234 93.1855 72.1889 93.1855 72.0487C93.1855 71.9085 93.2412 71.774 93.3404 71.6749C93.4395 71.5757 93.574 71.52 93.7142 71.52H100.514C100.654 71.52 100.788 71.5757 100.888 71.6749C100.987 71.774 101.042 71.9085 101.042 72.0487C101.042 72.1889 100.987 72.3234 100.888 72.4226C100.788 72.5217 100.654 72.5774 100.514 72.5774Z" fill="white"/>
<path d="M106.289 72.6979C106.763 72.6979 107.148 72.3104 107.148 71.8323C107.148 71.3543 106.763 70.9668 106.289 70.9668C105.815 70.9668 105.43 71.3543 105.43 71.8323C105.43 72.3104 105.815 72.6979 106.289 72.6979Z" fill="white"/>
<path d="M55.4203 83.2113C55.3849 83.2114 55.3504 83.2005 55.3215 83.18C55.2926 83.1596 55.2709 83.1306 55.2593 83.0971C55.2477 83.0636 55.2469 83.0274 55.257 82.9935C55.2671 82.9595 55.2875 82.9296 55.3155 82.9079C56.4287 82.0358 57.6338 81.2878 58.9093 80.6771C59.5667 80.3585 60.2476 80.0908 60.946 79.8762C61.4854 79.7366 61.9933 79.4959 62.4429 79.1668C63.5203 78.3816 64.0044 77.4625 64.4015 76.7263C64.7986 75.9902 65.1354 75.35 65.9095 75.2362C66.6278 75.1313 67.1275 75.5596 67.6116 75.9723C68.0957 76.385 68.582 76.8022 69.3159 76.762C70.0097 76.7241 70.4135 76.3159 71.0849 75.6466C71.5631 75.1517 72.0728 74.6882 72.6108 74.2591C73.9761 73.1883 75.5108 72.6819 76.8092 72.8671C76.8313 72.8703 76.8525 72.8778 76.8717 72.8893C76.8909 72.9007 76.9077 72.9158 76.9211 72.9338C76.9344 72.9517 76.9441 72.9721 76.9496 72.9937C76.9551 73.0154 76.9563 73.0379 76.953 73.06C76.9498 73.0822 76.9423 73.1034 76.9308 73.1226C76.9194 73.1418 76.9043 73.1586 76.8864 73.1719C76.8684 73.1853 76.8481 73.195 76.8264 73.2005C76.8047 73.206 76.7822 73.2072 76.7601 73.2039C75.5488 73.0299 74.1099 73.5118 72.8183 74.5268C72.2901 74.9471 71.7901 75.4017 71.3214 75.8876C70.6522 76.568 70.1525 77.061 69.3293 77.1056C68.4593 77.1547 67.8882 76.6594 67.3863 76.2356C66.9201 75.8385 66.5185 75.495 65.9541 75.5663C65.3496 75.6556 65.0752 76.1686 64.696 76.8803C64.2877 77.6477 63.7769 78.6047 62.6369 79.4368C62.1576 79.7874 61.6165 80.0448 61.0419 80.1952C60.3582 80.405 59.6914 80.6668 59.0476 80.9782C57.7953 81.5766 56.6119 82.3097 55.5185 83.1644C55.4918 83.1904 55.4573 83.2068 55.4203 83.2113Z" fill="white"/>
<path d="M56.9463 87.2915H54.5728V92.8774H56.9463V87.2915Z" fill="white"/>
<path d="M63.844 83.854H61.4705V92.8798H63.844V83.854Z" fill="white"/>
<path d="M60.3953 85.4312H58.0217V92.8798H60.3953V85.4312Z" fill="white"/>
<path d="M67.293 80.8467H64.9194V92.8796H67.293V80.8467Z" fill="white"/>
<path d="M70.7417 81.8486H68.3682V92.8799H70.7417V81.8486Z" fill="white"/>
<path d="M74.1883 79.8428H71.8147V92.7367H74.1883V79.8428Z" fill="white"/>
<path d="M77.637 78.123H75.2634V92.8775H77.637V78.123Z" fill="white"/>
<path d="M79.1069 51.1995H65.3764C65.2361 51.1995 65.1017 51.1438 65.0025 51.0446C64.9034 50.9455 64.8477 50.811 64.8477 50.6708C64.8477 50.5306 64.9034 50.3961 65.0025 50.2969C65.1017 50.1978 65.2361 50.1421 65.3764 50.1421H79.1069C79.2471 50.1421 79.3816 50.1978 79.4807 50.2969C79.5799 50.3961 79.6356 50.5306 79.6356 50.6708C79.6356 50.811 79.5799 50.9455 79.4807 51.0446C79.3816 51.1438 79.2471 51.1995 79.1069 51.1995Z" fill="white"/>
<path d="M77.1081 53.6399H65.3764C65.2361 53.6399 65.1017 53.5842 65.0025 53.4851C64.9034 53.3859 64.8477 53.2514 64.8477 53.1112C64.8477 52.971 64.9034 52.8365 65.0025 52.7374C65.1017 52.6382 65.2361 52.5825 65.3764 52.5825H77.1081C77.2483 52.5825 77.3828 52.6382 77.4819 52.7374C77.5811 52.8365 77.6368 52.971 77.6368 53.1112C77.6368 53.2514 77.5811 53.3859 77.4819 53.4851C77.3828 53.5842 77.2483 53.6399 77.1081 53.6399Z" fill="white"/>
<path d="M79.1069 56.0716H65.3764C65.2361 56.0716 65.1017 56.0159 65.0025 55.9167C64.9034 55.8176 64.8477 55.6831 64.8477 55.5429C64.8477 55.4026 64.9034 55.2682 65.0025 55.169C65.1017 55.0699 65.2361 55.0142 65.3764 55.0142H79.1069C79.2471 55.0142 79.3816 55.0699 79.4807 55.169C79.5799 55.2682 79.6356 55.4026 79.6356 55.5429C79.6356 55.6831 79.5799 55.8176 79.4807 55.9167C79.3816 56.0159 79.2471 56.0716 79.1069 56.0716Z" fill="white"/>
<path d="M63.0343 55.0122H55.0458C54.7538 55.0122 54.5171 55.2489 54.5171 55.5409V55.5431C54.5171 55.8351 54.7538 56.0718 55.0458 56.0718H63.0343C63.3262 56.0718 63.563 55.8351 63.563 55.5431V55.5409C63.563 55.2489 63.3262 55.0122 63.0343 55.0122Z" fill="white"/>
<path d="M74.0653 58.5032H65.3764C65.2361 58.5032 65.1017 58.4475 65.0025 58.3483C64.9034 58.2492 64.8477 58.1147 64.8477 57.9745C64.8477 57.8343 64.9034 57.6998 65.0025 57.6007C65.1017 57.5015 65.2361 57.4458 65.3764 57.4458H74.0653C74.2055 57.4458 74.34 57.5015 74.4391 57.6007C74.5383 57.6998 74.594 57.8343 74.594 57.9745C74.594 58.1147 74.5383 58.2492 74.4391 58.3483C74.34 58.4475 74.2055 58.5032 74.0653 58.5032Z" fill="white"/>
<path d="M61.6757 58.5032H55.0458C54.9056 58.5032 54.7711 58.4475 54.6719 58.3483C54.5728 58.2492 54.5171 58.1147 54.5171 57.9745C54.5171 57.8343 54.5728 57.6998 54.6719 57.6007C54.7711 57.5015 54.9056 57.4458 55.0458 57.4458H61.6757C61.8159 57.4458 61.9504 57.5015 62.0495 57.6007C62.1487 57.6998 62.2044 57.8343 62.2044 57.9745C62.2044 58.1147 62.1487 58.2492 62.0495 58.3483C61.9504 58.4475 61.8159 58.5032 61.6757 58.5032Z" fill="white"/>
<path d="M79.1069 60.9348H65.3764C65.3069 60.9348 65.2382 60.9212 65.174 60.8946C65.1099 60.868 65.0516 60.8291 65.0025 60.78C64.9534 60.7309 64.9145 60.6726 64.8879 60.6085C64.8613 60.5443 64.8477 60.4756 64.8477 60.4061C64.8477 60.2659 64.9034 60.1314 65.0025 60.0323C65.1017 59.9331 65.2361 59.8774 65.3764 59.8774H79.1069C79.2471 59.8774 79.3816 59.9331 79.4807 60.0323C79.5799 60.1314 79.6356 60.2659 79.6356 60.4061C79.6356 60.4756 79.6219 60.5443 79.5953 60.6085C79.5687 60.6726 79.5298 60.7309 79.4807 60.78C79.4316 60.8291 79.3733 60.868 79.3092 60.8946C79.245 60.9212 79.1763 60.9348 79.1069 60.9348Z" fill="white"/>
<path d="M63.0432 60.9348H55.0458C54.9764 60.9348 54.9076 60.9212 54.8435 60.8946C54.7793 60.868 54.721 60.8291 54.6719 60.78C54.6228 60.7309 54.5839 60.6726 54.5573 60.6085C54.5308 60.5443 54.5171 60.4756 54.5171 60.4061C54.5171 60.2659 54.5728 60.1314 54.6719 60.0323C54.7711 59.9331 54.9056 59.8774 55.0458 59.8774H63.0432C63.1834 59.8774 63.3179 59.9331 63.417 60.0323C63.5162 60.1314 63.5719 60.2659 63.5719 60.4061C63.5719 60.4756 63.5582 60.5443 63.5316 60.6085C63.5051 60.6726 63.4661 60.7309 63.417 60.78C63.3679 60.8291 63.3096 60.868 63.2455 60.8946C63.1814 60.9212 63.1126 60.9348 63.0432 60.9348Z" fill="white"/>
<path d="M86.6871 47.6507C88.0917 47.6507 89.2303 46.5121 89.2303 45.1076C89.2303 43.703 88.0917 42.5645 86.6871 42.5645C85.2826 42.5645 84.144 43.703 84.144 45.1076C84.144 46.5121 85.2826 47.6507 86.6871 47.6507Z" fill="white"/>
<path d="M106.635 44.6634H91.421C91.2808 44.6634 91.1463 44.6077 91.0472 44.5085C90.948 44.4094 90.8923 44.2749 90.8923 44.1347C90.8923 43.9944 90.948 43.86 91.0472 43.7608C91.1463 43.6617 91.2808 43.606 91.421 43.606H106.635C106.775 43.606 106.91 43.6617 107.009 43.7608C107.108 43.86 107.164 43.9944 107.164 44.1347C107.164 44.2749 107.108 44.4094 107.009 44.5085C106.91 44.6077 106.775 44.6634 106.635 44.6634Z" fill="white"/>
<path d="M99.3267 46.0352H91.4186C91.1266 46.0352 90.8899 46.2719 90.8899 46.5639V46.5661C90.8899 46.8581 91.1266 47.0948 91.4186 47.0948H99.3267C99.6187 47.0948 99.8554 46.8581 99.8554 46.5661V46.5639C99.8554 46.2719 99.6187 46.0352 99.3267 46.0352Z" fill="white"/>
<path d="M86.5177 56.0852C87.9222 56.0852 89.0608 54.9466 89.0608 53.5421C89.0608 52.1376 87.9222 50.999 86.5177 50.999C85.1132 50.999 83.9746 52.1376 83.9746 53.5421C83.9746 54.9466 85.1132 56.0852 86.5177 56.0852Z" fill="white"/>
<path d="M106.635 53.0979H91.421C91.2808 53.0979 91.1463 53.0422 91.0472 52.9431C90.948 52.8439 90.8923 52.7094 90.8923 52.5692C90.8923 52.429 90.948 52.2945 91.0472 52.1954C91.1463 52.0962 91.2808 52.0405 91.421 52.0405H106.635C106.775 52.0405 106.91 52.0962 107.009 52.1954C107.108 52.2945 107.164 52.429 107.164 52.5692C107.164 52.7094 107.108 52.8439 107.009 52.9431C106.91 53.0422 106.775 53.0979 106.635 53.0979Z" fill="white"/>
<path d="M99.327 55.5296H91.421C91.2808 55.5296 91.1463 55.4739 91.0472 55.3747C90.948 55.2756 90.8923 55.1411 90.8923 55.0009C90.8923 54.8606 90.948 54.7262 91.0472 54.627C91.1463 54.5279 91.2808 54.4722 91.421 54.4722H99.327C99.4672 54.4722 99.6017 54.5279 99.7008 54.627C99.8 54.7262 99.8557 54.8606 99.8557 55.0009C99.8557 55.1411 99.8 55.2756 99.7008 55.3747C99.6017 55.4739 99.4672 55.5296 99.327 55.5296Z" fill="white"/>
<path d="M86.6871 64.5217C88.0917 64.5217 89.2303 63.3832 89.2303 61.9786C89.2303 60.5741 88.0917 59.4355 86.6871 59.4355C85.2826 59.4355 84.144 60.5741 84.144 61.9786C84.144 63.3832 85.2826 64.5217 86.6871 64.5217Z" fill="white"/>
<path d="M106.635 61.5325H91.421C91.2808 61.5325 91.1463 61.4768 91.0472 61.3776C90.948 61.2785 90.8923 61.144 90.8923 61.0038C90.8923 60.8636 90.948 60.7291 91.0472 60.63C91.1463 60.5308 91.2808 60.4751 91.421 60.4751H106.635C106.775 60.4751 106.91 60.5308 107.009 60.63C107.108 60.7291 107.164 60.8636 107.164 61.0038C107.164 61.144 107.108 61.2785 107.009 61.3776C106.91 61.4768 106.775 61.5325 106.635 61.5325Z" fill="white"/>
<path d="M99.327 63.9641H91.421C91.3516 63.9641 91.2829 63.9505 91.2187 63.9239C91.1546 63.8973 91.0963 63.8584 91.0472 63.8093C90.9981 63.7602 90.9592 63.7019 90.9326 63.6378C90.906 63.5736 90.8923 63.5049 90.8923 63.4354C90.8923 63.2952 90.948 63.1607 91.0472 63.0616C91.1463 62.9624 91.2808 62.9067 91.421 62.9067H99.327C99.4672 62.9067 99.6017 62.9624 99.7008 63.0616C99.8 63.1607 99.8557 63.2952 99.8557 63.4354C99.8557 63.5049 99.842 63.5736 99.8154 63.6378C99.7888 63.7019 99.7499 63.7602 99.7008 63.8093C99.6517 63.8584 99.5934 63.8973 99.5293 63.9239C99.4651 63.9505 99.3964 63.9641 99.327 63.9641Z" fill="white"/>
<path d="M106.131 78.3328H85.1012C84.8314 78.3328 84.5727 78.2256 84.3819 78.0349C84.1912 77.8441 84.084 77.5854 84.084 77.3156C84.084 77.0458 84.1912 76.787 84.3819 76.5963C84.5727 76.4055 84.8314 76.2983 85.1012 76.2983H106.131C106.401 76.2983 106.659 76.4055 106.85 76.5963C107.041 76.787 107.148 77.0458 107.148 77.3156C107.148 77.5854 107.041 77.8441 106.85 78.0349C106.659 78.2256 106.401 78.3328 106.131 78.3328Z" fill="white"/>
<path d="M106.131 82.4017H85.1012C84.8314 82.4017 84.5727 82.2945 84.3819 82.1037C84.1912 81.913 84.084 81.6542 84.084 81.3844C84.084 81.1146 84.1912 80.8559 84.3819 80.6651C84.5727 80.4744 84.8314 80.3672 85.1012 80.3672H106.131C106.401 80.3672 106.659 80.4744 106.85 80.6651C107.041 80.8559 107.148 81.1146 107.148 81.3844C107.148 81.6542 107.041 81.913 106.85 82.1037C106.659 82.2945 106.401 82.4017 106.131 82.4017Z" fill="white"/>
<path d="M92.7328 82.4017H85.1012C84.8314 82.4017 84.5727 82.2945 84.3819 82.1037C84.1912 81.913 84.084 81.6542 84.084 81.3844C84.084 81.1146 84.1912 80.8559 84.3819 80.6651C84.5727 80.4744 84.8314 80.3672 85.1012 80.3672H92.7328C93.0025 80.3672 93.2613 80.4744 93.4521 80.6651C93.6428 80.8559 93.75 81.1146 93.75 81.3844C93.75 81.6542 93.6428 81.913 93.4521 82.1037C93.2613 82.2945 93.0025 82.4017 92.7328 82.4017Z" fill="white"/>
<path d="M96.1258 78.3328H85.1012C84.8314 78.3328 84.5727 78.2256 84.3819 78.0349C84.1912 77.8441 84.084 77.5854 84.084 77.3156C84.084 77.0458 84.1912 76.787 84.3819 76.5963C84.5727 76.4055 84.8314 76.2983 85.1012 76.2983H96.1258C96.3956 76.2983 96.6543 76.4055 96.8451 76.5963C97.0359 76.787 97.143 77.0458 97.143 77.3156C97.143 77.4492 97.1167 77.5814 97.0656 77.7049C97.0145 77.8283 96.9396 77.9404 96.8451 78.0349C96.7506 78.1293 96.6385 78.2043 96.5151 78.2554C96.3917 78.3065 96.2594 78.3328 96.1258 78.3328Z" fill="white"/>
<path d="M106.131 86.473H85.1012C84.8314 86.473 84.5727 86.3658 84.3819 86.175C84.1912 85.9842 84.084 85.7255 84.084 85.4557C84.084 85.1859 84.1912 84.9272 84.3819 84.7364C84.5727 84.5457 84.8314 84.4385 85.1012 84.4385H106.131C106.401 84.4385 106.659 84.5457 106.85 84.7364C107.041 84.9272 107.148 85.1859 107.148 85.4557C107.148 85.7255 107.041 85.9842 106.85 86.175C106.659 86.3658 106.401 86.473 106.131 86.473Z" fill="white"/>
<path d="M96.4649 86.473H85.1012C84.8314 86.473 84.5727 86.3658 84.3819 86.175C84.1912 85.9842 84.084 85.7255 84.084 85.4557C84.084 85.1859 84.1912 84.9272 84.3819 84.7364C84.5727 84.5457 84.8314 84.4385 85.1012 84.4385H96.4649C96.7347 84.4385 96.9934 84.5457 97.1842 84.7364C97.3749 84.9272 97.4821 85.1859 97.4821 85.4557C97.4821 85.7255 97.3749 85.9842 97.1842 86.175C96.9934 86.3658 96.7347 86.473 96.4649 86.473Z" fill="white"/>
<path d="M106.133 88.3379H85.1012C84.5394 88.3379 84.084 88.7933 84.084 89.3551C84.084 89.9169 84.5394 90.3724 85.1012 90.3724H106.133C106.695 90.3724 107.15 89.9169 107.15 89.3551C107.15 88.7933 106.695 88.3379 106.133 88.3379Z" fill="white"/>
<path d="M100.605 88.3379H84.5235C84.2807 88.3379 84.084 88.5346 84.084 88.7774V89.9329C84.084 90.1756 84.2807 90.3724 84.5235 90.3724H100.605C100.848 90.3724 101.045 90.1756 101.045 89.9329V88.7774C101.045 88.5346 100.848 88.3379 100.605 88.3379Z" fill="white"/>
<path opacity="0.5" d="M92.7328 82.4017H85.1012C84.8314 82.4017 84.5727 82.2945 84.3819 82.1037C84.1912 81.913 84.084 81.6542 84.084 81.3844C84.084 81.1146 84.1912 80.8559 84.3819 80.6651C84.5727 80.4744 84.8314 80.3672 85.1012 80.3672H92.7328C93.0025 80.3672 93.2613 80.4744 93.4521 80.6651C93.6428 80.8559 93.75 81.1146 93.75 81.3844C93.75 81.6542 93.6428 81.913 93.4521 82.1037C93.2613 82.2945 93.0025 82.4017 92.7328 82.4017Z" fill="#5468FF"/>
<path opacity="0.5" d="M96.1258 78.3328H85.1012C84.8314 78.3328 84.5727 78.2256 84.3819 78.0349C84.1912 77.8441 84.084 77.5854 84.084 77.3156C84.084 77.0458 84.1912 76.787 84.3819 76.5963C84.5727 76.4055 84.8314 76.2983 85.1012 76.2983H96.1258C96.3956 76.2983 96.6543 76.4055 96.8451 76.5963C97.0359 76.787 97.143 77.0458 97.143 77.3156C97.143 77.4492 97.1167 77.5814 97.0656 77.7049C97.0145 77.8283 96.9396 77.9404 96.8451 78.0349C96.7506 78.1293 96.6385 78.2043 96.5151 78.2554C96.3917 78.3065 96.2594 78.3328 96.1258 78.3328Z" fill="#5468FF"/>
<path opacity="0.5" d="M96.4649 86.473H85.1012C84.8314 86.473 84.5727 86.3658 84.3819 86.175C84.1912 85.9842 84.084 85.7255 84.084 85.4557C84.084 85.1859 84.1912 84.9272 84.3819 84.7364C84.5727 84.5457 84.8314 84.4385 85.1012 84.4385H96.4649C96.7347 84.4385 96.9934 84.5457 97.1842 84.7364C97.3749 84.9272 97.4821 85.1859 97.4821 85.4557C97.4821 85.7255 97.3749 85.9842 97.1842 86.175C96.9934 86.3658 96.7347 86.473 96.4649 86.473Z" fill="#5468FF"/>
<path opacity="0.5" d="M100.605 88.3379H84.5235C84.2807 88.3379 84.084 88.5346 84.084 88.7774V89.9329C84.084 90.1756 84.2807 90.3724 84.5235 90.3724H100.605C100.848 90.3724 101.045 90.1756 101.045 89.9329V88.7774C101.045 88.5346 100.848 88.3379 100.605 88.3379Z" fill="#5468FF"/>
<path d="M32.3496 73.3914V76.6082C32.3496 76.7431 32.296 76.8725 32.2006 76.9678C32.1052 77.0632 31.9758 77.1168 31.8409 77.1168H25.7464C25.6115 77.1168 25.4822 77.0632 25.3868 76.9678C25.2914 76.8725 25.2378 76.7431 25.2378 76.6082V73.3892L28.8071 75.2385L32.3496 73.3914Z" fill="white"/>
<path d="M32.3607 72.5928V72.6285L28.7981 74.4733L25.2378 72.624V72.5928H32.3607Z" fill="white"/>
<path d="M32.4412 73.8844C33.1435 73.8844 33.7128 73.3151 33.7128 72.6129C33.7128 71.9106 33.1435 71.3413 32.4412 71.3413C31.739 71.3413 31.1697 71.9106 31.1697 72.6129C31.1697 73.3151 31.739 73.8844 32.4412 73.8844Z" fill="white"/>
<path d="M32.4409 73.0367C32.675 73.0367 32.8648 72.8469 32.8648 72.6128C32.8648 72.3787 32.675 72.189 32.4409 72.189C32.2069 72.189 32.0171 72.3787 32.0171 72.6128C32.0171 72.8469 32.2069 73.0367 32.4409 73.0367Z" fill="white"/>
<path d="M32.2828 88.5277L31.8879 88.3871C31.8206 88.3632 31.7591 88.3253 31.7073 88.2761C31.6555 88.2269 31.6147 88.1673 31.5873 88.1013C31.56 88.0353 31.5468 87.9643 31.5486 87.8929C31.5505 87.8214 31.5673 87.7512 31.5979 87.6867L31.7764 87.3097C31.8316 87.1932 31.8495 87.0625 31.8276 86.9355C31.8056 86.8085 31.7449 86.6914 31.6537 86.6002C31.5626 86.5091 31.4455 86.4484 31.3185 86.4264C31.1914 86.4044 31.0607 86.4223 30.9443 86.4776L30.5673 86.656C30.5028 86.6867 30.4325 86.7035 30.3611 86.7053C30.2897 86.7071 30.2187 86.6939 30.1526 86.6666C30.0866 86.6393 30.0271 86.5984 29.9779 86.5466C29.9286 86.4949 29.8908 86.4333 29.8668 86.366L29.7263 85.9712C29.6832 85.8494 29.6035 85.7439 29.498 85.6693C29.3925 85.5947 29.2665 85.5547 29.1374 85.5547C29.0082 85.5547 28.8822 85.5947 28.7767 85.6693C28.6712 85.7439 28.5915 85.8494 28.5484 85.9712L28.4079 86.366C28.3839 86.4333 28.3461 86.4949 28.2969 86.5466C28.2476 86.5984 28.1881 86.6393 28.1221 86.6666C28.0561 86.6939 27.985 86.7071 27.9136 86.7053C27.8422 86.7035 27.772 86.6867 27.7074 86.656L27.3304 86.4776C27.214 86.4223 27.0833 86.4044 26.9562 86.4264C26.8292 86.4484 26.7121 86.5091 26.621 86.6002C26.5298 86.6914 26.4691 86.8085 26.4472 86.9355C26.4252 87.0625 26.4431 87.1932 26.4983 87.3097L26.6768 87.6867C26.7075 87.7512 26.7242 87.8214 26.7261 87.8929C26.7279 87.9643 26.7147 88.0353 26.6874 88.1013C26.66 88.1673 26.6192 88.2269 26.5674 88.2761C26.5156 88.3253 26.4541 88.3632 26.3868 88.3871L25.9919 88.5277C25.8701 88.5707 25.7647 88.6505 25.6901 88.7559C25.6155 88.8614 25.5754 88.9874 25.5754 89.1166C25.5754 89.2458 25.6155 89.3718 25.6901 89.4773C25.7647 89.5827 25.8701 89.6625 25.9919 89.7055L26.3868 89.8461C26.4541 89.87 26.5156 89.9079 26.5674 89.9571C26.6192 90.0063 26.66 90.0659 26.6874 90.1319C26.7147 90.1979 26.7279 90.2689 26.7261 90.3403C26.7242 90.4118 26.7075 90.482 26.6768 90.5465L26.4983 90.9235C26.4431 91.04 26.4252 91.1707 26.4472 91.2977C26.4691 91.4247 26.5298 91.5418 26.621 91.633C26.7121 91.7241 26.8292 91.7848 26.9562 91.8068C27.0833 91.8288 27.214 91.8109 27.3304 91.7556L27.7074 91.5772C27.772 91.5465 27.8422 91.5297 27.9136 91.5279C27.985 91.5261 28.0561 91.5393 28.1221 91.5666C28.1881 91.5939 28.2476 91.6348 28.2969 91.6866C28.3461 91.7383 28.3839 91.7999 28.4079 91.8672L28.5484 92.262C28.5915 92.3838 28.6712 92.4893 28.7767 92.5639C28.8822 92.6385 29.0082 92.6785 29.1374 92.6785C29.2665 92.6785 29.3925 92.6385 29.498 92.5639C29.6035 92.4893 29.6832 92.3838 29.7263 92.262L29.8668 91.8672C29.8908 91.8001 29.9286 91.7389 29.9777 91.6873C30.0267 91.6357 30.086 91.595 30.1518 91.5677C30.2175 91.5404 30.2883 91.5271 30.3594 91.5288C30.4306 91.5304 30.5006 91.5469 30.5651 91.5772L30.9421 91.7556C31.0585 91.8109 31.1892 91.8288 31.3162 91.8068C31.4432 91.7848 31.5604 91.7241 31.6515 91.633C31.7427 91.5418 31.8034 91.4247 31.8253 91.2977C31.8473 91.1707 31.8294 91.04 31.7741 90.9235L31.5957 90.5465C31.565 90.482 31.5482 90.4118 31.5464 90.3403C31.5446 90.2689 31.5578 90.1979 31.5851 90.1319C31.6124 90.0659 31.6533 90.0063 31.7051 89.9571C31.7569 89.9079 31.8184 89.87 31.8857 89.8461L32.2805 89.7055C32.4024 89.6627 32.508 89.5832 32.5828 89.4778C32.6576 89.3725 32.6979 89.2466 32.6982 89.1174C32.6984 88.9882 32.6586 88.8621 32.5842 88.7565C32.5098 88.6509 32.4045 88.5709 32.2828 88.5277ZM29.1374 90.6447C28.8351 90.6447 28.5397 90.5551 28.2884 90.3872C28.0371 90.2193 27.8412 89.9806 27.7256 89.7014C27.6099 89.4222 27.5797 89.1149 27.6386 88.8185C27.6976 88.5221 27.8431 88.2498 28.0568 88.0361C28.2705 87.8224 28.5428 87.6768 28.8392 87.6179C29.1357 87.5589 29.4429 87.5892 29.7221 87.7048C30.0014 87.8205 30.24 88.0163 30.4079 88.2676C30.5758 88.5189 30.6654 88.8144 30.6654 89.1166C30.6654 89.5219 30.5045 89.9106 30.2179 90.1971C29.9313 90.4837 29.5426 90.6447 29.1374 90.6447Z" fill="white"/>
<path d="M47.8424 74.177H35.089C35.0196 74.177 34.9508 74.1633 34.8867 74.1368C34.8225 74.1102 34.7642 74.0713 34.7152 74.0222C34.6661 73.9731 34.6271 73.9148 34.6005 73.8506C34.574 73.7865 34.5603 73.7178 34.5603 73.6483C34.5603 73.5081 34.616 73.3736 34.7152 73.2745C34.8143 73.1753 34.9488 73.1196 35.089 73.1196H47.8424C47.9826 73.1196 48.1171 73.1753 48.2163 73.2745C48.3154 73.3736 48.3711 73.5081 48.3711 73.6483C48.3711 73.7178 48.3574 73.7865 48.3309 73.8506C48.3043 73.9148 48.2654 73.9731 48.2163 74.0222C48.1672 74.0713 48.1089 74.1102 48.0448 74.1368C47.9806 74.1633 47.9119 74.177 47.8424 74.177Z" fill="white"/>
<path d="M41.6364 76.6018H35.089C34.9488 76.6018 34.8143 76.5461 34.7152 76.447C34.616 76.3478 34.5603 76.2133 34.5603 76.0731C34.5603 75.9329 34.616 75.7984 34.7152 75.6993C34.8143 75.6001 34.9488 75.5444 35.089 75.5444H41.6364C41.7766 75.5444 41.9111 75.6001 42.0102 75.6993C42.1094 75.7984 42.1651 75.9329 42.1651 76.0731C42.1651 76.2133 42.1094 76.3478 42.0102 76.447C41.9111 76.5461 41.7766 76.6018 41.6364 76.6018Z" fill="white"/>
<path d="M47.8424 88.4295H35.089C34.9488 88.4295 34.8143 88.3738 34.7152 88.2746C34.616 88.1755 34.5603 88.041 34.5603 87.9008C34.5603 87.7605 34.616 87.6261 34.7152 87.5269C34.8143 87.4278 34.9488 87.3721 35.089 87.3721H47.8424C47.9826 87.3721 48.1171 87.4278 48.2163 87.5269C48.3154 87.6261 48.3711 87.7605 48.3711 87.9008C48.3711 88.041 48.3154 88.1755 48.2163 88.2746C48.1171 88.3738 47.9826 88.4295 47.8424 88.4295Z" fill="white"/>
<path d="M41.6364 90.8606H35.089C34.9488 90.8606 34.8143 90.8049 34.7152 90.7058C34.616 90.6066 34.5603 90.4721 34.5603 90.3319C34.5603 90.1917 34.616 90.0572 34.7152 89.9581C34.8143 89.8589 34.9488 89.8032 35.089 89.8032H41.6364C41.7766 89.8032 41.9111 89.8589 42.0102 89.9581C42.1094 90.0572 42.1651 90.1917 42.1651 90.3319C42.1651 90.4721 42.1094 90.6066 42.0102 90.7058C41.9111 90.8049 41.7766 90.8606 41.6364 90.8606Z" fill="white"/>
<path d="M62.0681 42.9858H55.1995C54.4997 42.9858 53.9324 43.5531 53.9324 44.2529V51.1215C53.9324 51.8213 54.4997 52.3886 55.1995 52.3886H62.0681C62.7679 52.3886 63.3352 51.8213 63.3352 51.1215V44.2529C63.3352 43.5531 62.7679 42.9858 62.0681 42.9858Z" fill="white"/>
<path d="M55.4919 54.7401V51.4653H58.7668L55.4919 54.7401Z" fill="white"/>
<path d="M57.2384 47.4408C57.4688 47.4408 57.6939 47.3725 57.8854 47.2445C58.0769 47.1166 58.2261 46.9347 58.3143 46.7219C58.4024 46.5091 58.4255 46.275 58.3805 46.0491C58.3356 45.8232 58.2247 45.6157 58.0619 45.4529C57.899 45.29 57.6915 45.1791 57.4656 45.1342C57.2397 45.0893 57.0056 45.1123 56.7928 45.2005C56.58 45.2886 56.3982 45.4378 56.2702 45.6293C56.1423 45.8208 56.074 46.046 56.074 46.2763C56.074 46.4292 56.1041 46.5806 56.1626 46.7219C56.2211 46.8632 56.3069 46.9916 56.415 47.0997C56.5232 47.2078 56.6515 47.2936 56.7928 47.3521C56.9341 47.4106 57.0855 47.4408 57.2384 47.4408ZM57.2384 45.5781C57.3765 45.5781 57.5115 45.619 57.6264 45.6957C57.7412 45.7725 57.8307 45.8815 57.8835 46.0091C57.9364 46.1367 57.9502 46.2771 57.9233 46.4125C57.8963 46.548 57.8298 46.6724 57.7322 46.77C57.6345 46.8677 57.5101 46.9342 57.3747 46.9611C57.2392 46.9881 57.0988 46.9742 56.9712 46.9214C56.8437 46.8685 56.7346 46.779 56.6579 46.6642C56.5812 46.5494 56.5402 46.4144 56.5402 46.2763C56.5408 46.0915 56.6146 45.9145 56.7455 45.784C56.8764 45.6535 57.0536 45.5803 57.2384 45.5803V45.5781Z" fill="#5468FF"/>
<path d="M60.962 49.0712C60.962 48.8409 60.8937 48.6158 60.7658 48.4243C60.6378 48.2328 60.4559 48.0835 60.2432 47.9954C60.0304 47.9072 59.7962 47.8842 59.5704 47.9291C59.3445 47.974 59.137 48.085 58.9741 48.2478C58.8113 48.4107 58.7004 48.6182 58.6554 48.844C58.6105 49.0699 58.6336 49.3041 58.7217 49.5168C58.8098 49.7296 58.9591 49.9115 59.1506 50.0394C59.3421 50.1674 59.5672 50.2357 59.7975 50.2357C60.1064 50.2357 60.4026 50.113 60.6209 49.8946C60.8393 49.6762 60.962 49.3801 60.962 49.0712ZM59.0993 49.0712C59.0993 48.9331 59.1402 48.7981 59.217 48.6833C59.2937 48.5685 59.4027 48.479 59.5303 48.4261C59.6579 48.3733 59.7983 48.3594 59.9338 48.3864C60.0692 48.4133 60.1936 48.4798 60.2913 48.5775C60.3889 48.6751 60.4554 48.7995 60.4824 48.935C60.5093 49.0704 60.4955 49.2108 60.4426 49.3384C60.3898 49.466 60.3003 49.5751 60.1855 49.6518C60.0706 49.7285 59.9356 49.7694 59.7975 49.7694C59.6124 49.7694 59.4347 49.6959 59.3038 49.5649C59.1729 49.434 59.0993 49.2564 59.0993 49.0712Z" fill="#5468FF"/>
<path d="M59.1013 45.5805H60.3997L56.1433 49.8368L56.4712 50.167L60.7298 45.9084V47.209H61.1961V45.1143H59.1013V45.5805Z" fill="#5468FF"/>
<path d="M44.173 59.0452H29.269L36.7177 46.1445L44.173 59.0452ZM29.5524 58.8846H43.8941L36.7221 46.4635L29.5524 58.8846Z" fill="#5468FF"/>
<path d="M36.7176 50.4879C38.9438 50.4879 40.7486 48.6831 40.7486 46.4568C40.7486 44.2305 38.9438 42.4258 36.7176 42.4258C34.4913 42.4258 32.6865 44.2305 32.6865 46.4568C32.6865 48.6831 34.4913 50.4879 36.7176 50.4879Z" fill="#5468FF"/>
<path d="M28.7469 62.8467C30.9731 62.8467 32.7779 61.042 32.7779 58.8157C32.7779 56.5894 30.9731 54.7847 28.7469 54.7847C26.5206 54.7847 24.7158 56.5894 24.7158 58.8157C24.7158 61.042 26.5206 62.8467 28.7469 62.8467Z" fill="#5468FF"/>
<path d="M44.6883 62.8467C46.9145 62.8467 48.7193 61.042 48.7193 58.8157C48.7193 56.5894 46.9145 54.7847 44.6883 54.7847C42.462 54.7847 40.6572 56.5894 40.6572 58.8157C40.6572 61.042 42.462 62.8467 44.6883 62.8467Z" fill="#5468FF"/>
<path d="M44.3404 59.8727L43.6221 59.1544L43.8965 58.88L44.3404 59.3262L45.9488 57.7178L46.2232 57.9922L44.3404 59.8727Z" fill="white"/>
<path d="M29.2601 59.6764H27.7855V59.3664L28.3142 58.831C28.4704 58.6704 28.573 58.5588 28.622 58.4964C28.6647 58.4442 28.7 58.3864 28.7269 58.3246C28.7477 58.272 28.7583 58.216 28.7581 58.1595C28.7612 58.1248 28.7565 58.0898 28.7446 58.057C28.7326 58.0243 28.7137 57.9945 28.689 57.9699C28.6365 57.9263 28.5697 57.9041 28.5016 57.9074C28.4188 57.9074 28.3371 57.9265 28.2629 57.9632C28.1765 58.007 28.0956 58.0609 28.022 58.1238L27.7788 57.836C27.8585 57.765 27.9452 57.7023 28.0376 57.6487C28.1081 57.6111 28.183 57.5826 28.2607 57.5639C28.3499 57.5434 28.4413 57.5337 28.5328 57.5349C28.6534 57.5321 28.7732 57.5565 28.8831 57.6063C28.9787 57.6504 29.06 57.7208 29.1173 57.8093C29.1739 57.8978 29.2034 58.0009 29.2021 58.106C29.2028 58.1999 29.1854 58.2931 29.1507 58.3804C29.1109 58.4746 29.0576 58.5625 28.9924 58.6414C28.875 58.7772 28.7482 58.9046 28.6131 59.0228L28.3343 59.2749V59.295H29.2534L29.2601 59.6764Z" fill="white"/>
<path d="M36.8871 47.1329H36.441V45.9126V45.7118V45.4888C36.3666 45.5631 36.3153 45.6115 36.287 45.6338L36.0439 45.8278L35.8208 45.5601L36.49 45.0181H36.8559L36.8871 47.1329Z" fill="white"/>
<path d="M139.138 60.7695H138.776V61.5882H139.138V60.7695Z" fill="white"/>
<path d="M139.941 62.6304H139.579V63.4491H139.941V62.6304Z" fill="white"/>
<path d="M138.803 66.3491H137.928V67.1678H138.803V66.3491Z" fill="white"/>
<path d="M139.722 66.3491H139.361V67.1678H139.722V66.3491Z" fill="white"/>
<path d="M137.491 66.3491H137.13V67.1678H137.491V66.3491Z" fill="white"/>
<path d="M114.061 129.086C130.113 129.086 143.126 127.722 143.126 126.041C143.126 124.359 130.113 122.996 114.061 122.996C98.0092 122.996 84.9963 124.359 84.9963 126.041C84.9963 127.722 98.0092 129.086 114.061 129.086Z" fill="white"/>
<path opacity="0.2" d="M114.061 129.086C130.113 129.086 143.126 127.722 143.126 126.041C143.126 124.359 130.113 122.996 114.061 122.996C98.0092 122.996 84.9963 124.359 84.9963 126.041C84.9963 127.722 98.0092 129.086 114.061 129.086Z" fill="#5468FF"/>
<path d="M113.414 59.7993H113.691L114.204 60.2076L114.041 60.4106L113.858 60.2633C113.836 60.2455 113.797 60.209 113.742 60.154V60.3191V61.3943H113.406L113.414 59.7993Z" fill="#5468FF"/>
<path d="M113.385 115.634L113.017 124.84L111.545 124.988L109.334 125.211C109.334 125.211 110.992 123.553 109.887 120.238C108.783 116.923 107.677 108.821 107.677 108.821L111.543 104.493L112.741 103.155C112.741 103.155 114.122 111.208 113.385 115.634Z" fill="#F5B58F"/>
<path d="M112.716 127.716C110.705 127.866 108.688 127.905 106.673 127.834C106.193 127.812 105.749 127.772 105.35 127.716C102.771 127.348 104.982 126.243 104.982 126.243L110.137 124.033L112.315 124.577L113.084 124.769C114.927 127.716 112.716 127.716 112.716 127.716Z" fill="#000D44"/>
<path d="M114.121 102.376C113.428 104.112 105.198 121.9 104.264 123.919C104.208 124.042 104.117 124.145 104.003 124.215C103.696 124.411 103.346 124.527 102.983 124.555C102.716 124.561 102.452 124.498 102.217 124.372C101.983 124.245 101.785 124.059 101.645 123.832C101.466 123.584 101.329 123.309 101.236 123.018V123C103.077 121.159 104.919 107.899 104.919 107.899L105.656 102.744C104.554 99.4359 105.468 96.7478 105.814 95.6056C105.874 95.4043 105.944 95.2063 106.024 95.0122L111.032 99.6969L114.121 102.376Z" fill="#F5B58F"/>
<path d="M126.266 59.6564C126.266 59.6564 127.738 61.8672 127.002 65.1799L132.157 65.916L131.042 59.2861L126.266 59.6564Z" fill="#F5B58F"/>
<path d="M132.169 92.0631L128.662 98.8046L117.86 100.034C117.541 100.071 117.247 100.225 117.033 100.465C116.819 100.705 116.701 101.015 116.7 101.336V102.508C116.71 103.073 116.504 103.621 116.125 104.04C115.748 104.44 115.197 104.709 114.492 104.223C113.051 103.215 110.824 102.439 108.986 101.18C107.38 100.065 105.97 98.7711 105.285 97.2252C105.285 96.6466 105.425 96.0766 105.691 95.5632C105.96 95.052 106.346 94.6117 106.818 94.2783C110.61 91.6259 120.562 85.1454 127.016 85.4399L127.299 85.8035L132.169 92.0631Z" fill="#1B255E"/>
<path d="M119.277 61.8652L129.958 65.1802L138.796 66.6525L139.532 92.0634L131.631 92.2865C131.631 92.2865 127.961 88.7931 124.443 87.9053C123.956 87.7794 123.46 87.6884 122.96 87.6331C122.96 87.6331 123.047 87.5037 123.214 87.3074C122.422 86.8791 121.521 86.3772 121.24 86.3504C121.24 86.3504 123.339 86.1541 124.564 85.4782C126.69 84.3048 127.687 82.0182 126.384 79.977L126.364 79.948L126.342 79.9146L126.27 79.8075C125.897 79.2573 125.418 78.7871 124.86 78.4244H124.845L124.814 78.4021L124.715 78.3352L124.68 78.3106L124.546 78.2125L124.417 78.1099L124.376 78.0764L124.258 77.9693L124.225 77.9403L124.08 77.8087L124.048 77.7797L123.93 77.6637L123.888 77.6213L123.758 77.483L123.741 77.4629C123.691 77.4094 123.645 77.3536 123.596 77.2956L123.555 77.2488L123.444 77.1082L123.406 77.0569C123.359 76.9945 123.312 76.9298 123.265 76.8628L123.25 76.8383C123.21 76.7788 123.169 76.7178 123.129 76.6554L123.091 76.5929C123.056 76.5349 123.021 76.4754 122.987 76.4145L122.96 76.3654C122.918 76.2895 122.878 76.2115 122.839 76.1311L122.813 76.0731C122.781 76.0092 122.752 75.9438 122.723 75.8768L122.692 75.8032C122.659 75.7229 122.625 75.6404 122.596 75.5556V75.5355C122.563 75.4441 122.534 75.3526 122.505 75.2567L122.48 75.1764C122.458 75.102 122.437 75.0276 122.418 74.9533L122.398 74.873C122.373 74.7726 122.351 74.67 122.331 74.5629V74.5116C122.314 74.4209 122.299 74.3287 122.286 74.235L122.273 74.1368C122.261 74.0446 122.251 73.9509 122.244 73.8557C122.244 73.8334 122.244 73.8111 122.244 73.7888C122.235 73.6728 122.229 73.5538 122.226 73.4319C122.226 73.4007 122.226 73.3694 122.226 73.3382C122.226 73.243 122.226 73.1456 122.226 73.046C122.226 73.0103 122.226 72.9723 122.226 72.9366C122.226 72.8073 122.226 72.6779 122.246 72.5418C122.614 67.7545 117.459 66.6503 117.459 66.6503C117.459 66.6503 114.858 61.8652 119.277 61.8652Z" fill="#5468FF"/>
<path opacity="0.5" d="M119.277 61.8652L129.958 65.1802L138.796 66.6525L139.532 92.0634L131.631 92.2865C131.631 92.2865 127.961 88.7931 124.443 87.9053C123.956 87.7794 123.46 87.6884 122.96 87.6331C122.96 87.6331 123.047 87.5037 123.214 87.3074C122.422 86.8791 121.521 86.3772 121.24 86.3504C121.24 86.3504 123.339 86.1541 124.564 85.4782C126.69 84.3048 127.687 82.0182 126.384 79.977L126.364 79.948L126.342 79.9146L126.27 79.8075C125.897 79.2573 125.418 78.7871 124.86 78.4244H124.845L124.814 78.4021L124.715 78.3352L124.68 78.3106L124.546 78.2125L124.417 78.1099L124.376 78.0764L124.258 77.9693L124.225 77.9403L124.08 77.8087L124.048 77.7797L123.93 77.6637L123.888 77.6213L123.758 77.483L123.741 77.4629C123.691 77.4094 123.645 77.3536 123.596 77.2956L123.555 77.2488L123.444 77.1082L123.406 77.0569C123.359 76.9945 123.312 76.9298 123.265 76.8628L123.25 76.8383C123.21 76.7788 123.169 76.7178 123.129 76.6554L123.091 76.5929C123.056 76.5349 123.021 76.4754 122.987 76.4145L122.96 76.3654C122.918 76.2895 122.878 76.2115 122.839 76.1311L122.813 76.0731C122.781 76.0092 122.752 75.9438 122.723 75.8768L122.692 75.8032C122.659 75.7229 122.625 75.6404 122.596 75.5556V75.5355C122.563 75.4441 122.534 75.3526 122.505 75.2567L122.48 75.1764C122.458 75.102 122.437 75.0276 122.418 74.9533L122.398 74.873C122.373 74.7726 122.351 74.67 122.331 74.5629V74.5116C122.314 74.4209 122.299 74.3287 122.286 74.235L122.273 74.1368C122.261 74.0446 122.251 73.9509 122.244 73.8557C122.244 73.8334 122.244 73.8111 122.244 73.7888C122.235 73.6728 122.229 73.5538 122.226 73.4319C122.226 73.4007 122.226 73.3694 122.226 73.3382C122.226 73.243 122.226 73.1456 122.226 73.046C122.226 73.0103 122.226 72.9723 122.226 72.9366C122.226 72.8073 122.226 72.6779 122.246 72.5418C122.614 67.7545 117.459 66.6503 117.459 66.6503C117.459 66.6503 114.858 61.8652 119.277 61.8652Z" fill="#000D44"/>
<path d="M143.952 86.5397C143.809 88.7823 143.436 91.0041 142.836 93.1697C142.473 95.1898 141.356 96.997 139.713 98.2269C138.005 99.5069 135.923 100.189 133.788 100.168H116.7C116.885 97.4059 119.823 97.4059 119.823 97.4059H122.034C126.085 97.0378 127.557 95.9336 129.768 94.091C131.979 92.2483 132.72 88.5653 133.088 83.7691C133.349 80.3805 133.98 78.6517 134.323 77.9311C134.384 77.8052 134.479 77.6992 134.597 77.6256C134.716 77.5521 134.853 77.5141 134.993 77.5162L136.086 77.534L138.317 77.572L143.586 77.6567H143.744L145.799 77.6902C143.583 79.5418 143.952 86.5397 143.952 86.5397Z" fill="#5468FF"/>
<path opacity="0.2" d="M143.952 86.5397C143.809 88.7823 143.436 91.0041 142.836 93.1697C142.473 95.1898 141.356 96.997 139.713 98.2269C138.005 99.5069 135.923 100.189 133.788 100.168H116.7C116.885 97.4059 119.823 97.4059 119.823 97.4059H122.034C126.085 97.0378 127.557 95.9336 129.768 94.091C131.979 92.2483 132.72 88.5653 133.088 83.7691C133.349 80.3805 133.98 78.6517 134.323 77.9311C134.384 77.8052 134.479 77.6992 134.597 77.6256C134.716 77.5521 134.853 77.5141 134.993 77.5162L136.086 77.534L138.317 77.572L143.586 77.6567H143.744L145.799 77.6902C143.583 79.5418 143.952 86.5397 143.952 86.5397Z" fill="#000D44"/>
<path d="M145.794 77.7013L143.74 77.6678H143.581L138.312 77.5607L136.124 77.5161L136.084 77.5429C133.646 79.042 134.19 83.7779 134.19 83.7779C134.926 88.1971 132.717 94.0909 132.717 94.0909C130.815 97.5196 128.316 99.273 126.351 100.168H133.786C135.921 100.189 138.003 99.5068 139.711 98.2268C141.354 96.9969 142.471 95.1897 142.834 93.1696C143.434 91.004 143.807 88.7822 143.95 86.5397C143.95 86.5397 143.584 79.5417 145.794 77.7013Z" fill="#5468FF"/>
<path d="M127.473 99.4292H125.262V125.576H127.473V99.4292Z" fill="#5468FF"/>
<path d="M133.71 124.472H119.025C118.482 124.472 117.961 124.688 117.577 125.072C117.193 125.456 116.977 125.977 116.977 126.52V126.683H135.76V126.52C135.76 126.251 135.707 125.984 135.604 125.736C135.501 125.487 135.35 125.261 135.16 125.071C134.969 124.881 134.743 124.73 134.495 124.627C134.246 124.525 133.979 124.472 133.71 124.472Z" fill="#5468FF"/>
<path d="M119.277 61.8652L118.184 65.6375C118.185 65.6433 118.185 65.6495 118.184 65.6553L117.86 66.7707C117.86 66.7707 113.022 63.7056 111.179 63.3375C109.336 62.9694 106.76 60.7587 106.76 60.7587C106.76 60.7587 104.181 58.5614 103.066 55.9737C101.95 53.386 100.119 53.0268 100.119 53.0268C96.4358 51.9114 97.9081 49.3438 97.9081 49.3438C97.9266 49.3332 97.9438 49.3204 97.9594 49.3058C98.1066 49.1742 98.4569 48.6567 97.54 47.1331C96.4246 45.2927 97.9081 46.3969 97.9081 46.3969L105.27 53.7585C109.702 59.6567 119.277 61.8652 119.277 61.8652Z" fill="#F5B58F"/>
<path d="M124.803 53.3945C124.803 53.3945 124.067 57.0776 124.803 58.918C125.539 60.7584 126.275 60.7584 127.382 60.7584C128.488 60.7584 132.537 60.0222 132.537 60.0222L131.241 53.9745L124.803 53.3945Z" fill="#F5B58F"/>
<path d="M144.69 69.5991C144.958 76.2915 140.376 76.1733 137.841 75.6223C136.904 75.4098 136.042 74.9472 135.347 74.2838C133.786 72.8137 133.248 72.5996 132.253 72.1846C131.465 71.8677 130.698 71.4996 129.958 71.0826C126.643 69.2422 129.958 65.1911 129.958 65.1911L130.143 61.6932C126.828 59.1144 128.671 57.6421 128.671 57.6421C129.407 53.9591 126.83 56.5267 126.83 56.5267C124.251 55.4113 124.437 53.765 124.437 53.765C124.437 53.765 121.963 51.9982 123.944 49.4997C123.982 49.4484 124.024 49.3971 124.069 49.3458C125.746 47.3894 128.271 47.3381 129.391 47.4318C129.763 47.4548 130.137 47.4413 130.507 47.3916C132.934 47.115 134.649 49.995 135.414 51.6078C135.714 52.2478 136.254 52.7434 136.918 52.9864L137.235 53.1047C138.378 53.5474 139.327 54.3825 139.912 55.4606C140.496 56.5387 140.678 57.7896 140.425 58.9895C140.351 59.3203 140.306 59.657 140.291 59.9956C140.199 61.9274 141.154 63.7344 142.662 64.9435C145.562 67.2613 144.69 69.5991 144.69 69.5991Z" fill="#000D44"/>
<path d="M103.811 126.683C101.8 126.833 99.7827 126.873 97.7677 126.801C97.2881 126.779 96.8441 126.739 96.4448 126.683C93.866 126.315 96.0768 125.211 96.0768 125.211L101.232 123L103.409 123.544L104.179 123.736C106.019 126.683 103.811 126.683 103.811 126.683Z" fill="#000D44"/>
</svg>
