<svg width="194" height="130" viewBox="0 0 194 130" fill="none" xmlns="http://www.w3.org/2000/svg">
<path d="M193.457 129.255H5.83011C5.66843 129.255 5.53735 129.387 5.53735 129.549V129.68C5.53735 129.842 5.66843 129.973 5.83011 129.973H193.457C193.619 129.973 193.75 129.842 193.75 129.68V129.549C193.75 129.387 193.619 129.255 193.457 129.255Z" fill="white"/>
<path opacity="0.15" d="M193.457 129.255H5.83011C5.66843 129.255 5.53735 129.387 5.53735 129.549V129.68C5.53735 129.842 5.66843 129.973 5.83011 129.973H193.457C193.619 129.973 193.75 129.842 193.75 129.68V129.549C193.75 129.387 193.619 129.255 193.457 129.255Z" fill="#5468FF"/>
<path d="M121.375 46.4385H138.02C139.074 46.4414 140.083 46.8619 140.828 47.6079C141.573 48.354 141.993 49.3651 141.996 50.4202V56.7278C141.996 57.6923 141.644 58.6236 141.006 59.3469L141.996 63.873L136.292 60.7095H121.375C120.321 60.7065 119.312 60.2861 118.567 59.54C117.822 58.7939 117.402 57.7829 117.399 56.7278V50.4202C117.402 49.3651 117.822 48.354 118.567 47.6079C119.312 46.8619 120.321 46.4414 121.375 46.4385Z" fill="white"/>
<path opacity="0.3" d="M121.375 46.4385H138.02C139.074 46.4414 140.083 46.8619 140.828 47.6079C141.573 48.354 141.993 49.3651 141.996 50.4202V56.7278C141.996 57.6923 141.644 58.6236 141.006 59.3469L141.996 63.873L136.292 60.7095H121.375C120.321 60.7065 119.312 60.2861 118.567 59.54C117.822 58.7939 117.402 57.7829 117.399 56.7278V50.4202C117.402 49.3651 117.822 48.354 118.567 47.6079C119.312 46.8619 120.321 46.4414 121.375 46.4385Z" fill="#5468FF"/>
<path d="M121.063 51.2331H138.321C138.406 51.2331 138.49 51.2163 138.569 51.1838C138.647 51.1512 138.719 51.1035 138.779 51.0433C138.839 50.9832 138.887 50.9118 138.919 50.8332C138.952 50.7546 138.968 50.6704 138.968 50.5853C138.968 50.5002 138.952 50.416 138.919 50.3374C138.887 50.2588 138.839 50.1874 138.779 50.1272C138.719 50.0671 138.647 50.0194 138.569 49.9868C138.49 49.9543 138.406 49.9375 138.321 49.9375H121.063C120.891 49.9375 120.727 50.0057 120.605 50.1272C120.484 50.2487 120.416 50.4135 120.416 50.5853C120.416 50.7571 120.484 50.9219 120.605 51.0433C120.727 51.1648 120.891 51.2331 121.063 51.2331Z" fill="white"/>
<path d="M121.063 54.0754H138.321C138.406 54.0754 138.49 54.0586 138.569 54.0261C138.647 53.9935 138.719 53.9458 138.779 53.8856C138.839 53.8255 138.887 53.7541 138.919 53.6755C138.952 53.5969 138.968 53.5126 138.968 53.4276C138.968 53.3425 138.952 53.2583 138.919 53.1797C138.887 53.1011 138.839 53.0297 138.779 52.9695C138.719 52.9094 138.647 52.8617 138.569 52.8291C138.49 52.7965 138.406 52.7798 138.321 52.7798H121.063C120.891 52.7798 120.727 52.848 120.605 52.9695C120.484 53.091 120.416 53.2558 120.416 53.4276C120.416 53.5994 120.484 53.7642 120.605 53.8856C120.727 54.0071 120.891 54.0754 121.063 54.0754Z" fill="white"/>
<path d="M121.063 56.8005H138.321C138.406 56.8005 138.49 56.7837 138.569 56.7512C138.647 56.7186 138.719 56.6709 138.779 56.6107C138.839 56.5506 138.887 56.4792 138.919 56.4006C138.952 56.322 138.968 56.2377 138.968 56.1527C138.968 56.0676 138.952 55.9834 138.919 55.9048C138.887 55.8262 138.839 55.7548 138.779 55.6946C138.719 55.6345 138.647 55.5867 138.569 55.5542C138.49 55.5216 138.406 55.5049 138.321 55.5049H121.063C120.891 55.5049 120.727 55.5731 120.605 55.6946C120.484 55.8161 120.416 55.9809 120.416 56.1527C120.416 56.3245 120.484 56.4893 120.605 56.6107C120.727 56.7322 120.891 56.8005 121.063 56.8005Z" fill="white"/>
<path d="M170.017 121.421V98.5942H168.972V121.426C166.264 121.529 163.024 122.322 161.385 123.961C161.029 124.296 160.746 124.699 160.551 125.147C160.356 125.595 160.255 126.078 160.253 126.567H160.85C160.853 126.158 160.939 125.753 161.104 125.379C161.268 125.005 161.507 124.668 161.806 124.389C163.373 122.825 166.568 122.088 169.192 122.024V127.48H169.794V122.018C172.802 122.082 178.34 123.47 178.34 126.564H178.942C178.945 123.085 173.352 121.546 170.017 121.421Z" fill="#5468FF"/>
<path opacity="0.3" d="M170.017 121.421V98.5942H168.972V121.426C166.264 121.529 163.024 122.322 161.385 123.961C161.029 124.296 160.746 124.699 160.551 125.147C160.356 125.595 160.255 126.078 160.253 126.567H160.85C160.853 126.158 160.939 125.753 161.104 125.379C161.268 125.005 161.507 124.668 161.806 124.389C163.373 122.825 166.568 122.088 169.192 122.024V127.48H169.794V122.018C172.802 122.082 178.34 123.47 178.34 126.564H178.942C178.945 123.085 173.352 121.546 170.017 121.421Z" fill="#000D44"/>
<path d="M160.551 128.87C161.369 128.87 162.032 128.206 162.032 127.387C162.032 126.569 161.369 125.905 160.551 125.905C159.734 125.905 159.071 126.569 159.071 127.387C159.071 128.206 159.734 128.87 160.551 128.87Z" fill="#5468FF"/>
<path d="M169.524 128.87C170.341 128.87 171.004 128.206 171.004 127.387C171.004 126.569 170.341 125.905 169.524 125.905C168.706 125.905 168.043 126.569 168.043 127.387C168.043 128.206 168.706 128.87 169.524 128.87Z" fill="#5468FF"/>
<path d="M178.496 128.87C179.314 128.87 179.976 128.206 179.976 127.387C179.976 126.569 179.314 125.905 178.496 125.905C177.678 125.905 177.015 126.569 177.015 127.387C177.015 128.206 177.678 128.87 178.496 128.87Z" fill="#5468FF"/>
<path d="M170.511 90.8322V73.822C170.511 72.4083 171.071 71.0525 172.07 70.0529C173.068 69.0533 174.422 68.4917 175.833 68.4917H181.688C183.1 68.4917 184.454 69.0533 185.452 70.0529C186.45 71.0525 187.011 72.4083 187.011 73.822V92.837C187.005 94.8605 186.2 96.7995 184.771 98.2304C183.342 99.6613 181.406 100.468 179.385 100.474H160.292C160.174 100.474 160.057 100.45 159.949 100.405C159.84 100.36 159.741 100.294 159.657 100.21C159.574 100.127 159.508 100.028 159.463 99.9186C159.417 99.8095 159.394 99.6926 159.394 99.5746C159.394 99.4565 159.417 99.3396 159.463 99.2305C159.508 99.1214 159.574 99.0223 159.657 98.9388C159.741 98.8553 159.84 98.7891 159.949 98.7439C160.057 98.6987 160.174 98.6755 160.292 98.6755H162.684C164.76 98.6733 166.751 97.846 168.218 96.3754C169.685 94.9048 170.51 92.9111 170.511 90.8322Z" fill="#5468FF"/>
<path opacity="0.3" d="M170.511 90.8322V73.822C170.511 72.4083 171.071 71.0525 172.07 70.0529C173.068 69.0533 174.422 68.4917 175.833 68.4917H181.688C183.1 68.4917 184.454 69.0533 185.452 70.0529C186.45 71.0525 187.011 72.4083 187.011 73.822V92.837C187.005 94.8605 186.2 96.7995 184.771 98.2304C183.342 99.6613 181.406 100.468 179.385 100.474H160.292C160.174 100.474 160.057 100.45 159.949 100.405C159.84 100.36 159.741 100.294 159.657 100.21C159.574 100.127 159.508 100.028 159.463 99.9186C159.417 99.8095 159.394 99.6926 159.394 99.5746C159.394 99.4565 159.417 99.3396 159.463 99.2305C159.508 99.1214 159.574 99.0223 159.657 98.9388C159.741 98.8553 159.84 98.7891 159.949 98.7439C160.057 98.6987 160.174 98.6755 160.292 98.6755H162.684C164.76 98.6733 166.751 97.846 168.218 96.3754C169.685 94.9048 170.51 92.9111 170.511 90.8322Z" fill="#000D44"/>
<path d="M149.641 123.512C149.641 124.408 149.505 125.187 148.707 125.955C147.536 127.072 145.718 127.228 144.458 128.245C144.341 128.33 144.245 128.442 144.179 128.571C144.133 128.706 144.128 128.852 144.165 128.99C144.203 129.128 144.28 129.252 144.388 129.345C145.504 130.403 148.035 129.367 149.326 129.135L154.194 128.267C154.297 128.249 154.395 128.21 154.482 128.154C154.57 128.097 154.645 128.024 154.704 127.938C154.763 127.852 154.804 127.755 154.824 127.652C154.845 127.55 154.845 127.445 154.824 127.343L153.879 122.713L153.745 122.026C153.693 121.756 153.587 121.5 153.435 121.271C153.282 121.043 153.085 120.847 152.856 120.696C152.626 120.544 152.369 120.44 152.099 120.39C151.829 120.339 151.552 120.343 151.284 120.401C150.805 120.519 150.381 120.796 150.081 121.186C149.781 121.577 149.622 122.058 149.63 122.551C149.638 122.886 149.647 123.205 149.641 123.512Z" fill="#000D44"/>
<path d="M124.882 122.993C124.654 123.173 124.417 123.341 124.171 123.495C123.385 123.981 122.058 124.135 121.233 123.643C120.343 123.116 119.56 122.384 118.595 122.024C118.244 121.866 117.848 121.84 117.48 121.951C115.924 122.552 118.129 124.629 118.757 125.154L123.036 128.734C123.287 128.979 123.592 129.162 123.926 129.267C125.295 129.58 126.382 128.348 127.194 127.519C127.771 126.927 128.496 126.254 129.084 125.682C129.525 125.252 130.445 124.059 130.157 123.392C130.074 123.237 129.973 123.092 129.856 122.959C129.65 122.68 129.53 122.339 129.299 122.069C128.674 121.304 127.459 121.345 126.577 121.789C125.975 122.135 125.408 122.538 124.882 122.993Z" fill="#000D44"/>
<path d="M162.746 80.9944C162.746 80.9723 162.746 80.9473 162.762 80.9224L162.746 80.9944Z" fill="#E6AC8E"/>
<path d="M162.801 80.7129C162.801 80.7855 162.771 80.8525 162.751 80.9223L162.807 80.6431C162.801 80.6738 162.801 80.6933 162.801 80.7129Z" fill="#E6AC8E"/>
<path d="M157.203 79.8892L162.743 81.006C162.552 81.6976 162.106 82.291 161.496 82.6667C160.886 83.0425 160.156 83.1726 159.453 83.031C158.751 82.8894 158.128 82.4866 157.711 81.9036C157.293 81.3206 157.112 80.6008 157.203 79.8892Z" fill="#E6AC8E"/>
<path d="M157.225 79.7135C157.387 79.0074 157.812 78.3901 158.414 77.988C159.016 77.5859 159.748 77.4295 160.461 77.5509C161.174 77.6723 161.814 78.0623 162.249 78.6409C162.684 79.2195 162.882 79.9429 162.802 80.6628L162.746 80.9421C162.746 80.9644 162.746 80.9895 162.729 81.0147L157.189 79.8978C157.211 79.828 157.225 79.7665 157.225 79.7135Z" fill="#E6AC8E"/>
<path d="M159.634 61.0058C160.1 59.6097 160.894 58.3253 162.232 57.6552C162.638 57.4632 163.058 57.3018 163.487 57.1721C164.569 56.7817 165.681 56.4847 166.813 56.2842C167.003 56.2563 167.262 56.2842 167.304 56.4629C167.312 56.5383 167.304 56.6146 167.279 56.6863C167.212 56.9851 167.374 57.2447 167.335 57.5407C167.263 57.9263 167.17 58.3075 167.056 58.6827C166.814 59.4514 166.709 60.2567 166.747 61.0617C166.869 62.2623 166.239 63.2759 166.239 64.4347C166.2 64.6245 165.648 67.333 165.631 67.3302L158.842 66.1826C159.037 64.4179 159.079 62.6533 159.634 61.0058Z" fill="#5468FF"/>
<path opacity="0.1" d="M159.634 61.0058C160.1 59.6097 160.894 58.3253 162.232 57.6552C162.638 57.4632 163.058 57.3018 163.487 57.1721C164.569 56.7817 165.681 56.4847 166.813 56.2842C167.003 56.2563 167.262 56.2842 167.304 56.4629C167.312 56.5383 167.304 56.6146 167.279 56.6863C167.212 56.9851 167.374 57.2447 167.335 57.5407C167.263 57.9263 167.17 58.3075 167.056 58.6827C166.814 59.4514 166.709 60.2567 166.747 61.0617C166.869 62.2623 166.239 63.2759 166.239 64.4347C166.2 64.6245 165.648 67.333 165.631 67.3302L158.842 66.1826C159.037 64.4179 159.079 62.6533 159.634 61.0058Z" fill="#000D44"/>
<path d="M140.323 79.4593L140.463 81.7852L159.885 83.0277C159.978 83.0322 160.071 83.0322 160.164 83.0277C160.814 82.9923 161.432 82.7341 161.914 82.2963C162.397 81.8585 162.714 81.2679 162.813 80.6236C162.813 80.6236 162.813 80.6459 162.813 80.6543L166.487 63.1611L165.612 67.3215L158.823 66.1739L157.468 77.5996L140.323 79.4593ZM162.849 80.1601C162.849 80.1322 162.849 80.1043 162.849 80.0763C162.849 80.107 162.849 80.135 162.849 80.1629V80.1601ZM162.829 80.5175C162.829 80.4617 162.829 80.4058 162.846 80.3472C162.843 80.4058 162.838 80.4645 162.829 80.5203V80.5175Z" fill="#F5B58F"/>
<path d="M141.054 91.3539C141.578 90.882 142.18 90.5042 142.833 90.2371C143.844 89.8318 144.919 89.6087 146.008 89.5781H146.1C148.013 89.2989 150.004 89.257 151.766 89.0755L164.346 87.7604C165.104 87.6822 165.866 87.6012 166.624 87.5286C166.688 87.5286 166.75 87.5147 166.811 87.5119C169.619 87.4253 172.041 90.0249 172.223 93.3057C172.404 96.5865 170.271 99.3257 167.46 99.4123C167.396 99.4123 167.335 99.4123 167.271 99.4123L154.398 99.4821C152.761 99.4821 151.127 99.6245 149.491 99.6859C149.942 101.847 152.558 110.503 153.035 113.722L154.303 122.099L148.953 123.082L145.328 112.561L140.128 97.4996C139.381 95.3245 139.197 93.0628 141.054 91.3539Z" fill="#1B255E"/>
<path d="M125.763 121.817L142.448 98.2981L142.821 97.8291C143.083 97.4309 143.38 97.0571 143.708 96.7122C144.001 96.3436 144.238 96.0504 144.266 96.0281C144.612 95.6735 145.029 95.3965 145.49 95.2155L145.624 95.1206C148.495 93.2024 159.149 90.4828 162.67 89.4217L166.911 81.5114L182.246 81.4751V93.4481C182.238 94.7257 181.812 95.9654 181.033 96.9774C180.179 98.1643 178.917 98.9936 177.49 99.3061C177.417 99.3229 177.345 99.3285 177.272 99.3452L151.205 104.5L129.901 125.704C128.588 124.724 127.021 122.881 125.763 121.817Z" fill="#1B255E"/>
<path d="M162.888 58.7718C163.035 58.5959 163.192 58.4256 163.348 58.2552C163.626 57.9408 163.931 57.6511 164.259 57.3897C166.136 55.9684 168.826 56.0997 171.049 56.0271C173.527 55.9461 176.017 56.0606 178.34 57.0183C180.891 58.0682 183.172 60.0897 184.226 62.6809C185.341 65.4005 183.779 68.7902 183.478 71.616C182.896 77.0347 182.471 82.4674 182.201 87.9141C179.572 87.7912 176.94 87.7717 174.311 87.6349C171.088 87.4645 167.455 87.3249 164.363 86.1522C164.045 82.1956 163.267 78.2642 162.768 74.3272C162.442 71.7556 162.277 69.1114 161.786 66.5649C161.349 64.2976 161.159 61.2597 162.531 59.2409C162.642 59.0734 162.762 58.917 162.888 58.7718Z" fill="#5468FF"/>
<path d="M154.002 82.785C153.69 83.1536 153.087 82.9498 153.402 82.5784C154.518 81.2773 155.159 80.7747 156.729 80.2023C156.76 80.1854 156.794 80.1731 156.829 80.166C156.863 80.1541 156.899 80.1466 156.935 80.1436C157.147 80.0989 157.348 80.0617 157.537 80.0319C157.014 79.8538 156.452 79.8229 155.912 79.9426C155.471 80.0236 155.159 79.6131 155.449 79.4651C156.698 78.8285 158.22 79.3981 159.439 79.9621C159.475 79.978 159.508 80.0007 159.536 80.0291C159.87 80.0913 160.199 80.1762 160.521 80.2832C161.037 80.4263 161.533 80.6336 161.998 80.9003L178.694 78.0774L177.657 64.8591C177.618 64.3383 177.709 63.8161 177.921 63.3391C178.133 62.8621 178.46 62.4451 178.872 62.1255C179.35 61.7684 179.921 61.5594 180.516 61.5247C181.111 61.49 181.703 61.6309 182.218 61.93C182.996 62.3843 183.603 63.0818 183.947 63.9153C184.404 64.8765 184.655 65.9226 184.686 66.9867L184.663 69.1395L184.61 74.132L184.549 80.3474C184.549 80.367 184.549 80.3865 184.549 80.4061C184.549 80.4787 184.549 80.5513 184.549 80.6211V80.6937C184.49 81.3963 184.171 82.0517 183.656 82.5322C183.14 83.0127 182.465 83.284 181.761 83.2932H162.074C161.897 83.309 161.72 83.309 161.544 83.2932C160.261 83.1564 160.298 83.2932 159.196 83.4161H159.177C158.254 83.653 157.416 84.1456 156.759 84.8373C156.425 85.1863 155.811 84.9741 156.124 84.6C156.741 83.8557 157.536 83.2795 158.435 82.9247C158.365 82.8493 158.296 82.7711 158.226 82.6873C158.024 82.7785 157.831 82.8878 157.649 83.014C156.933 83.4655 156.282 84.0122 155.714 84.6391C155.393 85.0049 154.685 84.8541 155.003 84.4911C155.795 83.5892 156.676 82.6426 157.752 82.0591L157.649 81.9055C156.322 82.1485 155.145 82.9074 154.375 84.0164C154.097 84.4101 153.319 84.3682 153.611 83.9857C154.727 82.5086 155.842 81.6151 157.141 81.2186C157.06 81.1181 156.98 81.0176 156.91 80.9199C155.608 81.3889 154.972 81.6291 154.002 82.785Z" fill="#F5B58F"/>
<path d="M170.968 60.1678C171.351 60.0983 171.717 59.9517 172.042 59.7368C172.368 59.522 172.646 59.2432 172.861 58.9175C173.076 58.5918 173.222 58.2259 173.292 57.8418C173.361 57.4578 173.352 57.0636 173.265 56.6831L171.843 50.0293L166.604 50.9759L167.597 57.7079C167.649 58.0949 167.778 58.4675 167.977 58.803C168.177 59.1386 168.442 59.4302 168.757 59.6601C169.072 59.8901 169.43 60.0536 169.811 60.1409C170.191 60.2281 170.584 60.2373 170.968 60.1678Z" fill="#F5B58F"/>
<path d="M168.657 54.6504C169.145 54.7659 169.652 54.7834 170.147 54.702C170.643 54.6206 171.117 54.4419 171.544 54.1762C171.97 53.9104 172.34 53.5629 172.631 53.1536C172.923 52.7443 173.131 52.2813 173.243 51.7912L174.531 46.2487L166.749 44.4365L165.824 50.0628C165.592 51.0474 165.76 52.0838 166.291 52.9441C166.823 53.8045 167.673 54.4182 168.657 54.6504Z" fill="#F5B58F"/>
<path d="M166.387 45.5453C166.908 45.8005 167.46 45.9881 168.029 46.1037C168.829 46.3131 169.641 46.4778 170.435 46.7096C171.23 46.9414 171.489 47.067 171.921 47.7623C172.354 48.4575 172.183 49.8955 172.103 50.6857C172.022 51.4759 172.066 52.9027 172.621 53.4779C173.157 52.294 174.227 50.1273 174.659 48.8903C174.891 48.2314 175.936 46.2377 175.694 45.4447C175.51 44.8444 175.256 44.1519 174.732 43.8253C173.987 43.359 173.073 42.7698 172.323 42.3175C171.623 41.8415 170.813 41.5531 169.97 41.4798C169.011 41.4016 167.363 42.4319 166.643 42.8759C166.114 43.2026 165.587 43.6214 165.595 44.3027C165.598 44.5632 165.674 44.8176 165.814 45.0372C165.954 45.2567 166.152 45.4327 166.387 45.5453Z" fill="#000D44"/>
<path d="M172.852 50.7388C172.956 50.2942 172.68 49.85 172.236 49.7466C171.792 49.6432 171.348 49.9198 171.245 50.3644C171.142 50.809 171.418 51.2532 171.862 51.3566C172.306 51.46 172.749 51.1834 172.852 50.7388Z" fill="#F5B58F"/>
<path d="M177.81 66.9251L177.481 64.077C177.336 62.8093 176.963 61.4412 177.392 60.1986C177.549 59.6902 177.889 59.2583 178.345 58.9868C178.737 58.8003 179.172 58.7278 179.603 58.7774C179.985 58.8053 180.607 58.8249 180.933 59.0147C181.98 59.6136 182.871 60.451 183.534 61.4591C184.197 62.4672 184.614 63.6175 184.75 64.8169C184.806 65.2942 184.817 65.7757 184.781 66.2549C184.744 66.7324 184.689 66.738 184.251 66.7268C182.118 66.6821 179.946 66.8692 177.81 66.9251Z" fill="#5468FF"/>
<path opacity="0.1" d="M177.81 66.9251L177.481 64.077C177.336 62.8093 176.963 61.4412 177.392 60.1986C177.549 59.6902 177.889 59.2583 178.345 58.9868C178.737 58.8003 179.172 58.7278 179.603 58.7774C179.985 58.8053 180.607 58.8249 180.933 59.0147C181.98 59.6136 182.871 60.451 183.534 61.4591C184.197 62.4672 184.614 63.6175 184.75 64.8169C184.806 65.2942 184.817 65.7757 184.781 66.2549C184.744 66.7324 184.689 66.738 184.251 66.7268C182.118 66.6821 179.946 66.8692 177.81 66.9251Z" fill="#000D44"/>
<path d="M134.15 83.3431C135.41 81.5281 137.418 80.724 139.498 80.8133C139.844 80.8273 139.777 81.5784 139.445 81.5616C137.646 81.4723 135.974 82.0614 134.805 83.5162C134.501 83.9015 133.871 83.7507 134.15 83.3431Z" fill="#E6AC8E"/>
<path d="M133.004 82.8239C134.956 80.5204 136.771 79.7525 139.478 80.2383C139.955 80.3249 139.757 81.0285 139.294 80.9699C137.064 80.6907 135.154 81.1598 133.765 82.8993C133.462 83.2763 132.689 83.1925 133.004 82.8239Z" fill="#E6AC8E"/>
<path d="M132.762 81.6678C133.651 80.8469 134.632 80.0148 135.804 79.6267C136.863 79.2776 137.733 79.3726 138.792 79.596C139.266 79.6965 139.091 80.2856 138.622 80.1879C137.507 79.9562 136.618 79.9562 135.555 80.4197C134.773 80.7815 134.062 81.2808 133.456 81.8939C133.093 82.2262 132.41 81.9889 132.762 81.6678Z" fill="#E6AC8E"/>
<path d="M136.489 78.8309C136.969 78.7862 137.047 79.3 136.553 79.3726C135.137 79.5876 134.914 79.5764 133.595 80.509C133.202 80.7882 132.728 80.5397 133.124 80.2605C134.549 79.2553 134.752 78.99 136.489 78.8309Z" fill="#E6AC8E"/>
<path d="M136.871 82.5533C137.736 82.5058 138.357 82.1233 139.041 81.1264C139.319 80.7271 140.189 81.1544 139.877 81.5173C138.982 82.5198 137.881 83.2485 136.481 83.1675C135.99 83.1424 136.386 82.5812 136.871 82.5533Z" fill="#E6AC8E"/>
<path d="M141.352 79.8783C140.652 79.2529 137.468 78.6833 136.412 78.8396C135.795 78.9318 135.854 80.0933 136.25 80.6965C136.646 81.2996 136.858 81.8133 137.315 81.7715C137.703 81.7268 138.196 82.0339 138.505 82.02C139.063 81.9948 139.437 81.6849 140.27 81.7743C141.656 81.9222 142.707 81.0902 141.352 79.8783Z" fill="#E6AC8E"/>
<path d="M132.277 88.4224H187.569V87.0123H132.277V88.4224Z" fill="white"/>
<path opacity="0.5" d="M132.277 88.4224H187.569V87.0123H132.277V88.4224Z" fill="#5468FF"/>
<path d="M188.913 85.3564V85.9652V87.1546V129.409H187.58V87.1546H132.268V129.409H130.936V87.1546V85.9652V85.3564H188.913Z" fill="white"/>
<path opacity="0.3" d="M188.913 85.3564V85.9652V87.1546V129.409H187.58V87.1546H132.268V129.409H130.936V87.1546V85.9652V85.3564H188.913Z" fill="#5468FF"/>
<path d="M131.845 85.4121H155.131V84.5996H131.845V85.4121Z" fill="#5468FF"/>
<path opacity="0.3" d="M131.845 85.4121H155.131V84.5996H131.845V85.4121Z" fill="#000D44"/>
<path d="M135.829 85.4121H159.021C159.021 85.3054 159 85.1998 158.959 85.1012C158.918 85.0026 158.858 84.913 158.783 84.8376C158.708 84.7621 158.618 84.7023 158.52 84.6615C158.421 84.6206 158.316 84.5996 158.209 84.5996H135.829V85.4121Z" fill="#5468FF"/>
<path opacity="0.3" d="M135.829 85.4121H159.021C159.021 85.3054 159 85.1998 158.959 85.1012C158.918 85.0026 158.858 84.913 158.783 84.8376C158.708 84.7621 158.618 84.7023 158.52 84.6615C158.421 84.6206 158.316 84.5996 158.209 84.5996H135.829V85.4121Z" fill="#000D44"/>
<path d="M131.853 84.5999H155.028L150.896 72.3421C150.818 72.1303 150.676 71.9482 150.489 71.8211C150.303 71.694 150.082 71.6282 149.856 71.6329H128.956C128.793 71.6239 128.63 71.654 128.481 71.7209C128.332 71.7878 128.201 71.8895 128.099 72.0174C127.997 72.1453 127.927 72.2958 127.896 72.4563C127.864 72.6167 127.871 72.7825 127.916 72.9397L131.853 84.5999Z" fill="#5468FF"/>
<path d="M140.139 77.9657C140.19 78.2053 140.331 78.4162 140.533 78.5548C140.735 78.6935 140.982 78.7495 141.224 78.7112C141.47 78.7105 141.707 78.6131 141.883 78.4399C142.059 78.2667 142.161 78.0313 142.166 77.7842C142.138 77.5189 142.011 77.2739 141.811 77.0972C141.612 76.9205 141.353 76.8249 141.087 76.8292C141.056 76.8283 141.025 76.8361 140.998 76.8516C140.968 76.8433 140.936 76.8433 140.906 76.8516C140.664 76.9106 140.452 77.0568 140.31 77.2623C140.169 77.4677 140.108 77.7181 140.139 77.9657ZM140.995 77.1475L141.04 77.1308H141.076C141.206 77.13 141.334 77.1618 141.448 77.2232C141.563 77.2847 141.66 77.3739 141.731 77.4826C142.035 78.0159 141.608 78.3817 141.157 78.4012C140.998 78.4089 140.841 78.3562 140.72 78.2536C140.598 78.151 140.519 78.0062 140.499 77.848C140.479 77.6897 140.519 77.5297 140.611 77.3999C140.704 77.2701 140.842 77.18 140.998 77.1475H140.995Z" fill="white"/>
<path d="M104.933 0.973145H40.4901C38.0633 0.973145 36.0959 2.94332 36.0959 5.37366V124.472C36.0959 126.903 38.0633 128.873 40.4901 128.873H104.933C107.36 128.873 109.327 126.903 109.327 124.472V5.37366C109.327 2.94332 107.36 0.973145 104.933 0.973145Z" fill="#5468FF"/>
<path d="M101.364 4.64502H89.163V6.09697C89.163 6.81751 88.8772 7.50855 88.3684 8.01805C87.8596 8.52755 87.1696 8.81379 86.4501 8.81379H58.9727C58.2532 8.81379 57.5631 8.52755 57.0544 8.01805C56.5456 7.50855 56.2598 6.81751 56.2598 6.09697V4.64502H44.0615C43.5031 4.64465 42.95 4.75454 42.4339 4.9684C41.9179 5.18226 41.449 5.4959 41.0541 5.89137C40.6592 6.28685 40.346 6.75641 40.1325 7.27319C39.9189 7.78998 39.8092 8.34385 39.8096 8.90314V120.943C39.8096 122.072 40.2572 123.154 41.0541 123.952C41.851 124.75 42.9318 125.199 44.0587 125.199H101.364C102.491 125.199 103.572 124.75 104.369 123.952C105.165 123.154 105.613 122.072 105.613 120.943V8.90314C105.614 8.34409 105.504 7.79044 105.291 7.27384C105.077 6.75724 104.764 6.2878 104.37 5.89236C103.975 5.49692 103.506 5.18323 102.991 4.96921C102.475 4.75518 101.922 4.64502 101.364 4.64502Z" fill="white"/>
<path opacity="0.05" d="M101.364 4.64502H89.163V6.09697C89.163 6.81751 88.8772 7.50855 88.3684 8.01805C87.8596 8.52755 87.1696 8.81379 86.4501 8.81379H58.9727C58.2532 8.81379 57.5631 8.52755 57.0544 8.01805C56.5456 7.50855 56.2598 6.81751 56.2598 6.09697V4.64502H44.0615C43.5031 4.64465 42.95 4.75454 42.4339 4.9684C41.9179 5.18226 41.449 5.4959 41.0541 5.89137C40.6592 6.28685 40.346 6.75641 40.1325 7.27319C39.9189 7.78998 39.8092 8.34385 39.8096 8.90314V120.943C39.8096 122.072 40.2572 123.154 41.0541 123.952C41.851 124.75 42.9318 125.199 44.0587 125.199H101.364C102.491 125.199 103.572 124.75 104.369 123.952C105.165 123.154 105.613 122.072 105.613 120.943V8.90314C105.614 8.34409 105.504 7.79044 105.291 7.27384C105.077 6.75724 104.764 6.2878 104.37 5.89236C103.975 5.49692 103.506 5.18323 102.991 4.96921C102.475 4.75518 101.922 4.64502 101.364 4.64502Z" fill="#5468FF"/>
<path d="M70.8502 18.1675H19.2969C18.8592 18.1675 18.4995 18.631 18.4995 19.2006V52.2101C18.4995 52.7685 18.8592 53.2432 19.2969 53.2432H70.8502C71.2879 53.2432 71.6476 52.7797 71.6476 52.2101V19.2006C71.6476 18.631 71.2907 18.1675 70.8502 18.1675Z" fill="white"/>
<path opacity="0.5" d="M70.8502 18.1675H19.2969C18.8592 18.1675 18.4995 18.631 18.4995 19.2006V52.2101C18.4995 52.7685 18.8592 53.2432 19.2969 53.2432H70.8502C71.2879 53.2432 71.6476 52.7797 71.6476 52.2101V19.2006C71.6476 18.631 71.2907 18.1675 70.8502 18.1675Z" fill="#5468FF"/>
<path d="M90.4512 16.227V49.2364C90.4504 49.5102 90.3415 49.7726 90.1482 49.9662C89.9549 50.1597 89.6929 50.2688 89.4195 50.2696H22.6652C22.3918 50.2688 22.1298 50.1597 21.9365 49.9662C21.7432 49.7726 21.6343 49.5102 21.6335 49.2364V16.227C21.6343 15.9532 21.7432 15.6908 21.9365 15.4973C22.1298 15.3037 22.3918 15.1946 22.6652 15.1938H89.4168C89.6906 15.1938 89.9533 15.3026 90.1472 15.4963C90.3411 15.6899 90.4504 15.9527 90.4512 16.227Z" fill="white"/>
<path opacity="0.2" d="M90.4512 16.227V49.2364C90.4504 49.5102 90.3415 49.7726 90.1482 49.9662C89.9549 50.1597 89.6929 50.2688 89.4195 50.2696H22.6652C22.3918 50.2688 22.1298 50.1597 21.9365 49.9662C21.7432 49.7726 21.6343 49.5102 21.6335 49.2364V16.227C21.6343 15.9532 21.7432 15.6908 21.9365 15.4973C22.1298 15.3037 22.3918 15.1946 22.6652 15.1938H89.4168C89.6906 15.1938 89.9533 15.3026 90.1472 15.4963C90.3411 15.6899 90.4504 15.9527 90.4512 16.227Z" fill="#5468FF"/>
<path d="M90.4485 16.227V49.2364C90.4485 49.7949 89.9104 50.2696 89.2496 50.2696H56.0425V15.1938H89.2496C89.9104 15.1938 90.4485 15.6574 90.4485 16.227Z" fill="#5468FF"/>
<path d="M72.3422 28.0044H60.5956C60.3977 28.0037 60.208 27.9246 60.0681 27.7845C59.9281 27.6443 59.8491 27.4544 59.8484 27.2561C59.8491 27.0579 59.9281 26.868 60.0681 26.7278C60.208 26.5876 60.3977 26.5085 60.5956 26.5078H72.345C72.5429 26.5085 72.7326 26.5876 72.8725 26.7278C73.0125 26.868 73.0915 27.0579 73.0922 27.2561C73.0915 27.4548 73.0121 27.6452 72.8715 27.7854C72.731 27.9257 72.5406 28.0044 72.3422 28.0044Z" fill="white"/>
<path d="M69.4871 28.7554H60.4618C60.123 28.7554 59.8484 29.0304 59.8484 29.3697V29.6405C59.8484 29.9798 60.123 30.2548 60.4618 30.2548H69.4871C69.8259 30.2548 70.1005 29.9798 70.1005 29.6405V29.3697C70.1005 29.0304 69.8259 28.7554 69.4871 28.7554Z" fill="white"/>
<path d="M60.7544 19.6113C60.8817 19.4387 61.0477 19.2984 61.2389 19.2017C61.4302 19.1051 61.6415 19.0547 61.8558 19.0547C62.07 19.0547 62.2813 19.1051 62.4726 19.2017C62.6639 19.2984 62.8298 19.4387 62.9571 19.6113C63.2303 20.0162 63.3763 20.4937 63.3763 20.9823C63.3763 21.4709 63.2303 21.9484 62.9571 22.3533C62.8291 22.5249 62.6629 22.6642 62.4717 22.7602C62.2806 22.8562 62.0696 22.9061 61.8558 22.9061C61.6419 22.9061 61.431 22.8562 61.2398 22.7602C61.0486 22.6642 60.8824 22.5249 60.7544 22.3533C60.4814 21.9494 60.3354 21.4728 60.3354 20.9851C60.3354 20.4974 60.4814 20.0208 60.7544 19.6169V19.6113ZM62.6699 19.8654C62.583 19.7288 62.4631 19.6163 62.3213 19.5384C62.1795 19.4604 62.0203 19.4196 61.8586 19.4196C61.6968 19.4196 61.5376 19.4604 61.3958 19.5384C61.254 19.6163 61.1341 19.7288 61.0472 19.8654C60.8253 20.1944 60.7139 20.5856 60.7294 20.9823C60.7151 21.378 60.8243 21.7684 61.0416 22.0992C61.1301 22.2352 61.2513 22.3469 61.394 22.4239C61.5367 22.501 61.6964 22.541 61.8586 22.5404C62.02 22.5414 62.1791 22.5015 62.3209 22.4243C62.4628 22.3472 62.5829 22.2353 62.6699 22.0992C62.8795 21.7645 62.9906 21.3774 62.9906 20.9823C62.9906 20.5872 62.8795 20.2001 62.6699 19.8654Z" fill="white"/>
<path d="M66.4004 19.5162C66.6723 19.8858 66.8056 20.3396 66.7768 20.7978C66.7991 21.9566 66.1718 22.9115 65.1625 22.9031C64.8829 22.9115 64.6077 22.8314 64.3762 22.6742V22.2972C64.5964 22.4531 64.8594 22.5369 65.129 22.5373C66.0101 22.5373 66.3753 21.736 66.3921 20.9486C66.2851 21.1003 66.1473 21.2278 65.9878 21.3225C65.8282 21.4172 65.6505 21.4771 65.4662 21.4982C65.2819 21.5193 65.0952 21.5011 64.9184 21.4449C64.7416 21.3887 64.5787 21.2957 64.4403 21.1719C64.3268 21.0612 64.2375 20.9281 64.178 20.781C64.1185 20.634 64.0901 20.4761 64.0946 20.3175C64.0893 20.1501 64.1185 19.9833 64.1804 19.8277C64.2423 19.6721 64.3355 19.5308 64.4543 19.4129C64.5733 19.296 64.7147 19.2044 64.8699 19.1434C65.0251 19.0825 65.191 19.0535 65.3576 19.0582C65.5552 19.0468 65.7527 19.0823 65.9339 19.1619C66.1151 19.2415 66.275 19.3629 66.4004 19.5162ZM64.7498 19.6753C64.6651 19.7575 64.5987 19.8567 64.555 19.9665C64.5112 20.0762 64.4912 20.1939 64.4961 20.3119C64.491 20.4268 64.5117 20.5413 64.5566 20.6471C64.6014 20.7529 64.6694 20.8473 64.7554 20.9234C64.9343 21.0789 65.1655 21.1607 65.4023 21.1524C65.6212 21.1522 65.8339 21.0796 66.0073 20.9458C66.1843 20.8179 66.3161 20.637 66.3837 20.4292C66.3196 19.7926 65.971 19.4184 65.3911 19.4184C65.2721 19.4167 65.1539 19.439 65.0437 19.4841C64.9335 19.5292 64.8335 19.5962 64.7498 19.6809V19.6753Z" fill="white"/>
<path d="M67.563 20.4183C67.6019 20.3791 67.6516 20.3523 67.7057 20.3414C67.7599 20.3305 67.816 20.3359 67.8671 20.357C67.9181 20.3781 67.9618 20.4139 67.9925 20.4599C68.0232 20.5058 68.0396 20.5599 68.0396 20.6152C68.0396 20.6705 68.0232 20.7245 67.9925 20.7705C67.9618 20.8164 67.9181 20.8522 67.8671 20.8733C67.816 20.8944 67.7599 20.8998 67.7057 20.8889C67.6516 20.878 67.6019 20.8512 67.563 20.812C67.5111 20.7597 67.4819 20.6889 67.4819 20.6152C67.4819 20.5414 67.5111 20.4706 67.563 20.4183ZM67.563 22.3952C67.6019 22.356 67.6516 22.3292 67.7057 22.3183C67.7599 22.3074 67.816 22.3128 67.8671 22.3339C67.9181 22.355 67.9618 22.3908 67.9925 22.4367C68.0232 22.4827 68.0396 22.5367 68.0396 22.592C68.0396 22.6473 68.0232 22.7014 67.9925 22.7473C67.9618 22.7933 67.9181 22.8291 67.8671 22.8502C67.816 22.8712 67.7599 22.8767 67.7057 22.8658C67.6516 22.8549 67.6019 22.8281 67.563 22.7889C67.5111 22.7366 67.4819 22.6658 67.4819 22.592C67.4819 22.5183 67.5111 22.4475 67.563 22.3952Z" fill="white"/>
<path d="M69.3977 22.8359V19.5411L68.5613 20.0186V19.6416L69.4368 19.1167H69.7825V22.8359H69.3977Z" fill="white"/>
<path d="M71.1375 19.6113C71.2648 19.4387 71.4307 19.2984 71.622 19.2017C71.8133 19.1051 72.0246 19.0547 72.2388 19.0547C72.4531 19.0547 72.6644 19.1051 72.8556 19.2017C73.0469 19.2984 73.2129 19.4387 73.3402 19.6113C73.6133 20.0162 73.7593 20.4937 73.7593 20.9823C73.7593 21.4709 73.6133 21.9484 73.3402 22.3533C73.2122 22.5249 73.046 22.6642 72.8548 22.7602C72.6636 22.8562 72.4527 22.9061 72.2388 22.9061C72.025 22.9061 71.814 22.8562 71.6229 22.7602C71.4317 22.6642 71.2655 22.5249 71.1375 22.3533C70.8644 21.9494 70.7185 21.4728 70.7185 20.9851C70.7185 20.4974 70.8644 20.0208 71.1375 19.6169V19.6113ZM73.053 19.8654C72.9661 19.7288 72.8462 19.6163 72.7044 19.5384C72.5625 19.4604 72.4034 19.4196 72.2416 19.4196C72.0799 19.4196 71.9207 19.4604 71.7789 19.5384C71.6371 19.6163 71.5172 19.7288 71.4303 19.8654C71.2083 20.1944 71.097 20.5856 71.1124 20.9823C71.0982 21.378 71.2073 21.7684 71.4247 22.0992C71.5132 22.2352 71.6343 22.3469 71.7771 22.4239C71.9198 22.501 72.0795 22.541 72.2416 22.5404C72.403 22.5414 72.5621 22.5015 72.704 22.4243C72.8458 22.3472 72.9659 22.2353 73.053 22.0992C73.2625 21.7645 73.3737 21.3774 73.3737 20.9823C73.3737 20.5872 73.2625 20.2001 73.053 19.8654Z" fill="white"/>
<path d="M76.0447 22.8362V19.1226H77.6033C78.3449 19.1226 78.791 19.5358 78.791 20.1529C78.791 20.77 78.3449 21.2 77.6033 21.2H76.435V22.8418L76.0447 22.8362ZM76.4378 20.837H77.5782C78.1023 20.837 78.4146 20.5885 78.4146 20.1557C78.4146 19.7229 78.1135 19.4716 77.5782 19.4716H76.4378V20.837Z" fill="white"/>
<path d="M79.5745 22.8362V19.1226H79.962L81.3031 20.9235L82.6442 19.1226H83.0262V22.8362H82.6414V19.7117L81.4258 21.3368H81.186L79.9592 19.7117V22.8362H79.5745Z" fill="white"/>
<path d="M38.7111 19.5386C36.9068 19.5386 35.1764 20.2564 33.9006 21.5341C32.6247 22.8117 31.908 24.5446 31.908 26.3516C31.908 30.1155 38.7111 38.4809 38.7111 38.4809C38.7111 38.4809 45.5142 30.1043 45.5142 26.3516C45.5142 24.5446 44.7975 22.8117 43.5216 21.5341C42.2458 20.2564 40.5154 19.5386 38.7111 19.5386ZM38.7111 29.4677C38.0819 29.4677 37.4668 29.2808 36.9437 28.9307C36.4205 28.5807 36.0127 28.0831 35.772 27.501C35.5312 26.9188 35.4682 26.2782 35.5909 25.6602C35.7137 25.0422 36.0167 24.4745 36.4616 24.029C36.9065 23.5834 37.4733 23.28 38.0905 23.1571C38.7076 23.0341 39.3472 23.0972 39.9285 23.3384C40.5098 23.5795 41.0067 23.9878 41.3563 24.5118C41.7058 25.0357 41.8924 25.6516 41.8924 26.2818C41.8924 27.1267 41.5572 27.9371 40.9606 28.5345C40.364 29.132 39.5548 29.4677 38.7111 29.4677Z" fill="#5468FF"/>
<path d="M81.5764 41.583H65.6699C64.3995 41.583 63.3696 42.6144 63.3696 43.8866V44.9113C63.3696 46.1835 64.3995 47.2149 65.6699 47.2149H81.5764C82.8468 47.2149 83.8766 46.1835 83.8766 44.9113V43.8866C83.8766 42.6144 82.8468 41.583 81.5764 41.583Z" fill="white"/>
<path d="M73.5802 45.6316C73.5242 45.6337 73.4687 45.6205 73.4195 45.5934C73.3704 45.5664 73.3296 45.5265 73.3014 45.478L72.4816 44.0819C72.4609 44.0467 72.4474 44.0078 72.4417 43.9673C72.4361 43.9269 72.4384 43.8857 72.4486 43.8462C72.4589 43.8066 72.4768 43.7695 72.5013 43.7369C72.5259 43.7043 72.5566 43.6768 72.5918 43.6561C72.6269 43.6354 72.6658 43.6218 72.7062 43.6161C72.7466 43.6105 72.7877 43.6128 72.8272 43.623C72.8667 43.6333 72.9037 43.6512 72.9363 43.6758C72.9689 43.7004 72.9963 43.7312 73.017 43.7664L73.5411 44.6655L74.5309 42.6272C74.5679 42.5531 74.6328 42.4968 74.7112 42.4706C74.7896 42.4444 74.8752 42.4505 74.9492 42.4875C75.0231 42.5246 75.0793 42.5895 75.1055 42.668C75.1316 42.7466 75.1256 42.8323 75.0886 42.9064L73.859 45.4557C73.8338 45.5083 73.7942 45.5528 73.7449 45.5839C73.6956 45.615 73.6385 45.6315 73.5802 45.6316Z" fill="#5468FF"/>
<path d="M73.5801 46.3522C73.1984 46.3522 72.8254 46.2389 72.5081 46.0266C72.1908 45.8143 71.9435 45.5125 71.7975 45.1594C71.6515 44.8064 71.6133 44.4179 71.6877 44.043C71.7622 43.6682 71.9459 43.3239 72.2157 43.0537C72.4856 42.7835 72.8294 42.5995 73.2036 42.5249C73.5779 42.4504 73.9658 42.4886 74.3184 42.6349C74.671 42.7811 74.9723 43.0288 75.1843 43.3465C75.3963 43.6643 75.5095 44.0378 75.5095 44.42C75.5095 44.6737 75.4596 44.925 75.3626 45.1594C75.2656 45.3938 75.1235 45.6069 74.9444 45.7863C74.7652 45.9657 74.5525 46.108 74.3184 46.2051C74.0843 46.3022 73.8334 46.3522 73.5801 46.3522ZM73.5801 42.7223C73.2431 42.7223 72.9137 42.8224 72.6336 43.0099C72.3534 43.1973 72.1351 43.4638 72.0062 43.7755C71.8772 44.0872 71.8435 44.4303 71.9092 44.7612C71.975 45.0921 72.1372 45.3961 72.3754 45.6347C72.6137 45.8733 72.9172 46.0358 73.2477 46.1016C73.5782 46.1675 73.9207 46.1337 74.232 46.0045C74.5433 45.8754 74.8093 45.6568 74.9965 45.3762C75.1837 45.0956 75.2836 44.7658 75.2836 44.4284C75.2844 44.2039 75.2408 43.9814 75.1556 43.7738C75.0703 43.5662 74.9449 43.3774 74.7866 43.2184C74.6284 43.0594 74.4403 42.9332 74.2333 42.8471C74.0262 42.7611 73.8042 42.7168 73.5801 42.7168V42.7223Z" fill="#5468FF"/>
<path d="M120.795 65.7773H80.6008C80.2606 65.7773 79.979 66.2409 79.979 66.8105V99.8172C79.979 100.376 80.2578 100.85 80.6008 100.85H120.795C121.138 100.85 121.417 100.384 121.417 99.8172V66.8105C121.417 66.2409 121.138 65.7773 120.795 65.7773Z" fill="white"/>
<path opacity="0.5" d="M120.795 65.7773H80.6008C80.2606 65.7773 79.979 66.2409 79.979 66.8105V99.8172C79.979 100.376 80.2578 100.85 80.6008 100.85H120.795C121.138 100.85 121.417 100.384 121.417 99.8172V66.8105C121.417 66.2409 121.138 65.7773 120.795 65.7773Z" fill="#5468FF"/>
<path d="M119.172 64.2753V97.2848C119.171 97.5586 119.062 97.8209 118.869 98.0145C118.676 98.2081 118.414 98.3172 118.14 98.3179H51.3888C51.1154 98.3172 50.8535 98.2081 50.6601 98.0145C50.4668 97.8209 50.3579 97.5586 50.3572 97.2848V64.2753C50.3579 64.0015 50.4668 63.7392 50.6601 63.5456C50.8535 63.352 51.1154 63.2429 51.3888 63.2422H118.14C118.414 63.2429 118.676 63.352 118.869 63.5456C119.062 63.7392 119.171 64.0015 119.172 64.2753Z" fill="#5468FF"/>
<path d="M119.172 64.2752V97.2846C119.171 97.5584 119.063 97.8208 118.869 98.0144C118.676 98.2079 118.414 98.317 118.141 98.3178H88.4521V63.2393H118.141C118.414 63.24 118.677 63.3495 118.87 63.5437C119.064 63.7378 119.172 64.0009 119.172 64.2752Z" fill="white"/>
<path opacity="0.2" d="M119.172 64.2752V97.2846C119.171 97.5584 119.063 97.8208 118.869 98.0144C118.676 98.2079 118.414 98.317 118.141 98.3178H88.4521V63.2393H118.141C118.414 63.24 118.677 63.3495 118.87 63.5437C119.064 63.7378 119.172 64.0009 119.172 64.2752Z" fill="#5468FF"/>
<path d="M103.586 87.9308C103.295 87.9285 103.009 87.8501 102.757 87.7031C102.505 87.5562 102.296 87.3459 102.151 87.0931L97.762 79.5821C97.5947 79.2049 97.5723 78.7791 97.6991 78.3863C97.826 77.9936 98.0931 77.6616 98.4494 77.454C98.8056 77.2463 99.2259 77.1777 99.6295 77.2613C100.033 77.3449 100.392 77.5747 100.637 77.9068L103.45 82.7261L108.747 71.8058C108.828 71.5863 108.954 71.3862 109.117 71.2184C109.28 71.0506 109.476 70.9188 109.693 70.8315C109.909 70.7442 110.142 70.7033 110.375 70.7115C110.609 70.7197 110.838 70.7767 111.048 70.879C111.258 70.9813 111.445 71.1265 111.595 71.3053C111.746 71.4841 111.858 71.6925 111.923 71.9171C111.988 72.1417 112.006 72.3776 111.975 72.6094C111.944 72.8413 111.864 73.064 111.742 73.2633L105.087 86.9898C104.954 87.261 104.751 87.4913 104.499 87.6564C104.247 87.8216 103.954 87.9154 103.653 87.928L103.586 87.9308Z" fill="#5468FF"/>
<path d="M103.586 91.7955C101.543 91.7955 99.5449 91.1886 97.8457 90.0515C96.1465 88.9145 94.822 87.2984 94.04 85.4075C93.2579 83.5167 93.0533 81.4361 93.452 79.4288C93.8507 77.4215 94.8348 75.5776 96.2799 74.1304C97.725 72.6833 99.5661 71.6977 101.571 71.2984C103.575 70.8992 105.653 71.1041 107.541 71.8873C109.429 72.6705 111.043 73.9968 112.178 75.6985C113.313 77.4003 113.919 79.4009 113.919 81.4475C113.916 84.1908 112.826 86.8207 110.889 88.7605C108.952 90.7004 106.326 91.7918 103.586 91.7955ZM103.586 72.3114C101.782 72.3114 100.018 72.8473 98.518 73.8511C97.0177 74.855 95.8484 76.2819 95.1579 77.9513C94.4674 79.6207 94.2868 81.4577 94.6388 83.2299C94.9908 85.0021 95.8597 86.63 97.1355 87.9077C98.4114 89.1854 100.037 90.0556 101.807 90.4081C103.576 90.7606 105.411 90.5797 107.078 89.8882C108.745 89.1967 110.169 88.0257 111.172 86.5233C112.174 85.0209 112.709 83.2545 112.709 81.4475C112.707 79.0249 111.745 76.7021 110.035 74.9888C108.325 73.2755 106.005 72.3116 103.586 72.3086V72.3114Z" fill="#5468FF"/>
<path d="M59.313 68.9692C58.5807 68.9692 57.8648 69.1867 57.2559 69.5942C56.647 70.0016 56.1725 70.5807 55.8922 71.2583C55.612 71.9358 55.5386 72.6814 55.6815 73.4007C55.8244 74.12 56.177 74.7807 56.6948 75.2993C57.2127 75.8179 57.8724 76.171 58.5907 76.3141C59.3089 76.4572 60.0534 76.3837 60.73 76.1031C61.4066 75.8224 61.9849 75.3472 62.3917 74.7374C62.7986 74.1276 63.0157 73.4107 63.0157 72.6773C63.0157 71.6939 62.6256 70.7507 61.9312 70.0553C61.2368 69.3599 60.2951 68.9692 59.313 68.9692ZM61.8754 72.7946H59.313C59.282 72.7946 59.2522 72.7822 59.2302 72.7602C59.2083 72.7382 59.1959 72.7084 59.1959 72.6773V69.9158C59.1959 69.8843 59.2084 69.8541 59.2306 69.8319C59.2529 69.8096 59.283 69.7971 59.3144 69.7971C59.3459 69.7971 59.376 69.8096 59.3982 69.8319C59.4205 69.8541 59.4329 69.8843 59.4329 69.9158V72.5572H61.8698C61.9012 72.5572 61.9314 72.5697 61.9536 72.592C61.9758 72.6142 61.9883 72.6444 61.9883 72.6759C61.9883 72.7074 61.9758 72.7375 61.9536 72.7598C61.9314 72.7821 61.9012 72.7946 61.8698 72.7946H61.8754Z" fill="white"/>
<path d="M78.3589 71.295H66.6095C66.4116 71.2942 66.2219 71.2152 66.082 71.075C65.942 70.9348 65.863 70.7449 65.8623 70.5467C65.863 70.3484 65.942 70.1585 66.082 70.0183C66.2219 69.8782 66.4116 69.7991 66.6095 69.7983H78.3589C78.5568 69.7991 78.7465 69.8782 78.8864 70.0183C79.0264 70.1585 79.1054 70.3484 79.1061 70.5467C79.1054 70.7449 79.0264 70.9348 78.8864 71.075C78.7465 71.2152 78.5568 71.2942 78.3589 71.295Z" fill="white"/>
<path d="M75.501 72.0459H66.4757C66.1369 72.0459 65.8623 72.3209 65.8623 72.6602V72.931C65.8623 73.2703 66.1369 73.5453 66.4757 73.5453H75.501C75.8398 73.5453 76.1144 73.2703 76.1144 72.931V72.6602C76.1144 72.3209 75.8398 72.0459 75.501 72.0459Z" fill="white"/>
<path d="M58.9422 83.3154C58.0597 83.3191 57.2143 83.6718 56.5903 84.2968C55.9662 84.9217 55.614 85.7683 55.6104 86.6521C55.6104 88.495 58.9422 92.5911 58.9422 92.5911C58.9422 92.5911 62.2741 88.495 62.2741 86.6521C62.2704 85.7683 61.9182 84.9217 61.2942 84.2968C60.6701 83.6718 59.8248 83.3191 58.9422 83.3154ZM58.9422 88.1767C58.634 88.1767 58.3326 88.0851 58.0763 87.9136C57.82 87.7421 57.6202 87.4983 57.5023 87.2131C57.3843 86.9279 57.3534 86.6141 57.4136 86.3113C57.4737 86.0085 57.6222 85.7304 57.8401 85.5121C58.0581 85.2938 58.3358 85.1452 58.6382 85.085C58.9405 85.0247 59.2539 85.0557 59.5387 85.1738C59.8235 85.2919 60.0669 85.492 60.2381 85.7487C60.4094 86.0053 60.5008 86.3071 60.5008 86.6158C60.5012 86.821 60.4611 87.0243 60.383 87.214C60.3048 87.4037 60.1901 87.5761 60.0453 87.7213C59.9005 87.8665 59.7286 87.9818 59.5393 88.0604C59.35 88.139 59.1471 88.1795 58.9422 88.1795V88.1767Z" fill="white"/>
<path d="M77.4638 85.7476H65.7172C65.5192 85.7469 65.3296 85.6678 65.1896 85.5276C65.0497 85.3874 64.9707 85.1975 64.97 84.9993C64.9707 84.801 65.0497 84.6111 65.1896 84.471C65.3296 84.3308 65.5192 84.2517 65.7172 84.251H77.4665C77.6645 84.2517 77.8541 84.3308 77.9941 84.471C78.1341 84.6111 78.213 84.801 78.2138 84.9993C78.213 85.198 78.1337 85.3883 77.9931 85.5286C77.8525 85.6689 77.6622 85.7476 77.4638 85.7476Z" fill="white"/>
<path d="M74.606 86.4985H65.5807C65.2419 86.4985 64.9673 86.7736 64.9673 87.1128V87.3837C64.9673 87.7229 65.2419 87.998 65.5807 87.998H74.606C74.9448 87.998 75.2194 87.7229 75.2194 87.3837V87.1128C75.2194 86.7736 74.9448 86.4985 74.606 86.4985Z" fill="white"/>
<path d="M10.5898 123.696C10.5898 123.696 10.534 126.025 10.4894 126.617C10.4448 127.209 8.55722 127.254 8.33975 126.946C8.12227 126.639 8.01074 123.914 8.01074 123.914" fill="#F5B58F"/>
<path d="M7.83792 127.46C7.8604 128.005 7.91815 128.548 8.01078 129.085H10.1856L10.2915 128.722C10.6843 128.924 11.1122 129.047 11.5518 129.085H13.3864C14.7303 129.085 15.4942 128.915 15.5277 128.678C15.6699 127.689 14.0639 127.734 13.6457 127.734C12.444 127.734 11.1363 127.175 10.8575 126.561C10.6512 126.117 10.7432 126.003 10.495 126.089C10.4142 126.115 10.3394 126.156 10.2751 126.211C10.2109 126.266 10.1586 126.334 10.1214 126.41C10.02 126.619 9.85621 126.791 9.65285 126.902C9.4495 127.013 9.21665 127.058 8.98664 127.03C8.70988 126.993 8.45205 126.869 8.25057 126.676C8.11156 126.75 7.99801 126.865 7.92449 127.005C7.85096 127.145 7.82082 127.303 7.83792 127.46Z" fill="#000D44"/>
<path d="M18.2207 123.071C18.0442 123.794 17.8226 124.506 17.5571 125.201C17.2978 125.737 15.5273 125.078 15.4381 124.71C15.3488 124.341 16.255 121.77 16.255 121.77" fill="#F5B58F"/>
<path d="M14.783 125.009C14.5543 125.584 14.2253 126.684 14.2253 126.684L15.8648 127.684L16.1882 127.438C16.4149 127.795 16.7096 128.103 17.0553 128.345C17.5686 128.639 18.1165 128.867 18.6864 129.024C20.192 129.367 21.3547 129.203 21.4746 128.993C21.9737 128.128 19.9773 127.65 19.587 127.494C19.1356 127.313 18.7417 127.012 18.4472 126.625C18.1526 126.238 17.9684 125.777 17.9141 125.294C17.8862 124.805 18.0117 124.735 17.7524 124.721C17.6678 124.715 17.5829 124.726 17.5029 124.754C17.4228 124.782 17.3492 124.826 17.2868 124.883C17.1153 125.039 16.8997 125.137 16.6699 125.165C16.4401 125.192 16.2075 125.148 16.0042 125.037C15.7587 124.901 15.5633 124.689 15.4466 124.434C15.2916 124.453 15.146 124.518 15.0279 124.621C14.9098 124.723 14.8246 124.858 14.783 125.009Z" fill="#000D44"/>
<path d="M6.60811 70.1865C5.82743 69.6086 4.97425 68.9608 4.16568 68.2823C2.31991 66.7326 0.674888 65.0461 0.468564 63.8147C0.01688 61.0644 0.370978 52.8944 0.588455 49.0384C0.588455 48.8066 0.610761 48.586 0.624701 48.3822C0.842179 44.7384 2.79947 43.1217 3.77812 42.5186C4.2772 47.2653 5.40362 57.9511 5.49563 58.5012C5.61552 59.2215 6.60811 70.1865 6.60811 70.1865Z" fill="#5468FF"/>
<path d="M6.61105 70.1862C5.82757 69.6082 4.99112 68.9576 4.15467 68.2819C4.08496 65.2691 3.18996 61.0612 1.92413 55.7951C0.426885 49.1553 1.3665 47.9351 1.3665 47.9351L4.37215 48.393C4.87123 53.0811 5.41492 58.1434 5.48741 58.5175C5.61846 59.2212 6.61105 70.1862 6.61105 70.1862Z" fill="#5468FF"/>
<path opacity="0.1" d="M6.61105 70.1862C5.82757 69.6082 4.99112 68.9576 4.15467 68.2819C4.08496 65.2691 3.18996 61.0612 1.92413 55.7951C0.426885 49.1553 1.3665 47.9351 1.3665 47.9351L4.37215 48.393C4.87123 53.0811 5.41492 58.1434 5.48741 58.5175C5.61846 59.2212 6.61105 70.1862 6.61105 70.1862Z" fill="#000D44"/>
<path d="M14.1252 84.491C14.2172 79.5125 14.1252 74.5367 13.8296 69.561L9.54978 69.9603L7.41125 70.1614C6.77834 70.22 5.70489 70.1111 5.13611 70.3736C4.29965 70.7617 3.91768 72.6073 3.74202 73.4925C3.48449 74.7643 3.39915 76.065 3.4883 77.3597C3.6305 79.7777 4.22995 82.1427 4.72903 84.5133C5.77256 89.4337 6.34764 94.442 6.44655 99.4712C6.5051 102.861 6.33223 106.253 6.38521 109.643C6.47164 114.979 7.12128 120.29 7.80438 125.581C8.80993 125.775 9.84598 125.744 10.8379 125.489C12.3519 111.866 13.877 98.1812 14.1252 84.491Z" fill="#1B255E"/>
<path d="M24.4383 93.7612C24.996 94.9647 25.2357 96.5283 25.5536 97.8211C25.9489 99.1805 26.1249 100.594 26.075 102.009C25.9662 103.626 25.4002 105.173 24.8426 106.692L18.4298 124.146C17.3872 124.098 16.3645 123.843 15.4214 123.395C15.6807 116.378 16.2829 109.171 19.3806 102.872C19.8239 101.973 20.3397 101.068 21.1539 100.485C21.5251 100.267 21.8776 100.019 22.2078 99.7421C22.5158 99.3925 22.75 98.9841 22.8965 98.5415C23.5127 97.0253 23.7524 95.2271 24.4383 93.7612Z" fill="#1B255E"/>
<path d="M20.1057 69.7314C20.1057 69.7314 24.8121 91.558 25.4283 97.4384C25.6904 99.9319 23.0723 104.05 20.6578 101.797C17.7748 99.1054 13.1074 86.7834 11.6575 84.6054C10.2077 82.4275 4.7847 80.4339 8.48739 69.3823" fill="#1B255E"/>
<path d="M8.48181 40.4131C8.48181 40.4131 9.12588 38.2296 8.84428 36.6157C8.56267 35.0018 7.59518 32.1007 7.95764 29.9144C8.3201 27.7281 11.0581 25.9244 13.955 26.2064C16.8519 26.4884 17.6995 29.2778 18.1819 30.8833C18.6642 32.4889 18.5834 34.9544 18.4607 36.2835C18.338 37.6126 17.6242 38.6624 17.1335 38.9444C16.6428 39.2265 14.8333 38.8551 14.5154 39.2013C14.1976 39.5476 13.9578 41.6054 13.9578 41.6054" fill="#F5B58F"/>
<path d="M7.11279 42.1385C7.11279 42.1385 7.27451 40.8653 7.75686 40.4129C8.23921 39.9606 11.4595 39.9606 12.427 40.0834C13.3945 40.2063 15.7728 41.3176 16.0907 41.5521C16.4086 41.7867 15.784 43.0125 15.784 43.0125L7.11279 42.1385Z" fill="#5468FF"/>
<path opacity="0.15" d="M7.11279 42.1385C7.11279 42.1385 7.27451 40.8653 7.75686 40.4129C8.23921 39.9606 11.4595 39.9606 12.427 40.0834C13.3945 40.2063 15.7728 41.3176 16.0907 41.5521C16.4086 41.7867 15.784 43.0125 15.784 43.0125L7.11279 42.1385Z" fill="#000D44"/>
<path d="M40.7659 29.4899C40.7436 29.2609 40.448 29.3698 40.3699 29.5597C40.3526 29.6127 40.3386 29.6668 40.3281 29.7216C40.356 29.3447 40.3755 29.0376 40.3699 28.9622C40.3476 28.7444 40.0744 28.8253 39.9824 28.9929C39.9824 28.8421 39.9824 28.7137 39.9824 28.6774C39.9601 28.3981 39.6618 28.5126 39.5837 28.7416C39.5529 28.8685 39.5296 28.9972 39.514 29.1269C39.5179 29.0562 39.5179 28.9854 39.514 28.9147C39.4917 28.6857 39.2352 28.7444 39.1515 28.9314C39.1132 29.0771 39.0861 29.2256 39.0707 29.3754C39.0344 29.6044 38.9675 29.8501 38.934 30.0818C38.9003 30.3029 38.8509 30.5212 38.7863 30.7352C38.5037 31.0878 38.1415 31.3682 37.7296 31.5533L37.1022 31.2127C37.0092 31.6931 36.9588 32.1809 36.9517 32.6702C36.9935 33.0081 37.2305 33.4325 37.211 33.6363C37.1446 33.8923 37.0579 34.1425 36.9517 34.3846L38.6831 35.105C38.6831 35.105 38.9145 34.0691 39.1487 33.829C39.5737 33.3809 39.9686 32.9052 40.3309 32.405C40.4344 32.1237 40.521 31.8365 40.5902 31.545L40.7129 30.8972L40.7687 30.2661C40.7687 30.2661 40.7742 29.5653 40.7659 29.4899Z" fill="#F5B58F"/>
<path d="M38.9928 34.714C38.9928 34.714 38.4073 38.1066 37.8301 40.8206C37.3728 42.9148 36.8013 45.1011 35.8087 47.0751C35.8087 47.0891 35.8087 47.1114 35.7947 47.1254C35.2371 48.3651 34.1609 49.8813 33.436 50.0377C32.711 50.194 30.1682 50.0237 30.1682 50.0237C28.5901 50.1159 24.6281 49.5937 21.2461 49.1414L21.0899 49.119C19.5202 48.9068 18.0843 48.717 17.0973 48.6109C16.6424 48.5705 16.2138 48.38 15.8788 48.0692C15.5827 47.7985 15.3821 47.4389 15.3073 47.0444C15.3073 47.0444 15.3073 47.0444 15.3073 47.0305C15.0814 45.9387 15.8008 45.0759 16.7292 44.4226C16.7723 44.3922 16.8169 44.3642 16.8631 44.3388C15.7143 43.1968 14.5405 41.9487 14.5405 41.9487C14.5405 41.9487 17.7776 42.105 19.5871 42.2279C20.8195 42.3116 29.2258 44.5622 30.2323 44.8777C30.3104 44.9056 30.3801 44.9335 30.4498 44.9559C30.4498 44.9559 30.5753 44.9698 30.7677 45.0117C30.8234 45.0257 30.8931 45.0536 30.9656 45.0759C31.2748 44.2585 31.6861 43.4835 32.1896 42.7696C33.9908 40.2314 36.9295 34.083 36.9295 34.083L38.5634 34.5689H38.5857L38.9928 34.714Z" fill="#5468FF"/>
<path d="M8.61556 37.6653C8.61556 37.6653 12.6417 38.0088 13.4056 37.6653C14.1696 37.3219 15.2765 36.5764 15.3769 35.2054C15.4773 33.8344 15.1956 33.4128 15.7198 32.6449C16.244 31.8771 16.7068 32.1423 16.7877 32.8655C16.8685 33.5887 16.8992 34.901 17.0888 34.9988C17.3453 35.13 17.6464 34.2058 17.5517 32.8069C17.4652 31.5923 17.3314 30.6513 16.9689 29.8444V29.8192C16.8448 29.5523 16.7972 29.256 16.8317 28.9636C16.8662 28.6711 16.9813 28.3941 17.1641 28.1634C17.293 28.0007 17.4131 27.831 17.5238 27.6553C18.3295 26.396 17.8862 24.4331 15.7533 24.4414C12.4995 24.4414 9.06167 24.9999 8.19455 26.9907C7.95702 27.4639 7.62596 27.8837 7.22148 28.2249C6.91478 28.5041 6.62202 29.096 6.60251 30.266C6.56347 32.779 8.17224 35.8281 8.29214 36.6155C8.41203 37.4029 8.20013 37.4838 8.61556 37.6653Z" fill="#000D44"/>
<path d="M19.7906 67.2797C19.9384 68.5418 21.0425 70.4936 20.2897 70.77C19.9858 70.8761 18.7562 70.8063 17.2478 70.6778H17.206C17.1781 70.6778 17.1558 70.6778 17.1363 70.6778C15.7979 70.5662 14.27 70.4182 12.9903 70.3176C7.87118 70.0999 5.26146 71.1218 4.74565 70.8314C4.50029 70.6834 4.49192 70.2395 4.56999 69.7815C4.75963 68.6586 4.7878 67.5143 4.65363 66.3834C4.52817 65.4313 4.34972 64.2977 4.096 62.9993C3.25955 58.5094 1.58665 51.6489 1.34965 47.5249C0.95652 41.0609 7.86839 41.6612 7.86839 41.6612C16.6679 41.1028 20.7999 43.6493 21.2795 47.4355C21.3157 47.7147 21.3353 47.9939 21.3576 48.2955C21.5834 52.2046 20.3929 58.5038 19.8296 63.2143C19.7004 64.5658 19.6874 65.926 19.7906 67.2797Z" fill="#5468FF"/>
</svg>
