<svg width="157" height="129" viewBox="0 0 157 129" fill="none" xmlns="http://www.w3.org/2000/svg">
<path d="M17.0249 113.387H35.6165L35.6165 53.1135H17.0249L17.0249 113.387Z" fill="white"/>
<path opacity="0.7" d="M17.0249 113.387H35.6165L35.6165 53.1135H17.0249L17.0249 113.387Z" fill="#5468FF"/>
<path d="M1.24351 113.377H17.0249L17.0249 53.123H1.24351L1.24351 113.377Z" fill="#5468FF"/>
<path d="M19.2469 68.5381H34.1631V55.5543H19.2469V68.5381Z" fill="white"/>
<path d="M19.2469 82.9941H34.1631V70.0104H19.2469V82.9941Z" fill="white"/>
<path opacity="0.6" d="M19.2469 82.9941H34.1631V70.0104H19.2469V82.9941Z" fill="#5468FF"/>
<path d="M19.2469 97.4507H34.1631V84.4669H19.2469V97.4507Z" fill="white"/>
<path d="M19.2469 111.907H34.1631V98.9235H19.2469V111.907Z" fill="white"/>
<path opacity="0.6" d="M19.2469 68.5381H34.1631V55.5543H19.2469V68.5381Z" fill="#5468FF"/>
<path opacity="0.6" d="M19.2469 97.4507H34.1631V84.4669H19.2469V97.4507Z" fill="#5468FF"/>
<path opacity="0.6" d="M19.2469 111.907H34.1631V98.9235H19.2469V111.907Z" fill="#5468FF"/>
<path d="M27.2245 58.4707C27.5107 58.4707 27.7426 58.2383 27.7426 57.9517C27.7426 57.665 27.5107 57.4326 27.2245 57.4326C26.9383 57.4326 26.7063 57.665 26.7063 57.9517C26.7063 58.2383 26.9383 58.4707 27.2245 58.4707Z" fill="white"/>
<path d="M27.2245 73.0938C27.5107 73.0938 27.7426 72.8614 27.7426 72.5747C27.7426 72.2881 27.5107 72.0557 27.2245 72.0557C26.9383 72.0557 26.7063 72.2881 26.7063 72.5747C26.7063 72.8614 26.9383 73.0938 27.2245 73.0938Z" fill="white"/>
<path d="M27.2245 87.7188C27.5107 87.7188 27.7426 87.4864 27.7426 87.1997C27.7426 86.9131 27.5107 86.6807 27.2245 86.6807C26.9383 86.6807 26.7063 86.9131 26.7063 87.1997C26.7063 87.4864 26.9383 87.7188 27.2245 87.7188Z" fill="white"/>
<path d="M27.2245 102.342C27.5107 102.342 27.7426 102.109 27.7426 101.823C27.7426 101.536 27.5107 101.304 27.2245 101.304C26.9383 101.304 26.7063 101.536 26.7063 101.823C26.7063 102.109 26.9383 102.342 27.2245 102.342Z" fill="white"/>
<path d="M33.4666 125.478H35.6165V113.387H33.4666V125.478Z" fill="#5468FF"/>
<path d="M17.0997 125.478H19.2495V113.387H17.0997V125.478Z" fill="#5468FF"/>
<path d="M1.4725 125.478H3.62231L3.62231 113.387H1.4725L1.4725 125.478Z" fill="#5468FF"/>
<path d="M125.41 105.027H108.32L111.398 123.329C111.462 123.711 111.633 124.067 111.891 124.355C112.149 124.644 112.484 124.853 112.856 124.959L112.916 124.976C112.967 124.988 113.015 125.005 113.068 125.014C113.182 125.037 113.298 125.049 113.415 125.053V125.07L113.499 125.058H121.115C121.256 125.058 121.396 125.044 121.534 125.017C121.978 124.949 122.387 124.737 122.699 124.414C123.011 124.091 123.209 123.674 123.263 123.228L124.747 110.616L124.815 110.114L125.403 105.119L125.41 105.027ZM122.185 116.702H120.431L120.607 111.391H122.638L122.185 116.702ZM122.809 111.391H124.496L123.872 116.702H122.356L122.809 111.391ZM117.801 122.59L117.695 117.977H120.221L120.067 122.59H117.801ZM115.071 117.977H117.524L117.63 122.59H115.43L115.071 117.977ZM115.261 122.59H113.203C113.007 121.345 112.752 119.725 112.48 117.977H114.902L115.261 122.59ZM114.981 116.702L114.567 111.391H117.382L117.505 116.702H114.981ZM117.676 116.702L117.553 111.391H120.445L120.269 116.702H117.676ZM117.524 110.116L117.391 105.196H120.645L120.481 110.116H117.524ZM117.355 110.116H114.463L114.08 105.196H117.235L117.355 110.116ZM114.299 110.116H111.234L110.93 108.216C110.612 106.227 110.491 105.478 110.426 105.198H113.904L114.299 110.116ZM114.398 111.391L114.813 116.702H112.275L112.017 115.072C111.819 113.819 111.622 112.564 111.434 111.391H114.398ZM112.116 116.702H110.467L109.573 111.391H111.277C111.525 113.032 111.814 114.858 112.104 116.702H112.116ZM112.316 117.977C112.557 119.573 112.815 121.149 113.039 122.59H111.455L110.679 117.977H112.316ZM120.245 122.59L120.399 117.977H122.086L121.691 122.59H120.245ZM120.66 110.116L120.823 105.196H123.176L122.754 110.116H120.66ZM110.265 105.196C110.332 105.551 110.646 107.487 111.063 110.116H109.347L108.52 105.196H110.265ZM123.171 122.578H121.85L122.245 117.965H123.713L123.171 122.578ZM124.639 110.104H122.918L123.34 105.184H125.217L124.639 110.104Z" fill="#5468FF"/>
<path d="M156.416 56.4139C156.416 55.5231 155.31 54.7964 153.946 54.7964H30.0902C28.7261 54.7964 27.6199 55.5207 27.6199 56.4139V59.3617H36.7253V126.255H39.762V59.3593H143.638V126.345H146.674V59.3593H156.411L156.416 56.4139Z" fill="white"/>
<path opacity="0.2" d="M156.416 56.4139C156.416 55.5231 155.31 54.7964 153.946 54.7964H30.0902C28.7261 54.7964 27.6199 55.5207 27.6199 56.4139V59.3617H36.7253V126.255H39.762V59.3593H143.638V126.345H146.674V59.3593H156.411L156.416 56.4139Z" fill="#5468FF"/>
<path d="M85.4455 54.8491H98.5251V20.1831H85.4455V54.8491Z" fill="#5468FF"/>
<path opacity="0.2" d="M85.4455 54.8491H98.5251V20.1831H85.4455V54.8491Z" fill="#000D44"/>
<path d="M116.789 9.30975V42.6841L104.136 42.4813L90.8803 42.2689L86.6939 42.2013L73.2865 41.9864L65.1909 41.8464V9.30975C65.1916 8.74991 65.414 8.21322 65.8094 7.81758C66.2049 7.42194 66.7409 7.19971 67.2998 7.19971H114.675C114.952 7.19908 115.227 7.25317 115.483 7.3589C115.739 7.46462 115.972 7.61991 116.169 7.81587C116.365 8.01184 116.521 8.24465 116.627 8.50098C116.734 8.75731 116.789 9.03214 116.789 9.30975V9.30975Z" fill="#5468FF"/>
<path opacity="0.2" d="M116.789 9.30975V42.6841L104.136 42.4813L90.8803 42.2689L86.6939 42.2013L73.2865 41.9864L65.1909 41.8464V9.30975C65.1916 8.74991 65.414 8.21322 65.8094 7.81758C66.2049 7.42194 66.7409 7.19971 67.2998 7.19971H114.675C114.952 7.19908 115.227 7.25317 115.483 7.3589C115.739 7.46462 115.972 7.61991 116.169 7.81587C116.365 8.01184 116.521 8.24465 116.627 8.50098C116.734 8.75731 116.789 9.03214 116.789 9.30975V9.30975Z" fill="#000D44"/>
<path d="M114.666 10.0605H67.3141C67.2063 10.0605 67.1189 10.1481 67.1189 10.2561V39.6977C67.1189 39.8057 67.2063 39.8932 67.3141 39.8932H114.666C114.773 39.8932 114.861 39.8057 114.861 39.6977V10.2561C114.861 10.1481 114.773 10.0605 114.666 10.0605Z" fill="white"/>
<path d="M65.2078 41.6943V44.1858C65.2078 45.1623 65.595 46.0987 66.2843 46.7892C66.9735 47.4796 67.9084 47.8675 68.8832 47.8675H113.114C114.088 47.8675 115.023 47.4796 115.712 46.7892C116.402 46.0987 116.789 45.1623 116.789 44.1858V41.6943H65.2078Z" fill="#5468FF"/>
<path d="M80.4348 54.9821H102C102.32 54.9821 102.627 54.8549 102.853 54.6285C103.079 54.4022 103.205 54.0951 103.205 53.775V53.775C103.205 53.4548 103.079 53.1478 102.853 52.9214C102.627 52.6951 102.32 52.5679 102 52.5679H80.4348C80.1152 52.5679 79.8087 52.6951 79.5827 52.9214C79.3567 53.1478 79.2297 53.4548 79.2297 53.775C79.2297 54.0951 79.3567 54.4022 79.5827 54.6285C79.8087 54.8549 80.1152 54.9821 80.4348 54.9821Z" fill="#5468FF"/>
<path d="M76.8054 121.436C76.9945 121.416 77.1744 121.344 77.3259 121.229C77.3259 121.262 77.3452 121.299 77.3549 121.332C77.3875 121.468 77.391 121.609 77.365 121.746C77.339 121.883 77.2842 122.013 77.2042 122.127C77.1241 122.242 77.0207 122.337 76.9009 122.408C76.781 122.479 76.6474 122.524 76.5089 122.539C74.4688 122.766 72.4182 122.885 70.3655 122.894C67.2179 122.894 64.5813 122.771 63.7691 122.728C63.6985 122.725 63.6321 122.694 63.5842 122.642C63.5364 122.59 63.511 122.521 63.5136 122.45C63.5136 122.259 63.5305 121.967 63.5473 121.622C64.5114 121.668 67.1794 121.784 70.3607 121.784C72.5134 121.777 74.6644 121.661 76.8054 121.436V121.436Z" fill="white"/>
<path d="M68.6641 117.834C68.6641 117.834 74.1687 118.013 75.6967 118.677C76.5933 119.065 77.0777 120.284 77.3284 121.228C77.1769 121.344 76.9969 121.415 76.8078 121.436C74.6669 121.663 72.516 121.781 70.3632 121.791C67.1818 121.791 64.5042 121.675 63.5498 121.629C63.5932 120.724 63.6848 119.396 63.8703 118.201C65.4776 118.315 67.0927 118.191 68.6641 117.834V117.834Z" fill="#000D44"/>
<path d="M90.6778 121.403C90.7152 121.397 90.7523 121.389 90.7886 121.378C90.8055 121.448 90.8272 121.521 90.8417 121.586C90.8662 121.69 90.8683 121.799 90.8479 121.904C90.8275 122.009 90.785 122.108 90.7232 122.196C90.6615 122.283 90.5819 122.357 90.4897 122.411C90.3975 122.465 90.2948 122.499 90.1885 122.511C87.9531 122.758 85.7061 122.887 83.4571 122.897C80.1384 122.897 77.3643 122.771 76.5304 122.73C76.4635 122.725 76.4011 122.695 76.3562 122.645C76.3113 122.595 76.2874 122.53 76.2894 122.462C76.2894 122.274 76.3063 121.98 76.3232 121.634C77.4728 121.685 80.2203 121.789 83.4547 121.789C86.4962 121.789 89.3113 121.545 90.6778 121.403Z" fill="white"/>
<path d="M81.676 117.834C81.676 117.834 87.441 118.013 89.0413 118.677C90.0343 119.087 90.5428 120.422 90.7911 121.38C90.7547 121.391 90.7176 121.399 90.6802 121.405C89.3137 121.545 86.4987 121.791 83.4499 121.791C80.2155 121.791 77.468 121.687 76.3184 121.636C76.3724 120.485 76.4867 119.338 76.6606 118.199C78.3412 118.312 80.0295 118.19 81.676 117.834Z" fill="#000D44"/>
<path d="M51.5955 68.9217C64.1642 68.5475 71.3584 71.4856 71.944 75.3919C72.5297 79.2981 69.7002 117.882 69.7002 117.882C69.7002 117.882 67.5142 119.089 63.8581 118.365C63.8581 118.365 61.4938 105.526 60.7467 99.4183C59.9995 93.3103 60.684 85.015 60.684 85.015C60.684 85.015 48.9251 89.1361 41.8321 84.648C34.7392 80.16 41.2103 67.6929 41.2103 67.6929L51.5955 68.9217Z" fill="#1B255E"/>
<path d="M64.3499 68.9217C76.9186 68.5475 84.1128 71.4856 84.6985 75.3919C85.2841 79.2981 82.2884 117.858 82.2884 117.858C82.2884 117.858 80.4735 118.99 76.615 118.491C76.615 118.491 74.2506 105.536 73.5035 99.4183C72.7564 93.3006 73.4408 85.015 73.4408 85.015C73.4408 85.015 61.6819 89.1361 54.589 84.648C47.496 80.16 53.9672 67.6929 53.9672 67.6929L64.3499 68.9217Z" fill="#1B255E"/>
<path d="M59.2065 5.59863C60.0345 7.59467 60.5796 9.69692 60.8261 11.8443C60.8261 11.8443 61.9589 13.8408 61.983 14.5651C62.0071 15.2894 60.9249 15.5815 60.9249 15.5815C60.9249 15.5815 60.9249 19.5288 59.9392 20.7769C58.9535 22.0251 55.4516 22.0492 55.4516 22.0492C55.4516 22.0492 55.0202 23.1598 56.0493 27.5006H46.2136C46.2136 27.5006 47.3753 24.3621 47.5874 19.396C47.7995 14.4299 45.4737 5.59863 59.2065 5.59863Z" fill="#F5B58F"/>
<path d="M45.216 4.32174C45.4158 4.10169 45.6398 3.90489 45.8836 3.73508C46.8506 3.04625 47.9533 2.57216 49.1179 2.34449C50.6411 2.00408 52.2125 1.92199 53.7478 1.63229C55.5312 1.29671 57.2497 0.681078 58.9656 0.0871762C59.0658 0.0367357 59.1753 0.00749026 59.2873 0.00126012C59.3992 -0.00497002 59.5112 0.011949 59.6164 0.0509632C59.7016 0.113916 59.773 0.193777 59.8261 0.285571C59.8791 0.377365 59.9128 0.479124 59.9249 0.584509C60.1203 1.41021 60.1563 2.26572 60.0309 3.10497L60.6841 2.50624C60.9034 3.26189 60.7564 4.0779 60.4961 4.82149C60.2358 5.56507 59.867 6.27003 59.6236 7.01361C59.1416 8.52492 59.1826 10.1521 59.3971 11.7359C59.4874 12.1601 59.4947 12.598 59.4188 13.0251C59.3103 13.4451 58.9705 13.8387 58.5391 13.8556C58.5172 13.3594 58.3872 12.8741 58.1583 12.4336C57.898 12.0135 57.3822 11.7093 56.9098 11.8542C56.4374 11.999 56.1868 12.506 56.1169 12.9864C56.0093 13.6726 56.1476 14.3747 56.5073 14.9685C56.6785 15.2486 56.905 15.5407 56.8496 15.8618C56.8052 16.0282 56.7226 16.1819 56.6086 16.3108L55.5216 17.7787C55.0396 18.4136 54.5576 19.0631 53.9068 19.5C53.1413 19.9573 52.272 20.2115 51.381 20.2388C50.5226 20.3214 49.6562 20.2478 48.8239 20.0215C48.4782 19.9395 48.1579 19.7737 47.8912 19.5387C47.675 19.2979 47.5043 19.0198 47.3875 18.7178C46.7958 17.4408 46.2838 16.1281 45.8547 14.7874C45.0631 12.2313 44.7038 9.56053 44.7918 6.88566C44.7763 6.20143 44.8279 5.51732 44.946 4.84322C44.9941 4.65065 45.0866 4.47205 45.216 4.32174V4.32174Z" fill="#000D44"/>
<path d="M44.4593 63.9894C43.3819 63.1903 42.2058 62.2994 41.0851 61.3627C38.54 59.2213 36.2649 56.8964 35.9853 55.2016C35.3635 51.4064 35.8503 40.1271 36.1516 34.8013C36.1516 34.4802 36.1805 34.1784 36.1998 33.896C36.5011 28.8647 39.6318 26.7691 40.9815 25.9531C41.6708 32.4933 42.7963 47.1235 42.9216 47.8816C43.0903 48.8473 44.4593 63.9894 44.4593 63.9894Z" fill="#5468FF"/>
<path d="M44.5557 26.1539C44.5557 26.1539 45.1534 23.6455 45.8186 23.0153C46.4838 22.3852 50.6581 22.3514 51.9933 22.518C53.3285 22.6846 57.3124 23.6962 57.7462 24.0221C58.18 24.348 58.8259 26.1539 58.8259 26.1539H44.5557Z" fill="#1634E2"/>
<path d="M37.2144 32.6986C36.6697 23.766 46.2113 24.6206 46.2113 24.6206C58.3558 23.8625 64.0606 27.3656 64.7209 32.5876C64.7691 32.9569 64.7981 33.3553 64.827 33.7754C65.1379 39.1663 63.4966 47.8672 62.7181 54.3688C62.7037 54.4895 62.694 54.6102 62.682 54.7333C62.441 58.3547 64.3498 68.9169 64.3498 68.9169C64.3498 68.9169 59.4066 69.9164 51.6244 69.9164C43.8422 69.9164 40.6512 69.1922 40.6512 69.1922C40.6512 69.1922 41.9743 59.2552 40.6512 52.2925C39.4389 46.17 37.5253 37.8771 37.2144 32.6986Z" fill="#5468FF"/>
<path d="M58.0691 38.0366L56.6785 25.8182C56.6785 25.8182 62.2458 25.374 64.6945 27.4333C65.6127 28.2059 67.6686 33.2106 68.8061 38.2974C67.7047 39.1423 64.6246 40.5812 60.5491 41.5155C59.5031 39.4683 58.5583 37.9642 58.0691 38.0366Z" fill="#5468FF"/>
<path d="M90.3984 54.9095C90.1853 54.1764 89.8478 53.4855 89.4006 52.8671C88.6776 51.8676 86.441 51.7348 82.9536 52.1428C82.7125 52.0535 73.9928 48.7919 70.1414 48.3911C69.7462 46.2931 68.9653 42.2613 68.0735 38.2803C66.9721 39.1253 64.9717 39.0577 60.8962 39.992C62.8725 44.7142 65.2152 52.0197 65.2152 52.0197C67.9169 55.9549 77.9429 55.2765 81.587 54.8878L90.3984 54.9095Z" fill="#F5B58F"/>
<path d="M27.8826 126.629C28.0062 126.661 28.135 126.668 28.2611 126.648C28.3873 126.629 28.5082 126.584 28.6164 126.516C28.7247 126.448 28.818 126.359 28.8907 126.254C28.9635 126.149 29.0141 126.03 29.0394 125.905L40.5357 84.8196L37.147 83.7983L27.2102 125.355C27.144 125.613 27.1762 125.886 27.3005 126.122C27.4248 126.358 27.6323 126.539 27.8826 126.629V126.629Z" fill="white"/>
<path opacity="0.6" d="M27.8826 126.629C28.0062 126.661 28.135 126.668 28.2611 126.648C28.3873 126.629 28.5082 126.584 28.6164 126.516C28.7247 126.448 28.818 126.359 28.8907 126.254C28.9635 126.149 29.0141 126.03 29.0394 125.905L40.5357 84.8196L37.147 83.7983L27.2102 125.355C27.144 125.613 27.1762 125.886 27.3005 126.122C27.4248 126.358 27.6323 126.539 27.8826 126.629V126.629Z" fill="#5468FF"/>
<path d="M76.1111 126.629C75.9875 126.661 75.8587 126.668 75.7325 126.648C75.6064 126.629 75.4855 126.584 75.3772 126.516C75.269 126.448 75.1756 126.359 75.1029 126.254C75.0302 126.149 74.9796 126.03 74.9542 125.905L63.4556 84.8196L66.8442 83.7983L76.7811 125.347C76.8494 125.606 76.8186 125.881 76.6946 126.119C76.5706 126.356 76.3624 126.538 76.1111 126.629V126.629Z" fill="white"/>
<path opacity="0.6" d="M76.1111 126.629C75.9875 126.661 75.8587 126.668 75.7325 126.648C75.6064 126.629 75.4855 126.584 75.3772 126.516C75.269 126.448 75.1756 126.359 75.1029 126.254C75.0302 126.149 74.9796 126.03 74.9542 125.905L63.4556 84.8196L66.8442 83.7983L76.7811 125.347C76.8494 125.606 76.8186 125.881 76.6946 126.119C76.5706 126.356 76.3624 126.538 76.1111 126.629V126.629Z" fill="#5468FF"/>
<path d="M62.0336 126.653C61.9058 126.669 61.7762 126.658 61.6524 126.623C61.5287 126.587 61.4133 126.527 61.3131 126.446C61.2129 126.365 61.1299 126.265 61.0691 126.151C61.0082 126.037 60.9707 125.913 60.9587 125.784L54.1526 83.5087L57.6207 82.9365L62.8338 125.475C62.8745 125.737 62.8145 126.004 62.6659 126.223C62.5173 126.441 62.2913 126.595 62.0336 126.653V126.653Z" fill="white"/>
<path opacity="0.6" d="M62.0336 126.653C61.9058 126.669 61.7762 126.658 61.6524 126.623C61.5287 126.587 61.4133 126.527 61.3131 126.446C61.2129 126.365 61.1299 126.265 61.0691 126.151C61.0082 126.037 60.9707 125.913 60.9587 125.784L54.1526 83.5087L57.6207 82.9365L62.8338 125.475C62.8745 125.737 62.8145 126.004 62.6659 126.223C62.5173 126.441 62.2913 126.595 62.0336 126.653V126.653Z" fill="#5468FF"/>
<path d="M41.3453 126.653C41.4731 126.669 41.6028 126.658 41.7265 126.623C41.8503 126.587 41.9656 126.527 42.0658 126.446C42.166 126.365 42.249 126.265 42.3099 126.151C42.3707 126.037 42.4083 125.913 42.4202 125.784L49.2264 83.5063L45.7534 82.9341L40.5451 125.475C40.5045 125.737 40.5645 126.004 40.713 126.223C40.8616 126.441 41.0876 126.595 41.3453 126.653V126.653Z" fill="white"/>
<path opacity="0.6" d="M41.3453 126.653C41.4731 126.669 41.6028 126.658 41.7265 126.623C41.8503 126.587 41.9656 126.527 42.0658 126.446C42.166 126.365 42.249 126.265 42.3099 126.151C42.3707 126.037 42.4083 125.913 42.4202 125.784L49.2264 83.5063L45.7534 82.9341L40.5451 125.475C40.5045 125.737 40.5645 126.004 40.713 126.223C40.8616 126.441 41.0876 126.595 41.3453 126.653V126.653Z" fill="#5468FF"/>
<path d="M24.5179 42.3289V42.382C24.5445 42.5558 24.5782 42.7538 24.6264 42.9759C24.7011 43.2873 24.7927 43.6108 24.9012 43.9585C25.482 45.8778 26.446 48.5238 26.6581 53.5575C26.8316 57.751 26.1207 63.4558 26.4364 68.6271C26.7521 73.7984 27.6414 81.0556 33.0618 84.9377C34.1096 85.7026 35.2666 86.3049 36.4938 86.7242C37.5748 87.1046 38.6835 87.4008 39.8101 87.6103C41.5721 87.9379 43.3539 88.1476 45.1437 88.238C46.2668 88.3007 47.3923 88.3297 48.5009 88.3418C50.7616 88.3611 52.9476 88.2935 54.8709 88.238L56.2856 88.2017C56.864 88.1873 57.5123 88.1535 58.2137 88.0979C59.9224 87.9676 61.9686 87.7261 64.1233 87.4026C65.2343 87.236 66.3767 87.0453 67.5167 86.8425C73.8529 85.6982 80.1167 84.0203 80.9121 82.5476C81.1769 82.1205 81.2843 81.614 81.2157 81.116C81.2067 81.0406 81.1906 80.9662 81.1675 80.8939C81.1172 80.7414 81.0458 80.5968 80.9555 80.4641C80.8866 80.3526 80.8058 80.249 80.7144 80.1551C80.3931 79.8494 79.9983 79.6323 79.5683 79.5248C79.1384 79.4174 78.688 79.4233 78.261 79.5419C75.5592 80.2324 67.5022 81.7702 63.8871 77.1711C59.5031 71.5991 61.4119 72.0698 59.5248 58.4994C57.7509 45.6629 54.1623 43.0725 47.5489 40.5061C41.8707 38.3188 33.4522 38.6351 28.8682 39.299C27.9889 39.4085 27.1183 39.5795 26.2629 39.8108C25.8182 39.9418 25.4198 40.1964 25.1139 40.5451C24.8081 40.8938 24.6072 41.3223 24.5348 41.7809C24.5055 41.962 24.4998 42.1463 24.5179 42.3289Z" fill="white"/>
<path opacity="0.5" d="M24.5179 42.3289V42.382C24.5445 42.5558 24.5782 42.7538 24.6264 42.9759C24.7011 43.2873 24.7927 43.6108 24.9012 43.9585C25.482 45.8778 26.446 48.5238 26.6581 53.5575C26.8316 57.751 26.1207 63.4558 26.4364 68.6271C26.7521 73.7984 27.6414 81.0556 33.0618 84.9377C34.1096 85.7026 35.2666 86.3049 36.4938 86.7242C37.5748 87.1046 38.6835 87.4008 39.8101 87.6103C41.5721 87.9379 43.3539 88.1476 45.1437 88.238C46.2668 88.3007 47.3923 88.3297 48.5009 88.3418C50.7616 88.3611 52.9476 88.2935 54.8709 88.238L56.2856 88.2017C56.864 88.1873 57.5123 88.1535 58.2137 88.0979C59.9224 87.9676 61.9686 87.7261 64.1233 87.4026C65.2343 87.236 66.3767 87.0453 67.5167 86.8425C73.8529 85.6982 80.1167 84.0203 80.9121 82.5476C81.1769 82.1205 81.2843 81.614 81.2157 81.116C81.2067 81.0406 81.1906 80.9662 81.1675 80.8939C81.1172 80.7414 81.0458 80.5968 80.9555 80.4641C80.8866 80.3526 80.8058 80.249 80.7144 80.1551C80.3931 79.8494 79.9983 79.6323 79.5683 79.5248C79.1384 79.4174 78.688 79.4233 78.261 79.5419C75.5592 80.2324 67.5022 81.7702 63.8871 77.1711C59.5031 71.5991 61.4119 72.0698 59.5248 58.4994C57.7509 45.6629 54.1623 43.0725 47.5489 40.5061C41.8707 38.3188 33.4522 38.6351 28.8682 39.299C27.9889 39.4085 27.1183 39.5795 26.2629 39.8108C25.8182 39.9418 25.4198 40.1964 25.1139 40.5451C24.8081 40.8938 24.6072 41.3223 24.5348 41.7809C24.5055 41.962 24.4998 42.1463 24.5179 42.3289Z" fill="#5468FF"/>
<path d="M24.5181 42.3291V42.3822C24.5446 42.5561 24.5783 42.754 24.6265 42.9761C24.7012 43.2876 24.7928 43.6111 24.9013 43.9587C25.4821 45.8781 26.4462 48.5241 26.6582 53.5577C26.8318 57.7513 26.1208 63.4561 26.4365 68.6274C26.7522 73.7987 27.6416 81.0558 33.0619 84.9379C34.1098 85.7028 35.2668 86.3051 36.4939 86.7245C37.5749 87.1049 38.6837 87.4011 39.8102 87.6105C41.5722 87.9381 43.354 88.1478 45.1438 88.2382C46.2669 88.301 47.3924 88.3299 48.5011 88.342C50.7617 88.3613 52.9477 88.2937 54.871 88.2382L56.2857 88.202C56.8641 88.1875 57.5125 88.1537 58.2138 88.0982C59.9226 87.9678 61.9687 87.7264 64.1234 87.4029C65.2344 87.2363 66.3768 87.0456 67.5168 86.8428C73.853 85.6984 80.1169 84.0205 80.9122 82.5478C81.177 82.1207 81.2844 81.6143 81.2159 81.1162C81.2068 81.0408 81.1907 80.9664 81.1677 80.8941C81.1173 80.7416 81.0459 80.597 80.9556 80.4644C80.823 80.2688 77.8345 81.5339 77.5453 81.6449C70.2933 84.4261 60.3251 82.5092 59.1055 73.5862C58.0716 65.9838 58.3825 58.6518 55.6398 51.3149C50.2267 36.8633 28.8032 40.8202 24.5205 41.7739C24.4953 41.958 24.4945 42.1447 24.5181 42.3291Z" fill="#5468FF"/>
<path d="M69.628 36.9285C69.5581 36.9285 70.0497 31.6003 70.727 25.0433C71.4042 18.4862 72.0067 13.1749 72.0742 13.1821C72.1417 13.1894 71.6524 18.5104 70.9752 25.0674C70.298 31.6245 69.6954 36.9358 69.628 36.9285Z" fill="#5468FF"/>
<path d="M76.1642 14.4903C77.5392 14.4903 78.6538 14.4341 78.6538 14.3648C78.6538 14.2955 77.5392 14.2393 76.1642 14.2393C74.7892 14.2393 73.6746 14.2955 73.6746 14.3648C73.6746 14.4341 74.7892 14.4903 76.1642 14.4903Z" fill="#5468FF"/>
<path d="M99.8265 14.3648C99.8265 14.4348 95.3895 14.4903 89.9138 14.4903C84.438 14.4903 80.001 14.4348 80.001 14.3648C80.001 14.2948 84.438 14.2393 89.9138 14.2393C95.3895 14.2393 99.8265 14.2948 99.8265 14.3648Z" fill="#5468FF"/>
<path d="M75.5785 27.0616C76.9535 27.0616 78.0682 27.0054 78.0682 26.9361C78.0682 26.8668 76.9535 26.8105 75.5785 26.8105C74.2035 26.8105 73.0889 26.8668 73.0889 26.9361C73.0889 27.0054 74.2035 27.0616 75.5785 27.0616Z" fill="#5468FF"/>
<path d="M89.3283 27.0616C94.803 27.0616 99.2411 27.0054 99.2411 26.9361C99.2411 26.8668 94.803 26.8105 89.3283 26.8105C83.8536 26.8105 79.4155 26.8668 79.4155 26.9361C79.4155 27.0054 83.8536 27.0616 89.3283 27.0616Z" fill="#5468FF"/>
<path d="M92.4879 32.73C92.4879 32.8 88.0509 32.8556 82.5751 32.8556C77.0994 32.8556 72.6624 32.8 72.6624 32.73C72.6624 32.66 77.0994 32.6045 82.5751 32.6045C88.0509 32.6045 92.4879 32.6721 92.4879 32.73Z" fill="#5468FF"/>
<path d="M77.3451 18.0397C79.2792 18.0397 80.847 17.9835 80.847 17.9141C80.847 17.8448 79.2792 17.7886 77.3451 17.7886C75.4111 17.7886 73.8433 17.8448 73.8433 17.9141C73.8433 17.9835 75.4111 18.0397 77.3451 18.0397Z" fill="#5468FF"/>
<path d="M77.1691 23.2423C79.1032 23.2423 80.671 23.1861 80.671 23.1168C80.671 23.0474 79.1032 22.9912 77.1691 22.9912C75.2351 22.9912 73.6672 23.0474 73.6672 23.1168C73.6672 23.1861 75.2351 23.2423 77.1691 23.2423Z" fill="#5468FF"/>
<path d="M83.0886 30.6803C85.0226 30.6803 86.5904 30.6241 86.5904 30.5547C86.5904 30.4854 85.0226 30.4292 83.0886 30.4292C81.1545 30.4292 79.5867 30.4854 79.5867 30.5547C79.5867 30.6241 81.1545 30.6803 83.0886 30.6803Z" fill="#5468FF"/>
<path d="M97.3756 18.0397C102.315 18.0397 106.319 17.9835 106.319 17.9141C106.319 17.8448 102.315 17.7886 97.3756 17.7886C92.436 17.7886 88.4316 17.8448 88.4316 17.9141C88.4316 17.9835 92.436 18.0397 97.3756 18.0397Z" fill="#5468FF"/>
<path d="M91.8541 23.5441C96.7937 23.5441 100.798 23.4878 100.798 23.4185C100.798 23.3492 96.7937 23.293 91.8541 23.293C86.9145 23.293 82.9102 23.3492 82.9102 23.4185C82.9102 23.4878 86.9145 23.5441 91.8541 23.5441Z" fill="#5468FF"/>
<path d="M98.0093 30.6803C102.949 30.6803 106.953 30.6241 106.953 30.5547C106.953 30.4854 102.949 30.4292 98.0093 30.4292C93.0698 30.4292 89.0654 30.4854 89.0654 30.5547C89.0654 30.6241 93.0698 30.6803 98.0093 30.6803Z" fill="#5468FF"/>
<path d="M81.6785 35.8468C86.6181 35.8468 90.6225 35.7906 90.6225 35.7212C90.6225 35.6519 86.6181 35.5957 81.6785 35.5957C76.739 35.5957 72.7346 35.6519 72.7346 35.7212C72.7346 35.7906 76.739 35.8468 81.6785 35.8468Z" fill="#5468FF"/>
<path d="M101.458 35.8468C106.398 35.8468 110.402 35.7906 110.402 35.7212C110.402 35.6519 106.398 35.5957 101.458 35.5957C96.5187 35.5957 92.5144 35.6519 92.5144 35.7212C92.5144 35.7906 96.5187 35.8468 101.458 35.8468Z" fill="#5468FF"/>
<path d="M81.6761 37.9205C86.6157 37.9205 90.62 37.8643 90.62 37.795C90.62 37.7256 86.6157 37.6694 81.6761 37.6694C76.7365 37.6694 72.7322 37.7256 72.7322 37.795C72.7322 37.8643 76.7365 37.9205 81.6761 37.9205Z" fill="#5468FF"/>
<path d="M82.5462 19.5338C87.4858 19.5338 91.4901 19.4776 91.4901 19.4083C91.4901 19.3389 87.4858 19.2827 82.5462 19.2827C77.6066 19.2827 73.6023 19.3389 73.6023 19.4083C73.6023 19.4776 77.6066 19.5338 82.5462 19.5338Z" fill="#5468FF"/>
<path d="M84.4164 18.0587C85.6889 18.0587 86.7204 18.0025 86.7204 17.9332C86.7204 17.8638 85.6889 17.8076 84.4164 17.8076C83.1439 17.8076 82.1123 17.8638 82.1123 17.9332C82.1123 18.0025 83.1439 18.0587 84.4164 18.0587Z" fill="#5468FF"/>
<path d="M75.1786 28.7706C76.4511 28.7706 77.4826 28.7144 77.4826 28.6451C77.4826 28.5757 76.4511 28.5195 75.1786 28.5195C73.9061 28.5195 72.8745 28.5757 72.8745 28.6451C72.8745 28.7144 73.9061 28.7706 75.1786 28.7706Z" fill="#5468FF"/>
<path d="M75.0699 30.6803C76.3424 30.6803 77.374 30.6241 77.374 30.5547C77.374 30.4854 76.3424 30.4292 75.0699 30.4292C73.7974 30.4292 72.7659 30.4854 72.7659 30.5547C72.7659 30.6241 73.7974 30.6803 75.0699 30.6803Z" fill="#5468FF"/>
<path d="M112.47 11.9556C112.47 12.0256 106.141 12.0812 92.3914 12.0812C78.6418 12.0812 69.9124 12.0256 69.9124 11.9556C69.9124 11.8856 78.649 11.8301 92.4035 11.8301C106.158 11.8301 112.47 11.8856 112.47 11.9556Z" fill="#5468FF"/>
<path d="M149.815 54.7722L152.661 33.7683C152.7 33.623 152.705 33.4706 152.676 33.323C152.646 33.1754 152.583 33.0366 152.492 32.9173C152.4 32.798 152.282 32.7014 152.147 32.6351C152.013 32.5687 151.864 32.5344 151.714 32.5347H127.854C127.636 32.5343 127.425 32.6064 127.253 32.7398C127.081 32.8731 126.958 33.06 126.904 33.271L124.164 54.7577L149.815 54.7722Z" fill="#5468FF"/>
<path d="M126.887 33.2683L124.236 53.135H110.976V54.7743H150.169L152.685 33.7704C152.722 33.6257 152.725 33.4744 152.695 33.3282C152.664 33.182 152.6 33.0447 152.509 32.9268C152.417 32.8089 152.3 32.7136 152.166 32.6481C152.032 32.5826 151.885 32.5486 151.736 32.5488H127.832C127.618 32.5485 127.409 32.6187 127.238 32.7487C127.068 32.8787 126.944 33.0612 126.887 33.2683V33.2683Z" fill="#5468FF"/>
<path opacity="0.2" d="M126.887 33.2683L124.236 53.135H110.976V54.7743H150.169L152.685 33.7704C152.722 33.6257 152.725 33.4744 152.695 33.3282C152.664 33.182 152.6 33.0447 152.509 32.9268C152.417 32.8089 152.3 32.7136 152.166 32.6481C152.032 32.5826 151.885 32.5486 151.736 32.5488H127.832C127.618 32.5485 127.409 32.6187 127.238 32.7487C127.068 32.8787 126.944 33.0612 126.887 33.2683V33.2683Z" fill="#000D44"/>
<path d="M149.347 53.1931H125.458L127.772 33.4302H151.784L149.347 53.1931Z" fill="white"/>
<path opacity="0.1" d="M149.347 53.1931H125.458L127.772 33.4302H151.784L149.347 53.1931Z" fill="#5468FF"/>
<path d="M128.433 41.4344C128.779 38.0722 129.033 35.3438 129 35.3404C128.967 35.337 128.66 38.0598 128.313 41.422C127.967 44.7842 127.713 47.5125 127.746 47.516C127.779 47.5194 128.087 44.7966 128.433 41.4344Z" fill="#5468FF"/>
<path d="M131.105 36.0109C131.809 36.0109 132.38 35.9838 132.38 35.9505C132.38 35.9172 131.809 35.8901 131.105 35.8901C130.401 35.8901 129.83 35.9172 129.83 35.9505C129.83 35.9838 130.401 36.0109 131.105 36.0109Z" fill="#5468FF"/>
<path d="M138.155 36.0109C140.962 36.0109 143.238 35.9838 143.238 35.9505C143.238 35.9172 140.962 35.8901 138.155 35.8901C135.347 35.8901 133.072 35.9172 133.072 35.9505C133.072 35.9838 135.347 36.0109 138.155 36.0109Z" fill="#5468FF"/>
<path d="M130.804 42.4571C131.508 42.4571 132.079 42.4301 132.079 42.3968C132.079 42.3634 131.508 42.3364 130.804 42.3364C130.1 42.3364 129.529 42.3634 129.529 42.3968C129.529 42.4301 130.1 42.4571 130.804 42.4571Z" fill="#5468FF"/>
<path d="M137.853 42.4571C140.661 42.4571 142.936 42.4301 142.936 42.3968C142.936 42.3634 140.661 42.3364 137.853 42.3364C135.046 42.3364 132.771 42.3634 132.771 42.3968C132.771 42.4301 135.046 42.4571 137.853 42.4571Z" fill="#5468FF"/>
<path d="M134.39 45.4264C137.197 45.4264 139.473 45.3994 139.473 45.366C139.473 45.3327 137.197 45.3057 134.39 45.3057C131.583 45.3057 129.307 45.3327 129.307 45.366C129.307 45.3994 131.583 45.4264 134.39 45.4264Z" fill="#5468FF"/>
<path d="M131.71 37.8312C132.701 37.8312 133.505 37.8041 133.505 37.7708C133.505 37.7375 132.701 37.7104 131.71 37.7104C130.718 37.7104 129.914 37.7375 129.914 37.7708C129.914 37.8041 130.718 37.8312 131.71 37.8312Z" fill="#5468FF"/>
<path d="M131.619 40.4991C132.61 40.4991 133.414 40.4721 133.414 40.4388C133.414 40.4054 132.61 40.3784 131.619 40.3784C130.627 40.3784 129.823 40.4054 129.823 40.4388C129.823 40.4721 130.627 40.4991 131.619 40.4991Z" fill="#5468FF"/>
<path d="M134.653 44.3111C135.644 44.3111 136.448 44.2841 136.448 44.2508C136.448 44.2175 135.644 44.1904 134.653 44.1904C133.661 44.1904 132.857 44.2175 132.857 44.2508C132.857 44.2841 133.661 44.3111 134.653 44.3111Z" fill="#5468FF"/>
<path d="M141.98 37.8312C144.513 37.8312 146.566 37.8041 146.566 37.7708C146.566 37.7375 144.513 37.7104 141.98 37.7104C139.446 37.7104 137.393 37.7375 137.393 37.7708C137.393 37.8041 139.446 37.8312 141.98 37.8312Z" fill="#5468FF"/>
<path d="M139.147 40.6534C141.681 40.6534 143.734 40.6264 143.734 40.5931C143.734 40.5597 141.681 40.5327 139.147 40.5327C136.614 40.5327 134.561 40.5597 134.561 40.5931C134.561 40.6264 136.614 40.6534 139.147 40.6534Z" fill="#5468FF"/>
<path d="M142.305 44.3111C144.838 44.3111 146.891 44.2841 146.891 44.2508C146.891 44.2175 144.838 44.1904 142.305 44.1904C139.772 44.1904 137.718 44.2175 137.718 44.2508C137.718 44.2841 139.772 44.3111 142.305 44.3111Z" fill="#5468FF"/>
<path d="M133.93 47.5777C136.463 47.5777 138.516 47.5507 138.516 47.5174C138.516 47.4841 136.463 47.457 133.93 47.457C131.397 47.457 129.343 47.4841 129.343 47.5174C129.343 47.5507 131.397 47.5777 133.93 47.5777Z" fill="#5468FF"/>
<path d="M144.072 47.5777C146.605 47.5777 148.658 47.5507 148.658 47.5174C148.658 47.4841 146.605 47.457 144.072 47.457C141.539 47.457 139.485 47.4841 139.485 47.5174C139.485 47.5507 141.539 47.5777 144.072 47.5777Z" fill="#5468FF"/>
<path d="M144.072 49.7506C146.605 49.7506 148.658 49.7236 148.658 49.6902C148.658 49.6569 146.605 49.6299 144.072 49.6299C141.539 49.6299 139.485 49.6569 139.485 49.6902C139.485 49.7236 141.539 49.7506 144.072 49.7506Z" fill="#5468FF"/>
<path d="M134.431 50.4747C136.964 50.4747 139.017 50.4477 139.017 50.4144C139.017 50.381 136.964 50.354 134.431 50.354C131.898 50.354 129.844 50.381 129.844 50.4144C129.844 50.4477 131.898 50.4747 134.431 50.4747Z" fill="#5468FF"/>
<path d="M144.072 51.1988C146.605 51.1988 148.658 51.1718 148.658 51.1385C148.658 51.1051 146.605 51.0781 144.072 51.0781C141.539 51.0781 139.485 51.1051 139.485 51.1385C139.485 51.1718 141.539 51.1988 144.072 51.1988Z" fill="#5468FF"/>
<path d="M133.93 48.6422C136.463 48.6422 138.516 48.6152 138.516 48.5818C138.516 48.5485 136.463 48.5215 133.93 48.5215C131.397 48.5215 129.343 48.5485 129.343 48.5818C129.343 48.6152 131.397 48.6422 133.93 48.6422Z" fill="#5468FF"/>
<path d="M134.375 38.5968C136.909 38.5968 138.962 38.5698 138.962 38.5364C138.962 38.5031 136.909 38.4761 134.375 38.4761C131.842 38.4761 129.789 38.5031 129.789 38.5364C129.789 38.5698 131.842 38.5968 134.375 38.5968Z" fill="#5468FF"/>
<path d="M135.335 37.8409C135.987 37.8409 136.516 37.8139 136.516 37.7806C136.516 37.7472 135.987 37.7202 135.335 37.7202C134.683 37.7202 134.154 37.7472 134.154 37.7806C134.154 37.8139 134.683 37.8409 135.335 37.8409Z" fill="#5468FF"/>
<path d="M130.596 43.3307C131.249 43.3307 131.777 43.3037 131.777 43.2703C131.777 43.237 131.249 43.21 130.596 43.21C129.944 43.21 129.416 43.237 129.416 43.2703C129.416 43.3037 129.944 43.3307 130.596 43.3307Z" fill="#5468FF"/>
<path d="M130.541 44.3111C131.193 44.3111 131.722 44.2841 131.722 44.2508C131.722 44.2175 131.193 44.1904 130.541 44.1904C129.889 44.1904 129.36 44.2175 129.36 44.2508C129.36 44.2841 129.889 44.3111 130.541 44.3111Z" fill="#5468FF"/>
<path d="M150.892 34.3619C150.892 34.3957 148.884 34.4054 141.835 34.4054C134.785 34.4054 129.061 34.3788 129.061 34.345C129.061 34.3112 134.776 34.2847 141.835 34.2847C148.894 34.2847 150.892 34.3281 150.892 34.3619Z" fill="#5468FF"/>
<path d="M156.435 126.344H0.501221V129H156.435V126.344Z" fill="white"/>
<path opacity="0.2" d="M156.435 126.344H0.501221V129H156.435V126.344Z" fill="#5468FF"/>
</svg>
